<?xml version="1.0" encoding="UTF-8" standalone="no"?>
<!-- Created with Inkscape (http://www.inkscape.org/) -->

<svg
   xmlns:ns1="http://www.iki.fi/pav/software/textext/"
   xmlns:dc="http://purl.org/dc/elements/1.1/"
   xmlns:cc="http://creativecommons.org/ns#"
   xmlns:rdf="http://www.w3.org/1999/02/22-rdf-syntax-ns#"
   xmlns:svg="http://www.w3.org/2000/svg"
   xmlns="http://www.w3.org/2000/svg"
   xmlns:sodipodi="http://sodipodi.sourceforge.net/DTD/sodipodi-0.dtd"
   xmlns:inkscape="http://www.inkscape.org/namespaces/inkscape"
   version="1.1"
   id="svg2"
   xml:space="preserve"
   width="805.94348"
   height="575.30377"
   viewBox="0 0 805.94348 575.30378"
   sodipodi:docname="fuselage_isoview_c172.svg"
   inkscape:version="0.92.4 (5da689c313, 2019-01-14)"><metadata
     id="metadata8"><rdf:RDF><cc:Work
         rdf:about=""><dc:format>image/svg+xml</dc:format><dc:type
           rdf:resource="http://purl.org/dc/dcmitype/StillImage" /><dc:title></dc:title></cc:Work></rdf:RDF></metadata><defs
     id="defs6"><clipPath
       clipPathUnits="userSpaceOnUse"
       id="clipPath158"><path
         d="M 600,6417 Z"
         id="path156"
         inkscape:connector-curvature="0" /></clipPath><clipPath
       clipPathUnits="userSpaceOnUse"
       id="clipPath260"><path
         d="M 600,6417 Z"
         id="path258"
         inkscape:connector-curvature="0" /></clipPath></defs><sodipodi:namedview
     pagecolor="#ffffff"
     bordercolor="#666666"
     borderopacity="1"
     objecttolerance="10"
     gridtolerance="10"
     guidetolerance="10"
     inkscape:pageopacity="0"
     inkscape:pageshadow="2"
     inkscape:window-width="2161"
     inkscape:window-height="1334"
     id="namedview4"
     showgrid="false"
     inkscape:zoom="0.9561231"
     inkscape:cx="619.96081"
     inkscape:cy="199.32249"
     inkscape:window-x="1267"
     inkscape:window-y="0"
     inkscape:window-maximized="0"
     inkscape:current-layer="g10"
     fit-margin-top="5"
     fit-margin-left="5"
     fit-margin-right="5"
     fit-margin-bottom="5" /><g
     id="g10"
     inkscape:groupmode="layer"
     inkscape:label="fuselage_isoview_c172"
     transform="matrix(1.3333333,0,0,-1.3333333,44.748932,1162.6406)"><g
       id="g152"
       transform="scale(0.12)"><g
         clip-path="url(#clipPath158)"
         id="g154"><g
           transform="matrix(685,0,0,-4,-176.1,5290.9)"
           id="g160"><rect
             id="rect162"
             style="fill:#000000;fill-opacity:1;fill-rule:nonzero"
             transform="matrix(1,0,0,-1,0,1)"
             height="1"
             width="1"
             y="0"
             x="0" /></g></g></g><path
       inkscape:connector-curvature="0"
       id="path14"
       style="fill:none;stroke:#243577;stroke-width:3.20316601;stroke-linecap:round;stroke-linejoin:round;stroke-miterlimit:10;stroke-dasharray:none;stroke-opacity:1"
       d="M -5.7885689,465.62792 112.9062,506.35572" /><path
       inkscape:connector-curvature="0"
       id="path16"
       style="fill:none;stroke:#243577;stroke-width:3.20316601;stroke-linecap:round;stroke-linejoin:round;stroke-miterlimit:10;stroke-dasharray:none;stroke-opacity:1"
       d="m 76.879761,489.19118 c 1.102072,3.26043 36.195869,17.00121 36.829329,17.48203 -0.79526,-0.002 -39.941688,-11.1764 -42.548805,-9.42408" /><path
       inkscape:connector-curvature="0"
       id="path18"
       style="fill:#f4efef;fill-opacity:1;fill-rule:evenodd;stroke:none;stroke-width:0.15264146"
       d="m 386.92512,686.50624 c 2.82845,-12.65857 6.01254,-24.55544 10.92302,-37.90241 1.35698,-3.70461 4.90131,-4.64641 6.4491,-2.12935 1.35698,5.6569 7.86866,27.69833 8.42581,31.35103 0.10379,0.67773 -1.41804,2.48805 -1.38904,2.65902 -1.67753,1.37224 -18.24219,9.21801 -22.57262,10.83144 -1.5951,0.18774 -2.44989,-3.54129 -1.83627,-4.80973" /><path
       inkscape:connector-curvature="0"
       id="path20"
       style="fill:none;stroke:#000000;stroke-width:0.94210929;stroke-linecap:butt;stroke-linejoin:round;stroke-miterlimit:10;stroke-dasharray:0.94210925, 0.94210925;stroke-dashoffset:0;stroke-opacity:1"
       d="m 386.92512,686.50624 c 2.82845,-12.65857 6.01254,-24.55544 10.92302,-37.90241 1.35698,-3.70461 4.90131,-4.64641 6.4491,-2.12935 1.35698,5.6569 7.86866,27.69833 8.42581,31.35103 0.10379,0.67773 -1.41804,2.48805 -1.38904,2.65902 -1.67753,1.37224 -18.24219,9.21801 -22.57262,10.83144 -1.5951,0.18774 -2.44989,-3.54129 -1.83627,-4.80973 z" /><path
       inkscape:connector-curvature="0"
       id="path22"
       style="fill:none;stroke:#000000;stroke-width:0.7536872;stroke-linecap:butt;stroke-linejoin:miter;stroke-miterlimit:10;stroke-dasharray:none;stroke-opacity:1"
       d="m 225.92041,539.87731 c -14.27655,-9.83622 -48.97806,-27.31519 -61.0459,-21.63235" /><path
       inkscape:connector-curvature="0"
       id="path24"
       style="fill:none;stroke:#000000;stroke-width:0.7536872;stroke-linecap:butt;stroke-linejoin:miter;stroke-miterlimit:10;stroke-dasharray:none;stroke-opacity:1"
       d="m 133.2991,546.62407 c 6.72538,1.36919 36.35767,-13.43399 40.16913,-18.56274 4.84484,-6.51932 1.40582,-18.65278 -7.59849,-24.62412" /><path
       inkscape:connector-curvature="0"
       id="path26"
       style="fill:none;stroke:#000000;stroke-width:0.7536872;stroke-linecap:round;stroke-linejoin:miter;stroke-miterlimit:10;stroke-dasharray:none;stroke-opacity:1"
       d="m 171.33888,584.65774 c 11.44812,1.0578 35.96691,-12.63108 46.1542,-21.04926 7.33595,-6.06292 9.47904,-8.80741 8.93869,-19.41294 -0.75863,-14.90239 -2.73839,-27.30451 -6.54375,-32.25314" /><path
       inkscape:connector-curvature="0"
       id="path28"
       style="fill:none;stroke:#000000;stroke-width:0.7536872;stroke-linecap:butt;stroke-linejoin:miter;stroke-miterlimit:10;stroke-dasharray:none;stroke-opacity:1"
       d="m 257.64695,541.91202 c 0,1.90344 0.98453,52.17896 0.98453,52.17896" /><path
       inkscape:connector-curvature="0"
       id="path30"
       style="fill:none;stroke:#000000;stroke-width:0.7536872;stroke-linecap:round;stroke-linejoin:round;stroke-miterlimit:10;stroke-dasharray:none;stroke-opacity:1"
       d="M 315.58507,639.75825 C 298.7304,633.35799 257.30198,616.61476 254.20641,612.3698" /><path
       inkscape:connector-curvature="0"
       id="path32"
       style="fill:#c8c8c8;fill-opacity:1;fill-rule:evenodd;stroke:none;stroke-width:0.15264146"
       d="m 218.83633,638.99505 c 4.83874,2.30336 14.03691,5.49204 19.91208,7.81982 2.62543,0.99064 13.63089,0.48387 8.61966,-3.79009 -7.21079,-2.91087 -14.87491,-7.34357 -23.47015,-10.10639 -13.96974,0.39382 -6.96503,5.94997 -5.06159,6.07666" /><path
       inkscape:connector-curvature="0"
       id="path34"
       style="fill:none;stroke:#000000;stroke-width:0.7536872;stroke-linecap:butt;stroke-linejoin:miter;stroke-miterlimit:10;stroke-dasharray:none;stroke-opacity:1"
       d="m 218.83633,638.99505 c 4.83874,2.30336 14.03691,5.49204 19.91208,7.81982 2.62543,0.99064 13.63089,0.48387 8.61966,-3.79009 -7.21079,-2.91087 -14.87491,-7.34357 -23.47015,-10.10639 -13.96974,0.39382 -6.96503,5.94997 -5.06159,6.07666 z" /><path
       inkscape:connector-curvature="0"
       id="path36"
       style="fill:none;stroke:#000000;stroke-width:2.35527325;stroke-linecap:round;stroke-linejoin:round;stroke-miterlimit:10;stroke-dasharray:none;stroke-opacity:1"
       d="m 141.76002,512.32553 c 7.35732,-5.11044 13.66751,-8.41513 22.16659,-10.67117 6.99861,-1.69126 13.73621,-1.53404 20.99584,-0.31597 24.37226,4.08926 49.88628,16.05025 72.0483,26.48788 26.43903,12.45097 36.15771,17.06989 46.68081,24.57832 27.89217,19.90904 47.96605,43.74705 73.19311,66.87834 l 37.41396,35.12738 62.24718,58.33042 c 8.20906,7.41226 10.56431,12.61428 4.02363,10.691 -7.95872,-2.37205 -91.04911,-31.12359 -136.5729,-46.68691 l -31.79369,-11.49239 -32.0425,1.04407 c -5.27986,-0.19996 -40.98882,-11.62059 -56.65288,-18.48335 -15.66254,-6.85971 -25.01184,-9.36762 -30.14822,-16.28074 -11.29547,-12.36091 -19.73501,-29.66892 -26.46192,-44.31335 -12.52882,-10.8528 -22.39251,-22.46577 -35.4922,-37.12393 -5.37755,-7.36953 -3.71376,-18.16434 0.42435,-24.38906" /><path
       inkscape:connector-curvature="0"
       id="path38"
       style="fill:#c8c8c8;fill-opacity:1;fill-rule:evenodd;stroke:none;stroke-width:0.15264146"
       d="m 265.73542,605.92527 c -1.96297,-0.96011 -2.99788,-2.09423 -2.99788,-4.71357 v -21.54534 c 0.0962,-1.91565 1.09597,-1.79659 2.71243,-1.41651 l 23.06871,12.89515 c 1.8607,1.04102 1.3631,3.56571 1.3921,6.74981 v 13.55151 c 0,2.3522 -0.0305,6.30256 -3.84657,4.4327 l -20.32879,-9.95375" /><path
       inkscape:connector-curvature="0"
       id="path40"
       style="fill:none;stroke:#000000;stroke-width:1.13053131;stroke-linecap:butt;stroke-linejoin:miter;stroke-miterlimit:10;stroke-dasharray:none;stroke-opacity:1"
       d="m 265.73542,605.92527 c -1.96297,-0.96011 -2.99788,-2.09423 -2.99788,-4.71357 v -21.54534 c 0.0962,-1.91565 1.09597,-1.79659 2.71243,-1.41651 l 23.06871,12.89515 c 1.8607,1.04102 1.3631,3.56571 1.3921,6.74981 v 13.55151 c 0,2.3522 -0.0305,6.30256 -3.84657,4.4327 z" /><path
       inkscape:connector-curvature="0"
       id="path42"
       style="fill:#c8c8c8;fill-opacity:1;fill-rule:evenodd;stroke:none;stroke-width:0.15264146"
       d="m 242.26679,627.90412 c 4.84027,2.30184 13.27676,7.01387 19.15193,9.34166 2.6239,0.99064 14.20329,0.29306 9.19054,-3.97936 -7.21078,-2.9124 -14.68411,-8.67614 -23.27935,-11.43896 -13.96974,0.39382 -6.96503,5.94844 -5.06312,6.07666" /><path
       inkscape:connector-curvature="0"
       id="path44"
       style="fill:none;stroke:#000000;stroke-width:0.7536872;stroke-linecap:butt;stroke-linejoin:miter;stroke-miterlimit:10;stroke-dasharray:none;stroke-opacity:1"
       d="m 242.26679,627.90412 c 4.84027,2.30184 13.27676,7.01387 19.15193,9.34166 2.6239,0.99064 14.20329,0.29306 9.19054,-3.97936 -7.21078,-2.9124 -14.68411,-8.67614 -23.27935,-11.43896 -13.96974,0.39382 -6.96503,5.94844 -5.06312,6.07666 z" /><path
       inkscape:connector-curvature="0"
       id="path46"
       style="fill:none;stroke:#000000;stroke-width:2.35527325;stroke-linecap:butt;stroke-linejoin:miter;stroke-miterlimit:10;stroke-dasharray:none;stroke-opacity:1"
       d="m 128.45426,514.22438 c 8.94326,-1.90344 22.16049,-3.5596 26.69242,1.86224 5.09059,6.08734 -4.67388,20.47379 -11.13368,20.67528 -5.98048,-1.32798 -15.01381,-12.90889 -15.55874,-22.53752 z" /><path
       inkscape:connector-curvature="0"
       id="path48"
       style="fill:none;stroke:#000000;stroke-width:0.7536872;stroke-linecap:butt;stroke-linejoin:miter;stroke-miterlimit:10;stroke-dasharray:none;stroke-opacity:1"
       d="m 153.6691,514.722 c 12.01899,-2.47279 17.00426,4.32432 1.61801,11.32447" /><path
       inkscape:connector-curvature="0"
       id="path50"
       style="fill:none;stroke:#000000;stroke-width:0.7536872;stroke-linecap:butt;stroke-linejoin:miter;stroke-miterlimit:10;stroke-dasharray:none;stroke-opacity:1"
       d="m 133.64407,527.71942 c -2.88339,3.6176 -3.20547,9.46224 4.85247,5.33024" /><path
       inkscape:connector-curvature="0"
       id="path52"
       style="fill:#c8c8c8;fill-opacity:1;fill-rule:evenodd;stroke:none;stroke-width:0.15264146"
       d="m 280.27757,664.37017 c 3.02841,-0.0672 31.42582,-1.14482 31.42582,-1.14482 l 14.73755,-5.4493 -27.25415,-0.13585 -18.90922,6.72997" /><path
       inkscape:connector-curvature="0"
       id="path54"
       style="fill:none;stroke:#000000;stroke-width:0.7536872;stroke-linecap:butt;stroke-linejoin:miter;stroke-miterlimit:10;stroke-dasharray:none;stroke-opacity:1"
       d="m 280.27757,664.37017 c 3.02841,-0.0672 31.42582,-1.14482 31.42582,-1.14482 l 14.73755,-5.4493 -27.25415,-0.13585 z" /><path
       inkscape:connector-curvature="0"
       id="path56"
       style="fill:#c8c8c8;fill-opacity:1;fill-rule:evenodd;stroke:none;stroke-width:0.15264146"
       d="m 307.33022,655.08346 c 0.40297,-0.0672 21.21106,1.52641 23.75406,0.33733 21.13017,-9.89269 15.00619,-16.15098 12.11363,-22.14064 -3.63439,1.00896 -19.17939,8.81505 -19.17939,8.81505 0,0 6.19113,2.08661 -9.01806,9.55688 -4.97764,2.45447 -5.7897,2.04539 -7.67024,3.43138" /><path
       inkscape:connector-curvature="0"
       id="path58"
       style="fill:none;stroke:#000000;stroke-width:0.7536872;stroke-linecap:butt;stroke-linejoin:miter;stroke-miterlimit:10;stroke-dasharray:none;stroke-opacity:1"
       d="m 307.33022,655.08346 c 0.40297,-0.0672 21.21106,1.52641 23.75406,0.33733 21.13017,-9.89269 15.00619,-16.15098 12.11363,-22.14064 -3.63439,1.00896 -19.17939,8.81505 -19.17939,8.81505 0,0 6.19113,2.08661 -9.01806,9.55688 -4.97764,2.45447 -5.7897,2.04539 -7.67024,3.43138 z" /><path
       inkscape:connector-curvature="0"
       id="path60"
       style="fill:#c8c8c8;fill-opacity:1;fill-rule:evenodd;stroke:none;stroke-width:0.15264146"
       d="m 199.88436,633.13667 c -9.69731,-7.98773 -19.74875,-23.81665 -28.73781,-44.85522 15.97088,1.75079 46.13589,-15.7236 52.91317,-22.55889 8.8761,-3.77787 22.3696,2.86661 29.09957,6.58953 l 1.07612,24.22573 c 0.37703,6.29036 -0.0946,11.04209 -4.71051,15.34353 l -49.64054,21.25532" /><path
       inkscape:connector-curvature="0"
       id="path62"
       style="fill:none;stroke:#000000;stroke-width:1.13053131;stroke-linecap:round;stroke-linejoin:round;stroke-miterlimit:10;stroke-dasharray:none;stroke-opacity:1"
       d="m 199.88436,633.13667 c -9.69731,-7.98773 -19.74875,-23.81665 -28.73781,-44.85522 15.97088,1.75079 46.13589,-15.7236 52.91317,-22.55889 8.8761,-3.77787 22.3696,2.86661 29.09957,6.58953 l 1.07612,24.22573 c 0.37703,6.29036 -0.0946,11.04209 -4.71051,15.34353 z" /><path
       inkscape:connector-curvature="0"
       id="path64"
       style="fill:#c8c8c8;fill-opacity:1;fill-rule:evenodd;stroke:none;stroke-width:0.15264146"
       d="m 299.85994,622.52961 c -2.00112,-0.92348 -2.99787,-2.90324 -2.99787,-4.71357 V 599.177 c 0.0962,-1.91566 1.09443,-1.7966 2.71243,-1.41652 l 34.83127,22.85501 c 2.43463,1.73859 7.5939,5.6569 3.14288,6.74827 l -10.58873,2.59644 c -2.9872,0.73268 -6.10566,2.48042 -9.54468,0.66552 l -17.5553,-8.09611" /><path
       inkscape:connector-curvature="0"
       id="path66"
       style="fill:none;stroke:#000000;stroke-width:1.13053131;stroke-linecap:butt;stroke-linejoin:miter;stroke-miterlimit:10;stroke-dasharray:none;stroke-opacity:1"
       d="m 299.85994,622.52961 c -2.00112,-0.92348 -2.99787,-2.90324 -2.99787,-4.71357 V 599.177 c 0.0962,-1.91566 1.09443,-1.7966 2.71243,-1.41652 l 34.83127,22.85501 c 2.43463,1.73859 7.5939,5.6569 3.14288,6.74827 l -10.58873,2.59644 c -2.9872,0.73268 -6.10566,2.48042 -9.54468,0.66552 z" /><path
       inkscape:connector-curvature="0"
       id="path68"
       style="fill:none;stroke:#000000;stroke-width:0.7536872;stroke-linecap:butt;stroke-linejoin:miter;stroke-miterlimit:10;stroke-dasharray:none;stroke-opacity:1"
       d="m 293.55433,559.9283 v 52.17895" /><path
       inkscape:connector-curvature="0"
       id="path70"
       style="fill:none;stroke:#000000;stroke-width:1.88422155;stroke-linecap:round;stroke-linejoin:round;stroke-miterlimit:10;stroke-dasharray:15.07375724, 3.76844312, 1.88422157, 3.76844312;stroke-dashoffset:0;stroke-opacity:1"
       d="M 557.41495,753.18307 4.7943695,445.36019" /><path
       inkscape:connector-curvature="0"
       id="path72"
       style="fill:none;stroke:#243577;stroke-width:2.8263247;stroke-linecap:round;stroke-linejoin:round;stroke-miterlimit:10;stroke-dasharray:none;stroke-opacity:1"
       d="m 523.10267,733.88768 40.66521,22.43981" /><path
       inkscape:connector-curvature="0"
       id="path74"
       style="fill:none;stroke:#243577;stroke-width:3.20316601;stroke-linecap:round;stroke-linejoin:round;stroke-miterlimit:10;stroke-dasharray:none;stroke-opacity:1"
       d="m 559.1917,749.4632 c -0.5083,1.44399 5.81411,7.25963 6.35293,7.84577 -0.78304,-0.145 -9.073,-2.39341 -10.02396,-1.19365" /><path
       inkscape:connector-curvature="0"
       id="path76"
       style="fill:none;stroke:#000000;stroke-width:1.4131639;stroke-linecap:round;stroke-linejoin:round;stroke-miterlimit:10;stroke-dasharray:8.4789894, 2.82632471;stroke-dashoffset:0;stroke-opacity:1"
       d="M 147.72219,459.10708 V 708.74457" /><path
       inkscape:connector-curvature="0"
       id="path78"
       style="fill:none;stroke:#243577;stroke-width:2.8263247;stroke-linecap:round;stroke-linejoin:round;stroke-miterlimit:10;stroke-dasharray:none;stroke-opacity:1"
       d="m 147.72219,702.63433 v 55.48976" /><path
       inkscape:connector-curvature="0"
       id="path80"
       style="fill:none;stroke:#243577;stroke-width:3.20316601;stroke-linecap:round;stroke-linejoin:round;stroke-miterlimit:10;stroke-dasharray:none;stroke-opacity:1"
       d="m 151.52144,750.80187 c -1.50962,0.25338 -3.54739,8.5983 -3.79925,9.35235 -0.25033,-0.75405 -2.28962,-9.09897 -3.79924,-9.35235" /><path
       inkscape:connector-curvature="0"
       id="path82"
       style="fill:none;stroke:#000000;stroke-width:1.4131639;stroke-linecap:round;stroke-linejoin:round;stroke-miterlimit:10;stroke-dasharray:8.4789894, 2.82632471;stroke-dashoffset:0;stroke-opacity:1"
       d="M 247.00784,480.38988 76.594322,556.68771" /><path
       inkscape:connector-curvature="0"
       id="path84"
       style="fill:none;stroke:#243577;stroke-width:2.8263247;stroke-linecap:round;stroke-linejoin:round;stroke-miterlimit:10;stroke-dasharray:none;stroke-opacity:1"
       d="M 99.786666,546.44395 57.020343,564.56249" /><path
       inkscape:connector-curvature="0"
       id="path86"
       style="fill:none;stroke:#243577;stroke-width:3.20316601;stroke-linecap:round;stroke-linejoin:round;stroke-miterlimit:10;stroke-dasharray:none;stroke-opacity:1"
       d="m 65.245429,565.20358 c -0.822738,-1.29135 -9.301361,0.0885 -10.093723,0.15111 0.596218,-0.52661 7.48508,-5.65841 7.129425,-7.14666" /><path
       inkscape:connector-curvature="0"
       id="path88"
       style="fill:none;stroke:#767676;stroke-width:0.7536872;stroke-linecap:round;stroke-linejoin:round;stroke-miterlimit:10;stroke-dasharray:none;stroke-opacity:1"
       d="m 245.75923,606.41067 c -11.11536,-18.40855 -18.80543,-30.35428 -20.32116,-36.03407 -1.30508,1.03339 -2.08508,2.05914 -3.16731,2.47585 3.05588,4.89826 9.75531,13.17601 23.48847,33.55822 z" /><path
       inkscape:connector-curvature="0"
       id="path90"
       style="fill:none;stroke:#767676;stroke-width:0.7536872;stroke-linecap:round;stroke-linejoin:round;stroke-miterlimit:10;stroke-dasharray:none;stroke-opacity:1"
       d="m 327.83302,644.64432 c 8.50672,-1.12498 13.00201,-2.03472 16.34485,-3.57183 0.0901,1.26083 0.19081,1.90803 -0.99675,2.94294 -2.49569,0.18622 -6.21556,0.0183 -15.3481,0.62889 z" /><path
       inkscape:connector-curvature="0"
       id="path92"
       style="fill:none;stroke:#000000;stroke-width:0.94210929;stroke-linecap:butt;stroke-linejoin:miter;stroke-miterlimit:10;stroke-dasharray:3.76844312, 1.88422157;stroke-dashoffset:0;stroke-opacity:1"
       d="m 293.55433,621.79694 v 59.71639" /><path
       inkscape:connector-curvature="0"
       id="path94"
       style="fill:none;stroke:#000000;stroke-width:0.94210929;stroke-linecap:butt;stroke-linejoin:miter;stroke-miterlimit:10;stroke-dasharray:3.76844312, 1.88422157;stroke-dashoffset:0;stroke-opacity:1"
       d="m 241.85619,657.22044 v 48.41024" /><path
       inkscape:connector-curvature="0"
       id="path96"
       style="fill:none;stroke:#243577;stroke-width:1.4131639;stroke-linecap:round;stroke-linejoin:round;stroke-miterlimit:10;stroke-dasharray:none;stroke-opacity:1"
       d="M 293.14677,674.66278 242.5156,697.66432" /><path
       inkscape:connector-curvature="0"
       id="path98"
       style="fill:none;stroke:#243577;stroke-width:1.64869571;stroke-linecap:round;stroke-linejoin:round;stroke-miterlimit:10;stroke-dasharray:none;stroke-opacity:1"
       d="m 254.31173,695.6235 c -4.1549,-1.19518 -11.42216,2.13698 -12.21437,2.20416 0.59225,-0.5312 7.9862,-3.6344 9.8408,-7.81373" /><path
       inkscape:connector-curvature="0"
       id="path100"
       style="fill:none;stroke:#243577;stroke-width:1.64869571;stroke-linecap:round;stroke-linejoin:round;stroke-miterlimit:10;stroke-dasharray:none;stroke-opacity:1"
       d="m 280.97056,676.78907 c 4.1549,1.19519 11.42064,-2.13698 12.21284,-2.20414 -0.59225,0.52967 -7.98619,3.6344 -9.83926,7.81372" /><path
       inkscape:connector-curvature="0"
       id="path102"
       style="fill:none;stroke:#000000;stroke-width:0.94210929;stroke-linecap:round;stroke-linejoin:round;stroke-miterlimit:10;stroke-dasharray:3.76844312, 1.88422157;stroke-dashoffset:0;stroke-opacity:1"
       d="M 368.61271,582.12389 267.54422,627.13022" /><path
       inkscape:connector-curvature="0"
       id="path104"
       style="fill:none;stroke:#000000;stroke-width:0.94210929;stroke-linecap:round;stroke-linejoin:round;stroke-miterlimit:10;stroke-dasharray:3.76844312, 1.88422157;stroke-dashoffset:0;stroke-opacity:1"
       d="M 368.13648,493.33235 273.1599,536.24597" /><path
       inkscape:connector-curvature="0"
       id="path106"
       style="fill:none;stroke:#243577;stroke-width:1.4131639;stroke-linecap:round;stroke-linejoin:round;stroke-miterlimit:10;stroke-dasharray:none;stroke-opacity:1"
       d="m 361.2325,498.40767 v 83.0797" /><path
       inkscape:connector-curvature="0"
       id="path108"
       style="fill:none;stroke:#243577;stroke-width:1.64869571;stroke-linecap:round;stroke-linejoin:round;stroke-miterlimit:10;stroke-dasharray:none;stroke-opacity:1"
       d="m 364.30212,572.57464 c -2.79487,3.29858 -2.78112,11.29242 -3.0452,12.04189 -0.23964,-0.7571 0.005,-8.63493 -3.04519,-12.04189" /><path
       inkscape:connector-curvature="0"
       id="path110"
       style="fill:none;stroke:#243577;stroke-width:1.64869571;stroke-linecap:round;stroke-linejoin:round;stroke-miterlimit:10;stroke-dasharray:none;stroke-opacity:1"
       d="m 364.30212,509.04832 c -2.79487,-3.29859 -2.78112,-11.29242 -3.0452,-12.04189 -0.23964,0.7571 0.005,8.63492 -3.04519,12.04189" /><path
       inkscape:connector-curvature="0"
       id="path112"
       style="fill:none;stroke:#767676;stroke-width:0.7536872;stroke-linecap:round;stroke-linejoin:round;stroke-miterlimit:10;stroke-dasharray:none;stroke-opacity:1"
       d="m 478.32225,718.75327 c -48.42856,-27.44036 -103.88016,-59.70113 -130.21692,-72.83746 1.55084,-0.81663 2.4209,-2.32472 2.46669,-3.94425 19.00234,11.85261 79.62084,46.92656 127.75023,76.78171 z" /><path
       inkscape:connector-curvature="0"
       id="path114"
       style="fill:none;stroke:#000000;stroke-width:0.94210929;stroke-linecap:round;stroke-linejoin:round;stroke-miterlimit:10;stroke-dasharray:3.76844312, 1.88422157;stroke-dashoffset:0;stroke-opacity:1"
       d="m 412.06822,682.80162 v 51.42644" /><path
       inkscape:connector-curvature="0"
       id="path116"
       style="fill:none;stroke:#000000;stroke-width:0.94210929;stroke-linecap:round;stroke-linejoin:round;stroke-miterlimit:10;stroke-dasharray:3.76844312, 1.88422157;stroke-dashoffset:0;stroke-opacity:1"
       d="m 387.27313,694.70308 v 50.67238" /><path
       inkscape:connector-curvature="0"
       id="path118"
       style="fill:none;stroke:#243577;stroke-width:1.4131639;stroke-linecap:round;stroke-linejoin:round;stroke-miterlimit:10;stroke-dasharray:none;stroke-opacity:1"
       d="m 433.90358,716.21484 -65.5702,29.73151" /><path
       inkscape:connector-curvature="0"
       id="path120"
       style="fill:none;stroke:#243577;stroke-width:1.64869571;stroke-linecap:round;stroke-linejoin:round;stroke-miterlimit:10;stroke-dasharray:none;stroke-opacity:1"
       d="m 425.48388,723.31266 c -4.1549,-1.19518 -11.42064,2.13699 -12.21285,2.20568 0.59225,-0.5312 7.9862,-3.63592 9.8408,-7.81524" /><path
       inkscape:connector-curvature="0"
       id="path122"
       style="fill:none;stroke:#243577;stroke-width:1.64869571;stroke-linecap:round;stroke-linejoin:round;stroke-miterlimit:10;stroke-dasharray:none;stroke-opacity:1"
       d="m 374.75653,739.74147 c 4.15491,1.19365 11.42064,-2.13698 12.21285,-2.20567 -0.59224,0.53119 -7.98468,3.63592 -9.84079,7.81525" /><path
       inkscape:connector-curvature="0"
       id="path124"
       style="fill:none;stroke:#000000;stroke-width:0.94210929;stroke-linecap:round;stroke-linejoin:miter;stroke-miterlimit:10;stroke-dasharray:3.76844312, 1.88422157;stroke-dashoffset:0;stroke-opacity:1"
       d="m 471.19695,655.63603 -54.99367,23.87311" /><path
       inkscape:connector-curvature="0"
       id="path126"
       style="fill:none;stroke:#000000;stroke-width:0.94210929;stroke-linecap:round;stroke-linejoin:round;stroke-miterlimit:10;stroke-dasharray:3.76844312, 1.88422157;stroke-dashoffset:0;stroke-opacity:1"
       d="m 469.89339,611.80044 -67.68734,31.84254" /><path
       inkscape:connector-curvature="0"
       id="path128"
       style="fill:none;stroke:#243577;stroke-width:1.4131639;stroke-linecap:round;stroke-linejoin:round;stroke-miterlimit:10;stroke-dasharray:none;stroke-opacity:1"
       d="m 458.51702,621.36343 v 35.59752" /><path
       inkscape:connector-curvature="0"
       id="path130"
       style="fill:none;stroke:#243577;stroke-width:1.64869571;stroke-linecap:round;stroke-linejoin:round;stroke-miterlimit:10;stroke-dasharray:none;stroke-opacity:1"
       d="m 461.58511,648.04974 c -2.79487,3.29706 -2.78113,11.29089 -3.04368,12.04188 -0.24117,-0.75863 0.005,-8.63492 -3.04519,-12.04188" /><path
       inkscape:connector-curvature="0"
       id="path132"
       style="fill:none;stroke:#243577;stroke-width:1.64869571;stroke-linecap:round;stroke-linejoin:round;stroke-miterlimit:10;stroke-dasharray:none;stroke-opacity:1"
       d="m 461.58511,629.74345 c -2.79487,-3.29858 -2.78113,-11.29242 -3.04368,-12.04189 -0.24117,0.75711 0.005,8.63493 -3.04519,12.04189" /><path
       inkscape:connector-curvature="0"
       id="path134"
       style="fill:none;stroke:#000000;stroke-width:0.94210929;stroke-linecap:butt;stroke-linejoin:miter;stroke-miterlimit:10;stroke-dasharray:3.76844312, 1.88422157;stroke-dashoffset:0;stroke-opacity:1"
       d="M 484.52559,725.60993 V 868.23048" /><path
       inkscape:connector-curvature="0"
       id="path136"
       style="fill:none;stroke:#243577;stroke-width:1.4131639;stroke-linecap:round;stroke-linejoin:round;stroke-miterlimit:10;stroke-dasharray:none;stroke-opacity:1"
       d="M 483.18387,863.48181 148.97538,676.95393" /><path
       inkscape:connector-curvature="0"
       id="path138"
       style="fill:none;stroke:#243577;stroke-width:1.64869571;stroke-linecap:round;stroke-linejoin:round;stroke-miterlimit:10;stroke-dasharray:none;stroke-opacity:1"
       d="m 157.39813,685.18131 c -1.54014,-4.0389 -8.56928,-7.84731 -9.09895,-8.44108 0.78,0.1557 7.70381,4.20222 12.15942,3.17494" /><path
       inkscape:connector-curvature="0"
       id="path140"
       style="fill:none;stroke:#243577;stroke-width:1.64869571;stroke-linecap:round;stroke-linejoin:round;stroke-miterlimit:10;stroke-dasharray:none;stroke-opacity:1"
       d="m 474.88934,855.47271 c 1.54015,4.03889 8.56777,7.84882 9.09896,8.44107 -0.78,-0.1557 -7.70382,-4.20222 -12.15942,-3.17342" /><path
       inkscape:connector-curvature="0"
       id="path142"
       style="fill:none;stroke:#000000;stroke-width:0.94210929;stroke-linecap:round;stroke-linejoin:round;stroke-miterlimit:10;stroke-dasharray:3.76844312, 1.88422157;stroke-dashoffset:0;stroke-opacity:1"
       d="m 38.681234,444.77557 80.819076,64.49408" /><path
       inkscape:connector-curvature="0"
       id="path144"
       style="fill:none;stroke:#000000;stroke-width:0.94210929;stroke-linecap:round;stroke-linejoin:round;stroke-miterlimit:10;stroke-dasharray:2.82632471, 2.82632471;stroke-dashoffset:0;stroke-opacity:1"
       d="M 38.481578,464.10456 V 444.72367 L -6.7396779,465.07383" /><path
       inkscape:connector-curvature="0"
       id="path146"
       style="fill:#000000;fill-opacity:1;fill-rule:nonzero;stroke:none;stroke-width:0.15264146"
       d="m 58.318559,493.36746 c -1.264177,-6.78034 -1.965412,-13.63546 -2.52179,-20.50433 -0.854945,6.00949 -2.096377,11.94114 -3.369408,17.87126 l 2.910873,-1.25624 2.980325,3.88931" /><path
       inkscape:connector-curvature="0"
       id="path148"
       style="fill:none;stroke:#000000;stroke-width:0.7536872;stroke-linecap:round;stroke-linejoin:round;stroke-miterlimit:10;stroke-dasharray:none;stroke-opacity:1"
       d="M 7.8728426,489.02786 C 23.014724,476.13118 35.975511,468.05339 57.006605,459.55737 c -1.441699,9.71715 -2.052264,24.92177 -1.389801,48.54915" /><path
       inkscape:connector-curvature="0"
       id="path150"
       style="fill:#000000;fill-opacity:1;fill-rule:nonzero;stroke:none;stroke-width:0.15264146"
       d="m 17.379506,484.20134 c 2.746935,-3.99922 4.306779,-5.23103 7.596202,-8.78757 -2.177429,1.15854 -5.158213,2.75823 -6.926564,3.71682 -2.97773,1.42567 -3.756507,1.62716 -6.102758,2.66053 l 3.998443,0.75863 1.434677,1.65159" /><path
       inkscape:connector-curvature="0"
       id="path190"
       style="fill:#ffffff;fill-opacity:1;fill-rule:nonzero;stroke:none;stroke-width:0.15264146"
       d="m 299.72715,768.29458 v 11.66182 h 22.23223 v -23.32363 h -22.23223" /><g
       id="g254"
       transform="scale(0.12)"><g
         clip-path="url(#clipPath260)"
         id="g256" /></g><g
       id="g2608"
       transform="matrix(1.8,0,0,-1.8,-214.86242,797.70076)"><g
         style="fill:#000000;fill-opacity:1"
         id="g2602"><path
           sodipodi:nodetypes="ssssccccscsssscs"
           inkscape:connector-curvature="0"
           style="stroke:none;stroke-width:0"
           d="m 5.1875,-17.223959 c 0,-0.4375 -0.25,-0.671875 -0.546875,-0.671875 -0.234375,0 -0.390625,0.203125 -0.390625,0.40625 0,0.515625 0.5625,0.375 0.5625,0.703125 0,0.640625 -1.25,2.390625 -1.53125,2.828125 -0.09375,-2 -0.390625,-3.5 -0.734375,-3.9375 l -1.453125,0.28125 v 0.171875 c 0.09375,-0.03125 0.21875,-0.04687 0.359375,-0.04687 0.75,0 0.796875,0.75 1.1875,4.3125 -0.140625,0.421875 -1.03125,1.4375 -1.296875,1.4375 -0.1875,0 -0.171875,-0.328125 -0.5,-0.328125 -0.234375,0 -0.4375,0.21875 -0.4375,0.453125 0,0.3125 0.296875,0.421875 0.453125,0.421875 0.671875,0 1.875,-1.515625 2.90625,-3.046875 0.90625,-1.359375 1.421875,-2.40625 1.421875,-2.984375 z"
           transform="translate(148.712,134.765)"
           id="path2600" /></g><g
         style="fill:#000000;fill-opacity:1"
         id="g2606"><path
           sodipodi:nodetypes="ccscsssccccscscssc"
           inkscape:connector-curvature="0"
           style="stroke:none;stroke-width:0"
           d="m 4.40625,-14.114584 -0.125,-0.125 c -0.515625,0.484375 -0.96875,0.703125 -1.546875,0.703125 -0.421875,0 -0.796875,-0.125 -1.09375,-0.375 C 1.234375,-14.255209 1,-14.880209 1,-15.692709 c 0,-1.25 0.65625,-2.078125 1.65625,-2.078125 0.40625,0 0.765625,0.15625 1.046875,0.4375 0.21875,0.21875 0.328125,0.40625 0.453125,0.859375 h 0.171875 l -0.0625,-1.5625 h -0.15625 c -0.046875,0.140625 -0.15625,0.21875 -0.28125,0.21875 -0.078125,0 -0.171875,-0.01563 -0.28125,-0.0625 -0.34375,-0.109375 -0.6875,-0.15625 -1.03125,-0.15625 -0.53125,0 -1.078125,0.1875 -1.5,0.546875 -0.53125,0.4375 -0.828125,1.09375 -0.828125,1.890625 0,1.421875 0.9375,2.359375 2.328125,2.359375 0.78125,0 1.46875,-0.3125 1.890625,-0.875 z"
           transform="translate(154.261,136.259)"
           id="path2604" /></g></g><g
       id="g2768"
       ns1:jacobian_sqrt="1.8"
       inkscapeversion="0.92.4"
       ns1:alignment="middle center"
       ns1:scale="1.35"
       ns1:preamble="C:\\texlive\\texmf-local\\tex\\latex\\default_packages_guit.tex"
       ns1:text="$z_\\mathrm{C}$"
       ns1:pdfconverter="pdf2svg"
       ns1:texconverter="pdflatex"
       ns1:version="0.11.0"
       transform="matrix(1.8,0,0,-1.8,-149.44401,996.11996)"><g
         id="g2766"><g
           id="g2760"
           style="fill:#000000;fill-opacity:1"><path
             id="path2758"
             transform="translate(148.712,134.765)"
             d="m 4.453125,-4.5625 h -3.09375 l -0.4375,1.296875 H 1.125 c 0.25,-0.609375 0.484375,-0.625 0.84375,-0.625 h 1.625 L 0.15625,0 H 3.3125 L 3.765625,-1.328125 H 3.5625 c -0.234375,0.6875 -0.609375,0.6875 -0.984375,0.6875 H 1 Z m 0,0"
             style="stroke:none;stroke-width:0"
             inkscape:connector-curvature="0" /></g><g
           id="g2764"
           style="fill:#000000;fill-opacity:1"><path
             id="path2762"
             transform="translate(153.325,136.259)"
             d="m 4.40625,-0.78125 -0.125,-0.125 c -0.515625,0.484375 -0.96875,0.703125 -1.546875,0.703125 -0.421875,0 -0.796875,-0.125 -1.09375,-0.375 C 1.234375,-0.921875 1,-1.546875 1,-2.359375 c 0,-1.25 0.65625,-2.078125 1.65625,-2.078125 0.40625,0 0.765625,0.15625 1.046875,0.4375 0.21875,0.21875 0.328125,0.40625 0.453125,0.859375 h 0.171875 l -0.0625,-1.5625 h -0.15625 c -0.046875,0.140625 -0.15625,0.21875 -0.28125,0.21875 -0.078125,0 -0.171875,-0.015625 -0.28125,-0.0625 -0.34375,-0.109375 -0.6875,-0.15625 -1.03125,-0.15625 -0.53125,0 -1.078125,0.1875 -1.5,0.546875 -0.53125,0.4375 -0.828125,1.09375 -0.828125,1.890625 0,1.421875 0.9375,2.359375 2.328125,2.359375 0.78125,0 1.46875,-0.3125 1.890625,-0.875 z m 0,0"
             style="stroke:none;stroke-width:0"
             inkscape:connector-curvature="0" /></g></g></g><g
       id="g1679"
       ns1:jacobian_sqrt="1.8"
       inkscapeversion="0.92.4"
       ns1:alignment="middle center"
       ns1:scale="1.35"
       ns1:preamble="C:\\texlive\\texmf-local\\tex\\latex\\default_packages_guit.tex"
       ns1:text="$x_\\mathrm{C}$"
       ns1:pdfconverter="pdf2svg"
       ns1:texconverter="pdflatex"
       ns1:version="0.11.0"
       transform="matrix(1.8,0,0,-1.8,281.72308,1011.4551)"><g
         id="surface1"><g
           id="g1672"
           style="fill:#000000;fill-opacity:1"><path
             id="path1670"
             transform="translate(148.712,134.765)"
             d="m 5.15625,-4.171875 c 0,-0.265625 -0.234375,-0.390625 -0.421875,-0.390625 -0.5,0 -1.140625,0.75 -1.640625,1.546875 0,-0.015625 -0.078125,-0.34375 -0.078125,-0.34375 -0.15625,-0.65625 -0.34375,-1.03125 -0.6875,-1.203125 0,0 -1.125,0.25 -1.265625,0.28125 v 0.171875 c 0.203125,-0.046875 0.359375,-0.0625 0.46875,-0.0625 0.546875,0 0.640625,0.515625 1.015625,1.953125 C 2.09375,-1.546875 1.390625,-0.4375 1.109375,-0.4375 0.875,-0.4375 0.875,-0.671875 0.5625,-0.671875 c -0.21875,0 -0.359375,0.15625 -0.359375,0.359375 0,0.25 0.1875,0.4375 0.46875,0.4375 0.6875,0 1.34375,-1.25 1.953125,-2.03125 0.03125,0.078125 0.25,0.953125 0.25,0.953125 C 3.125,-0.03125 3.3125,0.125 3.5625,0.125 c 0.3125,0 0.78125,-0.3125 1.25,-1.1875 L 4.671875,-1.140625 c -0.171875,0.21875 -0.453125,0.6875 -0.703125,0.6875 -0.34375,0 -0.546875,-1.40625 -0.796875,-2.296875 0.0625,-0.078125 0.75,-1.203125 1.125,-1.203125 0.1875,0 0.359375,0.171875 0.53125,0.171875 0.25,0 0.328125,-0.203125 0.328125,-0.390625 z m 0,0"
             style="stroke:none;stroke-width:0"
             inkscape:connector-curvature="0" /></g><g
           id="g1676"
           style="fill:#000000;fill-opacity:1"><path
             id="path1674"
             transform="translate(154.162,136.259)"
             d="m 4.40625,-0.78125 -0.125,-0.125 c -0.515625,0.484375 -0.96875,0.703125 -1.546875,0.703125 -0.421875,0 -0.796875,-0.125 -1.09375,-0.375 C 1.234375,-0.921875 1,-1.546875 1,-2.359375 c 0,-1.25 0.65625,-2.078125 1.65625,-2.078125 0.40625,0 0.765625,0.15625 1.046875,0.4375 0.21875,0.21875 0.328125,0.40625 0.453125,0.859375 h 0.171875 l -0.0625,-1.5625 h -0.15625 c -0.046875,0.140625 -0.15625,0.21875 -0.28125,0.21875 -0.078125,0 -0.171875,-0.015625 -0.28125,-0.0625 -0.34375,-0.109375 -0.6875,-0.15625 -1.03125,-0.15625 -0.53125,0 -1.078125,0.1875 -1.5,0.546875 -0.53125,0.4375 -0.828125,1.09375 -0.828125,1.890625 0,1.421875 0.9375,2.359375 2.328125,2.359375 0.78125,0 1.46875,-0.3125 1.890625,-0.875 z m 0,0"
             style="stroke:none;stroke-width:0"
             inkscape:connector-curvature="0" /></g></g></g><g
       id="g1919"
       ns1:jacobian_sqrt="1.8"
       inkscapeversion="0.92.4"
       ns1:alignment="middle center"
       ns1:scale="1.35"
       ns1:preamble="C:\\texlive\\texmf-local\\tex\\latex\\default_packages_guit.tex"
       ns1:text="$l_\\mathrm{B}$"
       ns1:pdfconverter="pdf2svg"
       ns1:texconverter="pdflatex"
       ns1:version="0.11.0"
       transform="matrix(1.8,0,0,-1.8,36.298378,1005.7896)"><g
         id="g1917"><g
           id="g1911"
           style="fill:#000000;fill-opacity:1"><path
             id="path1909"
             transform="translate(148.712,134.765)"
             d="m 2.90625,-7.140625 c 0,0 -1.34375,0.234375 -1.625,0.25 v 0.1875 c 0.390625,0 0.65625,0.03125 0.65625,0.34375 0,0.1875 -0.125,0.671875 -0.1875,0.90625 l -1.140625,4.125 c -0.0625,0.21875 -0.1875,0.71875 -0.1875,0.9375 0,0.203125 0.0625,0.515625 0.421875,0.515625 0.6875,0 1.3125,-0.9375 1.453125,-1.203125 L 2.15625,-1.171875 C 1.859375,-0.703125 1.5,-0.375 1.328125,-0.375 1.21875,-0.375 1.1875,-0.453125 1.1875,-0.5625 c 0,-0.125 0.03125,-0.234375 0.09375,-0.46875 z m 0,0"
             style="stroke:none;stroke-width:0"
             inkscape:connector-curvature="0" /></g><g
           id="g1915"
           style="fill:#000000;fill-opacity:1"><path
             id="path1913"
             transform="translate(151.791,136.259)"
             d="m 4.125,-1.25 c 0,-0.3125 -0.125,-0.59375 -0.328125,-0.796875 -0.21875,-0.1875 -0.40625,-0.265625 -0.859375,-0.375 0.359375,-0.09375 0.515625,-0.15625 0.671875,-0.3125 0.1875,-0.15625 0.28125,-0.40625 0.28125,-0.6875 0,-0.78125 -0.609375,-1.1875 -1.828125,-1.1875 H 0.125 v 0.125 c 0.578125,0.03125 0.65625,0.109375 0.65625,0.625 v 3.09375 C 0.78125,-0.25 0.703125,-0.15625 0.125,-0.125 V 0 H 2.453125 C 2.984375,0 3.484375,-0.140625 3.75,-0.390625 4,-0.609375 4.125,-0.921875 4.125,-1.25 Z m -0.796875,0 c 0,0.375 -0.140625,0.65625 -0.421875,0.8125 -0.21875,0.125 -0.515625,0.171875 -0.96875,0.171875 -0.34375,0 -0.4375,-0.0625 -0.4375,-0.28125 v -1.71875 c 0.671875,0 1,0.03125 1.25,0.140625 0.390625,0.15625 0.578125,0.4375 0.578125,0.875 z M 3.1875,-3.40625 c 0,0.546875 -0.375,0.859375 -1.03125,0.859375 H 1.5 v -1.59375 c 0,-0.15625 0.046875,-0.21875 0.15625,-0.21875 h 0.296875 c 0.8125,0 1.234375,0.34375 1.234375,0.953125 z m 0,0"
             style="stroke:none;stroke-width:0"
             inkscape:connector-curvature="0" /></g></g></g><g
       id="g1461"
       ns1:jacobian_sqrt="1.8"
       inkscapeversion="0.92.4"
       ns1:alignment="middle center"
       ns1:scale="1.35"
       ns1:preamble="C:\\texlive\\texmf-local\\tex\\latex\\default_packages_guit.tex"
       ns1:text="$b_\\mathrm{f,max}=b_\\mathrm{B}$"
       ns1:pdfconverter="pdf2svg"
       ns1:texconverter="pdflatex"
       ns1:version="0.11.0"
       transform="matrix(1.8,0,0,-1.8,3.3725797,937.07499)"><g
         id="g1459"><g
           id="g1429"
           style="fill:#000000;fill-opacity:1"><path
             id="path1427"
             transform="translate(148.712,134.765)"
             d="m 4.703125,-3.265625 c 0,-0.90625 -0.59375,-1.296875 -1.203125,-1.296875 -0.828125,0 -1.453125,0.78125 -1.734375,1.1875 l 1.03125,-3.765625 c 0,0 -1.34375,0.234375 -1.609375,0.25 v 0.1875 c 0.390625,0 0.640625,0.03125 0.640625,0.34375 0,0.1875 -0.09375,0.578125 -0.15625,0.8125 l -1.4375,5.09375 C 0.34375,-0.265625 1,0.125 1.640625,0.125 c 1.890625,0 3.0625,-1.875 3.0625,-3.390625 z m -0.828125,0.25 c 0,1.765625 -1.140625,2.921875 -2.171875,2.921875 -0.3125,0 -0.59375,-0.109375 -0.75,-0.3125 0.21875,-0.875 0.90625,-3.6875 2.203125,-3.6875 0.65625,0 0.71875,0.5625 0.71875,1.078125 z m 0,0"
             style="stroke:none;stroke-width:0"
             inkscape:connector-curvature="0" /></g><g
           id="g1433"
           style="fill:#000000;fill-opacity:1"><path
             id="path1431"
             transform="translate(153.724,136.259)"
             d="m 2.671875,-4.328125 c 0,-0.25 -0.3125,-0.4375 -0.734375,-0.4375 -0.4375,0 -0.796875,0.1875 -0.96875,0.5 -0.1875,0.328125 -0.25,0.578125 -0.25,1.125 H 0.140625 V -2.90625 H 0.71875 v 2.1875 c 0,0.5 -0.078125,0.59375 -0.578125,0.609375 V 0 h 1.8125 V -0.109375 C 1.375,-0.125 1.296875,-0.203125 1.296875,-0.71875 v -2.1875 H 2.15625 V -3.140625 H 1.296875 V -3.9375 c 0,-0.421875 0.125,-0.625 0.390625,-0.625 0.15625,0 0.25,0.0625 0.375,0.265625 0.109375,0.1875 0.203125,0.25 0.3125,0.25 0.171875,0 0.296875,-0.125 0.296875,-0.28125 z m 0,0"
             style="stroke:none;stroke-width:0"
             inkscape:connector-curvature="0" /></g><g
           id="g1437"
           style="fill:#000000;fill-opacity:1"><path
             id="path1435"
             transform="translate(156.394,136.259)"
             d="M 0.609375,1.140625 C 0.8125,1.09375 0.90625,1.046875 1.09375,0.9375 c 0.328125,-0.21875 0.5625,-0.53125 0.5625,-1.078125 0,-0.53125 -0.25,-0.765625 -0.578125,-0.765625 -0.296875,0 -0.484375,0.1875 -0.484375,0.46875 0,0.265625 0.1875,0.4375 0.4375,0.4375 0.078125,0 0.15625,-0.015625 0.234375,-0.0625 0.03125,-0.015625 0.03125,-0.015625 0.046875,-0.015625 0.03125,0 0.046875,0.0625 0.046875,0.140625 0,0.078125 0,0.578125 -0.75,0.859375 z m 0,0"
             style="stroke:none;stroke-width:0"
             inkscape:connector-curvature="0" /></g><g
           id="g1445"
           style="fill:#000000;fill-opacity:1"><path
             id="path1439"
             transform="translate(158.64,136.259)"
             d="M 5.40625,0 V -0.109375 L 5.21875,-0.125 c -0.203125,0 -0.296875,-0.140625 -0.296875,-0.40625 v -1.4375 c 0,-0.8125 -0.28125,-1.234375 -0.8125,-1.234375 -0.40625,0 -0.75,0.171875 -1.140625,0.578125 -0.125,-0.390625 -0.359375,-0.578125 -0.734375,-0.578125 -0.296875,0 -0.5,0.09375 -1.078125,0.53125 V -3.1875 L 1.109375,-3.203125 C 0.75,-3.078125 0.515625,-3 0.125,-2.890625 v 0.109375 c 0.09375,-0.015625 0.15625,-0.015625 0.234375,-0.015625 0.171875,0 0.234375,0.109375 0.234375,0.4375 v 1.765625 c 0,0.375 -0.09375,0.484375 -0.484375,0.484375 V 0 H 1.65625 V -0.109375 C 1.296875,-0.125 1.1875,-0.1875 1.1875,-0.46875 V -2.4375 c 0,0 0.046875,-0.078125 0.109375,-0.125 C 1.46875,-2.71875 1.765625,-2.84375 2,-2.84375 c 0.3125,0 0.46875,0.25 0.46875,0.734375 V -0.59375 C 2.46875,-0.203125 2.390625,-0.125 2,-0.109375 V 0 h 1.546875 v -0.109375 c -0.390625,0 -0.5,-0.125 -0.5,-0.546875 v -1.765625 c 0.21875,-0.296875 0.4375,-0.421875 0.765625,-0.421875 0.390625,0 0.515625,0.1875 0.515625,0.765625 v 1.46875 c 0,0.40625 -0.046875,0.453125 -0.453125,0.5 V 0 Z m 0,0"
             style="stroke:none;stroke-width:0"
             inkscape:connector-curvature="0" /><path
             id="path1441"
             transform="translate(164.06562,136.259)"
             d="m 3.078125,-0.28125 v -0.171875 c -0.109375,0.09375 -0.203125,0.125 -0.296875,0.125 -0.171875,0 -0.21875,-0.09375 -0.21875,-0.40625 V -2.09375 c 0,-0.359375 -0.03125,-0.546875 -0.125,-0.703125 -0.15625,-0.265625 -0.453125,-0.40625 -0.875,-0.40625 -0.359375,0 -0.6875,0.09375 -0.890625,0.25 -0.171875,0.15625 -0.28125,0.359375 -0.28125,0.53125 0,0.15625 0.125,0.296875 0.296875,0.296875 C 0.859375,-2.125 1,-2.265625 1,-2.421875 1,-2.453125 1,-2.484375 0.984375,-2.53125 0.96875,-2.59375 0.96875,-2.640625 0.96875,-2.703125 c 0,-0.1875 0.21875,-0.328125 0.5,-0.328125 C 1.8125,-3.03125 2,-2.84375 2,-2.453125 v 0.421875 c -1.078125,0.421875 -1.1875,0.484375 -1.484375,0.75 -0.15625,0.140625 -0.25,0.375 -0.25,0.609375 0,0.4375 0.296875,0.734375 0.71875,0.734375 0.3125,0 0.59375,-0.140625 1.015625,-0.5 0.046875,0.375 0.171875,0.5 0.453125,0.5 0.234375,0 0.390625,-0.078125 0.625,-0.34375 z M 2,-0.859375 c 0,0.21875 -0.03125,0.28125 -0.1875,0.375 -0.15625,0.09375 -0.359375,0.15625 -0.5,0.15625 -0.25,0 -0.4375,-0.25 -0.4375,-0.546875 V -0.90625 C 0.875,-1.3125 1.15625,-1.5625 2,-1.875 Z m 0,0"
             style="stroke:none;stroke-width:0"
             inkscape:connector-curvature="0" /><path
             id="path1443"
             transform="translate(167.16198,136.259)"
             d="m 3.34375,0 v -0.109375 c -0.21875,0 -0.359375,-0.109375 -0.578125,-0.40625 L 1.875,-1.890625 2.453125,-2.71875 c 0.125,-0.1875 0.34375,-0.3125 0.5625,-0.3125 V -3.140625 H 1.921875 V -3.03125 C 2.125,-3.015625 2.1875,-2.96875 2.1875,-2.875 c 0,0.078125 -0.078125,0.234375 -0.25,0.453125 -0.03125,0.03125 -0.125,0.15625 -0.203125,0.296875 L 1.625,-2.265625 C 1.4375,-2.546875 1.3125,-2.78125 1.3125,-2.875 c 0,-0.09375 0.09375,-0.15625 0.296875,-0.15625 v -0.109375 h -1.4375 v 0.109375 h 0.0625 c 0.203125,0 0.3125,0.09375 0.53125,0.421875 l 0.65625,1 -0.796875,1.15625 c -0.203125,0.28125 -0.28125,0.328125 -0.5,0.34375 V 0 h 1 v -0.109375 c -0.1875,0 -0.28125,-0.03125 -0.28125,-0.125 0,-0.03125 0.0625,-0.140625 0.140625,-0.28125 l 0.5625,-0.859375 0.625,0.984375 c 0.03125,0.03125 0.046875,0.078125 0.046875,0.125 0,0.125 -0.046875,0.140625 -0.28125,0.15625 V 0 Z m 0,0"
             style="stroke:none;stroke-width:0"
             inkscape:connector-curvature="0" /></g><g
           id="g1449"
           style="fill:#000000;fill-opacity:1"><path
             id="path1447"
             transform="translate(173.914,134.765)"
             d="m 7.5,-3.234375 v -0.5625 H 0.84375 v 0.5625 z m 0,2.015625 v -0.5625 H 0.84375 v 0.5625 z m 0,0"
             style="stroke:none;stroke-width:0"
             inkscape:connector-curvature="0" /></g><g
           id="g1453"
           style="fill:#000000;fill-opacity:1"><path
             id="path1451"
             transform="translate(185.011,134.765)"
             d="m 4.703125,-3.265625 c 0,-0.90625 -0.59375,-1.296875 -1.203125,-1.296875 -0.828125,0 -1.453125,0.78125 -1.734375,1.1875 l 1.03125,-3.765625 c 0,0 -1.34375,0.234375 -1.609375,0.25 v 0.1875 c 0.390625,0 0.640625,0.03125 0.640625,0.34375 0,0.1875 -0.09375,0.578125 -0.15625,0.8125 l -1.4375,5.09375 C 0.34375,-0.265625 1,0.125 1.640625,0.125 c 1.890625,0 3.0625,-1.875 3.0625,-3.390625 z m -0.828125,0.25 c 0,1.765625 -1.140625,2.921875 -2.171875,2.921875 -0.3125,0 -0.59375,-0.109375 -0.75,-0.3125 0.21875,-0.875 0.90625,-3.6875 2.203125,-3.6875 0.65625,0 0.71875,0.5625 0.71875,1.078125 z m 0,0"
             style="stroke:none;stroke-width:0"
             inkscape:connector-curvature="0" /></g><g
           id="g1457"
           style="fill:#000000;fill-opacity:1"><path
             id="path1455"
             transform="translate(190.022,136.259)"
             d="m 4.125,-1.25 c 0,-0.3125 -0.125,-0.59375 -0.328125,-0.796875 -0.21875,-0.1875 -0.40625,-0.265625 -0.859375,-0.375 0.359375,-0.09375 0.515625,-0.15625 0.671875,-0.3125 0.1875,-0.15625 0.28125,-0.40625 0.28125,-0.6875 0,-0.78125 -0.609375,-1.1875 -1.828125,-1.1875 H 0.125 v 0.125 c 0.578125,0.03125 0.65625,0.109375 0.65625,0.625 v 3.09375 C 0.78125,-0.25 0.703125,-0.15625 0.125,-0.125 V 0 H 2.453125 C 2.984375,0 3.484375,-0.140625 3.75,-0.390625 4,-0.609375 4.125,-0.921875 4.125,-1.25 Z m -0.796875,0 c 0,0.375 -0.140625,0.65625 -0.421875,0.8125 -0.21875,0.125 -0.515625,0.171875 -0.96875,0.171875 -0.34375,0 -0.4375,-0.0625 -0.4375,-0.28125 v -1.71875 c 0.671875,0 1,0.03125 1.25,0.140625 0.390625,0.15625 0.578125,0.4375 0.578125,0.875 z M 3.1875,-3.40625 c 0,0.546875 -0.375,0.859375 -1.03125,0.859375 H 1.5 v -1.59375 c 0,-0.15625 0.046875,-0.21875 0.15625,-0.21875 h 0.296875 c 0.8125,0 1.234375,0.34375 1.234375,0.953125 z m 0,0"
             style="stroke:none;stroke-width:0"
             inkscape:connector-curvature="0" /></g></g></g><g
       id="g1820"
       ns1:jacobian_sqrt="1.8"
       inkscapeversion="0.92.4"
       ns1:alignment="middle center"
       ns1:scale="1.35"
       ns1:preamble="C:\\texlive\\texmf-local\\tex\\latex\\default_packages_guit.tex"
       ns1:text="$h_\\mathrm{f,max}=h_\\mathrm{B}$"
       ns1:pdfconverter="pdf2svg"
       ns1:texconverter="pdflatex"
       ns1:version="0.11.0"
       transform="matrix(1.8,0,0,-1.8,104.9645,778.46912)"><g
         id="g1818"><g
           id="g1788"
           style="fill:#000000;fill-opacity:1"><path
             id="path1786"
             transform="translate(148.712,134.765)"
             d="M 4.796875,-1.03125 4.65625,-1.140625 c -0.25,0.328125 -0.59375,0.75 -0.78125,0.75 -0.0625,0 -0.125,-0.0625 -0.125,-0.171875 0,-0.390625 0.828125,-2.71875 0.828125,-3.3125 0,-0.515625 -0.375,-0.6875 -0.609375,-0.6875 -0.875,0 -1.90625,1.4375 -2.359375,2.203125 L 2.875,-7.140625 c 0,0 -1.34375,0.234375 -1.625,0.25 v 0.1875 c 0.390625,0 0.65625,0.03125 0.65625,0.34375 0,0.1875 -0.125,0.65625 -0.1875,0.90625 L 0.234375,0 h 0.75 c 0.03125,-0.125 0.1875,-0.671875 0.1875,-0.671875 C 1.796875,-3 3.125,-4 3.515625,-4 c 0.15625,0 0.28125,0.109375 0.28125,0.296875 0,0.40625 -0.84375,2.859375 -0.84375,3.359375 0.015625,0.25 0.125,0.46875 0.421875,0.46875 0.578125,0 1.09375,-0.671875 1.421875,-1.15625 z m 0,0"
             style="stroke:none;stroke-width:0"
             inkscape:connector-curvature="0" /></g><g
           id="g1792"
           style="fill:#000000;fill-opacity:1"><path
             id="path1790"
             transform="translate(154.242,136.259)"
             d="m 2.671875,-4.328125 c 0,-0.25 -0.3125,-0.4375 -0.734375,-0.4375 -0.4375,0 -0.796875,0.1875 -0.96875,0.5 -0.1875,0.328125 -0.25,0.578125 -0.25,1.125 H 0.140625 V -2.90625 H 0.71875 v 2.1875 c 0,0.5 -0.078125,0.59375 -0.578125,0.609375 V 0 h 1.8125 V -0.109375 C 1.375,-0.125 1.296875,-0.203125 1.296875,-0.71875 v -2.1875 H 2.15625 V -3.140625 H 1.296875 V -3.9375 c 0,-0.421875 0.125,-0.625 0.390625,-0.625 0.15625,0 0.25,0.0625 0.375,0.265625 0.109375,0.1875 0.203125,0.25 0.3125,0.25 0.171875,0 0.296875,-0.125 0.296875,-0.28125 z m 0,0"
             style="stroke:none;stroke-width:0"
             inkscape:connector-curvature="0" /></g><g
           id="g1796"
           style="fill:#000000;fill-opacity:1"><path
             id="path1794"
             transform="translate(156.913,136.259)"
             d="M 0.609375,1.140625 C 0.8125,1.09375 0.90625,1.046875 1.09375,0.9375 c 0.328125,-0.21875 0.5625,-0.53125 0.5625,-1.078125 0,-0.53125 -0.25,-0.765625 -0.578125,-0.765625 -0.296875,0 -0.484375,0.1875 -0.484375,0.46875 0,0.265625 0.1875,0.4375 0.4375,0.4375 0.078125,0 0.15625,-0.015625 0.234375,-0.0625 0.03125,-0.015625 0.03125,-0.015625 0.046875,-0.015625 0.03125,0 0.046875,0.0625 0.046875,0.140625 0,0.078125 0,0.578125 -0.75,0.859375 z m 0,0"
             style="stroke:none;stroke-width:0"
             inkscape:connector-curvature="0" /></g><g
           id="g1804"
           style="fill:#000000;fill-opacity:1"><path
             id="path1798"
             transform="translate(159.158,136.259)"
             d="M 5.40625,0 V -0.109375 L 5.21875,-0.125 c -0.203125,0 -0.296875,-0.140625 -0.296875,-0.40625 v -1.4375 c 0,-0.8125 -0.28125,-1.234375 -0.8125,-1.234375 -0.40625,0 -0.75,0.171875 -1.140625,0.578125 -0.125,-0.390625 -0.359375,-0.578125 -0.734375,-0.578125 -0.296875,0 -0.5,0.09375 -1.078125,0.53125 V -3.1875 L 1.109375,-3.203125 C 0.75,-3.078125 0.515625,-3 0.125,-2.890625 v 0.109375 c 0.09375,-0.015625 0.15625,-0.015625 0.234375,-0.015625 0.171875,0 0.234375,0.109375 0.234375,0.4375 v 1.765625 c 0,0.375 -0.09375,0.484375 -0.484375,0.484375 V 0 H 1.65625 V -0.109375 C 1.296875,-0.125 1.1875,-0.1875 1.1875,-0.46875 V -2.4375 c 0,0 0.046875,-0.078125 0.109375,-0.125 C 1.46875,-2.71875 1.765625,-2.84375 2,-2.84375 c 0.3125,0 0.46875,0.25 0.46875,0.734375 V -0.59375 C 2.46875,-0.203125 2.390625,-0.125 2,-0.109375 V 0 h 1.546875 v -0.109375 c -0.390625,0 -0.5,-0.125 -0.5,-0.546875 v -1.765625 c 0.21875,-0.296875 0.4375,-0.421875 0.765625,-0.421875 0.390625,0 0.515625,0.1875 0.515625,0.765625 v 1.46875 c 0,0.40625 -0.046875,0.453125 -0.453125,0.5 V 0 Z m 0,0"
             style="stroke:none;stroke-width:0"
             inkscape:connector-curvature="0" /><path
             id="path1800"
             transform="translate(164.58362,136.259)"
             d="m 3.078125,-0.28125 v -0.171875 c -0.109375,0.09375 -0.203125,0.125 -0.296875,0.125 -0.171875,0 -0.21875,-0.09375 -0.21875,-0.40625 V -2.09375 c 0,-0.359375 -0.03125,-0.546875 -0.125,-0.703125 -0.15625,-0.265625 -0.453125,-0.40625 -0.875,-0.40625 -0.359375,0 -0.6875,0.09375 -0.890625,0.25 -0.171875,0.15625 -0.28125,0.359375 -0.28125,0.53125 0,0.15625 0.125,0.296875 0.296875,0.296875 C 0.859375,-2.125 1,-2.265625 1,-2.421875 1,-2.453125 1,-2.484375 0.984375,-2.53125 0.96875,-2.59375 0.96875,-2.640625 0.96875,-2.703125 c 0,-0.1875 0.21875,-0.328125 0.5,-0.328125 C 1.8125,-3.03125 2,-2.84375 2,-2.453125 v 0.421875 c -1.078125,0.421875 -1.1875,0.484375 -1.484375,0.75 -0.15625,0.140625 -0.25,0.375 -0.25,0.609375 0,0.4375 0.296875,0.734375 0.71875,0.734375 0.3125,0 0.59375,-0.140625 1.015625,-0.5 0.046875,0.375 0.171875,0.5 0.453125,0.5 0.234375,0 0.390625,-0.078125 0.625,-0.34375 z M 2,-0.859375 c 0,0.21875 -0.03125,0.28125 -0.1875,0.375 -0.15625,0.09375 -0.359375,0.15625 -0.5,0.15625 -0.25,0 -0.4375,-0.25 -0.4375,-0.546875 V -0.90625 C 0.875,-1.3125 1.15625,-1.5625 2,-1.875 Z m 0,0"
             style="stroke:none;stroke-width:0"
             inkscape:connector-curvature="0" /><path
             id="path1802"
             transform="translate(167.67998,136.259)"
             d="m 3.34375,0 v -0.109375 c -0.21875,0 -0.359375,-0.109375 -0.578125,-0.40625 L 1.875,-1.890625 2.453125,-2.71875 c 0.125,-0.1875 0.34375,-0.3125 0.5625,-0.3125 V -3.140625 H 1.921875 V -3.03125 C 2.125,-3.015625 2.1875,-2.96875 2.1875,-2.875 c 0,0.078125 -0.078125,0.234375 -0.25,0.453125 -0.03125,0.03125 -0.125,0.15625 -0.203125,0.296875 L 1.625,-2.265625 C 1.4375,-2.546875 1.3125,-2.78125 1.3125,-2.875 c 0,-0.09375 0.09375,-0.15625 0.296875,-0.15625 v -0.109375 h -1.4375 v 0.109375 h 0.0625 c 0.203125,0 0.3125,0.09375 0.53125,0.421875 l 0.65625,1 -0.796875,1.15625 c -0.203125,0.28125 -0.28125,0.328125 -0.5,0.34375 V 0 h 1 v -0.109375 c -0.1875,0 -0.28125,-0.03125 -0.28125,-0.125 0,-0.03125 0.0625,-0.140625 0.140625,-0.28125 l 0.5625,-0.859375 0.625,0.984375 c 0.03125,0.03125 0.046875,0.078125 0.046875,0.125 0,0.125 -0.046875,0.140625 -0.28125,0.15625 V 0 Z m 0,0"
             style="stroke:none;stroke-width:0"
             inkscape:connector-curvature="0" /></g><g
           id="g1808"
           style="fill:#000000;fill-opacity:1"><path
             id="path1806"
             transform="translate(174.433,134.765)"
             d="m 7.5,-3.234375 v -0.5625 H 0.84375 v 0.5625 z m 0,2.015625 v -0.5625 H 0.84375 v 0.5625 z m 0,0"
             style="stroke:none;stroke-width:0"
             inkscape:connector-curvature="0" /></g><g
           id="g1812"
           style="fill:#000000;fill-opacity:1"><path
             id="path1810"
             transform="translate(185.529,134.765)"
             d="M 4.796875,-1.03125 4.65625,-1.140625 c -0.25,0.328125 -0.59375,0.75 -0.78125,0.75 -0.0625,0 -0.125,-0.0625 -0.125,-0.171875 0,-0.390625 0.828125,-2.71875 0.828125,-3.3125 0,-0.515625 -0.375,-0.6875 -0.609375,-0.6875 -0.875,0 -1.90625,1.4375 -2.359375,2.203125 L 2.875,-7.140625 c 0,0 -1.34375,0.234375 -1.625,0.25 v 0.1875 c 0.390625,0 0.65625,0.03125 0.65625,0.34375 0,0.1875 -0.125,0.65625 -0.1875,0.90625 L 0.234375,0 h 0.75 c 0.03125,-0.125 0.1875,-0.671875 0.1875,-0.671875 C 1.796875,-3 3.125,-4 3.515625,-4 c 0.15625,0 0.28125,0.109375 0.28125,0.296875 0,0.40625 -0.84375,2.859375 -0.84375,3.359375 0.015625,0.25 0.125,0.46875 0.421875,0.46875 0.578125,0 1.09375,-0.671875 1.421875,-1.15625 z m 0,0"
             style="stroke:none;stroke-width:0"
             inkscape:connector-curvature="0" /></g><g
           id="g1816"
           style="fill:#000000;fill-opacity:1"><path
             id="path1814"
             transform="translate(191.058,136.259)"
             d="m 4.125,-1.25 c 0,-0.3125 -0.125,-0.59375 -0.328125,-0.796875 -0.21875,-0.1875 -0.40625,-0.265625 -0.859375,-0.375 0.359375,-0.09375 0.515625,-0.15625 0.671875,-0.3125 0.1875,-0.15625 0.28125,-0.40625 0.28125,-0.6875 0,-0.78125 -0.609375,-1.1875 -1.828125,-1.1875 H 0.125 v 0.125 c 0.578125,0.03125 0.65625,0.109375 0.65625,0.625 v 3.09375 C 0.78125,-0.25 0.703125,-0.15625 0.125,-0.125 V 0 H 2.453125 C 2.984375,0 3.484375,-0.140625 3.75,-0.390625 4,-0.609375 4.125,-0.921875 4.125,-1.25 Z m -0.796875,0 c 0,0.375 -0.140625,0.65625 -0.421875,0.8125 -0.21875,0.125 -0.515625,0.171875 -0.96875,0.171875 -0.34375,0 -0.4375,-0.0625 -0.4375,-0.28125 v -1.71875 c 0.671875,0 1,0.03125 1.25,0.140625 0.390625,0.15625 0.578125,0.4375 0.578125,0.875 z M 3.1875,-3.40625 c 0,0.546875 -0.375,0.859375 -1.03125,0.859375 H 1.5 v -1.59375 c 0,-0.15625 0.046875,-0.21875 0.15625,-0.21875 h 0.296875 c 0.8125,0 1.234375,0.34375 1.234375,0.953125 z m 0,0"
             style="stroke:none;stroke-width:0"
             inkscape:connector-curvature="0" /></g></g></g><g
       id="g2041"
       ns1:jacobian_sqrt="1.8"
       inkscapeversion="0.92.4"
       ns1:alignment="middle center"
       ns1:scale="1.35"
       ns1:preamble="C:\\texlive\\texmf-local\\tex\\latex\\default_packages_guit.tex"
       ns1:text="$b_\\mathrm{f}(x)$"
       ns1:pdfconverter="pdf2svg"
       ns1:texconverter="pdflatex"
       ns1:version="0.11.0"
       transform="matrix(1.8,0,0,-1.8,129.32282,986.41667)"><g
         id="g2039"><g
           id="g2023"
           style="fill:#000000;fill-opacity:1"><path
             id="path2021"
             transform="translate(148.712,134.765)"
             d="m 4.703125,-3.265625 c 0,-0.90625 -0.59375,-1.296875 -1.203125,-1.296875 -0.828125,0 -1.453125,0.78125 -1.734375,1.1875 l 1.03125,-3.765625 c 0,0 -1.34375,0.234375 -1.609375,0.25 v 0.1875 c 0.390625,0 0.640625,0.03125 0.640625,0.34375 0,0.1875 -0.09375,0.578125 -0.15625,0.8125 l -1.4375,5.09375 C 0.34375,-0.265625 1,0.125 1.640625,0.125 c 1.890625,0 3.0625,-1.875 3.0625,-3.390625 z m -0.828125,0.25 c 0,1.765625 -1.140625,2.921875 -2.171875,2.921875 -0.3125,0 -0.59375,-0.109375 -0.75,-0.3125 0.21875,-0.875 0.90625,-3.6875 2.203125,-3.6875 0.65625,0 0.71875,0.5625 0.71875,1.078125 z m 0,0"
             style="stroke:none;stroke-width:0"
             inkscape:connector-curvature="0" /></g><g
           id="g2027"
           style="fill:#000000;fill-opacity:1"><path
             id="path2025"
             transform="translate(153.724,136.259)"
             d="m 2.671875,-4.328125 c 0,-0.25 -0.3125,-0.4375 -0.734375,-0.4375 -0.4375,0 -0.796875,0.1875 -0.96875,0.5 -0.1875,0.328125 -0.25,0.578125 -0.25,1.125 H 0.140625 V -2.90625 H 0.71875 v 2.1875 c 0,0.5 -0.078125,0.59375 -0.578125,0.609375 V 0 h 1.8125 V -0.109375 C 1.375,-0.125 1.296875,-0.203125 1.296875,-0.71875 v -2.1875 H 2.15625 V -3.140625 H 1.296875 V -3.9375 c 0,-0.421875 0.125,-0.625 0.390625,-0.625 0.15625,0 0.25,0.0625 0.375,0.265625 0.109375,0.1875 0.203125,0.25 0.3125,0.25 0.171875,0 0.296875,-0.125 0.296875,-0.28125 z m 0,0"
             style="stroke:none;stroke-width:0"
             inkscape:connector-curvature="0" /></g><g
           id="g2033"
           style="fill:#000000;fill-opacity:1"><path
             id="path2029"
             transform="translate(156.893,134.765)"
             d="m 3.5625,2.140625 v -0.1875 C 2.359375,1.25 1.796875,-0.15625 1.796875,-2.515625 c 0,-2.34375 0.546875,-3.71875 1.765625,-4.46875 v -0.15625 c -1.71875,0.875 -2.71875,2.578125 -2.71875,4.625 0,2.09375 0.96875,3.6875 2.71875,4.65625 z m 0,0"
             style="stroke:none;stroke-width:0"
             inkscape:connector-curvature="0" /><path
             id="path2031"
             transform="translate(160.60905,134.765)"
             d="m 5.15625,-4.171875 c 0,-0.265625 -0.234375,-0.390625 -0.421875,-0.390625 -0.5,0 -1.140625,0.75 -1.640625,1.546875 0,-0.015625 -0.078125,-0.34375 -0.078125,-0.34375 -0.15625,-0.65625 -0.34375,-1.03125 -0.6875,-1.203125 0,0 -1.125,0.25 -1.265625,0.28125 v 0.171875 c 0.203125,-0.046875 0.359375,-0.0625 0.46875,-0.0625 0.546875,0 0.640625,0.515625 1.015625,1.953125 C 2.09375,-1.546875 1.390625,-0.4375 1.109375,-0.4375 0.875,-0.4375 0.875,-0.671875 0.5625,-0.671875 c -0.21875,0 -0.359375,0.15625 -0.359375,0.359375 0,0.25 0.1875,0.4375 0.46875,0.4375 0.6875,0 1.34375,-1.25 1.953125,-2.03125 0.03125,0.078125 0.25,0.953125 0.25,0.953125 C 3.125,-0.03125 3.3125,0.125 3.5625,0.125 c 0.3125,0 0.78125,-0.3125 1.25,-1.1875 L 4.671875,-1.140625 c -0.171875,0.21875 -0.453125,0.6875 -0.703125,0.6875 -0.34375,0 -0.546875,-1.40625 -0.796875,-2.296875 0.0625,-0.078125 0.75,-1.203125 1.125,-1.203125 0.1875,0 0.359375,0.171875 0.53125,0.171875 0.25,0 0.328125,-0.203125 0.328125,-0.390625 z m 0,0"
             style="stroke:none;stroke-width:0"
             inkscape:connector-curvature="0" /></g><g
           id="g2037"
           style="fill:#000000;fill-opacity:1"><path
             id="path2035"
             transform="translate(166.55672,134.765)"
             d="m 2.875,-2.5 c 0,-2.078125 -0.96875,-3.6875 -2.71875,-4.640625 v 0.171875 c 1.203125,0.703125 1.765625,2.109375 1.765625,4.46875 0,2.34375 -0.546875,3.734375 -1.765625,4.46875 V 2.140625 C 1.875,1.265625 2.875,-0.4375 2.875,-2.5 Z m 0,0"
             style="stroke:none;stroke-width:0"
             inkscape:connector-curvature="0" /></g></g></g><g
       id="g2252"
       ns1:jacobian_sqrt="1.8"
       inkscapeversion="0.92.4"
       ns1:alignment="middle center"
       ns1:scale="1.35"
       ns1:preamble="C:\\texlive\\texmf-local\\tex\\latex\\default_packages_guit.tex"
       ns1:text="$h_\\mathrm{f}(x)$"
       ns1:pdfconverter="pdf2svg"
       ns1:texconverter="pdflatex"
       ns1:version="0.11.0"
       transform="matrix(1.8,0,0,-1.8,202.22151,874.72051)"><g
         id="g2250"><g
           id="g2234"
           style="fill:#000000;fill-opacity:1"><path
             id="path2232"
             transform="translate(148.712,134.765)"
             d="M 4.796875,-1.03125 4.65625,-1.140625 c -0.25,0.328125 -0.59375,0.75 -0.78125,0.75 -0.0625,0 -0.125,-0.0625 -0.125,-0.171875 0,-0.390625 0.828125,-2.71875 0.828125,-3.3125 0,-0.515625 -0.375,-0.6875 -0.609375,-0.6875 -0.875,0 -1.90625,1.4375 -2.359375,2.203125 L 2.875,-7.140625 c 0,0 -1.34375,0.234375 -1.625,0.25 v 0.1875 c 0.390625,0 0.65625,0.03125 0.65625,0.34375 0,0.1875 -0.125,0.65625 -0.1875,0.90625 L 0.234375,0 h 0.75 c 0.03125,-0.125 0.1875,-0.671875 0.1875,-0.671875 C 1.796875,-3 3.125,-4 3.515625,-4 c 0.15625,0 0.28125,0.109375 0.28125,0.296875 0,0.40625 -0.84375,2.859375 -0.84375,3.359375 0.015625,0.25 0.125,0.46875 0.421875,0.46875 0.578125,0 1.09375,-0.671875 1.421875,-1.15625 z m 0,0"
             style="stroke:none;stroke-width:0"
             inkscape:connector-curvature="0" /></g><g
           id="g2238"
           style="fill:#000000;fill-opacity:1"><path
             id="path2236"
             transform="translate(154.242,136.259)"
             d="m 2.671875,-4.328125 c 0,-0.25 -0.3125,-0.4375 -0.734375,-0.4375 -0.4375,0 -0.796875,0.1875 -0.96875,0.5 -0.1875,0.328125 -0.25,0.578125 -0.25,1.125 H 0.140625 V -2.90625 H 0.71875 v 2.1875 c 0,0.5 -0.078125,0.59375 -0.578125,0.609375 V 0 h 1.8125 V -0.109375 C 1.375,-0.125 1.296875,-0.203125 1.296875,-0.71875 v -2.1875 H 2.15625 V -3.140625 H 1.296875 V -3.9375 c 0,-0.421875 0.125,-0.625 0.390625,-0.625 0.15625,0 0.25,0.0625 0.375,0.265625 0.109375,0.1875 0.203125,0.25 0.3125,0.25 0.171875,0 0.296875,-0.125 0.296875,-0.28125 z m 0,0"
             style="stroke:none;stroke-width:0"
             inkscape:connector-curvature="0" /></g><g
           id="g2244"
           style="fill:#000000;fill-opacity:1"><path
             id="path2240"
             transform="translate(157.411,134.765)"
             d="m 3.5625,2.140625 v -0.1875 C 2.359375,1.25 1.796875,-0.15625 1.796875,-2.515625 c 0,-2.34375 0.546875,-3.71875 1.765625,-4.46875 v -0.15625 c -1.71875,0.875 -2.71875,2.578125 -2.71875,4.625 0,2.09375 0.96875,3.6875 2.71875,4.65625 z m 0,0"
             style="stroke:none;stroke-width:0"
             inkscape:connector-curvature="0" /><path
             id="path2242"
             transform="translate(161.12705,134.765)"
             d="m 5.15625,-4.171875 c 0,-0.265625 -0.234375,-0.390625 -0.421875,-0.390625 -0.5,0 -1.140625,0.75 -1.640625,1.546875 0,-0.015625 -0.078125,-0.34375 -0.078125,-0.34375 -0.15625,-0.65625 -0.34375,-1.03125 -0.6875,-1.203125 0,0 -1.125,0.25 -1.265625,0.28125 v 0.171875 c 0.203125,-0.046875 0.359375,-0.0625 0.46875,-0.0625 0.546875,0 0.640625,0.515625 1.015625,1.953125 C 2.09375,-1.546875 1.390625,-0.4375 1.109375,-0.4375 0.875,-0.4375 0.875,-0.671875 0.5625,-0.671875 c -0.21875,0 -0.359375,0.15625 -0.359375,0.359375 0,0.25 0.1875,0.4375 0.46875,0.4375 0.6875,0 1.34375,-1.25 1.953125,-2.03125 0.03125,0.078125 0.25,0.953125 0.25,0.953125 C 3.125,-0.03125 3.3125,0.125 3.5625,0.125 c 0.3125,0 0.78125,-0.3125 1.25,-1.1875 L 4.671875,-1.140625 c -0.171875,0.21875 -0.453125,0.6875 -0.703125,0.6875 -0.34375,0 -0.546875,-1.40625 -0.796875,-2.296875 0.0625,-0.078125 0.75,-1.203125 1.125,-1.203125 0.1875,0 0.359375,0.171875 0.53125,0.171875 0.25,0 0.328125,-0.203125 0.328125,-0.390625 z m 0,0"
             style="stroke:none;stroke-width:0"
             inkscape:connector-curvature="0" /></g><g
           id="g2248"
           style="fill:#000000;fill-opacity:1"><path
             id="path2246"
             transform="translate(167.07472,134.765)"
             d="m 2.875,-2.5 c 0,-2.078125 -0.96875,-3.6875 -2.71875,-4.640625 v 0.171875 c 1.203125,0.703125 1.765625,2.109375 1.765625,4.46875 0,2.34375 -0.546875,3.734375 -1.765625,4.46875 V 2.140625 C 1.875,1.265625 2.875,-0.4375 2.875,-2.5 Z m 0,0"
             style="stroke:none;stroke-width:0"
             inkscape:connector-curvature="0" /></g></g></g><g
       id="g2454"
       ns1:jacobian_sqrt="1.8"
       inkscapeversion="0.92.4"
       ns1:alignment="middle center"
       ns1:scale="1.35"
       ns1:preamble="C:\\texlive\\texmf-local\\tex\\latex\\default_packages_guit.tex"
       ns1:text="$\\alpha_\\mathrm{B}$"
       ns1:pdfconverter="pdf2svg"
       ns1:texconverter="pdflatex"
       ns1:version="0.11.0"
       transform="matrix(1.8,0,0,-1.8,-221.03,756.37272)"><g
         id="g2452"><g
           id="g2446"
           style="fill:#000000;fill-opacity:1"><path
             id="path2444"
             transform="translate(148.712,134.765)"
             d="M 5.359375,-4.5625 4.625,-4.390625 c -0.265625,1.15625 -0.75,1.8125 -0.8125,1.921875 C 3.734375,-3.59375 3.296875,-4.5625 2.28125,-4.5625 1.25,-4.5625 0.125,-3.265625 0.125,-1.625 c 0,1.03125 0.578125,1.75 1.375,1.75 0.765625,0 1.578125,-0.75 1.796875,-1 0.109375,0.71875 0.375,0.96875 0.75,0.96875 0.3125,0 0.5625,-0.21875 0.765625,-0.515625 C 5,-0.6875 5.109375,-1 4.953125,-1 c -0.09375,0 -0.1875,0.1875 -0.328125,0.390625 -0.125,0.171875 -0.265625,0.3125 -0.421875,0.3125 -0.375,0 -0.3125,-1.03125 -0.328125,-1.15625 C 4.1875,-1.890625 5,-2.875 5.359375,-4.5625 Z M 3.25,-1.671875 c -0.40625,0.53125 -0.953125,1.25 -1.609375,1.25 C 1.03125,-0.421875 1,-1.53125 1,-1.6875 1,-2.96875 1.5625,-4.25 2.375,-4.25 c 0.890625,0 0.828125,1.921875 0.875,2.578125 z m 0,0"
             style="stroke:none;stroke-width:0"
             inkscape:connector-curvature="0" /></g><g
           id="g2450"
           style="fill:#000000;fill-opacity:1"><path
             id="path2448"
             transform="translate(154.401,136.259)"
             d="m 4.125,-1.25 c 0,-0.3125 -0.125,-0.59375 -0.328125,-0.796875 -0.21875,-0.1875 -0.40625,-0.265625 -0.859375,-0.375 0.359375,-0.09375 0.515625,-0.15625 0.671875,-0.3125 0.1875,-0.15625 0.28125,-0.40625 0.28125,-0.6875 0,-0.78125 -0.609375,-1.1875 -1.828125,-1.1875 H 0.125 v 0.125 c 0.578125,0.03125 0.65625,0.109375 0.65625,0.625 v 3.09375 C 0.78125,-0.25 0.703125,-0.15625 0.125,-0.125 V 0 H 2.453125 C 2.984375,0 3.484375,-0.140625 3.75,-0.390625 4,-0.609375 4.125,-0.921875 4.125,-1.25 Z m -0.796875,0 c 0,0.375 -0.140625,0.65625 -0.421875,0.8125 -0.21875,0.125 -0.515625,0.171875 -0.96875,0.171875 -0.34375,0 -0.4375,-0.0625 -0.4375,-0.28125 v -1.71875 c 0.671875,0 1,0.03125 1.25,0.140625 0.390625,0.15625 0.578125,0.4375 0.578125,0.875 z M 3.1875,-3.40625 c 0,0.546875 -0.375,0.859375 -1.03125,0.859375 H 1.5 v -1.59375 c 0,-0.15625 0.046875,-0.21875 0.15625,-0.21875 h 0.296875 c 0.8125,0 1.234375,0.34375 1.234375,0.953125 z m 0,0"
             style="stroke:none;stroke-width:0"
             inkscape:connector-curvature="0" /></g></g></g><g
       id="g2653"
       ns1:jacobian_sqrt="1.8"
       inkscapeversion="0.92.4"
       ns1:alignment="middle center"
       ns1:scale="1.35"
       ns1:preamble="C:\\texlive\\texmf-local\\tex\\latex\\default_packages_guit.tex"
       ns1:text="$\\beta$"
       ns1:pdfconverter="pdf2svg"
       ns1:texconverter="pdflatex"
       ns1:version="0.11.0"
       transform="matrix(1.8,0,0,-1.8,-260.34313,738.45799)"><g
         id="g2651"><g
           id="g2649"
           style="fill:#000000;fill-opacity:1"><path
             id="path2647"
             transform="translate(148.712,134.765)"
             d="M 5.5,-5.90625 C 5.5,-6.75 4.828125,-7.140625 4.140625,-7.140625 2.6875,-7.140625 2,-5.296875 1.71875,-3.984375 L 0.296875,2.140625 1,2.078125 l 0.609375,-2.625 c 0.03125,0.0625 0.21875,0.671875 1,0.671875 0.921875,0 2.71875,-0.90625 2.71875,-2.640625 0,-1 -0.71875,-1.40625 -1.0625,-1.546875 C 4.875,-4.40625 5.5,-5.03125 5.5,-5.90625 Z M 4.734375,-6.109375 c 0,0.640625 -0.265625,1.34375 -0.859375,1.875 -0.296875,-0.09375 -0.5625,-0.171875 -0.796875,-0.171875 -0.25,0 -0.609375,0.125 -0.609375,0.40625 0,0.25 0.359375,0.34375 0.625,0.34375 0.328125,0 0.65625,-0.171875 0.828125,-0.234375 0.4375,0.3125 0.609375,0.796875 0.609375,1.28125 0,0.640625 -0.28125,1.296875 -0.5625,1.6875 -0.484375,0.671875 -1.015625,0.75 -1.328125,0.75 -0.5625,0 -0.71875,-0.609375 -0.71875,-1.28125 0,-0.59375 0.125,-1.234375 0.1875,-1.484375 l 0.1875,-0.9375 c 0.328125,-1.484375 0.90625,-3.03125 1.84375,-3.03125 0.421875,0 0.59375,0.375 0.59375,0.796875 z m 0,0"
             style="stroke:none;stroke-width:0"
             inkscape:connector-curvature="0" /></g></g></g><g
       id="g2858"
       ns1:jacobian_sqrt="1.8"
       inkscapeversion="0.92.4"
       ns1:alignment="middle center"
       ns1:scale="1.35"
       ns1:preamble="C:\\texlive\\texmf-local\\tex\\latex\\default_packages_guit.tex"
       ns1:text="$V_{\\infty}$"
       ns1:pdfconverter="pdf2svg"
       ns1:texconverter="pdflatex"
       ns1:version="0.11.0"
       transform="matrix(1.8,0,0,-1.8,-299.34955,699.93216)"><g
         id="g2856"><g
           id="g2850"
           style="fill:#000000;fill-opacity:1"><path
             id="path2848"
             transform="translate(148.712,134.765)"
             d="M 7.34375,-6.5625 V -6.734375 H 5.4375 V -6.5625 c 0.203125,0 0.546875,0.09375 0.546875,0.359375 0,0.234375 -0.25,0.65625 -0.375,0.84375 L 2.953125,-1.4375 2.765625,-5.796875 C 2.734375,-6.4375 3.078125,-6.5625 3.625,-6.5625 V -6.734375 H 1.03125 V -6.5625 c 0.6875,0 0.734375,0.296875 0.828125,1.125 l 0.21875,5.59375 H 2.25 l 4.046875,-5.921875 c 0.1875,-0.25 0.609375,-0.796875 1.046875,-0.796875 z m 0,0"
             style="stroke:none;stroke-width:0"
             inkscape:connector-curvature="0" /></g><g
           id="g2854"
           style="fill:#000000;fill-opacity:1"><path
             id="path2852"
             d="m 161.13729,134.58713 c 0,-1.15625 -0.76562,-1.75 -1.5625,-1.75 -0.875,0 -1.57812,0.96875 -1.8125,1.25 -0.26562,-0.34375 -0.92187,-1.25 -1.98437,-1.25 -1.10938,0 -1.60938,1.04687 -1.60938,1.76562 0,0.89063 0.57813,1.73438 1.5625,1.73438 0.89063,0 1.5,-0.90625 1.78125,-1.26563 0.26563,0.35938 1.01563,1.26563 1.98438,1.26563 0.96875,0 1.64062,-0.89063 1.64062,-1.75 z m -0.3125,0 c 0,0.40625 -0.34375,1.07812 -1.125,1.07812 -0.875,0 -1.51562,-1 -1.6875,-1.25 0.26563,-0.34375 0.85938,-1.21875 1.625,-1.21875 0.46875,0 1.1875,0.48438 1.1875,1.39063 z m -3.53125,0.14062 c -0.3125,0.375 -0.875,1.25 -1.60937,1.25 -0.4375,0 -1.1875,-0.4375 -1.1875,-1.35937 0,-0.5 0.40625,-1.10938 1.07812,-1.10938 0.875,0 1.46875,0.875 1.71875,1.21875 z m 0,0"
             style="stroke:none;stroke-width:0"
             inkscape:connector-curvature="0" /></g></g></g></g></svg>