<?xml version="1.0" encoding="UTF-8" standalone="no"?>
<!-- Created with Inkscape (http://www.inkscape.org/) -->

<svg
   xmlns:ns1="http://www.iki.fi/pav/software/textext/"
   xmlns:dc="http://purl.org/dc/elements/1.1/"
   xmlns:cc="http://creativecommons.org/ns#"
   xmlns:rdf="http://www.w3.org/1999/02/22-rdf-syntax-ns#"
   xmlns:svg="http://www.w3.org/2000/svg"
   xmlns="http://www.w3.org/2000/svg"
   xmlns:sodipodi="http://sodipodi.sourceforge.net/DTD/sodipodi-0.dtd"
   xmlns:inkscape="http://www.inkscape.org/namespaces/inkscape"
   version="1.1"
   id="svg2"
   xml:space="preserve"
   width="798.76935"
   height="272"
   viewBox="0 0 798.76935 272"
   sodipodi:docname="wing_basic.svg"
   inkscape:version="0.92.4 (5da689c313, 2019-01-14)"><metadata
     id="metadata8"><rdf:RDF><cc:Work
         rdf:about=""><dc:format>image/svg+xml</dc:format><dc:type
           rdf:resource="http://purl.org/dc/dcmitype/StillImage" /><dc:title /></cc:Work></rdf:RDF></metadata><defs
     id="defs6"><clipPath
       clipPathUnits="userSpaceOnUse"
       id="clipPath40"><path
         d="m -864,-2607 v 0 0 z"
         id="path38"
         inkscape:connector-curvature="0" /></clipPath></defs><sodipodi:namedview
     pagecolor="#ffffff"
     bordercolor="#666666"
     borderopacity="1"
     objecttolerance="10"
     gridtolerance="10"
     guidetolerance="10"
     inkscape:pageopacity="0"
     inkscape:pageshadow="2"
     inkscape:window-width="3440"
     inkscape:window-height="1346"
     id="namedview4"
     showgrid="false"
     inkscape:zoom="2.1132508"
     inkscape:cx="460.11046"
     inkscape:cy="104.74615"
     inkscape:window-x="-11"
     inkscape:window-y="-11"
     inkscape:window-maximized="1"
     inkscape:current-layer="g10" /><g
     id="g10"
     inkscape:groupmode="layer"
     inkscape:label="wing_basic"
     transform="matrix(0,1.3333333,1.3333333,0,-67.274667,-237.33333)"><path
       inkscape:connector-curvature="0"
       id="path14"
       style="fill:none;stroke:#231f20;stroke-width:1.77830398;stroke-linecap:butt;stroke-linejoin:miter;stroke-miterlimit:10;stroke-dasharray:none;stroke-opacity:1"
       d="M 353.9148,76.01388 C 311.4924,59.34756 264.2292,146.7108 220.2912,242.1624 M 349.0752,98.22756 c 0,-9.09144 6.06,-12.12192 4.5456,-22.72692 m -4.6524,22.72692 -44.8236,243.89004 m -74.7636,-87.834 c 0,-13.6368 -3.03,-15.1512 -9.09,-12.1212" /><path
       inkscape:connector-curvature="0"
       id="path16"
       style="fill:#a3adda;fill-opacity:1;fill-rule:evenodd;stroke:none;stroke-width:0.12"
       d="m 220.38,429.5916 c 21.2124,-19.6968 92.2044,-86.7816 83.3484,-87.8724 -15.8676,-1.626 -46.1652,43.1748 -84.8244,89.5032" /><path
       inkscape:connector-curvature="0"
       id="path18"
       style="fill:none;stroke:#2e3a70;stroke-width:1.0669812;stroke-linecap:butt;stroke-linejoin:miter;stroke-miterlimit:10;stroke-dasharray:none;stroke-opacity:1"
       d="m 220.38,429.5916 c 21.2124,-19.6968 92.2044,-86.7816 83.3484,-87.8724 -15.8676,-1.626 -46.1652,43.1748 -84.8244,89.5032" /><path
       inkscape:connector-curvature="0"
       id="path20"
       style="fill:none;stroke:#231f20;stroke-width:1.77830398;stroke-linecap:butt;stroke-linejoin:miter;stroke-miterlimit:10;stroke-dasharray:none;stroke-opacity:1"
       d="m 229.3812,254.2836 -10.644,177.3828 m -4.5072,193.824 c 0,13.6356 3.03,15.1512 10.6056,6.06 m 28.7916,-27.2712 c 9.0864,-12.1212 15.1512,-19.6968 22.7268,-53.0292 m -52.1832,81.0348 29.4564,-28.0056 M 218.7756,486.876 214.23,627.0048 M 302.1072,399.3324 276.354,552.7656 m -57.5784,-54.5448 16.6668,-13.6356 M 214.674,608.6016 231.6348,595.632 m 3.696,-111.564 -4.4304,112.6344 m 71.544,-196.7472 c -17.136,-2.8548 -48.3516,43.512 -83.6688,87.6552" /><path
       inkscape:connector-curvature="0"
       id="path22"
       style="fill:none;stroke:#2e3a70;stroke-width:1.77830398;stroke-linecap:butt;stroke-linejoin:miter;stroke-miterlimit:10;stroke-dasharray:none;stroke-opacity:1"
       d="M 353.424,224.1732 324.2592,250.218" /><path
       inkscape:connector-curvature="0"
       id="path24"
       style="fill:none;stroke:#2e3a70;stroke-width:1.77830398;stroke-linecap:round;stroke-linejoin:round;stroke-miterlimit:10;stroke-dasharray:none;stroke-opacity:1"
       d="m 326.7168,241.1592 c 1.6524,2.1816 -2.6352,8.79 -3.1992,10.0836 1.2132,-0.6768 7.734,-4.0236 9.9792,-2.4984" /><path
       inkscape:connector-curvature="0"
       id="path26"
       style="fill:none;stroke:#2e3a70;stroke-width:1.77830398;stroke-linecap:butt;stroke-linejoin:miter;stroke-miterlimit:10;stroke-dasharray:none;stroke-opacity:1"
       d="m 192.6732,359.9016 29.1636,-26.0448" /><path
       inkscape:connector-curvature="0"
       id="path28"
       style="fill:none;stroke:#2e3a70;stroke-width:1.77830398;stroke-linecap:round;stroke-linejoin:round;stroke-miterlimit:10;stroke-dasharray:none;stroke-opacity:1"
       d="m 219.3816,342.9168 c -1.6536,-2.1816 2.634,-8.79 3.198,-10.0836 -1.2144,0.6756 -7.7328,4.0236 -9.9792,2.4984" /><path
       inkscape:connector-curvature="0"
       id="path30"
       style="fill:none;stroke:#2e3a70;stroke-width:1.77830398;stroke-linecap:butt;stroke-linejoin:miter;stroke-miterlimit:10;stroke-dasharray:none;stroke-opacity:1"
       d="m 338.658,405.2832 c 0.3768,-38.694 -21.0384,-26.28 -46.4196,-41.3256" /><path
       inkscape:connector-curvature="0"
       id="path32"
       style="fill:none;stroke:#2e3a70;stroke-width:1.77830398;stroke-linecap:round;stroke-linejoin:round;stroke-miterlimit:10;stroke-dasharray:none;stroke-opacity:1"
       d="m 301.5468,362.7504 c -1.38,2.3628 -9.1272,0.9396 -10.5384,0.9144 1.0896,0.8616 6.6828,5.598 6.1356,8.2572" /><g
       id="g34"
       transform="scale(0.12)"><g
         clip-path="url(#clipPath40)"
         id="g36"><g
           transform="matrix(0,685,4,0,2657.1,-76.1)"
           id="g42"><rect
             id="rect44"
             style="fill:#000000;fill-opacity:1;fill-rule:nonzero"
             transform="matrix(1,0,0,-1,0,1)"
             height="1"
             width="1"
             y="0"
             x="0" /></g></g></g><g
       id="g934"
       ns1:jacobian_sqrt="2.0"
       inkscapeversion="0.92.4"
       ns1:alignment="middle center"
       ns1:scale="1.5"
       ns1:preamble="C:\\texlive\\texmf-local\\tex\\latex\\default_packages_guit.tex"
       ns1:text="leading edge"
       ns1:pdfconverter="pdf2svg"
       ns1:texconverter="pdflatex"
       ns1:version="0.11.0"
       transform="matrix(0,2,2,0,101.48927,-118.81864)"><g
         id="surface1"><g
           id="g919"
           style="fill:#000000;fill-opacity:1"><path
             id="path905"
             transform="translate(148.712,134.765)"
             d="m 2.5625,0 v -0.15625 c -0.640625,-0.03125 -0.75,-0.140625 -0.75,-0.6875 v -5.9375 L 1.78125,-6.8125 C 1.25,-6.640625 0.875,-6.546875 0.1875,-6.375 v 0.171875 H 0.25 c 0.109375,-0.015625 0.234375,-0.03125 0.3125,-0.03125 0.3125,0 0.421875,0.140625 0.421875,0.609375 v 4.75 c 0,0.546875 -0.140625,0.671875 -0.78125,0.71875 V 0 Z m 0,0"
             style="stroke:none;stroke-width:0"
             inkscape:connector-curvature="0" /><path
             id="path907"
             transform="translate(151.4816,134.765)"
             d="M 4.234375,-1.5625 4.0625,-1.640625 C 3.59375,-0.875 3.15625,-0.59375 2.515625,-0.59375 c -0.546875,0 -0.953125,-0.25 -1.25,-0.796875 C 1.0625,-1.78125 0.984375,-2.125 0.96875,-2.765625 h 3.0625 C 3.953125,-3.40625 3.859375,-3.703125 3.609375,-4.015625 3.3125,-4.375 2.84375,-4.578125 2.328125,-4.578125 1.09375,-4.578125 0.25,-3.59375 0.25,-2.140625 0.25,-0.75 0.96875,0.09375 2.109375,0.09375 c 0.96875,0 1.703125,-0.578125 2.125,-1.65625 z m -1.21875,-1.515625 h -2.03125 c 0.109375,-0.796875 0.453125,-1.15625 1.0625,-1.15625 0.609375,0 0.84375,0.28125 0.96875,1.15625 z m 0,0"
             style="stroke:none;stroke-width:0"
             inkscape:connector-curvature="0" /><path
             id="path909"
             transform="translate(155.905,134.765)"
             d="m 4.40625,-0.40625 v -0.25 c -0.171875,0.140625 -0.296875,0.1875 -0.4375,0.1875 -0.234375,0 -0.296875,-0.140625 -0.296875,-0.578125 v -1.9375 C 3.671875,-3.5 3.625,-3.78125 3.484375,-4 c -0.21875,-0.390625 -0.640625,-0.578125 -1.25,-0.578125 -0.515625,0 -0.984375,0.125 -1.265625,0.359375 -0.25,0.21875 -0.40625,0.5 -0.40625,0.75 0,0.234375 0.1875,0.421875 0.421875,0.421875 0.234375,0 0.453125,-0.1875 0.453125,-0.40625 0,-0.046875 -0.015625,-0.09375 -0.015625,-0.171875 -0.03125,-0.078125 -0.03125,-0.15625 -0.03125,-0.234375 0,-0.265625 0.3125,-0.484375 0.71875,-0.484375 0.484375,0 0.75,0.28125 0.75,0.828125 v 0.609375 c -1.53125,0.609375 -1.703125,0.6875 -2.125,1.078125 -0.21875,0.1875 -0.359375,0.53125 -0.359375,0.859375 0,0.625 0.421875,1.0625 1.046875,1.0625 0.4375,0 0.84375,-0.203125 1.453125,-0.71875 0.046875,0.53125 0.21875,0.71875 0.640625,0.71875 0.328125,0 0.546875,-0.109375 0.890625,-0.5 z m -1.546875,-0.8125 c 0,0.296875 -0.046875,0.390625 -0.25,0.515625 -0.25,0.140625 -0.53125,0.21875 -0.734375,0.21875 C 1.53125,-0.484375 1.25,-0.8125 1.25,-1.25 v -0.03125 c 0,-0.59375 0.40625,-0.953125 1.609375,-1.390625 z m 0,0"
             style="stroke:none;stroke-width:0"
             inkscape:connector-curvature="0" /><path
             id="path911"
             transform="translate(160.32839,134.765)"
             d="m 4.890625,-0.421875 v -0.15625 C 4.71875,-0.5625 4.6875,-0.5625 4.671875,-0.5625 c -0.359375,0 -0.4375,-0.109375 -0.4375,-0.578125 V -6.78125 L 4.171875,-6.8125 C 3.703125,-6.640625 3.34375,-6.546875 2.71875,-6.375 v 0.171875 c 0.078125,-0.015625 0.125,-0.015625 0.21875,-0.015625 0.359375,0 0.453125,0.09375 0.453125,0.5 v 1.5625 c -0.375,-0.3125 -0.65625,-0.421875 -1.046875,-0.421875 -1.140625,0 -2.078125,1.125 -2.078125,2.53125 0,1.28125 0.75,2.140625 1.84375,2.140625 0.5625,0 0.9375,-0.1875 1.28125,-0.65625 v 0.625 l 0.03125,0.03125 z m -1.5,-0.59375 c 0,0.0625 -0.078125,0.1875 -0.171875,0.296875 -0.171875,0.203125 -0.421875,0.296875 -0.71875,0.296875 -0.828125,0 -1.375,-0.796875 -1.375,-2.015625 0,-1.125 0.484375,-1.875 1.25,-1.875 0.53125,0 1.015625,0.46875 1.015625,1 z m 0,0"
             style="stroke:none;stroke-width:0"
             inkscape:connector-curvature="0" /><path
             id="path913"
             transform="translate(165.30969,134.765)"
             d="M 2.515625,0 V -0.15625 C 1.859375,-0.203125 1.78125,-0.296875 1.78125,-1.015625 V -4.5625 L 1.75,-4.578125 0.203125,-4.03125 v 0.140625 H 0.28125 c 0.125,-0.03125 0.25,-0.03125 0.34375,-0.03125 0.234375,0 0.328125,0.15625 0.328125,0.59375 v 2.3125 c 0,0.71875 -0.109375,0.828125 -0.796875,0.859375 V 0 Z M 1.875,-5.875 c 0,-0.28125 -0.21875,-0.515625 -0.515625,-0.515625 -0.265625,0 -0.5,0.234375 -0.5,0.515625 0,0.28125 0.234375,0.5 0.5,0.5 0.296875,0 0.515625,-0.21875 0.515625,-0.5 z m 0,0"
             style="stroke:none;stroke-width:0"
             inkscape:connector-curvature="0" /><path
             id="path915"
             transform="translate(168.07929,134.765)"
             d="M 4.828125,0 V -0.15625 C 4.34375,-0.203125 4.234375,-0.3125 4.234375,-0.8125 v -2.28125 c 0,-0.9375 -0.453125,-1.484375 -1.1875,-1.484375 -0.453125,0 -0.765625,0.15625 -1.4375,0.796875 V -4.5625 L 1.53125,-4.578125 c -0.484375,0.171875 -0.828125,0.28125 -1.375,0.4375 V -3.96875 C 0.21875,-4 0.3125,-4 0.421875,-4 c 0.28125,0 0.375,0.140625 0.375,0.625 v 2.484375 c 0,0.5625 -0.109375,0.703125 -0.625,0.734375 V 0 h 2.125 V -0.15625 C 1.78125,-0.1875 1.640625,-0.3125 1.640625,-0.671875 V -3.46875 c 0.46875,-0.453125 0.6875,-0.5625 1.015625,-0.5625 0.5,0 0.734375,0.296875 0.734375,0.953125 v 2.09375 c 0,0.625 -0.125,0.796875 -0.625,0.828125 V 0 Z m 0,0"
             style="stroke:none;stroke-width:0"
             inkscape:connector-curvature="0" /><path
             id="path917"
             transform="translate(173.06059,134.765)"
             d="M 4.6875,-3.875 V -4.25 H 3.921875 C 3.71875,-4.25 3.5625,-4.28125 3.375,-4.359375 L 3.15625,-4.4375 C 2.875,-4.53125 2.609375,-4.578125 2.359375,-4.578125 c -0.9375,0 -1.671875,0.703125 -1.671875,1.625 0,0.625 0.265625,1 0.921875,1.328125 L 1.1875,-1.21875 c -0.328125,0.28125 -0.453125,0.484375 -0.453125,0.6875 0,0.203125 0.109375,0.328125 0.515625,0.515625 -0.703125,0.53125 -0.96875,0.859375 -0.96875,1.21875 0,0.53125 0.78125,0.96875 1.71875,0.96875 0.75,0 1.53125,-0.265625 2.046875,-0.671875 0.375,-0.3125 0.546875,-0.625 0.546875,-1.015625 0,-0.609375 -0.46875,-1.03125 -1.203125,-1.0625 l -1.28125,-0.0625 C 1.578125,-0.65625 1.328125,-0.75 1.328125,-0.90625 c 0,-0.203125 0.328125,-0.546875 0.59375,-0.625 0.09375,0 0.15625,0.015625 0.1875,0.015625 C 2.296875,-1.5 2.4375,-1.484375 2.5,-1.484375 c 0.359375,0 0.765625,-0.15625 1.0625,-0.421875 0.328125,-0.28125 0.484375,-0.625 0.484375,-1.125 C 4.046875,-3.3125 4,-3.546875 3.859375,-3.875 Z m -0.375,4.515625 c 0,0.578125 -0.75,0.96875 -1.875,0.96875 -0.875,0 -1.453125,-0.296875 -1.453125,-0.734375 0,-0.234375 0.0625,-0.359375 0.484375,-0.859375 0.328125,0.078125 1.125,0.140625 1.609375,0.140625 0.90625,0 1.234375,0.125 1.234375,0.484375 z m -1.03125,-3.28125 c 0,0.5625 -0.296875,0.90625 -0.75,0.90625 -0.59375,0 -1.015625,-0.640625 -1.015625,-1.609375 V -3.375 c 0,-0.578125 0.28125,-0.9375 0.734375,-0.9375 0.3125,0 0.578125,0.171875 0.734375,0.46875 0.171875,0.359375 0.296875,0.8125 0.296875,1.203125 z m 0,0"
             style="stroke:none;stroke-width:0"
             inkscape:connector-curvature="0" /></g><g
           id="g927"
           style="fill:#000000;fill-opacity:1"><path
             id="path921"
             transform="translate(180.53254,134.765)"
             d="M 4.234375,-1.5625 4.0625,-1.640625 C 3.59375,-0.875 3.15625,-0.59375 2.515625,-0.59375 c -0.546875,0 -0.953125,-0.25 -1.25,-0.796875 C 1.0625,-1.78125 0.984375,-2.125 0.96875,-2.765625 h 3.0625 C 3.953125,-3.40625 3.859375,-3.703125 3.609375,-4.015625 3.3125,-4.375 2.84375,-4.578125 2.328125,-4.578125 1.09375,-4.578125 0.25,-3.59375 0.25,-2.140625 0.25,-0.75 0.96875,0.09375 2.109375,0.09375 c 0.96875,0 1.703125,-0.578125 2.125,-1.65625 z m -1.21875,-1.515625 h -2.03125 c 0.109375,-0.796875 0.453125,-1.15625 1.0625,-1.15625 0.609375,0 0.84375,0.28125 0.96875,1.15625 z m 0,0"
             style="stroke:none;stroke-width:0"
             inkscape:connector-curvature="0" /><path
             id="path923"
             transform="translate(184.95594,134.765)"
             d="m 4.890625,-0.421875 v -0.15625 C 4.71875,-0.5625 4.6875,-0.5625 4.671875,-0.5625 c -0.359375,0 -0.4375,-0.109375 -0.4375,-0.578125 V -6.78125 L 4.171875,-6.8125 C 3.703125,-6.640625 3.34375,-6.546875 2.71875,-6.375 v 0.171875 c 0.078125,-0.015625 0.125,-0.015625 0.21875,-0.015625 0.359375,0 0.453125,0.09375 0.453125,0.5 v 1.5625 c -0.375,-0.3125 -0.65625,-0.421875 -1.046875,-0.421875 -1.140625,0 -2.078125,1.125 -2.078125,2.53125 0,1.28125 0.75,2.140625 1.84375,2.140625 0.5625,0 0.9375,-0.1875 1.28125,-0.65625 v 0.625 l 0.03125,0.03125 z m -1.5,-0.59375 c 0,0.0625 -0.078125,0.1875 -0.171875,0.296875 -0.171875,0.203125 -0.421875,0.296875 -0.71875,0.296875 -0.828125,0 -1.375,-0.796875 -1.375,-2.015625 0,-1.125 0.484375,-1.875 1.25,-1.875 0.53125,0 1.015625,0.46875 1.015625,1 z m 0,0"
             style="stroke:none;stroke-width:0"
             inkscape:connector-curvature="0" /><path
             id="path925"
             transform="translate(189.93724,134.765)"
             d="M 4.6875,-3.875 V -4.25 H 3.921875 C 3.71875,-4.25 3.5625,-4.28125 3.375,-4.359375 L 3.15625,-4.4375 C 2.875,-4.53125 2.609375,-4.578125 2.359375,-4.578125 c -0.9375,0 -1.671875,0.703125 -1.671875,1.625 0,0.625 0.265625,1 0.921875,1.328125 L 1.1875,-1.21875 c -0.328125,0.28125 -0.453125,0.484375 -0.453125,0.6875 0,0.203125 0.109375,0.328125 0.515625,0.515625 -0.703125,0.53125 -0.96875,0.859375 -0.96875,1.21875 0,0.53125 0.78125,0.96875 1.71875,0.96875 0.75,0 1.53125,-0.265625 2.046875,-0.671875 0.375,-0.3125 0.546875,-0.625 0.546875,-1.015625 0,-0.609375 -0.46875,-1.03125 -1.203125,-1.0625 l -1.28125,-0.0625 C 1.578125,-0.65625 1.328125,-0.75 1.328125,-0.90625 c 0,-0.203125 0.328125,-0.546875 0.59375,-0.625 0.09375,0 0.15625,0.015625 0.1875,0.015625 C 2.296875,-1.5 2.4375,-1.484375 2.5,-1.484375 c 0.359375,0 0.765625,-0.15625 1.0625,-0.421875 0.328125,-0.28125 0.484375,-0.625 0.484375,-1.125 C 4.046875,-3.3125 4,-3.546875 3.859375,-3.875 Z m -0.375,4.515625 c 0,0.578125 -0.75,0.96875 -1.875,0.96875 -0.875,0 -1.453125,-0.296875 -1.453125,-0.734375 0,-0.234375 0.0625,-0.359375 0.484375,-0.859375 0.328125,0.078125 1.125,0.140625 1.609375,0.140625 0.90625,0 1.234375,0.125 1.234375,0.484375 z m -1.03125,-3.28125 c 0,0.5625 -0.296875,0.90625 -0.75,0.90625 -0.59375,0 -1.015625,-0.640625 -1.015625,-1.609375 V -3.375 c 0,-0.578125 0.28125,-0.9375 0.734375,-0.9375 0.3125,0 0.578125,0.171875 0.734375,0.46875 0.171875,0.359375 0.296875,0.8125 0.296875,1.203125 z m 0,0"
             style="stroke:none;stroke-width:0"
             inkscape:connector-curvature="0" /></g><g
           id="g931"
           style="fill:#000000;fill-opacity:1"><path
             id="path929"
             transform="translate(194.66947,134.765)"
             d="M 4.234375,-1.5625 4.0625,-1.640625 C 3.59375,-0.875 3.15625,-0.59375 2.515625,-0.59375 c -0.546875,0 -0.953125,-0.25 -1.25,-0.796875 C 1.0625,-1.78125 0.984375,-2.125 0.96875,-2.765625 h 3.0625 C 3.953125,-3.40625 3.859375,-3.703125 3.609375,-4.015625 3.3125,-4.375 2.84375,-4.578125 2.328125,-4.578125 1.09375,-4.578125 0.25,-3.59375 0.25,-2.140625 0.25,-0.75 0.96875,0.09375 2.109375,0.09375 c 0.96875,0 1.703125,-0.578125 2.125,-1.65625 z m -1.21875,-1.515625 h -2.03125 c 0.109375,-0.796875 0.453125,-1.15625 1.0625,-1.15625 0.609375,0 0.84375,0.28125 0.96875,1.15625 z m 0,0"
             style="stroke:none;stroke-width:0"
             inkscape:connector-curvature="0" /></g></g></g><g
       id="g1053"
       ns1:jacobian_sqrt="2.0"
       inkscapeversion="0.92.4"
       ns1:alignment="middle center"
       ns1:scale="1.5"
       ns1:preamble="C:\\texlive\\texmf-local\\tex\\latex\\default_packages_guit.tex"
       ns1:text="trailing edge"
       ns1:pdfconverter="pdf2svg"
       ns1:texconverter="pdflatex"
       ns1:version="0.11.0"
       transform="matrix(0.000000,2.000000,2.000000,0.000000,-75.607552,68.116111)"><g
         id="g1051"><g
           id="g1037"
           style="fill:rgb(0%,0%,0%);fill-opacity:1;"><path
             id="path1021"
             transform="translate(148.712,134.765)"
             d="M 2.78125 -0.65625 L 2.65625 -0.765625 C 2.4375 -0.515625 2.265625 -0.421875 2.046875 -0.421875 C 1.6875 -0.421875 1.53125 -0.671875 1.53125 -1.3125 L 1.53125 -4.171875 L 2.546875 -4.171875 L 2.546875 -4.484375 L 1.53125 -4.484375 L 1.53125 -5.640625 C 1.53125 -5.734375 1.515625 -5.765625 1.46875 -5.765625 C 1.40625 -5.671875 1.328125 -5.578125 1.265625 -5.5 C 0.890625 -4.9375 0.5625 -4.578125 0.296875 -4.421875 C 0.1875 -4.359375 0.125 -4.296875 0.125 -4.234375 C 0.125 -4.203125 0.140625 -4.1875 0.171875 -4.171875 L 0.703125 -4.171875 L 0.703125 -1.171875 C 0.703125 -0.328125 1 0.09375 1.578125 0.09375 C 2.078125 0.09375 2.453125 -0.140625 2.78125 -0.65625 Z M 2.78125 -0.65625 "
             style="stroke:none;stroke-width:0" /><path
             id="path1023"
             transform="translate(151.481603,134.765)"
             d="M 3.34375 -4.0625 C 3.34375 -4.390625 3.125 -4.578125 2.796875 -4.578125 C 2.375 -4.578125 2.078125 -4.359375 1.59375 -3.65625 L 1.59375 -4.5625 L 1.546875 -4.578125 C 1.015625 -4.359375 0.65625 -4.234375 0.0625 -4.046875 L 0.0625 -3.890625 C 0.203125 -3.921875 0.296875 -3.921875 0.421875 -3.921875 C 0.671875 -3.921875 0.75 -3.765625 0.75 -3.328125 L 0.75 -0.84375 C 0.75 -0.34375 0.6875 -0.265625 0.046875 -0.15625 L 0.046875 0 L 2.4375 0 L 2.4375 -0.15625 C 1.765625 -0.171875 1.59375 -0.328125 1.59375 -0.890625 L 1.59375 -3.140625 C 1.59375 -3.453125 2.03125 -3.953125 2.296875 -3.953125 C 2.359375 -3.953125 2.4375 -3.90625 2.546875 -3.8125 C 2.71875 -3.671875 2.828125 -3.609375 2.953125 -3.609375 C 3.1875 -3.609375 3.34375 -3.78125 3.34375 -4.0625 Z M 3.34375 -4.0625 "
             style="stroke:none;stroke-width:0" /><path
             id="path1025"
             transform="translate(154.799149,134.765)"
             d="M 4.40625 -0.40625 L 4.40625 -0.65625 C 4.234375 -0.515625 4.109375 -0.46875 3.96875 -0.46875 C 3.734375 -0.46875 3.671875 -0.609375 3.671875 -1.046875 L 3.671875 -2.984375 C 3.671875 -3.5 3.625 -3.78125 3.484375 -4 C 3.265625 -4.390625 2.84375 -4.578125 2.234375 -4.578125 C 1.71875 -4.578125 1.25 -4.453125 0.96875 -4.21875 C 0.71875 -4 0.5625 -3.71875 0.5625 -3.46875 C 0.5625 -3.234375 0.75 -3.046875 0.984375 -3.046875 C 1.21875 -3.046875 1.4375 -3.234375 1.4375 -3.453125 C 1.4375 -3.5 1.421875 -3.546875 1.421875 -3.625 C 1.390625 -3.703125 1.390625 -3.78125 1.390625 -3.859375 C 1.390625 -4.125 1.703125 -4.34375 2.109375 -4.34375 C 2.59375 -4.34375 2.859375 -4.0625 2.859375 -3.515625 L 2.859375 -2.90625 C 1.328125 -2.296875 1.15625 -2.21875 0.734375 -1.828125 C 0.515625 -1.640625 0.375 -1.296875 0.375 -0.96875 C 0.375 -0.34375 0.796875 0.09375 1.421875 0.09375 C 1.859375 0.09375 2.265625 -0.109375 2.875 -0.625 C 2.921875 -0.09375 3.09375 0.09375 3.515625 0.09375 C 3.84375 0.09375 4.0625 -0.015625 4.40625 -0.40625 Z M 2.859375 -1.21875 C 2.859375 -0.921875 2.8125 -0.828125 2.609375 -0.703125 C 2.359375 -0.5625 2.078125 -0.484375 1.875 -0.484375 C 1.53125 -0.484375 1.25 -0.8125 1.25 -1.25 L 1.25 -1.28125 C 1.25 -1.875 1.65625 -2.234375 2.859375 -2.671875 Z M 2.859375 -1.21875 "
             style="stroke:none;stroke-width:0" /><path
             id="path1027"
             transform="translate(159.222543,134.765)"
             d="M 2.515625 0 L 2.515625 -0.15625 C 1.859375 -0.203125 1.78125 -0.296875 1.78125 -1.015625 L 1.78125 -4.5625 L 1.75 -4.578125 L 0.203125 -4.03125 L 0.203125 -3.890625 L 0.28125 -3.890625 C 0.40625 -3.921875 0.53125 -3.921875 0.625 -3.921875 C 0.859375 -3.921875 0.953125 -3.765625 0.953125 -3.328125 L 0.953125 -1.015625 C 0.953125 -0.296875 0.84375 -0.1875 0.15625 -0.15625 L 0.15625 0 Z M 1.875 -5.875 C 1.875 -6.15625 1.65625 -6.390625 1.359375 -6.390625 C 1.09375 -6.390625 0.859375 -6.15625 0.859375 -5.875 C 0.859375 -5.59375 1.09375 -5.375 1.359375 -5.375 C 1.65625 -5.375 1.875 -5.59375 1.875 -5.875 Z M 1.875 -5.875 "
             style="stroke:none;stroke-width:0" /><path
             id="path1029"
             transform="translate(161.992146,134.765)"
             d="M 2.5625 0 L 2.5625 -0.15625 C 1.921875 -0.1875 1.8125 -0.296875 1.8125 -0.84375 L 1.8125 -6.78125 L 1.78125 -6.8125 C 1.25 -6.640625 0.875 -6.546875 0.1875 -6.375 L 0.1875 -6.203125 L 0.25 -6.203125 C 0.359375 -6.21875 0.484375 -6.234375 0.5625 -6.234375 C 0.875 -6.234375 0.984375 -6.09375 0.984375 -5.625 L 0.984375 -0.875 C 0.984375 -0.328125 0.84375 -0.203125 0.203125 -0.15625 L 0.203125 0 Z M 2.5625 0 "
             style="stroke:none;stroke-width:0" /><path
             id="path1031"
             transform="translate(164.761749,134.765)"
             d="M 2.515625 0 L 2.515625 -0.15625 C 1.859375 -0.203125 1.78125 -0.296875 1.78125 -1.015625 L 1.78125 -4.5625 L 1.75 -4.578125 L 0.203125 -4.03125 L 0.203125 -3.890625 L 0.28125 -3.890625 C 0.40625 -3.921875 0.53125 -3.921875 0.625 -3.921875 C 0.859375 -3.921875 0.953125 -3.765625 0.953125 -3.328125 L 0.953125 -1.015625 C 0.953125 -0.296875 0.84375 -0.1875 0.15625 -0.15625 L 0.15625 0 Z M 1.875 -5.875 C 1.875 -6.15625 1.65625 -6.390625 1.359375 -6.390625 C 1.09375 -6.390625 0.859375 -6.15625 0.859375 -5.875 C 0.859375 -5.59375 1.09375 -5.375 1.359375 -5.375 C 1.65625 -5.375 1.875 -5.59375 1.875 -5.875 Z M 1.875 -5.875 "
             style="stroke:none;stroke-width:0" /><path
             id="path1033"
             transform="translate(167.531351,134.765)"
             d="M 4.828125 0 L 4.828125 -0.15625 C 4.34375 -0.203125 4.234375 -0.3125 4.234375 -0.8125 L 4.234375 -3.09375 C 4.234375 -4.03125 3.78125 -4.578125 3.046875 -4.578125 C 2.59375 -4.578125 2.28125 -4.421875 1.609375 -3.78125 L 1.609375 -4.5625 L 1.53125 -4.578125 C 1.046875 -4.40625 0.703125 -4.296875 0.15625 -4.140625 L 0.15625 -3.96875 C 0.21875 -4 0.3125 -4 0.421875 -4 C 0.703125 -4 0.796875 -3.859375 0.796875 -3.375 L 0.796875 -0.890625 C 0.796875 -0.328125 0.6875 -0.1875 0.171875 -0.15625 L 0.171875 0 L 2.296875 0 L 2.296875 -0.15625 C 1.78125 -0.1875 1.640625 -0.3125 1.640625 -0.671875 L 1.640625 -3.46875 C 2.109375 -3.921875 2.328125 -4.03125 2.65625 -4.03125 C 3.15625 -4.03125 3.390625 -3.734375 3.390625 -3.078125 L 3.390625 -0.984375 C 3.390625 -0.359375 3.265625 -0.1875 2.765625 -0.15625 L 2.765625 0 Z M 4.828125 0 "
             style="stroke:none;stroke-width:0" /><path
             id="path1035"
             transform="translate(172.512651,134.765)"
             d="M 4.6875 -3.875 L 4.6875 -4.25 L 3.921875 -4.25 C 3.71875 -4.25 3.5625 -4.28125 3.375 -4.359375 L 3.15625 -4.4375 C 2.875 -4.53125 2.609375 -4.578125 2.359375 -4.578125 C 1.421875 -4.578125 0.6875 -3.875 0.6875 -2.953125 C 0.6875 -2.328125 0.953125 -1.953125 1.609375 -1.625 L 1.1875 -1.21875 C 0.859375 -0.9375 0.734375 -0.734375 0.734375 -0.53125 C 0.734375 -0.328125 0.84375 -0.203125 1.25 -0.015625 C 0.546875 0.515625 0.28125 0.84375 0.28125 1.203125 C 0.28125 1.734375 1.0625 2.171875 2 2.171875 C 2.75 2.171875 3.53125 1.90625 4.046875 1.5 C 4.421875 1.1875 4.59375 0.875 4.59375 0.484375 C 4.59375 -0.125 4.125 -0.546875 3.390625 -0.578125 L 2.109375 -0.640625 C 1.578125 -0.65625 1.328125 -0.75 1.328125 -0.90625 C 1.328125 -1.109375 1.65625 -1.453125 1.921875 -1.53125 C 2.015625 -1.53125 2.078125 -1.515625 2.109375 -1.515625 C 2.296875 -1.5 2.4375 -1.484375 2.5 -1.484375 C 2.859375 -1.484375 3.265625 -1.640625 3.5625 -1.90625 C 3.890625 -2.1875 4.046875 -2.53125 4.046875 -3.03125 C 4.046875 -3.3125 4 -3.546875 3.859375 -3.875 Z M 4.3125 0.640625 C 4.3125 1.21875 3.5625 1.609375 2.4375 1.609375 C 1.5625 1.609375 0.984375 1.3125 0.984375 0.875 C 0.984375 0.640625 1.046875 0.515625 1.46875 0.015625 C 1.796875 0.09375 2.59375 0.15625 3.078125 0.15625 C 3.984375 0.15625 4.3125 0.28125 4.3125 0.640625 Z M 3.28125 -2.640625 C 3.28125 -2.078125 2.984375 -1.734375 2.53125 -1.734375 C 1.9375 -1.734375 1.515625 -2.375 1.515625 -3.34375 L 1.515625 -3.375 C 1.515625 -3.953125 1.796875 -4.3125 2.25 -4.3125 C 2.5625 -4.3125 2.828125 -4.140625 2.984375 -3.84375 C 3.15625 -3.484375 3.28125 -3.03125 3.28125 -2.640625 Z M 3.28125 -2.640625 "
             style="stroke:none;stroke-width:0" /></g><g
           id="g1045"
           style="fill:rgb(0%,0%,0%);fill-opacity:1;"><path
             id="path1039"
             transform="translate(179.984601,134.765)"
             d="M 4.234375 -1.5625 L 4.0625 -1.640625 C 3.59375 -0.875 3.15625 -0.59375 2.515625 -0.59375 C 1.96875 -0.59375 1.5625 -0.84375 1.265625 -1.390625 C 1.0625 -1.78125 0.984375 -2.125 0.96875 -2.765625 L 4.03125 -2.765625 C 3.953125 -3.40625 3.859375 -3.703125 3.609375 -4.015625 C 3.3125 -4.375 2.84375 -4.578125 2.328125 -4.578125 C 1.09375 -4.578125 0.25 -3.59375 0.25 -2.140625 C 0.25 -0.75 0.96875 0.09375 2.109375 0.09375 C 3.078125 0.09375 3.8125 -0.484375 4.234375 -1.5625 Z M 3.015625 -3.078125 L 0.984375 -3.078125 C 1.09375 -3.875 1.4375 -4.234375 2.046875 -4.234375 C 2.65625 -4.234375 2.890625 -3.953125 3.015625 -3.078125 Z M 3.015625 -3.078125 "
             style="stroke:none;stroke-width:0" /><path
             id="path1041"
             transform="translate(184.407996,134.765)"
             d="M 4.890625 -0.421875 L 4.890625 -0.578125 C 4.71875 -0.5625 4.6875 -0.5625 4.671875 -0.5625 C 4.3125 -0.5625 4.234375 -0.671875 4.234375 -1.140625 L 4.234375 -6.78125 L 4.171875 -6.8125 C 3.703125 -6.640625 3.34375 -6.546875 2.71875 -6.375 L 2.71875 -6.203125 C 2.796875 -6.21875 2.84375 -6.21875 2.9375 -6.21875 C 3.296875 -6.21875 3.390625 -6.125 3.390625 -5.71875 L 3.390625 -4.15625 C 3.015625 -4.46875 2.734375 -4.578125 2.34375 -4.578125 C 1.203125 -4.578125 0.265625 -3.453125 0.265625 -2.046875 C 0.265625 -0.765625 1.015625 0.09375 2.109375 0.09375 C 2.671875 0.09375 3.046875 -0.09375 3.390625 -0.5625 L 3.390625 0.0625 L 3.421875 0.09375 Z M 3.390625 -1.015625 C 3.390625 -0.953125 3.3125 -0.828125 3.21875 -0.71875 C 3.046875 -0.515625 2.796875 -0.421875 2.5 -0.421875 C 1.671875 -0.421875 1.125 -1.21875 1.125 -2.4375 C 1.125 -3.5625 1.609375 -4.3125 2.375 -4.3125 C 2.90625 -4.3125 3.390625 -3.84375 3.390625 -3.3125 Z M 3.390625 -1.015625 "
             style="stroke:none;stroke-width:0" /><path
             id="path1043"
             transform="translate(189.389296,134.765)"
             d="M 4.6875 -3.875 L 4.6875 -4.25 L 3.921875 -4.25 C 3.71875 -4.25 3.5625 -4.28125 3.375 -4.359375 L 3.15625 -4.4375 C 2.875 -4.53125 2.609375 -4.578125 2.359375 -4.578125 C 1.421875 -4.578125 0.6875 -3.875 0.6875 -2.953125 C 0.6875 -2.328125 0.953125 -1.953125 1.609375 -1.625 L 1.1875 -1.21875 C 0.859375 -0.9375 0.734375 -0.734375 0.734375 -0.53125 C 0.734375 -0.328125 0.84375 -0.203125 1.25 -0.015625 C 0.546875 0.515625 0.28125 0.84375 0.28125 1.203125 C 0.28125 1.734375 1.0625 2.171875 2 2.171875 C 2.75 2.171875 3.53125 1.90625 4.046875 1.5 C 4.421875 1.1875 4.59375 0.875 4.59375 0.484375 C 4.59375 -0.125 4.125 -0.546875 3.390625 -0.578125 L 2.109375 -0.640625 C 1.578125 -0.65625 1.328125 -0.75 1.328125 -0.90625 C 1.328125 -1.109375 1.65625 -1.453125 1.921875 -1.53125 C 2.015625 -1.53125 2.078125 -1.515625 2.109375 -1.515625 C 2.296875 -1.5 2.4375 -1.484375 2.5 -1.484375 C 2.859375 -1.484375 3.265625 -1.640625 3.5625 -1.90625 C 3.890625 -2.1875 4.046875 -2.53125 4.046875 -3.03125 C 4.046875 -3.3125 4 -3.546875 3.859375 -3.875 Z M 4.3125 0.640625 C 4.3125 1.21875 3.5625 1.609375 2.4375 1.609375 C 1.5625 1.609375 0.984375 1.3125 0.984375 0.875 C 0.984375 0.640625 1.046875 0.515625 1.46875 0.015625 C 1.796875 0.09375 2.59375 0.15625 3.078125 0.15625 C 3.984375 0.15625 4.3125 0.28125 4.3125 0.640625 Z M 3.28125 -2.640625 C 3.28125 -2.078125 2.984375 -1.734375 2.53125 -1.734375 C 1.9375 -1.734375 1.515625 -2.375 1.515625 -3.34375 L 1.515625 -3.375 C 1.515625 -3.953125 1.796875 -4.3125 2.25 -4.3125 C 2.5625 -4.3125 2.828125 -4.140625 2.984375 -3.84375 C 3.15625 -3.484375 3.28125 -3.03125 3.28125 -2.640625 Z M 3.28125 -2.640625 "
             style="stroke:none;stroke-width:0" /></g><g
           id="g1049"
           style="fill:rgb(0%,0%,0%);fill-opacity:1;"><path
             id="path1047"
             transform="translate(194.121531,134.765)"
             d="M 4.234375 -1.5625 L 4.0625 -1.640625 C 3.59375 -0.875 3.15625 -0.59375 2.515625 -0.59375 C 1.96875 -0.59375 1.5625 -0.84375 1.265625 -1.390625 C 1.0625 -1.78125 0.984375 -2.125 0.96875 -2.765625 L 4.03125 -2.765625 C 3.953125 -3.40625 3.859375 -3.703125 3.609375 -4.015625 C 3.3125 -4.375 2.84375 -4.578125 2.328125 -4.578125 C 1.09375 -4.578125 0.25 -3.59375 0.25 -2.140625 C 0.25 -0.75 0.96875 0.09375 2.109375 0.09375 C 3.078125 0.09375 3.8125 -0.484375 4.234375 -1.5625 Z M 3.015625 -3.078125 L 0.984375 -3.078125 C 1.09375 -3.875 1.4375 -4.234375 2.046875 -4.234375 C 2.65625 -4.234375 2.890625 -3.953125 3.015625 -3.078125 Z M 3.015625 -3.078125 "
             style="stroke:none;stroke-width:0" /></g></g></g><g
       id="g1182"
       ns1:jacobian_sqrt="2.0"
       inkscapeversion="0.92.4"
       ns1:alignment="middle center"
       ns1:scale="1.5"
       ns1:preamble="C:\\texlive\\texmf-local\\tex\\latex\\default_packages_guit.tex"
       ns1:text="airfoil"
       ns1:pdfconverter="pdf2svg"
       ns1:texconverter="pdflatex"
       ns1:version="0.11.0"
       transform="matrix(0,2,2,0,73.400602,112.02276)"><g
         id="g1180"><g
           id="g1166"
           style="fill:#000000;fill-opacity:1"><path
             id="path1160"
             transform="translate(148.712,134.765)"
             d="m 4.40625,-0.40625 v -0.25 c -0.171875,0.140625 -0.296875,0.1875 -0.4375,0.1875 -0.234375,0 -0.296875,-0.140625 -0.296875,-0.578125 v -1.9375 C 3.671875,-3.5 3.625,-3.78125 3.484375,-4 c -0.21875,-0.390625 -0.640625,-0.578125 -1.25,-0.578125 -0.515625,0 -0.984375,0.125 -1.265625,0.359375 -0.25,0.21875 -0.40625,0.5 -0.40625,0.75 0,0.234375 0.1875,0.421875 0.421875,0.421875 0.234375,0 0.453125,-0.1875 0.453125,-0.40625 0,-0.046875 -0.015625,-0.09375 -0.015625,-0.171875 -0.03125,-0.078125 -0.03125,-0.15625 -0.03125,-0.234375 0,-0.265625 0.3125,-0.484375 0.71875,-0.484375 0.484375,0 0.75,0.28125 0.75,0.828125 v 0.609375 c -1.53125,0.609375 -1.703125,0.6875 -2.125,1.078125 -0.21875,0.1875 -0.359375,0.53125 -0.359375,0.859375 0,0.625 0.421875,1.0625 1.046875,1.0625 0.4375,0 0.84375,-0.203125 1.453125,-0.71875 0.046875,0.53125 0.21875,0.71875 0.640625,0.71875 0.328125,0 0.546875,-0.109375 0.890625,-0.5 z m -1.546875,-0.8125 c 0,0.296875 -0.046875,0.390625 -0.25,0.515625 -0.25,0.140625 -0.53125,0.21875 -0.734375,0.21875 C 1.53125,-0.484375 1.25,-0.8125 1.25,-1.25 v -0.03125 c 0,-0.59375 0.40625,-0.953125 1.609375,-1.390625 z m 0,0"
             style="stroke:none;stroke-width:0"
             inkscape:connector-curvature="0" /><path
             id="path1162"
             transform="translate(153.13539,134.765)"
             d="M 2.515625,0 V -0.15625 C 1.859375,-0.203125 1.78125,-0.296875 1.78125,-1.015625 V -4.5625 L 1.75,-4.578125 0.203125,-4.03125 v 0.140625 H 0.28125 c 0.125,-0.03125 0.25,-0.03125 0.34375,-0.03125 0.234375,0 0.328125,0.15625 0.328125,0.59375 v 2.3125 c 0,0.71875 -0.109375,0.828125 -0.796875,0.859375 V 0 Z M 1.875,-5.875 c 0,-0.28125 -0.21875,-0.515625 -0.515625,-0.515625 -0.265625,0 -0.5,0.234375 -0.5,0.515625 0,0.28125 0.234375,0.5 0.5,0.5 0.296875,0 0.515625,-0.21875 0.515625,-0.5 z m 0,0"
             style="stroke:none;stroke-width:0"
             inkscape:connector-curvature="0" /><path
             id="path1164"
             transform="translate(155.905,134.765)"
             d="m 3.34375,-4.0625 c 0,-0.328125 -0.21875,-0.515625 -0.546875,-0.515625 -0.421875,0 -0.71875,0.21875 -1.203125,0.921875 V -4.5625 L 1.546875,-4.578125 c -0.53125,0.21875 -0.890625,0.34375 -1.484375,0.53125 v 0.15625 c 0.140625,-0.03125 0.234375,-0.03125 0.359375,-0.03125 0.25,0 0.328125,0.15625 0.328125,0.59375 v 2.484375 c 0,0.5 -0.0625,0.578125 -0.703125,0.6875 V 0 H 2.4375 V -0.15625 C 1.765625,-0.171875 1.59375,-0.328125 1.59375,-0.890625 v -2.25 c 0,-0.3125 0.4375,-0.8125 0.703125,-0.8125 0.0625,0 0.140625,0.046875 0.25,0.140625 0.171875,0.140625 0.28125,0.203125 0.40625,0.203125 0.234375,0 0.390625,-0.171875 0.390625,-0.453125 z m 0,0"
             style="stroke:none;stroke-width:0"
             inkscape:connector-curvature="0" /></g><g
           id="g1170"
           style="fill:#000000;fill-opacity:1"><path
             id="path1168"
             transform="translate(159.42179,134.765)"
             d="m 3.8125,-6.1875 c 0,-0.359375 -0.4375,-0.625 -1.03125,-0.625 -0.625,0 -1.140625,0.265625 -1.40625,0.71875 -0.265625,0.453125 -0.34375,0.8125 -0.34375,1.609375 H 0.203125 v 0.3125 H 1.03125 v 3.140625 c 0,0.71875 -0.109375,0.84375 -0.828125,0.875 V 0 h 2.59375 v -0.15625 c -0.828125,-0.015625 -0.9375,-0.140625 -0.9375,-0.875 v -3.140625 h 1.21875 v -0.3125 h -1.21875 v -1.15625 c 0,-0.59375 0.1875,-0.890625 0.5625,-0.890625 0.21875,0 0.34375,0.09375 0.53125,0.390625 0.15625,0.265625 0.28125,0.359375 0.453125,0.359375 0.234375,0 0.40625,-0.1875 0.40625,-0.40625 z m 0,0"
             style="stroke:none;stroke-width:0"
             inkscape:connector-curvature="0" /></g><g
           id="g1178"
           style="fill:#000000;fill-opacity:1"><path
             id="path1172"
             transform="translate(162.34084,134.765)"
             d="m 4.6875,-2.328125 c 0,-1.3125 -0.921875,-2.25 -2.1875,-2.25 -1.296875,0 -2.203125,0.953125 -2.203125,2.328125 0,1.34375 0.921875,2.34375 2.171875,2.34375 1.265625,0 2.21875,-1.046875 2.21875,-2.421875 z m -0.90625,0.34375 c 0,1.125 -0.4375,1.8125 -1.1875,1.8125 -0.390625,0 -0.765625,-0.25 -0.96875,-0.640625 -0.28125,-0.515625 -0.4375,-1.21875 -0.4375,-1.921875 0,-0.953125 0.46875,-1.578125 1.171875,-1.578125 0.84375,0 1.421875,0.96875 1.421875,2.328125 z m 0,0"
             style="stroke:none;stroke-width:0"
             inkscape:connector-curvature="0" /><path
             id="path1174"
             transform="translate(167.32214,134.765)"
             d="M 2.515625,0 V -0.15625 C 1.859375,-0.203125 1.78125,-0.296875 1.78125,-1.015625 V -4.5625 L 1.75,-4.578125 0.203125,-4.03125 v 0.140625 H 0.28125 c 0.125,-0.03125 0.25,-0.03125 0.34375,-0.03125 0.234375,0 0.328125,0.15625 0.328125,0.59375 v 2.3125 c 0,0.71875 -0.109375,0.828125 -0.796875,0.859375 V 0 Z M 1.875,-5.875 c 0,-0.28125 -0.21875,-0.515625 -0.515625,-0.515625 -0.265625,0 -0.5,0.234375 -0.5,0.515625 0,0.28125 0.234375,0.5 0.5,0.5 0.296875,0 0.515625,-0.21875 0.515625,-0.5 z m 0,0"
             style="stroke:none;stroke-width:0"
             inkscape:connector-curvature="0" /><path
             id="path1176"
             transform="translate(170.09174,134.765)"
             d="m 2.5625,0 v -0.15625 c -0.640625,-0.03125 -0.75,-0.140625 -0.75,-0.6875 v -5.9375 L 1.78125,-6.8125 C 1.25,-6.640625 0.875,-6.546875 0.1875,-6.375 v 0.171875 H 0.25 c 0.109375,-0.015625 0.234375,-0.03125 0.3125,-0.03125 0.3125,0 0.421875,0.140625 0.421875,0.609375 v 4.75 c 0,0.546875 -0.140625,0.671875 -0.78125,0.71875 V 0 Z m 0,0"
             style="stroke:none;stroke-width:0"
             inkscape:connector-curvature="0" /></g></g></g></g></svg>