<?xml version="1.0" encoding="UTF-8" standalone="no"?>
<!-- Created with Inkscape (http://www.inkscape.org/) -->

<svg
   xmlns:ns1="http://www.iki.fi/pav/software/textext/"
   xmlns:dc="http://purl.org/dc/elements/1.1/"
   xmlns:cc="http://creativecommons.org/ns#"
   xmlns:rdf="http://www.w3.org/1999/02/22-rdf-syntax-ns#"
   xmlns:svg="http://www.w3.org/2000/svg"
   xmlns="http://www.w3.org/2000/svg"
   xmlns:sodipodi="http://sodipodi.sourceforge.net/DTD/sodipodi-0.dtd"
   xmlns:inkscape="http://www.inkscape.org/namespaces/inkscape"
   version="1.1"
   id="svg2"
   xml:space="preserve"
   width="540.33728"
   height="320.67746"
   viewBox="0 0 540.33728 320.67746"
   sodipodi:docname="wing_fuselage_definitions_2.svg"
   inkscape:version="0.92.4 (5da689c313, 2019-01-14)"><metadata
     id="metadata8"><rdf:RDF><cc:Work
         rdf:about=""><dc:format>image/svg+xml</dc:format><dc:type
           rdf:resource="http://purl.org/dc/dcmitype/StillImage" /><dc:title></dc:title></cc:Work></rdf:RDF></metadata><defs
     id="defs6"><clipPath
       clipPathUnits="userSpaceOnUse"
       id="clipPath120"><path
         d="m 600,6417 v 0 z"
         id="path118"
         inkscape:connector-curvature="0" /></clipPath></defs><sodipodi:namedview
     pagecolor="#ffffff"
     bordercolor="#666666"
     borderopacity="1"
     objecttolerance="10"
     gridtolerance="10"
     guidetolerance="10"
     inkscape:pageopacity="0"
     inkscape:pageshadow="2"
     inkscape:window-width="2193"
     inkscape:window-height="1334"
     id="namedview4"
     showgrid="false"
     inkscape:zoom="1.5489256"
     inkscape:cx="445.04716"
     inkscape:cy="174.98307"
     inkscape:window-x="1235"
     inkscape:window-y="0"
     inkscape:window-maximized="0"
     inkscape:current-layer="g10"
     fit-margin-top="5"
     fit-margin-left="5"
     fit-margin-right="5e-06"
     fit-margin-bottom="5" /><g
     id="g10"
     inkscape:groupmode="layer"
     inkscape:label="wing_fuselage_definitions_2"
     transform="matrix(1.3333333,0,0,-1.3333333,-115.15501,1066.5859)"><path
       inkscape:connector-curvature="0"
       id="path14"
       style="fill:#e4e4e4;fill-opacity:1;fill-rule:nonzero;stroke:none;stroke-width:0.12"
       d="m 281.7228,753.8028 181.806,-1.3116 c 2.4012,-0.0396 2.3268,-4.1076 0,-4.0296 l -181.806,-1.968 v 7.3092" /><path
       inkscape:connector-curvature="0"
       id="path16"
       style="fill:none;stroke:#000000;stroke-width:1.64000404;stroke-linecap:round;stroke-linejoin:round;stroke-miterlimit:10;stroke-dasharray:none;stroke-opacity:1"
       d="m 281.7228,753.8028 181.806,-1.3116 c 2.4012,-0.0396 2.3268,-4.1076 0,-4.0296 l -181.806,-1.968 z" /><path
       inkscape:connector-curvature="0"
       id="path18"
       style="fill:#e4e4e4;fill-opacity:1;fill-rule:nonzero;stroke:none;stroke-width:0.12"
       d="M 280.9032,753.8028 99.09708,752.4912 c -2.40096,-0.0396 -2.32692,-4.1076 0,-4.0296 l 181.80612,-1.968 v 7.3092" /><path
       inkscape:connector-curvature="0"
       id="path20"
       style="fill:none;stroke:#000000;stroke-width:1.64000404;stroke-linecap:round;stroke-linejoin:round;stroke-miterlimit:10;stroke-dasharray:none;stroke-opacity:1"
       d="M 280.9032,753.8028 99.09708,752.4912 c -2.40096,-0.0396 -2.32692,-4.1076 0,-4.0296 l 181.80612,-1.968 z" /><path
       inkscape:connector-curvature="0"
       id="path22"
       style="fill:#e4e4e4;fill-opacity:1;fill-rule:nonzero;stroke:none;stroke-width:0.12"
       d="m 301.7832,728.8464 c 0,-14.8728 -9.342,-26.9424 -20.8512,-26.9424 -11.5104,0 -20.8512,12.0696 -20.8512,26.9424 0,14.8728 9.3408,26.9424 20.8512,26.9424 11.5092,0 20.8512,-12.0696 20.8512,-26.9424" /><path
       inkscape:connector-curvature="0"
       id="path24"
       style="fill:none;stroke:#000000;stroke-width:1.64000404;stroke-linecap:round;stroke-linejoin:round;stroke-miterlimit:10;stroke-dasharray:none;stroke-opacity:1"
       d="m 301.7832,728.8464 c 0,-14.8728 -9.342,-26.9424 -20.8512,-26.9424 -11.5104,0 -20.8512,12.0696 -20.8512,26.9424 0,14.8728 9.3408,26.9424 20.8512,26.9424 11.5092,0 20.8512,-12.0696 20.8512,-26.9424 z" /><path
       inkscape:connector-curvature="0"
       id="path26"
       style="fill:none;stroke:#000000;stroke-width:0.81999964;stroke-linecap:round;stroke-linejoin:miter;stroke-miterlimit:10;stroke-dasharray:2.46, 2.46;stroke-dashoffset:0;stroke-opacity:1"
       d="m 281.3124,697.9656 v 68.7" /><path
       inkscape:connector-curvature="0"
       id="path28"
       style="fill:none;stroke:#243577;stroke-width:1.64000404;stroke-linecap:round;stroke-linejoin:round;stroke-miterlimit:10;stroke-dasharray:none;stroke-opacity:1"
       d="m 281.3124,726.1056 v 68.634" /><path
       inkscape:connector-curvature="0"
       id="path30"
       style="fill:none;stroke:#243577;stroke-width:1.64000404;stroke-linecap:round;stroke-linejoin:round;stroke-miterlimit:10;stroke-dasharray:none;stroke-opacity:1"
       d="m 284.0292,792.1248 c -0.7728,0.1308 -2.5872,2.8584 -2.7168,3.2448 -0.1284,-0.3864 -1.944,-3.114 -2.7168,-3.2448" /><path
       inkscape:connector-curvature="0"
       id="path32"
       style="fill:#000000;fill-opacity:1;fill-rule:nonzero;stroke:none;stroke-width:0.12"
       d="m 105.32904,671.4684 c -1.54452,-0.5604 -2.00244,-0.8436 -4.00728,-1.476 -1.3416,-0.4236 -3.28452,-0.882 -4.81788,-1.2096 1.5108,-0.384 3.58404,-0.8988 4.81788,-1.1988 2.00484,-0.6324 2.46276,-0.9156 4.00728,-1.476 l -1.66032,2.6748 1.66032,2.6856" /><path
       inkscape:connector-curvature="0"
       id="path34"
       style="fill:none;stroke:#000000;stroke-width:0.65600038;stroke-linecap:butt;stroke-linejoin:miter;stroke-miterlimit:10;stroke-dasharray:none;stroke-opacity:1"
       d="M 99.45612,668.7876 H 462.036" /><path
       inkscape:connector-curvature="0"
       id="path36"
       style="fill:#000000;fill-opacity:1;fill-rule:nonzero;stroke:none;stroke-width:0.12"
       d="m 293.778,690.7116 c 1.5444,-0.5592 2.0028,-0.8424 4.008,-1.4748 1.3404,-0.4236 3.2832,-0.8832 4.8168,-1.2108 -1.5108,-0.3828 -3.5844,-0.8988 -4.8168,-1.1988 -2.0052,-0.6324 -2.4636,-0.9156 -4.008,-1.476 l 1.6596,2.6748 -1.6596,2.6856" /><path
       inkscape:connector-curvature="0"
       id="path38"
       style="fill:none;stroke:#000000;stroke-width:0.81999964;stroke-linecap:round;stroke-linejoin:miter;stroke-miterlimit:10;stroke-dasharray:2.46, 2.46;stroke-dashoffset:0;stroke-opacity:1"
       d="M 96.91404,745.3368 V 659.604" /><path
       inkscape:connector-curvature="0"
       id="path40"
       style="fill:none;stroke:#000000;stroke-width:0.81999964;stroke-linecap:round;stroke-linejoin:miter;stroke-miterlimit:10;stroke-dasharray:2.46, 2.46;stroke-dashoffset:0;stroke-opacity:1"
       d="M 465.7116,745.3368 V 659.604" /><path
       inkscape:connector-curvature="0"
       id="path42"
       style="fill:none;stroke:#000000;stroke-width:0.81999964;stroke-linecap:round;stroke-linejoin:miter;stroke-miterlimit:10;stroke-dasharray:2.46, 2.46;stroke-dashoffset:0;stroke-opacity:1"
       d="M 302.1924,723.0336 V 684.5328" /><path
       inkscape:connector-curvature="0"
       id="path44"
       style="fill:none;stroke:#000000;stroke-width:0.81999964;stroke-linecap:round;stroke-linejoin:miter;stroke-miterlimit:10;stroke-dasharray:2.46, 2.46;stroke-dashoffset:0;stroke-opacity:1"
       d="M 259.6704,723.0336 V 684.5328" /><path
       inkscape:connector-curvature="0"
       id="path46"
       style="fill:none;stroke:#000000;stroke-width:0.65600038;stroke-linecap:butt;stroke-linejoin:miter;stroke-miterlimit:10;stroke-dasharray:none;stroke-opacity:1"
       d="m 261.1452,688.032 h 39.2016" /><path
       inkscape:connector-curvature="0"
       id="path48"
       style="fill:#000000;fill-opacity:1;fill-rule:nonzero;stroke:none;stroke-width:0.12"
       d="m 268.086,690.7116 c -1.5456,-0.5592 -2.0028,-0.8424 -4.008,-1.4748 -1.3416,-0.4236 -3.2844,-0.8832 -4.818,-1.2108 1.5108,-0.3828 3.5844,-0.8988 4.818,-1.1988 2.0052,-0.6324 2.4624,-0.9156 4.008,-1.476 l -1.6608,2.6748 1.6608,2.6856" /><path
       inkscape:connector-curvature="0"
       id="path50"
       style="fill:#000000;fill-opacity:1;fill-rule:nonzero;stroke:none;stroke-width:0.12"
       d="m 457.296,671.4684 c 1.5456,-0.5604 2.0028,-0.8436 4.008,-1.476 1.3416,-0.4236 3.2844,-0.882 4.818,-1.2096 -1.5108,-0.384 -3.5844,-0.8988 -4.818,-1.1988 -2.0052,-0.6324 -2.4624,-0.9156 -4.008,-1.476 l 1.6608,2.6748 -1.6608,2.6856" /><path
       inkscape:connector-curvature="0"
       id="path52"
       style="fill:none;stroke:#000000;stroke-width:0.81999964;stroke-linecap:round;stroke-linejoin:miter;stroke-miterlimit:10;stroke-dasharray:2.46, 2.46;stroke-dashoffset:0;stroke-opacity:1"
       d="M 275.634,701.4936 H 214.9992" /><path
       inkscape:connector-curvature="0"
       id="path54"
       style="fill:none;stroke:#000000;stroke-width:0.81999964;stroke-linecap:round;stroke-linejoin:miter;stroke-miterlimit:10;stroke-dasharray:2.46, 2.46;stroke-dashoffset:0;stroke-opacity:1"
       d="M 275.634,756.1992 H 214.9992" /><path
       inkscape:connector-curvature="0"
       id="path56"
       style="fill:none;stroke:#000000;stroke-width:0.65600038;stroke-linecap:butt;stroke-linejoin:miter;stroke-miterlimit:10;stroke-dasharray:none;stroke-opacity:1"
       d="M 215.7624,751.428 V 704.3532" /><path
       inkscape:connector-curvature="0"
       id="path58"
       style="fill:#000000;fill-opacity:1;fill-rule:nonzero;stroke:none;stroke-width:0.12"
       d="m 218.442,744.27 c -0.5604,2.16 -0.8424,2.7996 -1.476,5.604 -0.4236,1.8744 -0.882,4.5912 -1.2096,6.7344 -0.384,-2.112 -0.8988,-5.0112 -1.1988,-6.7344 -0.6324,-2.8044 -0.9156,-3.444 -1.476,-5.604 l 2.6748,2.3208 2.6856,-2.3208" /><path
       inkscape:connector-curvature="0"
       id="path60"
       style="fill:#000000;fill-opacity:1;fill-rule:nonzero;stroke:none;stroke-width:0.12"
       d="m 218.442,713.4228 c -0.5604,-2.16 -0.8424,-2.7996 -1.476,-5.604 -0.4236,-1.8744 -0.882,-4.5912 -1.2096,-6.7356 -0.384,2.112 -0.8988,5.0112 -1.1988,6.7356 -0.6324,2.8044 -0.9156,3.444 -1.476,5.604 l 2.6748,-2.322 2.6856,2.322" /><path
       inkscape:connector-curvature="0"
       id="path62"
       style="fill:none;stroke:#000000;stroke-width:0.81999964;stroke-linecap:round;stroke-linejoin:miter;stroke-miterlimit:10;stroke-dasharray:2.46, 2.46;stroke-dashoffset:0;stroke-opacity:1"
       d="M 308.4432,728.8464 H 247.8096" /><path
       inkscape:connector-curvature="0"
       id="path64"
       style="fill:none;stroke:#243577;stroke-width:1.64000404;stroke-linecap:round;stroke-linejoin:round;stroke-miterlimit:10;stroke-dasharray:none;stroke-opacity:1"
       d="M 274.9824,728.8464 H 484.0008" /><path
       inkscape:connector-curvature="0"
       id="path66"
       style="fill:none;stroke:#243577;stroke-width:1.64000404;stroke-linecap:round;stroke-linejoin:round;stroke-miterlimit:10;stroke-dasharray:none;stroke-opacity:1"
       d="m 481.386,726.1296 c 0.1296,0.7728 2.8584,2.5872 3.2448,2.7168 -0.3864,0.1284 -3.1152,1.944 -3.2448,2.7168" /><path
       inkscape:connector-curvature="0"
       id="path68"
       style="fill:none;stroke:#000000;stroke-width:0.81999964;stroke-linecap:round;stroke-linejoin:miter;stroke-miterlimit:10;stroke-dasharray:2.46, 2.46;stroke-dashoffset:0;stroke-opacity:1"
       d="M 350.964,750.1476 H 290.3304" /><path
       inkscape:connector-curvature="0"
       id="path70"
       style="fill:none;stroke:#000000;stroke-width:0.65600038;stroke-linecap:round;stroke-linejoin:round;stroke-miterlimit:10;stroke-dasharray:none;stroke-opacity:1"
       d="M 347.01558,768.41109 320.0316,757.524 v -28.7844"
       sodipodi:nodetypes="ccc" /><path
       inkscape:connector-curvature="0"
       id="path72"
       style="fill:#000000;fill-opacity:1;fill-rule:nonzero;stroke:none;stroke-width:0.12"
       d="m 322.7124,738.2184 c -0.5616,2.16 -0.8436,2.7996 -1.4772,5.604 -0.4224,1.8744 -0.882,4.5924 -1.2084,6.7356 -0.3852,-2.112 -0.9,-5.0112 -1.2,-6.7356 -0.6324,-2.8044 -0.9156,-3.444 -1.476,-5.604 l 2.676,2.3208 2.6856,-2.3208" /><path
       inkscape:connector-curvature="0"
       id="path74"
       style="fill:#e4e4e4;fill-opacity:1;fill-rule:nonzero;stroke:none;stroke-width:0.12"
       d="m 281.7228,586.5228 181.806,11.808 c 2.4012,-0.0384 2.3268,-4.1076 0,-4.0296 l -181.806,-15.0876 v 7.3092" /><path
       inkscape:connector-curvature="0"
       id="path76"
       style="fill:none;stroke:#000000;stroke-width:1.64000404;stroke-linecap:round;stroke-linejoin:round;stroke-miterlimit:10;stroke-dasharray:none;stroke-opacity:1"
       d="m 281.7228,586.5228 181.806,11.808 c 2.4012,-0.0384 2.3268,-4.1076 0,-4.0296 l -181.806,-15.0876 z" /><path
       inkscape:connector-curvature="0"
       id="path78"
       style="fill:#e4e4e4;fill-opacity:1;fill-rule:nonzero;stroke:none;stroke-width:0.12"
       d="m 280.9032,586.5228 -181.80612,11.808 c -2.40096,-0.0384 -2.32692,-4.1076 0,-4.0296 L 280.9032,579.2136 v 7.3092" /><path
       inkscape:connector-curvature="0"
       id="path80"
       style="fill:none;stroke:#000000;stroke-width:1.64000404;stroke-linecap:round;stroke-linejoin:round;stroke-miterlimit:10;stroke-dasharray:none;stroke-opacity:1"
       d="m 280.9032,586.5228 -181.80612,11.808 c -2.40096,-0.0384 -2.32692,-4.1076 0,-4.0296 L 280.9032,579.2136 Z" /><path
       inkscape:connector-curvature="0"
       id="path82"
       style="fill:#e4e4e4;fill-opacity:1;fill-rule:nonzero;stroke:none;stroke-width:0.12"
       d="m 301.7832,601.5816 c 0,-14.8716 -9.342,-26.9424 -20.8512,-26.9424 -11.5104,0 -20.8512,12.0708 -20.8512,26.9424 0,14.8728 9.3408,26.9436 20.8512,26.9436 11.5092,0 20.8512,-12.0708 20.8512,-26.9436" /><path
       inkscape:connector-curvature="0"
       id="path84"
       style="fill:none;stroke:#000000;stroke-width:1.64000404;stroke-linecap:round;stroke-linejoin:round;stroke-miterlimit:10;stroke-dasharray:none;stroke-opacity:1"
       d="m 301.7832,601.5816 c 0,-14.8716 -9.342,-26.9424 -20.8512,-26.9424 -11.5104,0 -20.8512,12.0708 -20.8512,26.9424 0,14.8728 9.3408,26.9436 20.8512,26.9436 11.5092,0 20.8512,-12.0708 20.8512,-26.9436 z" /><path
       inkscape:connector-curvature="0"
       id="path86"
       style="fill:none;stroke:#000000;stroke-width:0.81999964;stroke-linecap:round;stroke-linejoin:miter;stroke-miterlimit:10;stroke-dasharray:2.46, 2.46;stroke-dashoffset:0;stroke-opacity:1"
       d="m 281.3124,570.702 v 68.7" /><path
       inkscape:connector-curvature="0"
       id="path88"
       style="fill:none;stroke:#243577;stroke-width:1.64000404;stroke-linecap:round;stroke-linejoin:round;stroke-miterlimit:10;stroke-dasharray:none;stroke-opacity:1"
       d="m 281.3124,598.842 v 49.6092" /><path
       inkscape:connector-curvature="0"
       id="path90"
       style="fill:none;stroke:#243577;stroke-width:1.64000404;stroke-linecap:round;stroke-linejoin:round;stroke-miterlimit:10;stroke-dasharray:none;stroke-opacity:1"
       d="m 284.0292,646.494 c -0.7728,0.1284 -2.5872,2.8584 -2.7168,3.2436 -0.1284,-0.3852 -1.944,-3.1152 -2.7168,-3.2436" /><path
       inkscape:connector-curvature="0"
       id="path92"
       style="fill:none;stroke:#000000;stroke-width:0.81999964;stroke-linecap:round;stroke-linejoin:miter;stroke-miterlimit:10;stroke-dasharray:2.46, 2.46;stroke-dashoffset:0;stroke-opacity:1"
       d="M 308.4432,601.5816 H 247.8096" /><path
       inkscape:connector-curvature="0"
       id="path94"
       style="fill:none;stroke:#243577;stroke-width:1.64000404;stroke-linecap:round;stroke-linejoin:round;stroke-miterlimit:10;stroke-dasharray:none;stroke-opacity:1"
       d="M 274.9824,601.5816 H 484.0008" /><path
       inkscape:connector-curvature="0"
       id="path96"
       style="fill:none;stroke:#243577;stroke-width:1.64000404;stroke-linecap:round;stroke-linejoin:round;stroke-miterlimit:10;stroke-dasharray:none;stroke-opacity:1"
       d="m 481.386,598.8648 c 0.1296,0.7728 2.8584,2.5884 3.2448,2.7168 -0.3864,0.1296 -3.1152,1.9452 -3.2448,2.718" /><path
       inkscape:connector-curvature="0"
       id="path98"
       style="fill:none;stroke:#000000;stroke-width:0.81999964;stroke-linecap:round;stroke-linejoin:miter;stroke-miterlimit:10;stroke-dasharray:2.46, 2.46;stroke-dashoffset:8.19999981;stroke-opacity:1"
       d="m 471.3876,596.9256 -180.12,-13.3548" /><path
       inkscape:connector-curvature="0"
       id="path100"
       style="fill:none;stroke:#000000;stroke-width:0.65600038;stroke-linecap:round;stroke-linejoin:round;stroke-miterlimit:10;stroke-dasharray:none;stroke-opacity:1"
       d="M 296.2584,601.9608 V 585.6396" /><path
       inkscape:connector-curvature="0"
       id="path102"
       style="fill:#000000;fill-opacity:1;fill-rule:nonzero;stroke:none;stroke-width:0.12"
       d="m 298.5156,593.3124 c -0.4644,-1.782 -0.6996,-2.3112 -1.224,-4.6248 -0.3516,-1.548 -0.7332,-3.7908 -1.0044,-5.5608 -0.3192,1.7436 -0.7464,4.1364 -0.996,5.5608 -0.5244,2.3136 -0.7596,2.8428 -1.2252,4.6248 l 2.2212,-1.9164 2.2284,1.9164" /><path
       inkscape:connector-curvature="0"
       id="path104"
       style="fill:none;stroke:#000000;stroke-width:0.81999964;stroke-linecap:round;stroke-linejoin:miter;stroke-miterlimit:10;stroke-dasharray:2.46, 2.46;stroke-dashoffset:0;stroke-opacity:1"
       d="M 271.5876,750.1476 H 255.5628" /><path
       inkscape:connector-curvature="0"
       id="path106"
       style="fill:none;stroke:#000000;stroke-width:0.81999964;stroke-linecap:round;stroke-linejoin:miter;stroke-miterlimit:10;stroke-dasharray:2.46, 2.46;stroke-dashoffset:8.19999981;stroke-opacity:1"
       d="M 90.53208,596.9256 270.6516,583.5708" /><path
       inkscape:connector-curvature="0"
       id="path108"
       style="fill:none;stroke:#000000;stroke-width:0.81999964;stroke-linecap:round;stroke-linejoin:miter;stroke-miterlimit:10;stroke-dasharray:2.46, 2.46;stroke-dashoffset:8.19999981;stroke-opacity:1"
       d="M 451.2384,578.8032 H 347.6844" /><path
       inkscape:connector-curvature="0"
       id="path110"
       style="fill:none;stroke:#000000;stroke-width:0.65600038;stroke-linecap:round;stroke-linejoin:round;stroke-miterlimit:10;stroke-dasharray:none;stroke-opacity:1"
       d="m 448.8552,578.6724 c 0.0444,8.7528 -0.7296,9.9828 -1.8144,13.8492" /><path
       inkscape:connector-curvature="0"
       id="path112"
       style="fill:#000000;fill-opacity:1;fill-rule:nonzero;stroke:none;stroke-width:0.12"
       d="m 450.9048,586.2708 c -0.888,1.614 -1.2456,2.07 -2.322,4.1844 -0.72,1.4148 -1.6392,3.4956 -2.3352,5.1444 0.1176,-1.7688 0.2892,-4.1928 0.3972,-5.634 0.0576,-2.3724 -0.0408,-2.9424 -0.054,-4.7856 l 1.6824,2.4024 2.6316,-1.3116" /><g
       id="g114"
       transform="scale(0.12)"><g
         clip-path="url(#clipPath120)"
         id="g116"><g
           transform="matrix(685,0,0,-4,-176.1,5277.9)"
           id="g122"><rect
             id="rect124"
             style="fill:#000000;fill-opacity:1;fill-rule:nonzero"
             transform="matrix(1,0,0,-1,0,1)"
             height="1"
             width="1"
             y="0"
             x="0" /></g></g></g><path
       inkscape:connector-curvature="0"
       id="path168"
       style="fill:none;stroke:#808080;stroke-width:0.99626404;stroke-linecap:butt;stroke-linejoin:miter;stroke-miterlimit:10;stroke-dasharray:none;stroke-opacity:1"
       d="m 295.1628,596.5272 -5.9436,7.0836 c -2.9112,3.4692 -0.7812,8.7828 3.72,9.2784 l 86.6808,9.57" /><path
       inkscape:connector-curvature="0"
       id="path184"
       style="fill:#121466;fill-opacity:1;fill-rule:nonzero;stroke:none;stroke-width:0.12"
       d="m 269.154,750.0456 c 0,0.8256 -0.6684,1.4952 -1.494,1.4952 -0.8244,0 -1.494,-0.6696 -1.494,-1.4952 0,-0.8244 0.6696,-1.494 1.494,-1.494 0.8256,0 1.494,0.6696 1.494,1.494" /><path
       inkscape:connector-curvature="0"
       id="path186"
       style="fill:none;stroke:#121466;stroke-width:0.7970112;stroke-linecap:butt;stroke-linejoin:miter;stroke-miterlimit:10;stroke-dasharray:none;stroke-opacity:1"
       d="m 269.154,750.0456 c 0,0.8256 -0.6684,1.4952 -1.494,1.4952 -0.8244,0 -1.494,-0.6696 -1.494,-1.4952 0,-0.8244 0.6696,-1.494 1.494,-1.494 0.8256,0 1.494,0.6696 1.494,1.494 z" /><path
       inkscape:connector-curvature="0"
       id="path188"
       style="fill:none;stroke:#808080;stroke-width:0.99626404;stroke-linecap:butt;stroke-linejoin:miter;stroke-miterlimit:10;stroke-dasharray:none;stroke-opacity:1"
       d="m 267.126,752.0376 -8.2248,30.696 c -0.2688,1.0044 -1.4928,1.3872 -2.286,0.714 l -5.5668,-4.7196 c -0.2556,-0.216 -0.5808,-0.336 -0.9168,-0.336 h -10.818" /><path
       inkscape:connector-curvature="0"
       id="path200"
       style="fill:#121466;fill-opacity:1;fill-rule:nonzero;stroke:none;stroke-width:0.12"
       d="m 266.736,584.046 c 0,0.8256 -0.6696,1.4952 -1.494,1.4952 -0.8256,0 -1.4952,-0.6696 -1.4952,-1.4952 0,-0.8244 0.6696,-1.494 1.4952,-1.494 0.8244,0 1.494,0.6696 1.494,1.494" /><path
       inkscape:connector-curvature="0"
       id="path202"
       style="fill:none;stroke:#121466;stroke-width:0.7970112;stroke-linecap:butt;stroke-linejoin:miter;stroke-miterlimit:10;stroke-dasharray:none;stroke-opacity:1"
       d="m 266.736,584.046 c 0,0.8256 -0.6696,1.4952 -1.494,1.4952 -0.8256,0 -1.4952,-0.6696 -1.4952,-1.4952 0,-0.8244 0.6696,-1.494 1.4952,-1.494 0.8244,0 1.494,0.6696 1.494,1.494 z" /><path
       inkscape:connector-curvature="0"
       id="path204"
       style="fill:none;stroke:#808080;stroke-width:0.99626404;stroke-linecap:butt;stroke-linejoin:miter;stroke-miterlimit:10;stroke-dasharray:none;stroke-opacity:1"
       d="m 264.708,582.054 -4.644,-17.328 c -0.2448,-0.9168 -1.3044,-1.338 -2.112,-0.84 l -9.3768,5.7768 c -0.2232,0.138 -0.4812,0.2112 -0.7428,0.2112 h -39.2832" /><path
       inkscape:connector-curvature="0"
       id="path216"
       style="fill:#ffffff;fill-opacity:1;fill-rule:nonzero;stroke:none;stroke-width:0.12"
       d="m 268.3752,668.6352 v 10.5204 h 26.4204 v -21.0408 h -26.4204" /><path
       inkscape:connector-curvature="0"
       id="path228"
       style="fill:#ffffff;fill-opacity:1;fill-rule:nonzero;stroke:none;stroke-width:0.12"
       d="M 269.3352,687.9492 V 698.4 h 23.1096 v -20.9028 h -23.1096" /><path
       inkscape:connector-curvature="0"
       id="path240"
       style="fill:#ffffff;fill-opacity:1;fill-rule:nonzero;stroke:none;stroke-width:0.12"
       d="m 203.6292,727.794 v 10.4508 H 227.634 V 717.342 h -24.0048" /><g
       id="g2610"
       ns1:jacobian_sqrt="1.8"
       inkscapeversion="0.92.4"
       ns1:alignment="middle center"
       ns1:scale="1.35"
       ns1:preamble="C:\\texlive\\texmf-local\\tex\\latex\\default_packages_guit.tex"
       ns1:text="$y_\\mathrm{C}$"
       ns1:pdfconverter="pdf2svg"
       ns1:texconverter="pdflatex"
       ns1:version="0.11.0"
       transform="matrix(1.8,0,0,-1.8,206.01817,958.96944)"><g
         id="g2608"><g
           id="g2602"
           style="fill:#000000;fill-opacity:1"><path
             id="path2600"
             transform="translate(148.712,134.765)"
             d="m 5.1875,-17.223959 c 0,-0.4375 -0.25,-0.671875 -0.546875,-0.671875 -0.234375,0 -0.390625,0.203125 -0.390625,0.40625 0,0.515625 0.5625,0.375 0.5625,0.703125 0,0.640625 -1.25,2.390625 -1.53125,2.828125 -0.09375,-2 -0.390625,-3.5 -0.734375,-3.9375 l -1.453125,0.28125 v 0.171875 c 0.09375,-0.03125 0.21875,-0.04687 0.359375,-0.04687 0.75,0 0.796875,0.75 1.1875,4.3125 -0.140625,0.421875 -1.03125,1.4375 -1.296875,1.4375 -0.1875,0 -0.171875,-0.328125 -0.5,-0.328125 -0.234375,0 -0.4375,0.21875 -0.4375,0.453125 0,0.3125 0.296875,0.421875 0.453125,0.421875 0.671875,0 1.875,-1.515625 2.90625,-3.046875 0.90625,-1.359375 1.421875,-2.40625 1.421875,-2.984375 z"
             style="stroke:none;stroke-width:0"
             inkscape:connector-curvature="0"
             sodipodi:nodetypes="ssssccccscsssscs" /></g><g
           id="g2606"
           style="fill:#000000;fill-opacity:1"><path
             id="path2604"
             transform="translate(154.261,136.259)"
             d="m 4.40625,-14.114584 -0.125,-0.125 c -0.515625,0.484375 -0.96875,0.703125 -1.546875,0.703125 -0.421875,0 -0.796875,-0.125 -1.09375,-0.375 C 1.234375,-14.255209 1,-14.880209 1,-15.692709 c 0,-1.25 0.65625,-2.078125 1.65625,-2.078125 0.40625,0 0.765625,0.15625 1.046875,0.4375 0.21875,0.21875 0.328125,0.40625 0.453125,0.859375 h 0.171875 l -0.0625,-1.5625 h -0.15625 c -0.046875,0.140625 -0.15625,0.21875 -0.28125,0.21875 -0.078125,0 -0.171875,-0.01563 -0.28125,-0.0625 -0.34375,-0.109375 -0.6875,-0.15625 -1.03125,-0.15625 -0.53125,0 -1.078125,0.1875 -1.5,0.546875 -0.53125,0.4375 -0.828125,1.09375 -0.828125,1.890625 0,1.421875 0.9375,2.359375 2.328125,2.359375 0.78125,0 1.46875,-0.3125 1.890625,-0.875 z"
             style="stroke:none;stroke-width:0"
             inkscape:connector-curvature="0"
             sodipodi:nodetypes="ccscsssccccscscssc" /></g></g></g><g
       id="g2768"
       ns1:jacobian_sqrt="1.8"
       inkscapeversion="0.92.4"
       ns1:alignment="middle center"
       ns1:scale="1.35"
       ns1:preamble="C:\\texlive\\texmf-local\\tex\\latex\\default_packages_guit.tex"
       ns1:text="$z_\\mathrm{C}$"
       ns1:pdfconverter="pdf2svg"
       ns1:texconverter="pdflatex"
       ns1:version="0.11.0"
       transform="matrix(1.8,0,0,-1.8,21.017032,1029.9358)"><g
         id="g2766"><g
           id="g2760"
           style="fill:#000000;fill-opacity:1"><path
             id="path2758"
             transform="translate(148.712,134.765)"
             d="m 4.453125,-4.5625 h -3.09375 l -0.4375,1.296875 H 1.125 c 0.25,-0.609375 0.484375,-0.625 0.84375,-0.625 h 1.625 L 0.15625,0 H 3.3125 L 3.765625,-1.328125 H 3.5625 c -0.234375,0.6875 -0.609375,0.6875 -0.984375,0.6875 H 1 Z m 0,0"
             style="stroke:none;stroke-width:0"
             inkscape:connector-curvature="0" /></g><g
           id="g2764"
           style="fill:#000000;fill-opacity:1"><path
             id="path2762"
             transform="translate(153.325,136.259)"
             d="m 4.40625,-0.78125 -0.125,-0.125 c -0.515625,0.484375 -0.96875,0.703125 -1.546875,0.703125 -0.421875,0 -0.796875,-0.125 -1.09375,-0.375 C 1.234375,-0.921875 1,-1.546875 1,-2.359375 c 0,-1.25 0.65625,-2.078125 1.65625,-2.078125 0.40625,0 0.765625,0.15625 1.046875,0.4375 0.21875,0.21875 0.328125,0.40625 0.453125,0.859375 h 0.171875 l -0.0625,-1.5625 h -0.15625 c -0.046875,0.140625 -0.15625,0.21875 -0.28125,0.21875 -0.078125,0 -0.171875,-0.015625 -0.28125,-0.0625 -0.34375,-0.109375 -0.6875,-0.15625 -1.03125,-0.15625 -0.53125,0 -1.078125,0.1875 -1.5,0.546875 -0.53125,0.4375 -0.828125,1.09375 -0.828125,1.890625 0,1.421875 0.9375,2.359375 2.328125,2.359375 0.78125,0 1.46875,-0.3125 1.890625,-0.875 z m 0,0"
             style="stroke:none;stroke-width:0"
             inkscape:connector-curvature="0" /></g></g></g><g
       transform="matrix(1.8,0,0,-1.8,21.017032,884.92193)"
       ns1:version="0.11.0"
       ns1:texconverter="pdflatex"
       ns1:pdfconverter="pdf2svg"
       ns1:text="$z_\\mathrm{C}$"
       ns1:preamble="C:\\texlive\\texmf-local\\tex\\latex\\default_packages_guit.tex"
       ns1:scale="1.35"
       ns1:alignment="middle center"
       inkscapeversion="0.92.4"
       ns1:jacobian_sqrt="1.8"
       id="g1228"><g
         id="g1226"><g
           style="fill:#000000;fill-opacity:1"
           id="g1220"><path
             inkscape:connector-curvature="0"
             style="stroke:none;stroke-width:0"
             d="m 4.453125,-4.5625 h -3.09375 l -0.4375,1.296875 H 1.125 c 0.25,-0.609375 0.484375,-0.625 0.84375,-0.625 h 1.625 L 0.15625,0 H 3.3125 L 3.765625,-1.328125 H 3.5625 c -0.234375,0.6875 -0.609375,0.6875 -0.984375,0.6875 H 1 Z m 0,0"
             transform="translate(148.712,134.765)"
             id="path1218" /></g><g
           style="fill:#000000;fill-opacity:1"
           id="g1224"><path
             inkscape:connector-curvature="0"
             style="stroke:none;stroke-width:0"
             d="m 4.40625,-0.78125 -0.125,-0.125 c -0.515625,0.484375 -0.96875,0.703125 -1.546875,0.703125 -0.421875,0 -0.796875,-0.125 -1.09375,-0.375 C 1.234375,-0.921875 1,-1.546875 1,-2.359375 c 0,-1.25 0.65625,-2.078125 1.65625,-2.078125 0.40625,0 0.765625,0.15625 1.046875,0.4375 0.21875,0.21875 0.328125,0.40625 0.453125,0.859375 h 0.171875 l -0.0625,-1.5625 h -0.15625 c -0.046875,0.140625 -0.15625,0.21875 -0.28125,0.21875 -0.078125,0 -0.171875,-0.015625 -0.28125,-0.0625 -0.34375,-0.109375 -0.6875,-0.15625 -1.03125,-0.15625 -0.53125,0 -1.078125,0.1875 -1.5,0.546875 -0.53125,0.4375 -0.828125,1.09375 -0.828125,1.890625 0,1.421875 0.9375,2.359375 2.328125,2.359375 0.78125,0 1.46875,-0.3125 1.890625,-0.875 z m 0,0"
             transform="translate(153.325,136.259)"
             id="path1222" /></g></g></g><g
       id="g1796"
       ns1:jacobian_sqrt="1.8"
       inkscapeversion="0.92.4"
       ns1:alignment="middle center"
       ns1:scale="1.35"
       ns1:preamble="C:\\texlive\\texmf-local\\tex\\latex\\default_packages_guit.tex"
       ns1:text="$b_\\mathrm{B}$"
       ns1:pdfconverter="pdf2svg"
       ns1:texconverter="pdflatex"
       ns1:version="0.11.0"
       transform="matrix(1.8,0,0,-1.8,4.7741625,925.44364)"><g
         id="g1794"><g
           id="g1788"
           style="fill:#000000;fill-opacity:1"><path
             id="path1786"
             transform="translate(148.712,134.765)"
             d="m 4.703125,-3.265625 c 0,-0.90625 -0.59375,-1.296875 -1.203125,-1.296875 -0.828125,0 -1.453125,0.78125 -1.734375,1.1875 l 1.03125,-3.765625 c 0,0 -1.34375,0.234375 -1.609375,0.25 v 0.1875 c 0.390625,0 0.640625,0.03125 0.640625,0.34375 0,0.1875 -0.09375,0.578125 -0.15625,0.8125 l -1.4375,5.09375 C 0.34375,-0.265625 1,0.125 1.640625,0.125 c 1.890625,0 3.0625,-1.875 3.0625,-3.390625 z m -0.828125,0.25 c 0,1.765625 -1.140625,2.921875 -2.171875,2.921875 -0.3125,0 -0.59375,-0.109375 -0.75,-0.3125 0.21875,-0.875 0.90625,-3.6875 2.203125,-3.6875 0.65625,0 0.71875,0.5625 0.71875,1.078125 z m 0,0"
             style="stroke:none;stroke-width:0"
             inkscape:connector-curvature="0" /></g><g
           id="g1792"
           style="fill:#000000;fill-opacity:1"><path
             id="path1790"
             transform="translate(153.724,136.259)"
             d="m 4.125,-1.25 c 0,-0.3125 -0.125,-0.59375 -0.328125,-0.796875 -0.21875,-0.1875 -0.40625,-0.265625 -0.859375,-0.375 0.359375,-0.09375 0.515625,-0.15625 0.671875,-0.3125 0.1875,-0.15625 0.28125,-0.40625 0.28125,-0.6875 0,-0.78125 -0.609375,-1.1875 -1.828125,-1.1875 H 0.125 v 0.125 c 0.578125,0.03125 0.65625,0.109375 0.65625,0.625 v 3.09375 C 0.78125,-0.25 0.703125,-0.15625 0.125,-0.125 V 0 H 2.453125 C 2.984375,0 3.484375,-0.140625 3.75,-0.390625 4,-0.609375 4.125,-0.921875 4.125,-1.25 Z m -0.796875,0 c 0,0.375 -0.140625,0.65625 -0.421875,0.8125 -0.21875,0.125 -0.515625,0.171875 -0.96875,0.171875 -0.34375,0 -0.4375,-0.0625 -0.4375,-0.28125 v -1.71875 c 0.671875,0 1,0.03125 1.25,0.140625 0.390625,0.15625 0.578125,0.4375 0.578125,0.875 z M 3.1875,-3.40625 c 0,0.546875 -0.375,0.859375 -1.03125,0.859375 H 1.5 v -1.59375 c 0,-0.15625 0.046875,-0.21875 0.15625,-0.21875 h 0.296875 c 0.8125,0 1.234375,0.34375 1.234375,0.953125 z m 0,0"
             style="stroke:none;stroke-width:0"
             inkscape:connector-curvature="0" /></g></g></g><g
       id="g2044"
       ns1:jacobian_sqrt="1.8"
       inkscapeversion="0.92.4"
       ns1:alignment="middle center"
       ns1:scale="1.35"
       ns1:preamble="C:\\texlive\\texmf-local\\tex\\latex\\default_packages_guit.tex"
       ns1:text="$b$"
       ns1:pdfconverter="pdf2svg"
       ns1:texconverter="pdflatex"
       ns1:version="0.11.0"
       transform="matrix(1.8,0,0,-1.8,9.46005,904.89814)"><g
         id="g2042"><g
           id="g2040"
           style="fill:#000000;fill-opacity:1"><path
             id="path2038"
             transform="translate(148.712,134.765)"
             d="m 4.703125,-3.265625 c 0,-0.90625 -0.59375,-1.296875 -1.203125,-1.296875 -0.828125,0 -1.453125,0.78125 -1.734375,1.1875 l 1.03125,-3.765625 c 0,0 -1.34375,0.234375 -1.609375,0.25 v 0.1875 c 0.390625,0 0.640625,0.03125 0.640625,0.34375 0,0.1875 -0.09375,0.578125 -0.15625,0.8125 l -1.4375,5.09375 C 0.34375,-0.265625 1,0.125 1.640625,0.125 c 1.890625,0 3.0625,-1.875 3.0625,-3.390625 z m -0.828125,0.25 c 0,1.765625 -1.140625,2.921875 -2.171875,2.921875 -0.3125,0 -0.59375,-0.109375 -0.75,-0.3125 0.21875,-0.875 0.90625,-3.6875 2.203125,-3.6875 0.65625,0 0.71875,0.5625 0.71875,1.078125 z m 0,0"
             style="stroke:none;stroke-width:0"
             inkscape:connector-curvature="0" /></g></g></g><g
       id="g2174"
       ns1:jacobian_sqrt="1.8"
       inkscapeversion="0.92.4"
       ns1:alignment="middle center"
       ns1:scale="1.35"
       ns1:preamble="C:\\texlive\\texmf-local\\tex\\latex\\default_packages_guit.tex"
       ns1:text="$A^\\star$"
       ns1:pdfconverter="pdf2svg"
       ns1:texconverter="pdflatex"
       ns1:version="0.11.0"
       transform="matrix(1.8,0,0,-1.8,-49.330694,1016.0097)"><g
         id="g2172"><g
           id="g2166"
           style="fill:#000000;fill-opacity:1"><path
             id="path2164"
             transform="translate(148.712,134.765)"
             d="M 6.546875,-0.171875 C 5.90625,-0.171875 5.84375,-0.46875 5.8125,-1.15625 L 5.578125,-6.875 H 5.375 l -3.890625,5.90625 c -0.453125,0.703125 -0.71875,0.796875 -1,0.796875 L 0.453125,0 h 1.84375 l 0.03125,-0.171875 c -0.328125,0 -0.5625,-0.09375 -0.5625,-0.375 0,-0.15625 0.078125,-0.375 0.265625,-0.671875 l 0.6875,-1.046875 H 4.8125 l 0.046875,1.28125 C 4.890625,-0.25 4.5625,-0.171875 4.03125,-0.171875 L 3.984375,0 h 2.53125 z m -1.75,-2.4375 H 2.953125 L 4.671875,-5.25 Z m 0,0"
             style="stroke:none;stroke-width:0"
             inkscape:connector-curvature="0" /></g><g
           id="g2170"
           style="fill:#000000;fill-opacity:1"><path
             id="path2168"
             d="m 156.85752,130.023 1.125,0.8125 -0.42188,-1.3125 1.10938,-0.79687 h -1.375 l -0.42188,-1.29688 -0.4375,1.29688 h -1.39062 l 1.125,0.79687 -0.4375,1.3125 z m 0,0"
             style="stroke:none;stroke-width:0"
             inkscape:connector-curvature="0" /></g></g></g><g
       id="g3102"
       ns1:jacobian_sqrt="1.8"
       inkscapeversion="0.92.4"
       ns1:alignment="middle center"
       ns1:scale="1.35"
       ns1:preamble="C:\\texlive\\texmf-local\\tex\\latex\\default_packages_guit.tex"
       ns1:text="$h_\\mathrm{B}$"
       ns1:pdfconverter="pdf2svg"
       ns1:texconverter="pdflatex"
       ns1:version="0.11.0"
       transform="matrix(1.8,0,0,-1.8,-60.950438,965.28844)"><g
         id="g3100"><g
           id="g3094"
           style="fill:#000000;fill-opacity:1"><path
             id="path3092"
             transform="translate(148.712,134.765)"
             d="M 4.796875,-1.03125 4.65625,-1.140625 c -0.25,0.328125 -0.59375,0.75 -0.78125,0.75 -0.0625,0 -0.125,-0.0625 -0.125,-0.171875 0,-0.390625 0.828125,-2.71875 0.828125,-3.3125 0,-0.515625 -0.375,-0.6875 -0.609375,-0.6875 -0.875,0 -1.90625,1.4375 -2.359375,2.203125 L 2.875,-7.140625 c 0,0 -1.34375,0.234375 -1.625,0.25 v 0.1875 c 0.390625,0 0.65625,0.03125 0.65625,0.34375 0,0.1875 -0.125,0.65625 -0.1875,0.90625 L 0.234375,0 h 0.75 c 0.03125,-0.125 0.1875,-0.671875 0.1875,-0.671875 C 1.796875,-3 3.125,-4 3.515625,-4 c 0.15625,0 0.28125,0.109375 0.28125,0.296875 0,0.40625 -0.84375,2.859375 -0.84375,3.359375 0.015625,0.25 0.125,0.46875 0.421875,0.46875 0.578125,0 1.09375,-0.671875 1.421875,-1.15625 z m 0,0"
             style="stroke:none;stroke-width:0"
             inkscape:connector-curvature="0" /></g><g
           id="g3098"
           style="fill:#000000;fill-opacity:1"><path
             id="path3096"
             transform="translate(154.242,136.259)"
             d="m 4.125,-1.25 c 0,-0.3125 -0.125,-0.59375 -0.328125,-0.796875 -0.21875,-0.1875 -0.40625,-0.265625 -0.859375,-0.375 0.359375,-0.09375 0.515625,-0.15625 0.671875,-0.3125 0.1875,-0.15625 0.28125,-0.40625 0.28125,-0.6875 0,-0.78125 -0.609375,-1.1875 -1.828125,-1.1875 H 0.125 v 0.125 c 0.578125,0.03125 0.65625,0.109375 0.65625,0.625 v 3.09375 C 0.78125,-0.25 0.703125,-0.15625 0.125,-0.125 V 0 H 2.453125 C 2.984375,0 3.484375,-0.140625 3.75,-0.390625 4,-0.609375 4.125,-0.921875 4.125,-1.25 Z m -0.796875,0 c 0,0.375 -0.140625,0.65625 -0.421875,0.8125 -0.21875,0.125 -0.515625,0.171875 -0.96875,0.171875 -0.34375,0 -0.4375,-0.0625 -0.4375,-0.28125 v -1.71875 c 0.671875,0 1,0.03125 1.25,0.140625 0.390625,0.15625 0.578125,0.4375 0.578125,0.875 z M 3.1875,-3.40625 c 0,0.546875 -0.375,0.859375 -1.03125,0.859375 H 1.5 v -1.59375 c 0,-0.15625 0.046875,-0.21875 0.15625,-0.21875 h 0.296875 c 0.8125,0 1.234375,0.34375 1.234375,0.953125 z m 0,0"
             style="stroke:none;stroke-width:0"
             inkscape:connector-curvature="0" /></g></g></g><g
       id="g1440"
       ns1:jacobian_sqrt="1.8"
       ns1:alignment="middle center"
       ns1:scale="1.35"
       ns1:preamble="C:\\texlive\\texmf-local\\tex\\latex\\default_packages_guit.tex"
       ns1:text="$x_{\\mathrm{C},A^\\star}$"
       ns1:pdfconverter="pdf2svg"
       ns1:texconverter="pdflatex"
       ns1:version="0.11.0"
       transform="matrix(1.8,0,0,-1.8,83.602984,1008.9632)"><g
         id="surface1"><g
           id="g1423"
           style="fill:#000000;fill-opacity:1"><path
             id="path1421"
             transform="translate(148.712,134.765)"
             d="m 5.15625,-4.171875 c 0,-0.265625 -0.234375,-0.390625 -0.421875,-0.390625 -0.5,0 -1.140625,0.75 -1.640625,1.546875 0,-0.015625 -0.078125,-0.34375 -0.078125,-0.34375 -0.15625,-0.65625 -0.34375,-1.03125 -0.6875,-1.203125 0,0 -1.125,0.25 -1.265625,0.28125 v 0.171875 c 0.203125,-0.046875 0.359375,-0.0625 0.46875,-0.0625 0.546875,0 0.640625,0.515625 1.015625,1.953125 C 2.09375,-1.546875 1.390625,-0.4375 1.109375,-0.4375 0.875,-0.4375 0.875,-0.671875 0.5625,-0.671875 c -0.21875,0 -0.359375,0.15625 -0.359375,0.359375 0,0.25 0.1875,0.4375 0.46875,0.4375 0.6875,0 1.34375,-1.25 1.953125,-2.03125 0.03125,0.078125 0.25,0.953125 0.25,0.953125 C 3.125,-0.03125 3.3125,0.125 3.5625,0.125 c 0.3125,0 0.78125,-0.3125 1.25,-1.1875 L 4.671875,-1.140625 c -0.171875,0.21875 -0.453125,0.6875 -0.703125,0.6875 -0.34375,0 -0.546875,-1.40625 -0.796875,-2.296875 0.0625,-0.078125 0.75,-1.203125 1.125,-1.203125 0.1875,0 0.359375,0.171875 0.53125,0.171875 0.25,0 0.328125,-0.203125 0.328125,-0.390625 z m 0,0"
             style="stroke:none;stroke-width:0"
             inkscape:connector-curvature="0" /></g><g
           id="g1427"
           style="fill:#000000;fill-opacity:1"><path
             id="path1425"
             transform="translate(154.162,136.259)"
             d="m 4.40625,-0.78125 -0.125,-0.125 c -0.515625,0.484375 -0.96875,0.703125 -1.546875,0.703125 -0.421875,0 -0.796875,-0.125 -1.09375,-0.375 C 1.234375,-0.921875 1,-1.546875 1,-2.359375 c 0,-1.25 0.65625,-2.078125 1.65625,-2.078125 0.40625,0 0.765625,0.15625 1.046875,0.4375 0.21875,0.21875 0.328125,0.40625 0.453125,0.859375 h 0.171875 l -0.0625,-1.5625 h -0.15625 c -0.046875,0.140625 -0.15625,0.21875 -0.28125,0.21875 -0.078125,0 -0.171875,-0.015625 -0.28125,-0.0625 -0.34375,-0.109375 -0.6875,-0.15625 -1.03125,-0.15625 -0.53125,0 -1.078125,0.1875 -1.5,0.546875 -0.53125,0.4375 -0.828125,1.09375 -0.828125,1.890625 0,1.421875 0.9375,2.359375 2.328125,2.359375 0.78125,0 1.46875,-0.3125 1.890625,-0.875 z m 0,0"
             style="stroke:none;stroke-width:0"
             inkscape:connector-curvature="0" /></g><g
           id="g1433"
           style="fill:#000000;fill-opacity:1"><path
             id="path1429"
             transform="translate(158.813,136.259)"
             d="M 0.609375,1.140625 C 0.8125,1.09375 0.90625,1.046875 1.09375,0.9375 c 0.328125,-0.21875 0.5625,-0.53125 0.5625,-1.078125 0,-0.53125 -0.25,-0.765625 -0.578125,-0.765625 -0.296875,0 -0.484375,0.1875 -0.484375,0.46875 0,0.265625 0.1875,0.4375 0.4375,0.4375 0.078125,0 0.15625,-0.015625 0.234375,-0.0625 0.03125,-0.015625 0.03125,-0.015625 0.046875,-0.015625 0.03125,0 0.046875,0.0625 0.046875,0.140625 0,0.078125 0,0.578125 -0.75,0.859375 z m 0,0"
             style="stroke:none;stroke-width:0"
             inkscape:connector-curvature="0" /><path
             id="path1431"
             transform="translate(161.05856,136.259)"
             d="m 5.140625,-0.21875 c -0.515625,0 -0.5625,-0.21875 -0.578125,-0.6875 L 4.375,-5.140625 H 4.15625 l -3,4.359375 c -0.34375,0.484375 -0.515625,0.5625 -0.765625,0.5625 L 0.359375,0 h 1.5 l 0.03125,-0.21875 c -0.28125,0 -0.4375,-0.046875 -0.4375,-0.234375 0,-0.109375 0.0625,-0.265625 0.1875,-0.453125 l 0.515625,-0.75 H 3.703125 L 3.75,-0.78125 c 0,0.515625 -0.21875,0.5625 -0.640625,0.5625 L 3.0625,0 H 5.09375 Z M 3.6875,-2 H 2.40625 l 1.203125,-1.75 z m 0,0"
             style="stroke:none;stroke-width:0"
             inkscape:connector-curvature="0" /></g><g
           id="g1437"
           style="fill:#000000;fill-opacity:1"><path
             id="path1435"
             d="m 169.48241,132.06177 h -1.28125 l -0.40625,-1.09375 -0.39063,1.09375 h -1.28125 l 1.03125,0.65625 -0.40625,1.10938 1.04688,-0.6875 1.04687,0.6875 -0.39062,-1.10938 z m 0,0"
             style="stroke:none;stroke-width:0"
             inkscape:connector-curvature="0" /></g></g></g><g
       transform="matrix(1.8,0,0,-1.8,114.95536,862.4907)"
       ns1:version="0.11.0"
       ns1:texconverter="pdflatex"
       ns1:pdfconverter="pdf2svg"
       ns1:text="$x_{\\mathrm{C},A^\\star}$"
       ns1:preamble="C:\\texlive\\texmf-local\\tex\\latex\\default_packages_guit.tex"
       ns1:scale="1.35"
       ns1:alignment="middle center"
       ns1:jacobian_sqrt="1.8"
       id="g1475"><g
         id="g1473"><g
           style="fill:#000000;fill-opacity:1"
           id="g1457"><path
             inkscape:connector-curvature="0"
             style="stroke:none;stroke-width:0"
             d="m 5.15625,-4.171875 c 0,-0.265625 -0.234375,-0.390625 -0.421875,-0.390625 -0.5,0 -1.140625,0.75 -1.640625,1.546875 0,-0.015625 -0.078125,-0.34375 -0.078125,-0.34375 -0.15625,-0.65625 -0.34375,-1.03125 -0.6875,-1.203125 0,0 -1.125,0.25 -1.265625,0.28125 v 0.171875 c 0.203125,-0.046875 0.359375,-0.0625 0.46875,-0.0625 0.546875,0 0.640625,0.515625 1.015625,1.953125 C 2.09375,-1.546875 1.390625,-0.4375 1.109375,-0.4375 0.875,-0.4375 0.875,-0.671875 0.5625,-0.671875 c -0.21875,0 -0.359375,0.15625 -0.359375,0.359375 0,0.25 0.1875,0.4375 0.46875,0.4375 0.6875,0 1.34375,-1.25 1.953125,-2.03125 0.03125,0.078125 0.25,0.953125 0.25,0.953125 C 3.125,-0.03125 3.3125,0.125 3.5625,0.125 c 0.3125,0 0.78125,-0.3125 1.25,-1.1875 L 4.671875,-1.140625 c -0.171875,0.21875 -0.453125,0.6875 -0.703125,0.6875 -0.34375,0 -0.546875,-1.40625 -0.796875,-2.296875 0.0625,-0.078125 0.75,-1.203125 1.125,-1.203125 0.1875,0 0.359375,0.171875 0.53125,0.171875 0.25,0 0.328125,-0.203125 0.328125,-0.390625 z m 0,0"
             transform="translate(148.712,134.765)"
             id="path1455" /></g><g
           style="fill:#000000;fill-opacity:1"
           id="g1461"><path
             inkscape:connector-curvature="0"
             style="stroke:none;stroke-width:0"
             d="m 4.40625,-0.78125 -0.125,-0.125 c -0.515625,0.484375 -0.96875,0.703125 -1.546875,0.703125 -0.421875,0 -0.796875,-0.125 -1.09375,-0.375 C 1.234375,-0.921875 1,-1.546875 1,-2.359375 c 0,-1.25 0.65625,-2.078125 1.65625,-2.078125 0.40625,0 0.765625,0.15625 1.046875,0.4375 0.21875,0.21875 0.328125,0.40625 0.453125,0.859375 h 0.171875 l -0.0625,-1.5625 h -0.15625 c -0.046875,0.140625 -0.15625,0.21875 -0.28125,0.21875 -0.078125,0 -0.171875,-0.015625 -0.28125,-0.0625 -0.34375,-0.109375 -0.6875,-0.15625 -1.03125,-0.15625 -0.53125,0 -1.078125,0.1875 -1.5,0.546875 -0.53125,0.4375 -0.828125,1.09375 -0.828125,1.890625 0,1.421875 0.9375,2.359375 2.328125,2.359375 0.78125,0 1.46875,-0.3125 1.890625,-0.875 z m 0,0"
             transform="translate(154.162,136.259)"
             id="path1459" /></g><g
           style="fill:#000000;fill-opacity:1"
           id="g1467"><path
             inkscape:connector-curvature="0"
             style="stroke:none;stroke-width:0"
             d="M 0.609375,1.140625 C 0.8125,1.09375 0.90625,1.046875 1.09375,0.9375 c 0.328125,-0.21875 0.5625,-0.53125 0.5625,-1.078125 0,-0.53125 -0.25,-0.765625 -0.578125,-0.765625 -0.296875,0 -0.484375,0.1875 -0.484375,0.46875 0,0.265625 0.1875,0.4375 0.4375,0.4375 0.078125,0 0.15625,-0.015625 0.234375,-0.0625 0.03125,-0.015625 0.03125,-0.015625 0.046875,-0.015625 0.03125,0 0.046875,0.0625 0.046875,0.140625 0,0.078125 0,0.578125 -0.75,0.859375 z m 0,0"
             transform="translate(158.813,136.259)"
             id="path1463" /><path
             inkscape:connector-curvature="0"
             style="stroke:none;stroke-width:0"
             d="m 5.140625,-0.21875 c -0.515625,0 -0.5625,-0.21875 -0.578125,-0.6875 L 4.375,-5.140625 H 4.15625 l -3,4.359375 c -0.34375,0.484375 -0.515625,0.5625 -0.765625,0.5625 L 0.359375,0 h 1.5 l 0.03125,-0.21875 c -0.28125,0 -0.4375,-0.046875 -0.4375,-0.234375 0,-0.109375 0.0625,-0.265625 0.1875,-0.453125 l 0.515625,-0.75 H 3.703125 L 3.75,-0.78125 c 0,0.515625 -0.21875,0.5625 -0.640625,0.5625 L 3.0625,0 H 5.09375 Z M 3.6875,-2 H 2.40625 l 1.203125,-1.75 z m 0,0"
             transform="translate(161.05856,136.259)"
             id="path1465" /></g><g
           style="fill:#000000;fill-opacity:1"
           id="g1471"><path
             inkscape:connector-curvature="0"
             style="stroke:none;stroke-width:0"
             d="m 169.48241,132.06177 h -1.28125 l -0.40625,-1.09375 -0.39063,1.09375 h -1.28125 l 1.03125,0.65625 -0.40625,1.10938 1.04688,-0.6875 1.04687,0.6875 -0.39062,-1.10938 z m 0,0"
             id="path1469" /></g></g></g><g
       id="g1626"
       ns1:jacobian_sqrt="1.8"
       ns1:alignment="middle center"
       ns1:scale="1.35"
       ns1:preamble="C:\\texlive\\texmf-local\\tex\\latex\\default_packages_guit.tex"
       ns1:text="$\\Gamma$"
       ns1:pdfconverter="pdf2svg"
       ns1:texconverter="pdflatex"
       ns1:version="0.11.0"
       transform="matrix(1.8,0,0,-1.8,188.14682,820.66602)"><g
         id="g1624"><g
           id="g1622"
           style="fill:#000000;fill-opacity:1"><path
             id="path1620"
             transform="translate(148.712,134.765)"
             d="M 7.53125,-6.734375 H 2.296875 l -0.015625,0.1875 c 0.375,0.046875 0.5625,0.34375 0.5625,0.53125 0,0.015625 0,0.03125 0,0.046875 l -1.234375,5.078125 c -0.078125,0.359375 -0.421875,0.65625 -0.875,0.6875 L 0.671875,0 h 2.375 L 3.09375,-0.203125 c -0.328125,-0.03125 -0.578125,-0.28125 -0.578125,-0.53125 0,-0.03125 0,-0.078125 0.015625,-0.109375 l 1.328125,-5.5 H 5.40625 c 1,0 1.46875,0.734375 1.46875,1.375 0,0.109375 0,0.21875 -0.03125,0.3125 h 0.171875 z m 0,0"
             style="stroke:none;stroke-width:0"
             inkscape:connector-curvature="0" /></g></g></g><g
       transform="matrix(1.8,0,0,-1.8,-80.275871,808.52392)"
       ns1:version="0.11.0"
       ns1:texconverter="pdflatex"
       ns1:pdfconverter="pdf2svg"
       ns1:text="$A^\\star$"
       ns1:preamble="C:\\texlive\\texmf-local\\tex\\latex\\default_packages_guit.tex"
       ns1:scale="1.35"
       ns1:alignment="middle center"
       inkscapeversion="0.92.4"
       ns1:jacobian_sqrt="1.8"
       id="g1644"><g
         id="g1642"><g
           style="fill:#000000;fill-opacity:1"
           id="g1636"><path
             inkscape:connector-curvature="0"
             style="stroke:none;stroke-width:0"
             d="M 6.546875,-0.171875 C 5.90625,-0.171875 5.84375,-0.46875 5.8125,-1.15625 L 5.578125,-6.875 H 5.375 l -3.890625,5.90625 c -0.453125,0.703125 -0.71875,0.796875 -1,0.796875 L 0.453125,0 h 1.84375 l 0.03125,-0.171875 c -0.328125,0 -0.5625,-0.09375 -0.5625,-0.375 0,-0.15625 0.078125,-0.375 0.265625,-0.671875 l 0.6875,-1.046875 H 4.8125 l 0.046875,1.28125 C 4.890625,-0.25 4.5625,-0.171875 4.03125,-0.171875 L 3.984375,0 h 2.53125 z m -1.75,-2.4375 H 2.953125 L 4.671875,-5.25 Z m 0,0"
             transform="translate(148.712,134.765)"
             id="path1634" /></g><g
           style="fill:#000000;fill-opacity:1"
           id="g1640"><path
             inkscape:connector-curvature="0"
             style="stroke:none;stroke-width:0"
             d="m 156.85752,130.023 1.125,0.8125 -0.42188,-1.3125 1.10938,-0.79687 h -1.375 l -0.42188,-1.29688 -0.4375,1.29688 h -1.39062 l 1.125,0.79687 -0.4375,1.3125 z m 0,0"
             id="path1638" /></g></g></g><g
       transform="matrix(1.8,0,0,-1.8,206.01817,831.46944)"
       ns1:version="0.11.0"
       ns1:texconverter="pdflatex"
       ns1:pdfconverter="pdf2svg"
       ns1:text="$y_\\mathrm{C}$"
       ns1:preamble="C:\\texlive\\texmf-local\\tex\\latex\\default_packages_guit.tex"
       ns1:scale="1.35"
       ns1:alignment="middle center"
       inkscapeversion="0.92.4"
       ns1:jacobian_sqrt="1.8"
       id="g1656"><g
         id="g1654"><g
           style="fill:#000000;fill-opacity:1"
           id="g1648"><path
             sodipodi:nodetypes="ssssccccscsssscs"
             inkscape:connector-curvature="0"
             style="stroke:none;stroke-width:0"
             d="m 5.1875,-17.223959 c 0,-0.4375 -0.25,-0.671875 -0.546875,-0.671875 -0.234375,0 -0.390625,0.203125 -0.390625,0.40625 0,0.515625 0.5625,0.375 0.5625,0.703125 0,0.640625 -1.25,2.390625 -1.53125,2.828125 -0.09375,-2 -0.390625,-3.5 -0.734375,-3.9375 l -1.453125,0.28125 v 0.171875 c 0.09375,-0.03125 0.21875,-0.04687 0.359375,-0.04687 0.75,0 0.796875,0.75 1.1875,4.3125 -0.140625,0.421875 -1.03125,1.4375 -1.296875,1.4375 -0.1875,0 -0.171875,-0.328125 -0.5,-0.328125 -0.234375,0 -0.4375,0.21875 -0.4375,0.453125 0,0.3125 0.296875,0.421875 0.453125,0.421875 0.671875,0 1.875,-1.515625 2.90625,-3.046875 0.90625,-1.359375 1.421875,-2.40625 1.421875,-2.984375 z"
             transform="translate(148.712,134.765)"
             id="path1646" /></g><g
           style="fill:#000000;fill-opacity:1"
           id="g1652"><path
             sodipodi:nodetypes="ccscsssccccscscssc"
             inkscape:connector-curvature="0"
             style="stroke:none;stroke-width:0"
             d="m 4.40625,-14.114584 -0.125,-0.125 c -0.515625,0.484375 -0.96875,0.703125 -1.546875,0.703125 -0.421875,0 -0.796875,-0.125 -1.09375,-0.375 C 1.234375,-14.255209 1,-14.880209 1,-15.692709 c 0,-1.25 0.65625,-2.078125 1.65625,-2.078125 0.40625,0 0.765625,0.15625 1.046875,0.4375 0.21875,0.21875 0.328125,0.40625 0.453125,0.859375 h 0.171875 l -0.0625,-1.5625 h -0.15625 c -0.046875,0.140625 -0.15625,0.21875 -0.28125,0.21875 -0.078125,0 -0.171875,-0.01563 -0.28125,-0.0625 -0.34375,-0.109375 -0.6875,-0.15625 -1.03125,-0.15625 -0.53125,0 -1.078125,0.1875 -1.5,0.546875 -0.53125,0.4375 -0.828125,1.09375 -0.828125,1.890625 0,1.421875 0.9375,2.359375 2.328125,2.359375 0.78125,0 1.46875,-0.3125 1.890625,-0.875 z"
             transform="translate(154.261,136.259)"
             id="path1650" /></g></g></g></g></svg>