<?xml version="1.0" encoding="UTF-8" standalone="no"?>
<!-- Created with Inkscape (http://www.inkscape.org/) -->

<svg
   xmlns:dc="http://purl.org/dc/elements/1.1/"
   xmlns:cc="http://creativecommons.org/ns#"
   xmlns:rdf="http://www.w3.org/1999/02/22-rdf-syntax-ns#"
   xmlns:svg="http://www.w3.org/2000/svg"
   xmlns="http://www.w3.org/2000/svg"
   xmlns:sodipodi="http://sodipodi.sourceforge.net/DTD/sodipodi-0.dtd"
   xmlns:inkscape="http://www.inkscape.org/namespaces/inkscape"
   width="550.20703"
   height="200.82373"
   id="svg2"
   version="1.1"
   inkscape:version="0.92.1 r15371"
   sodipodi:docname="ac_pqr_omega.svg">
  <sodipodi:namedview
     id="base"
     pagecolor="#ffffff"
     bordercolor="#666666"
     borderopacity="1.0"
     inkscape:pageopacity="0.0"
     inkscape:pageshadow="2"
     inkscape:zoom="1.5083476"
     inkscape:cx="278.71929"
     inkscape:cy="103.36073"
     inkscape:document-units="px"
     inkscape:current-layer="layer1"
     showgrid="false"
     fit-margin-top="0"
     fit-margin-left="0"
     fit-margin-right="0"
     fit-margin-bottom="0"
     inkscape:window-width="1280"
     inkscape:window-height="720"
     inkscape:window-x="0"
     inkscape:window-y="0"
     inkscape:window-maximized="0" />
  <defs
     id="defs4">
    <clipPath
       id="clipPath3770"
       clipPathUnits="userSpaceOnUse">
      <path
         id="path3772"
         d="M 90.709,206.702 H 414.425 V 86.4 H 90.709 Z"
         inkscape:connector-curvature="0" />
    </clipPath>
    <clipPath
       id="clipPath4336"
       clipPathUnits="userSpaceOnUse">
      <path
         id="path4338"
         d="M 640,6844.8 Z"
         inkscape:connector-curvature="0"
         style="stroke-width:1.06666672" />
    </clipPath>
  </defs>
  <metadata
     id="metadata7">
    <rdf:RDF>
      <cc:Work
         rdf:about="">
        <dc:format>image/svg+xml</dc:format>
        <dc:type
           rdf:resource="http://purl.org/dc/dcmitype/StillImage" />
      </cc:Work>
    </rdf:RDF>
  </metadata>
  <g
     inkscape:label="Livello 1"
     inkscape:groupmode="layer"
     id="layer1"
     transform="translate(-336.55152,-660.10054)">
    <path
       id="path4282"
       style="fill:#989697;fill-opacity:1;fill-rule:nonzero;stroke:none;stroke-width:1.06666672"
       d="m 707.61846,800.98443 -0.8528,-1.6176 -2.5072,-5.1024 -1.1328,-2.592 -1.1344,-2.6304 -1.0928,-2.6304 -1.0128,-2.6704 -0.9712,-2.7104 -0.9312,-2.7152 -1.6976,-5.5072 -0.7712,-2.752 -0.6896,-2.792 -0.6864,-2.8352 -0.608,-2.832 1.4976,-0.2816 0.608,2.792 0.6496,2.752 0.728,2.7936 0.728,2.7104 0.808,2.7552 0.8928,2.712 0.8896,2.6704 0.9712,2.672 1.0112,2.6304 1.0528,2.6336 2.2688,5.1808 1.2112,2.5104 1.2576,2.5088 0.8512,1.6192 z m 2.3056,-2.1024 0.1616,5.1008 -4.168,-2.9584"
       inkscape:connector-curvature="0" />
    <path
       id="path4284"
       style="fill:#231f20;fill-opacity:1;fill-rule:nonzero;stroke:none;stroke-width:1.06666672"
       d="m 792.22006,736.33803 -0.3632,106.0976 h -1.0096 l 0.36,-106.0976 z m 1.1744,105.4112 -2.024,4.048 -2.024,-4.048"
       inkscape:connector-curvature="0" />
    <path
       id="path4286"
       style="fill:#231f20;fill-opacity:1;fill-rule:nonzero;stroke:none;stroke-width:1.06666672"
       d="m 691.62806,756.45643 -39.0656,15.7488 -0.3648,-0.9328 39.024,-15.7472 z m -37.8496,16.9216 -4.5312,-0.3648 2.9952,-3.4016"
       inkscape:connector-curvature="0" />
    <path
       id="path4288"
       style="fill:none;stroke:#c9c8c8;stroke-width:0.83991838;stroke-linecap:butt;stroke-linejoin:round;stroke-miterlimit:10;stroke-dasharray:none;stroke-opacity:1"
       d="m 791.85686,715.24683 -0.0832,19.9984 m 0.2432,-19.9984 -97.5536,39.3872 m 97.0688,-39.3872 -34.3296,-12.4672"
       inkscape:connector-curvature="0" />
    <path
       id="path4290"
       style="fill:#231f20;fill-opacity:1;fill-rule:nonzero;stroke:none;stroke-width:1.06666672"
       d="m 756.43606,702.90123 -90.9184,-32.7488 0.3248,-0.9728 90.96,32.7888 z m -90.7952,-31.0896 -3.1568,-3.2784 4.4912,-0.528"
       inkscape:connector-curvature="0" />
    <path
       id="path4292"
       style="fill:none;stroke:#231f20;stroke-width:3.03545594;stroke-linecap:butt;stroke-linejoin:round;stroke-miterlimit:10;stroke-dasharray:none;stroke-opacity:1"
       d="m 696.08246,825.31563 69.016,-79.384"
       inkscape:connector-curvature="0" />
    <path
       id="path4294"
       style="fill:#231f20;fill-opacity:1;fill-rule:nonzero;stroke:none;stroke-width:1.06666672"
       d="m 692.55926,813.21003 -1.0928,-0.4464 -0.728,-0.2016 -0.7696,-0.1616 -0.688,-0.1216 -0.6496,-0.04 h -0.6032 l -0.568,0.08 -0.4864,0.0816 -0.408,0.1616 -0.4032,0.2016 0.1216,-0.0784 -0.4032,0.2832 -0.2416,0.2416 -0.1648,0.2432 -0.1216,0.2432 -0.08,0.2432 -0.1616,0.5664 v 1.0528 l 0.08,0.3648 0.0816,0.4448 0.08,0.4032 0.1616,0.4848 0.1632,0.448 0.2032,0.4848 0.2432,0.4864 0.2416,0.5248 0.2816,0.5296 0.648,1.0512 0.3664,0.5664 0.3664,0.5248 0.888,1.1344 0.4448,0.5264 0.9728,1.1344 0.568,0.5648 0.5232,0.568 0.568,0.5664 0.6064,0.5232 0.608,0.5712 1.944,1.5744 1.2928,0.9728 0.6496,0.448 1.2944,0.808 0.648,0.3632 0.608,0.3648 0.6464,0.3232 0.608,0.3264 0.608,0.2832 1.2144,0.4848 1.1328,0.4032 0.5248,0.1616 0.5664,0.1232 0.4848,0.12 0.488,0.0832 0.4848,0.08 h 0.4448 l 0.448,0.0384 0.4048,-0.0384 0.3632,-0.04 0.3648,-0.08 0.3232,-0.0816 0.2816,-0.1232 0.2448,-0.12 0.2416,-0.1616 0.2032,-0.1632 0.16,-0.2016 0.1216,-0.1632 0.2432,-0.4848 0.0416,-0.2032 0.0784,-0.2016 v -0.2432 l 0.0432,-0.2416 v -0.528 l -0.0432,-0.2848 v -0.2816 l -0.0784,-0.2816 -0.2416,-0.9728 -0.1232,-0.3632 -0.16,-0.3664 -0.1216,-0.3632 -0.1632,-0.3664 -0.2016,-0.4032 -0.2016,-0.3632 -0.2032,-0.408 -0.4848,-0.8064 -0.8512,-1.216 -0.3264,-0.4448 -0.3216,-0.4048 -0.6864,-0.8896 1.1728,-0.9328 1.096,1.3376 0.3184,0.4448 0.2864,0.4448 0.32,0.4448 0.288,0.448 0.24,0.4032 0.2832,0.4464 0.2032,0.4432 0.24,0.4048 0.2032,0.448 0.6496,1.6192 0.1216,0.3616 0.08,0.408 0.1632,0.7264 0.0384,0.4048 v 0.3248 l 0.0432,0.3648 -0.0432,0.3616 -0.0784,0.6464 -0.1632,0.6512 -0.1616,0.2816 -0.1216,0.3248 -0.2032,0.2432 -0.2,0.2816 -0.2848,0.3264 -0.728,0.4848 -0.4048,0.2032 -0.4048,0.16 -0.448,0.1216 -0.4864,0.08 -0.4416,0.0848 h -1.0144 l -0.5264,-0.0464 -1.1312,-0.1584 -0.5648,-0.1216 -0.5696,-0.1616 -0.6064,-0.1616 -0.608,-0.2016 -0.6048,-0.2448 -0.648,-0.2432 -0.648,-0.2816 -0.6064,-0.3264 -0.6896,-0.3216 -0.648,-0.3232 -0.648,-0.3664 -0.688,-0.4048 -0.648,-0.4448 -1.3776,-0.8912 -0.6848,-0.4832 -0.6496,-0.5296 -0.688,-0.5232 -0.648,-0.5264 -0.688,-0.568 -0.608,-0.568 -0.6464,-0.5632 -0.568,-0.608 -0.6064,-0.568 -0.5264,-0.6048 -0.5264,-0.5664 -0.5264,-0.6096 -0.4848,-0.5664 -0.4448,-0.608 -0.4432,-0.5648 -0.408,-0.608 -0.4032,-0.568 -0.3632,-0.5664 -0.6512,-1.1328 -0.2432,-0.568 -0.2816,-0.5648 -0.4064,-1.0528 -0.16,-0.528 -0.1232,-0.5232 -0.08,-0.528 -0.08,-0.488 -0.0432,-0.4848 v -0.4848 l 0.1648,-0.8896 0.1216,-0.4448 0.2,-0.4048 0.2016,-0.3664 0.2832,-0.3632 0.2032,-0.2416 0.2432,-0.2032 0.4064,-0.2832 c 0.0416,-0.0432 0.08,-0.0432 0.12,-0.0816 l 0.5664,-0.2832 0.6096,-0.2016 0.6464,-0.1232 0.6912,-0.0384 h 0.7264 l 0.7696,0.0384 0.768,0.1232 0.8496,0.2016 0.8896,0.2416 1.0944,0.4464 z m 0.4848,-3.1168 3.2416,3.9264 -5.064,0.2448"
       inkscape:connector-curvature="0" />
    <path
       id="path4296"
       style="fill:#231f20;fill-opacity:1;fill-rule:nonzero;stroke:none;stroke-width:1.06666672"
       d="m 675.75926,846.12043 13.4384,-15.464 2.3104,1.9856 -13.4832,15.5024 z m 5.5472,2.8736 -9.392,3.8896 2.5504,-9.8784"
       inkscape:connector-curvature="0" />
    <path
       id="path4298"
       style="fill:none;stroke:#000000;stroke-width:2.88000011;stroke-linecap:butt;stroke-linejoin:round;stroke-miterlimit:10;stroke-dasharray:8.64000015, 2.88000005;stroke-dashoffset:4.32000017;stroke-opacity:1"
       d="m 791.61366,715.40843 -25.9888,29.9568"
       inkscape:connector-curvature="0" />
    <path
       id="path4300"
       style="fill:none;stroke:#989697;stroke-width:1.51857126;stroke-linecap:butt;stroke-linejoin:round;stroke-miterlimit:10;stroke-dasharray:1.5180176, 1.5180176;stroke-dashoffset:0;stroke-opacity:1"
       d="m 694.21846,761.19243 c -0.08,-0.3632 -0.1216,-0.728 -0.2016,-1.0512 -0.4864,-2.4288 -0.9312,-4.8992 -1.2944,-7.328"
       inkscape:connector-curvature="0" />
    <path
       id="path4302"
       style="fill:#989697;fill-opacity:1;fill-rule:nonzero;stroke:none;stroke-width:1.06666672"
       d="m 720.81206,808.15083 0.8528,0.2432 4.5312,1.256 4.4944,1.1312 4.5344,1.0496 4.4944,0.9744 4.5312,0.8912 4.4944,0.768 4.4944,0.728 4.4928,0.608 4.4928,0.5264 4.4544,0.4448 4.4512,0.368 4.4128,0.2816 4.4128,0.1616 4.4112,0.0816 h 4.3728 v 1.536 h -4.4128 l -4.4112,-0.08 -4.4544,-0.2032 -4.4512,-0.2832 -4.496,-0.3216 -4.4928,-0.448 -4.4912,-0.5664 -4.536,-0.6048 -4.4912,-0.7312 -4.576,-0.8096 -4.5328,-0.848 -4.536,-1.0128 -4.5328,-1.0528 -4.5344,-1.1328 -4.5328,-1.256 -0.8912,-0.2416 z m -0.1184,3.1168 -3.7664,-3.4416 5.0192,-0.9296"
       inkscape:connector-curvature="0" />
    <path
       id="path4304"
       style="fill:none;stroke:#989697;stroke-width:1.51857126;stroke-linecap:butt;stroke-linejoin:round;stroke-miterlimit:10;stroke-dasharray:1.5180176, 1.5180176;stroke-dashoffset:0;stroke-opacity:1"
       d="m 718.42486,756.65803 c 1.216,-4.5328 2.632,-8.9872 4.168,-13.1968"
       inkscape:connector-curvature="0" />
    <path
       id="path4306"
       style="fill:none;stroke:#989697;stroke-width:1.51857126;stroke-linecap:butt;stroke-linejoin:round;stroke-miterlimit:10;stroke-dasharray:none;stroke-opacity:1"
       d="m 692.55926,752.44843 c -3.2784,-23.2752 -1.0512,-46.6336 6.4368,-67.3584"
       inkscape:connector-curvature="0" />
    <path
       id="path4308"
       style="fill:#989697;fill-opacity:1;fill-rule:nonzero;stroke:none;stroke-width:1.06666672"
       d="m 711.70486,797.78603 v -1.6176 l 0.08,-1.8608 0.0832,-1.8224 0.0816,-1.864 0.16,-1.8208 0.1232,-1.8624 0.1584,-1.8624 0.2048,-1.8624 0.2032,-1.9008 0.4848,-3.7248 0.2448,-1.9024 0.3216,-1.8624 0.2848,-1.9024 0.3616,-1.904 0.3664,-1.8608 0.3648,-1.9024 0.4016,-1.864 0.4064,-1.9024 0.8912,-3.7216 0.4864,-1.8224 1.456,0.3648 -0.4448,1.8208 -0.488,1.8624 -0.4032,1.8208 -0.4448,1.864 -0.3648,1.8608 -0.4048,1.9056 -0.3248,1.8608 -0.3648,1.9024 -0.8496,5.584 -0.2416,1.8224 -0.2432,1.8592 -0.2,1.8656 -0.1648,1.8624 -0.2016,1.8592 -0.1232,1.824 -0.1184,1.8624 -0.1232,1.8208 -0.08,1.8224 -0.0416,1.7808 -0.04,1.6176 z m 3.0368,-0.7248 -2.3056,4.5312 -2.2288,-4.576"
       inkscape:connector-curvature="0" />
    <path
       id="path4310"
       style="fill:none;stroke:#231f20;stroke-width:0.83991838;stroke-linecap:butt;stroke-linejoin:round;stroke-miterlimit:10;stroke-dasharray:none;stroke-opacity:1"
       d="m 761.49686,714.31563 -8.4208,-20.1984 13.8448,-5.7088 33.1936,7.8928 m -38.9024,16.5968 6.0352,-2.672 -9.6384,-18.0128 m 6.3568,-2.5088 35.3392,10.3632 m -19.2272,-5.6672 5.9504,-1.4992 m -9.5968,17.528 c 0.3664,-0.04 0.7712,-0.08 1.176,-0.08 4.1296,0 7.7728,2.5904 9.1088,6.4368 m 3.4816,4.776 c -1.5808,-1.2144 -2.7936,-2.9552 -3.4816,-4.9792 m 11.8592,8.4624 c -3.2768,-0.488 -6.272,-1.7024 -8.4992,-3.5232 m -13.6448,-11.1328 c -0.6448,0.0816 -1.2928,0.1616 -1.9408,0.2432 -2.5104,0.2016 -5.0176,0.0816 -7.3664,-0.4064 m 31.8176,-7.9728 8.6608,-39.5488 5.1824,-2.1856 4.6128,35.4192 m 0.1648,-0.0816 c -9.432,4.3312 -16.9632,6.9232 -18.6208,6.3552 m 11.9824,-40.9248 0.9712,35.9072 5.5024,-2.2272 m 6.8448,15.9088 30.28,-30.8864 7.4064,-1.4992 -19.2704,26.2336 m -0.0368,0 c -9.6352,3.9664 -17.2048,6.5152 -18.664,6.2736 m 35.8672,-32.0192 -21.416,26.392 5.4656,-1.984 m -45.2576,21.6992 -5.1392,5.6672 77.6,6.6784 15.2624,-6.152 -46.7568,-21.496 m 4.4528,-6.8416 5.4656,1.944 -10.08,4.816 -6.64,1.6992 49.2256,21.456 m -83.3904,-7.7312 78.3296,10.0384 m -19.632,-12.9936 3.968,-2.472 m -17.2048,-8.176 23.9216,1.0944 6.1952,-2.592 -22.952,-10.7264 h -4.5344 m -16.4352,-3.6016 1.0528,-0.4064 -1.0944,-3.5216 -14.0032,-3.928 m -2.1072,11.1744 c 0.2432,-0.04 0.4848,-0.04 0.7296,-0.04 2.3888,0 4.616,1.5376 5.952,4.1696 m -6.6416,-4.1696 c -1.7808,0.2416 -3.5216,0.4448 -5.3024,0.6064 m 17.6512,-3.4832 c 0.808,-0.4016 1.6176,-0.6048 2.4688,-0.6048 1.6992,0 3.36,0.8496 4.6144,2.3072 m -7.0448,-1.7024 c -1.2128,0.4064 -2.4672,0.7296 -3.8048,0.8928 -0.768,0.1216 -1.5376,0.2032 -2.3072,0.2032 m -112.1312,45.7824 c -10.7664,5.7888 -19.5104,12.7104 -25.3392,20.12 m 0.2816,-0.1632 c 8.9456,-0.16 18.2192,-1.2944 27.3632,-3.36 6.1552,-1.3776 12.1856,-3.1568 17.9744,-5.2624 m 0.04,0 34.0448,-11.1312 m -30.8464,-19.9184 c -3.9648,1.0944 -7.6896,3.7248 -10.9296,7.7328 m 10.688,-7.7328 17.2032,-5.1392 m -40.6016,24.8144 c 3.8864,-2.9152 7.6112,-6.3552 11.0096,-10.08 0.568,-0.688 1.1744,-1.336 1.7424,-2.024 m 40.7232,11.2128 c 4.0496,-0.648 8.1776,-1.7392 12.2256,-3.2384 m -0.0816,0.04 19.512,-8.3376 m -31.8976,2.8736 -0.0832,8.6224 5.6688,5.7072 m -0.2032,-0.0416 c 2.9936,-0.7696 5.992,-1.8208 8.9056,-3.0352 0.3232,-0.12 0.608,-0.2416 0.8896,-0.4032 m -2.2256,0.8896 c 8.784,-3.4816 17.9344,-8.136 26.7168,-13.6432 m -51.7344,-13.3568 c 0.2816,-0.0816 0.568,-0.0816 0.8496,-0.0816 3.1568,0 5.8688,2.9952 6.3968,7.1648 m 4.9376,8.2592 c -2.3072,-1.7408 -4.1296,-4.9392 -5.0176,-8.8656 m -34.896,25.2992 39.4704,-16.2736 m -71.9744,27.0432 c 8.056,-2.2288 16.152,-4.8192 24.1664,-7.6928 2.7936,-0.9712 5.5856,-2.024 8.3376,-3.1168 m 25.1808,-9.1072 c 0,0.1216 0,0.2416 0.04,0.3648 0.5264,2.0224 5.6656,2.7104 13.1552,1.6992 m -39.3888,-11.6176 c 0.2464,-0.0816 0.488,-0.0816 0.6896,-0.0816 1.7408,0 3.36,1.2944 4.3712,3.5216 m 0,-0.08 3.8064,6.84 m -20.52,0.7696 0.8864,0.7296 5.4224,0.768 14.3328,-2.1456 5.7888,-2.632 7.8928,-15.1792 -0.648,-2.712 -2.4688,-0.2032 m -31.6944,21.9008 0.888,0.8496 6.072,0.8896 14.6944,-2.1856 5.9136,-2.7104 8.0944,-15.7072 -0.8912,-3.28 -1.8208,-0.0816 m 55.3776,-14.8544 c -3.4816,0.808 -7.0048,1.6592 -10.5664,2.5104 -13.8848,3.3984 -27.4048,7.0416 -38.8608,10.4432 m 52.664,-11.9824 c -6.072,1.4576 -12.6288,3.28 -19.1888,5.3024 -12.912,3.9664 -24.8944,8.4208 -32.8672,12.184 m 35.9056,-1.2944 c -8.1392,3.3616 -15.2624,6.84 -20.4016,10.04 m -7.9344,-4.2912 c -5.4656,3.4 -8.624,6.6384 -8.744,8.9872 m 79.5424,-28.944 c -2.4672,-1.0928 -4.4896,-3.0784 -5.6256,-5.5472 m 14.816,-3.6432 c -0.7296,-0.4448 -1.4176,-1.0112 -2.0224,-1.6176 m -8.016,-1.4992 -6.9248,-2.5088 -1.4944,0.5664 m -14.0896,-10.5248 -1.0112,-0.2416 -6.3952,2.6688 5.3824,5.832"
       inkscape:connector-curvature="0" />
    <path
       id="path4312"
       style="fill:none;stroke:#231f20;stroke-width:1.01126087;stroke-linecap:butt;stroke-linejoin:round;stroke-miterlimit:10;stroke-dasharray:none;stroke-opacity:1"
       d="m 523.91766,737.25963 -0.1616,62.1376 m -100.1112,-42.504 -21.49376,8.7024"
       inkscape:connector-curvature="0" />
    <path
       id="path4314"
       style="fill:none;stroke:#c9c8c8;stroke-width:0.83991838;stroke-linecap:butt;stroke-linejoin:round;stroke-miterlimit:10;stroke-dasharray:none;stroke-opacity:1"
       d="m 524.07926,716.16843 -0.0816,19.9984 m 0.2448,-19.9984 -97.5608,39.3888 m 97.0744,-39.3888 -34.328,-12.4688"
       inkscape:connector-curvature="0" />
    <path
       id="path4316"
       style="fill:none;stroke:#231f20;stroke-width:1.01126087;stroke-linecap:butt;stroke-linejoin:round;stroke-miterlimit:10;stroke-dasharray:none;stroke-opacity:1"
       d="m 488.82166,703.33643 -60.88304,-21.9008"
       inkscape:connector-curvature="0" />
    <path
       id="path4318"
       style="fill:none;stroke:#231f20;stroke-width:0.83991838;stroke-linecap:butt;stroke-linejoin:round;stroke-miterlimit:10;stroke-dasharray:none;stroke-opacity:1"
       d="m 493.71926,715.23723 -8.4224,-20.2 13.8448,-5.7072 33.1952,7.8944 m -38.9024,16.5968 6.0336,-2.672 -9.6368,-18.0128 m 6.3568,-2.512 35.3408,10.3632 m -19.2304,-5.6656 5.952,-1.4992 m -9.5936,17.528 c 0.3616,-0.04 0.7664,-0.08 1.1728,-0.08 4.1296,0 7.7712,2.5904 9.1072,6.4368 m 3.4816,4.7776 c -1.5792,-1.216 -2.7936,-2.9584 -3.4816,-4.9808 m 11.8624,8.4608 c -3.28,-0.488 -6.2752,-1.7008 -8.5024,-3.5216 m -13.64,-11.1328 c -0.6496,0.0816 -1.2976,0.1616 -1.9456,0.2416 -2.5088,0.2048 -5.0176,0.0816 -7.3664,-0.4032 m 31.8176,-7.9744 8.6624,-39.5504 5.1808,-2.1856 4.616,35.4192 m 0.1632,-0.0784 c -9.4336,4.3312 -16.9632,6.92 -18.6224,6.3536 m 11.9824,-40.9248 0.9728,35.9072 5.504,-2.2288 m 6.84,15.9104 30.2816,-30.8864 7.408,-1.4976 -19.2688,26.2304 m -0.04,0 c -9.6368,3.9664 -17.2064,6.5184 -18.6624,6.2752 m 35.8672,-32.0208 -21.4144,26.392 5.464,-1.9824 m -45.2576,21.6976 -5.1408,5.6672 77.6016,6.68 15.2608,-6.1536 -46.7552,-21.496 m 4.4528,-6.84 5.464,1.944 -10.08,4.816 -6.6384,1.6992 49.2256,21.456 m -83.3904,-7.7328 78.3296,10.04 m -19.632,-12.9952 3.9664,-2.4688 m -17.2032,-8.176 23.9216,1.0928 6.1952,-2.5904 -22.952,-10.728 h -4.5344 m -16.4352,-3.6032 1.0528,-0.4048 -1.0928,-3.5216 -14.008,-3.9264 m -2.104,11.1728 c 0.2416,-0.04 0.4848,-0.04 0.7264,-0.04 2.3888,0 4.6176,1.5376 5.952,4.168 m -6.6384,-4.168 c -1.7792,0.2416 -3.5216,0.4448 -5.3024,0.6048 m 17.6496,-3.48 c 0.808,-0.4048 1.6192,-0.6064 2.4688,-0.6064 1.7008,0 3.36,0.8496 4.6176,2.3072 m -7.0464,-1.7008 c -1.2144,0.4048 -2.4688,0.7296 -3.8048,0.8896 -0.7696,0.1232 -1.5376,0.2048 -2.3072,0.2048 m -112.1312,45.7824 c -10.768,5.7872 -19.5112,12.712 -25.3424,20.12 m 0.28432,-0.1632 c 8.94688,-0.1632 18.21568,-1.2944 27.36624,-3.3584 6.15104,-1.3776 12.18304,-3.1584 17.97024,-5.2656 m 0.0416,0 34.0448,-11.1312 m -30.8448,-19.9168 c -3.968,1.0928 -7.6928,3.7248 -10.9312,7.7328 m 10.6864,-7.7328 17.2032,-5.1408 m -40.59952,24.816 c 3.88592,-2.9168 7.60912,-6.3568 11.00752,-10.08 0.568,-0.6896 1.176,-1.336 1.7424,-2.0256 m 40.7264,11.216 c 4.0464,-0.6496 8.176,-1.7424 12.224,-3.2384 m -0.0816,0.04 19.5104,-8.3408 m -31.8992,2.8736 -0.08,8.624 5.6672,5.7072 m -0.2032,-0.04 c 2.9952,-0.7696 5.9904,-1.8224 8.9088,-3.0368 0.3216,-0.1216 0.6048,-0.2416 0.888,-0.4032 m -2.2256,0.8896 c 8.7824,-3.4816 17.9328,-8.136 26.7184,-13.6416 m -51.736,-13.36 c 0.2848,-0.08 0.5664,-0.08 0.8512,-0.08 3.1568,0 5.8688,2.9952 6.3968,7.1648 m 4.936,8.2592 c -2.3072,-1.7424 -4.1296,-4.9392 -5.0176,-8.8672 m -34.896,25.3008 39.4704,-16.272 m -71.97584,27.04 c 8.05616,-2.2256 16.1512,-4.816 24.16784,-7.6912 2.7936,-0.9696 5.5872,-2.024 8.3376,-3.1168 m 25.1808,-9.1088 c 0,0.1216 0,0.2448 0.04,0.3648 0.5248,2.0224 5.6656,2.7136 13.1552,1.7008 m -39.3888,-11.6176 c 0.2448,-0.0816 0.4864,-0.0816 0.6896,-0.0816 1.7408,0 3.36,1.296 4.3728,3.5216 m 0,-0.0816 3.8048,6.8416 m -20.52304,0.768 0.89072,0.7296 5.42432,0.7696 14.3296,-2.1456 5.7872,-2.6304 7.896,-15.1808 -0.6496,-2.7136 -2.4688,-0.2 m -31.69504,21.8992 0.89056,0.8496 6.07008,0.8912 14.696,-2.1856 5.9104,-2.7136 8.0944,-15.7056 -0.888,-3.28 -1.8208,-0.08 m 55.3744,-14.8576 c -3.4816,0.8112 -7.0032,1.6608 -10.5664,2.5104 -13.8832,3.4016 -27.4032,7.0448 -38.8608,10.4432 m 52.6656,-11.9792 c -6.072,1.456 -12.6304,3.2768 -19.1872,5.3008 -12.912,3.968 -24.8944,8.4208 -32.8704,12.1856 m 35.9056,-1.2976 c -8.136,3.3616 -15.2592,6.8416 -20.4,10.0416 m -7.936,-4.2912 c -5.464,3.4 -8.6224,6.6384 -8.7424,8.9856 m 79.5424,-28.944 c -2.4688,-1.0912 -4.4912,-3.0768 -5.6256,-5.544 m 14.816,-3.6448 c -0.7296,-0.4448 -1.4176,-1.0112 -2.024,-1.6192 m -8.016,-1.4976 -6.9232,-2.5104 -1.4944,0.568 m -14.0896,-10.5264 -1.0128,-0.2416 -6.3952,2.672 5.384,5.8288"
       inkscape:connector-curvature="0" />
    <path
       id="path4320"
       style="fill:#231f20;fill-opacity:1;fill-rule:nonzero;stroke:none;stroke-width:1.06666672"
       d="m 513.71606,792.23243 -0.648,0.16 -0.8096,0.2832 -0.728,0.3264 -0.3664,0.2032 -0.3632,0.16 -0.2816,0.2016 -0.3264,0.1632 -0.5648,0.4048 -0.2432,0.1616 -0.2432,0.2016 -0.4048,0.4064 -0.4864,0.608 -0.1216,0.2 -0.0816,0.2432 -0.1632,0.4064 -0.04,0.2016 v 0.2032 l -0.0384,0.2032 0.0784,0.5664 0.0832,0.2816 0.1216,0.2832 0.1616,0.3248 0.2032,0.2848 0.4848,0.5632 0.2832,0.2864 0.7296,0.5664 0.4048,0.2416 0.4448,0.2832 0.4464,0.2416 1.5776,0.728 1.8224,0.6096 0.688,0.2032 0.648,0.1616 0.6864,0.1616 0.728,0.1616 0.7312,0.1216 0.768,0.1216 0.7712,0.08 0.808,0.1216 0.7664,0.0416 0.8144,0.08 0.848,0.0416 h 2.512 l 1.6192,-0.0832 0.808,-0.0384 0.7696,-0.08 0.728,-0.1216 0.7696,-0.0816 0.728,-0.1232 0.6896,-0.1616 0.688,-0.1632 0.6464,-0.1616 0.648,-0.16 1.2144,-0.4032 0.5248,-0.2016 0.5664,-0.2064 0.9712,-0.4864 0.448,-0.24 0.4032,-0.2848 0.4032,-0.2432 0.6496,-0.5648 0.2832,-0.2848 0.2432,-0.2816 0.2032,-0.2848 0.16,-0.2816 0.1248,-0.2848 0.0784,-0.3248 0.0816,-0.5664 v -0.2032 l -0.0816,-0.4032 -0.0784,-0.2432 -0.1648,-0.4064 -0.12,-0.2016 -0.1632,-0.2016 -0.1616,-0.2416 -0.1616,-0.2048 -0.4448,-0.4448 -0.4864,-0.4048 -0.2832,-0.2016 -0.3232,-0.2032 -0.2832,-0.2048 -0.3664,-0.2 -0.3632,-0.1616 -0.7264,-0.4048 -0.408,-0.16 -1.7792,-0.6496 -2.0224,-0.568 -1.096,-0.2032 0.2016,-1.0128 1.1344,0.2464 2.1056,0.5664 0.4864,0.1616 0.4448,0.1632 0.4848,0.2016 0.448,0.1616 1.6144,0.808 0.3664,0.2048 0.3248,0.2032 0.3632,0.2416 0.2832,0.2416 0.3248,0.2048 0.7712,0.768 0.2016,0.2432 0.2,0.2832 0.1648,0.2416 0.3216,0.568 0.0816,0.2816 0.0816,0.3248 0.0816,0.2816 0.04,0.2864 v 0.3216 l -0.04,0.4064 -0.0816,0.4048 -0.1216,0.4064 -0.4064,0.7264 -0.2416,0.3648 -0.2816,0.3648 -0.328,0.3232 -0.3616,0.3248 -0.8112,0.5648 -0.4848,0.3248 -0.4848,0.2448 -0.488,0.2816 -1.1344,0.4848 -0.5664,0.2032 -0.648,0.2032 -0.6048,0.2032 -0.688,0.2016 -0.6896,0.16 -0.6864,0.1632 -0.728,0.12 -2.3088,0.368 -0.7696,0.0768 -0.8496,0.0416 -0.808,0.0416 -0.8496,0.04 h -2.5552 l -0.848,-0.04 -0.8496,-0.0832 -2.4288,-0.24 -0.7712,-0.1216 -0.768,-0.1632 -1.456,-0.3216 -0.6896,-0.1632 -0.6864,-0.2016 -1.296,-0.4064 -1.2144,-0.4864 -0.5264,-0.2432 -0.5664,-0.2832 -0.9712,-0.5664 -0.4448,-0.2816 -0.8112,-0.6496 -0.3232,-0.3232 -0.3264,-0.3648 -0.2816,-0.3648 -0.2432,-0.3632 -0.2016,-0.3664 -0.1616,-0.4032 -0.1232,-0.4048 -0.08,-0.8112 0.08,-0.5632 0.1664,-0.568 0.1184,-0.2848 0.1216,-0.2416 0.1632,-0.2832 0.16,-0.2448 0.4048,-0.4832 0.488,-0.4864 0.2816,-0.2032 0.2848,-0.2416 0.2832,-0.2032 0.6448,-0.4064 0.7312,-0.4032 0.3648,-0.1616 0.4048,-0.2032 0.4032,-0.1632 0.8896,-0.3232 0.6864,-0.2016 z m -1.296,-2.3072 4.4112,0.9712 -3.4,2.952"
       inkscape:connector-curvature="0" />
    <path
       id="path4322"
       style="fill:#231f20;fill-opacity:1;fill-rule:nonzero;stroke:none;stroke-width:1.06666672"
       d="m 379.48166,766.36523 0.20192,-1.3776 0.16304,-0.768 0.40448,-1.4576 0.4856,-1.376 0.28256,-0.648 0.28368,-0.608 0.28192,-0.6448 0.32752,-0.5696 0.36112,-0.5648 0.32624,-0.528 0.36448,-0.5264 0.40304,-0.4848 0.81008,-0.8896 0.89184,-0.7296 0.89008,-0.6464 0.9712,-0.488 0.5256,-0.1616 0.4856,-0.16 0.52752,-0.1232 0.5256,-0.04 0.56624,-0.04 h 0.5288 l 0.56624,0.08 0.52432,0.1232 0.52688,0.16 1.05376,0.4048 0.48512,0.2832 0.4856,0.3264 0.44368,0.3616 0.4856,0.3648 0.40816,0.4448 0.4432,0.4448 0.40304,0.4464 0.40688,0.5264 0.36256,0.5264 0.36496,0.5664 0.64816,1.2144 0.3224,0.648 0.28384,0.6464 0.2456,0.6896 0.48496,1.4576 0.20192,0.728 0.16128,0.7696 0.32432,1.6192 0.12064,0.8096 0.0806,0.8096 0.0826,1.6976 0.0387,0.8928 -0.12128,2.552 -0.0806,0.808 -0.12064,0.8496 -0.16304,0.7712 -0.16128,0.8064 -0.16128,0.768 -0.20192,0.7312 -0.48496,1.4576 -0.2456,0.688 -0.28384,0.6464 -0.3224,0.648 -0.64816,1.2144 -0.36496,0.5696 -0.36256,0.5248 -0.40688,0.5264 -0.40304,0.4448 -0.40448,0.4848 -0.44688,0.4048 -0.44368,0.3648 -0.4856,0.3648 -0.44688,0.3248 -0.52384,0.2816 -0.48688,0.2432 -1.05184,0.3248 -0.52752,0.1216 -0.56624,0.0816 -0.5256,0.0368 -0.36432,-0.0368 h -0.32448 l -0.32432,-0.04 -0.64816,-0.1632 -0.36304,-0.0816 -0.60816,-0.2032 -0.60624,-0.3232 -0.64816,-0.3248 -1.1344,-0.888 -0.56432,-0.5296 -0.52752,-0.5648 -0.97248,-1.2944 -0.4856,-0.7312 -0.4032,-0.7696 -0.40624,-0.8096 -0.36432,-0.848 0.93056,-0.4032 0.3256,0.8064 0.4032,0.7712 0.40496,0.7296 0.40496,0.6464 0.44624,0.6464 0.44576,0.568 0.48496,0.5264 0.52624,0.4864 0.4856,0.4032 0.52688,0.3664 0.52432,0.3216 0.56752,0.2432 0.52624,0.2 0.56752,0.1664 0.28256,0.04 0.28368,0.0384 h 0.28256 l 0.28368,0.0416 0.44688,-0.0416 0.48384,-0.0384 0.89184,-0.2432 0.44496,-0.1632 0.4456,-0.2 0.44512,-0.2448 0.40432,-0.2832 0.4456,-0.3248 0.40496,-0.3216 0.40448,-0.4064 0.36304,-0.4032 0.7288,-0.8928 0.36624,-0.5264 0.64688,-1.0528 0.32432,-0.608 0.28384,-0.6048 0.24,-0.6096 0.2856,-0.6864 0.24368,-0.6464 0.20128,-0.7296 0.20192,-0.688 0.1624,-0.7296 0.16192,-0.768 0.24496,-1.5376 0.0789,-0.8096 0.0804,-1.6208 0.0419,-0.8496 -0.0419,-0.8496 -0.0804,-1.6208 -0.0789,-0.808 -0.24496,-1.5376 -0.16192,-0.7712 -0.1624,-0.728 -0.20192,-0.7296 -0.20128,-0.6864 -0.24368,-0.6912 -0.24192,-0.6448 -0.56752,-1.216 -0.32432,-0.6064 -0.28384,-0.5248 -0.36304,-0.528 -0.32432,-0.5248 -0.72752,-0.8912 -0.81072,-0.8112 -0.808,-0.6448 -0.40512,-0.2848 -0.44688,-0.2448 -0.44496,-0.2 -0.89248,-0.3232 -0.44496,-0.0816 -0.48512,-0.08 H 389.158 l -0.4856,0.08 -0.44688,0.0816 -0.40512,0.12 -0.44304,0.1616 -0.44688,0.2032 -0.40496,0.2016 -0.44512,0.2832 -0.40304,0.2848 -0.36624,0.3232 -0.4032,0.3632 -0.36624,0.3648 -0.72928,0.8912 -0.36256,0.4848 -0.32432,0.4864 -0.32448,0.5264 -0.28368,0.568 -0.32256,0.5664 -0.24368,0.6048 -0.28384,0.6096 -0.20112,0.6464 -0.24384,0.688 -0.20304,0.6496 -0.20192,0.7264 -0.16128,0.6912 -0.2032,1.3744 z m 2.55008,-0.3648 -2.42688,3.8064 -1.58128,-4.2112"
       inkscape:connector-curvature="0" />
    <path
       id="path4324"
       style="fill:#231f20;fill-opacity:1;fill-rule:nonzero;stroke:none;stroke-width:1.06666672"
       d="m 442.8735,690.62443 -0.28176,1.1344 -0.36448,1.0928 -0.40496,1.0128 -0.20192,0.5264 -0.24304,0.4848 -0.72944,1.336 -0.28368,0.4048 -0.24192,0.4048 -0.28368,0.4048 -0.28256,0.3648 -0.32368,0.3616 -0.28448,0.3264 -0.32368,0.3248 -0.97136,0.8496 -0.36432,0.2016 -0.32432,0.2432 -0.36448,0.2016 -0.72736,0.3248 -0.7288,0.2416 -0.40496,0.0832 -0.36448,0.08 -0.40496,0.04 h -0.93248 l -0.52384,-0.0816 -0.528,-0.1216 -0.48512,-0.1616 -0.5256,-0.2032 -0.97312,-0.4848 -0.44496,-0.3248 -0.88992,-0.7264 -0.40512,-0.4464 -0.44368,-0.4448 -0.36624,-0.4864 -0.4032,-0.4864 -0.3256,-0.5648 -0.36432,-0.568 -0.32448,-0.5664 -0.3224,-0.6064 -0.28256,-0.648 -0.28368,-0.688 -0.4856,-1.3776 -0.2032,-0.7264 -0.20128,-0.7696 -0.32624,-1.5392 -0.16128,-0.8096 -0.16112,-1.6192 -0.0806,-0.8496 -0.04,-0.8496 v -1.7408 l 0.04,-0.8512 0.0806,-0.8512 0.16112,-1.6192 0.16128,-0.808 0.12256,-0.8096 0.20368,-0.7696 0.40448,-1.4576 0.4856,-1.376 0.28368,-0.688 0.28256,-0.648 0.64688,-1.216 0.32368,-0.5648 0.36624,-0.5264 0.36128,-0.4848 0.40816,-0.4864 0.80624,-0.8912 0.89248,-0.728 0.48496,-0.3248 0.4456,-0.2832 0.48512,-0.2016 0.52752,-0.2032 0.48736,-0.1616 0.52384,-0.12 0.52752,-0.0832 0.56432,-0.04 0.89184,0.0816 0.4856,0.0816 0.44576,0.12 0.44496,0.1616 0.40496,0.1632 0.44624,0.2416 0.40384,0.2032 0.8112,0.5664 0.36128,0.3232 0.40752,0.3648 0.36304,0.3648 0.32432,0.4048 0.3664,0.4464 0.64496,0.8896 0.28368,0.4848 0.32448,0.5264 0.28368,0.528 0.72752,1.6992 0.24368,0.6064 0.40448,1.296 0.16304,0.8096 -0.97248,0.2032 -0.16128,-0.7296 -0.20304,-0.608 -0.1632,-0.6064 -0.24192,-0.5664 -0.20304,-0.5664 -0.24192,-0.5264 -0.28368,-0.5264 -0.24384,-0.4848 -0.56624,-0.9728 -0.28176,-0.4048 -0.32448,-0.4464 -0.28368,-0.3616 -0.6488,-0.7296 -0.36304,-0.2832 -0.32384,-0.3232 -0.72752,-0.488 -0.73056,-0.4048 -0.3632,-0.16 -0.36432,-0.1232 -0.7288,-0.1616 -0.40496,-0.04 -0.36304,-0.04 -0.44688,0.04 -0.48512,0.04 -0.40496,0.1216 -0.44688,0.12 -0.44368,0.1632 -0.40448,0.2016 -0.40496,0.2432 -0.80992,0.5664 -0.40448,0.3648 -0.36496,0.3648 -0.40432,0.4448 -0.36512,0.4048 -0.648,0.9728 -0.32256,0.5264 -0.32624,0.5664 -0.84816,1.8224 -0.24192,0.6464 -0.40496,1.376 -0.20304,0.728 -0.1632,0.7296 -0.16128,0.7696 -0.12064,0.7696 -0.0806,0.7696 -0.16304,1.6176 -0.04,0.8112 v 1.6992 l 0.0806,1.6176 0.1224,0.8128 0.0806,0.7664 0.12064,0.7696 0.16128,0.7696 0.1632,0.728 0.20304,0.7296 0.40496,1.376 0.24192,0.6464 0.84816,1.8224 0.28432,0.5264 0.3256,0.568 0.36128,0.4864 0.3256,0.4848 0.36512,0.4048 0.36432,0.4448 0.40496,0.3648 0.36256,0.3232 0.40624,0.3248 0.40496,0.2832 0.4032,0.2432 0.44688,0.2016 0.40496,0.1616 0.44688,0.1632 0.40304,0.08 0.4432,0.08 h 0.81184 l 0.64816,-0.08 0.64496,-0.1616 0.2856,-0.1232 0.32448,-0.12 0.64688,-0.3248 0.28176,-0.2016 0.32448,-0.2016 0.56752,-0.4848 0.85056,-0.8512 0.28192,-0.3248 0.24368,-0.3632 0.28384,-0.3648 0.24176,-0.3648 0.7288,-1.2144 0.20368,-0.4448 0.2432,-0.4448 0.20192,-0.488 0.36432,-0.9712 0.32432,-1.0528 0.32256,-1.0912 z m 1.29696,-14.208 -1.21568,4.3328 -2.75056,-3.5632"
       inkscape:connector-curvature="0" />
    <path
       id="path4326"
       style="fill:#231f20;fill-opacity:1;fill-rule:nonzero;stroke:none;stroke-width:1.06666672"
       d="m 394.82358,768.83403 -39.02256,15.7872 -0.40432,-0.9312 39.06256,-15.7856 z m -37.84816,16.9216 -4.49376,-0.3648 2.99376,-3.36"
       inkscape:connector-curvature="0" />
    <path
       id="path4328"
       style="fill:#231f20;fill-opacity:1;fill-rule:nonzero;stroke:none;stroke-width:1.06666672"
       d="m 419.67862,679.21003 -23.47888,-8.4592 0.36448,-0.9728 23.43872,8.4608 z m -23.35632,-6.8416 -3.11744,-3.2784 4.49312,-0.5264"
       inkscape:connector-curvature="0" />
    <path
       id="path4330"
       style="fill:#231f20;fill-opacity:1;fill-rule:nonzero;stroke:none;stroke-width:1.06666672"
       d="m 524.60406,808.26123 -0.08,35.176 h -1.0112 l 0.0784,-35.176 z m 1.4176,34.4896 -2.024,4.048 -2.024,-4.048"
       inkscape:connector-curvature="0" />
    <g
       id="g4332"
       transform="matrix(0.15,0,0,-0.15,283.79606,1448.7988)">
      <g
         clip-path="url(#clipPath4336)"
         id="g4334">
        <g
           transform="matrix(685,0,0,-4,-336.10667,4996.16)"
           id="g4340">
          <rect
             id="rect4342"
             style="fill:#000000;fill-opacity:1;fill-rule:nonzero;stroke-width:1.06666672"
             transform="scale(1,-1)"
             height="1.0666667"
             width="1.0666667"
             y="-1.0666667"
             x="0" />
        </g>
      </g>
    </g>
    <g
       id="g3142"
       transform="translate(263.0161,500.80293)">
      <g
         word-spacing="normal"
         letter-spacing="normal"
         font-size-adjust="none"
         font-stretch="normal"
         font-weight="normal"
         font-variant="normal"
         font-style="normal"
         stroke-miterlimit="10.433"
         xml:space="preserve"
         transform="matrix(0.26896036,0,0,-0.26896036,-50.205934,412.65527)"
         id="g3144"
         style="font-style:normal;font-variant:normal;font-weight:normal;font-stretch:normal;letter-spacing:normal;word-spacing:normal;text-anchor:start;fill:none;stroke:#000000;stroke-linecap:butt;stroke-linejoin:miter;stroke-miterlimit:10.43299961;stroke-dasharray:none;stroke-dashoffset:0;stroke-opacity:1"><path
           id="path3146"
           d="m 513.41867,455.54133 v 0.128 l -0.0107,0.128 -0.0213,0.11734 -0.0213,0.11733 -0.032,0.10667 -0.0427,0.10666 -0.0427,0.10667 -0.0427,0.096 -0.0533,0.0853 -0.064,0.096 -0.0533,0.0853 -0.0747,0.0747 -0.0747,0.0747 -0.0747,0.0747 -0.0747,0.0747 -0.0853,0.064 -0.0853,0.0533 -0.0853,0.0533 -0.0853,0.0533 -0.096,0.0533 -0.096,0.0427 -0.096,0.0427 -0.096,0.032 -0.096,0.032 -0.096,0.032 -0.096,0.0213 -0.10667,0.0213 -0.096,0.0213 -0.096,0.0107 -0.096,0.0107 h -0.096 -0.096 c -2.66667,0 -6.06933,-3.97866 -8.71467,-8.18133 -0.064,0.0533 -0.43733,1.824 -0.43733,1.824 -0.84267,3.49867 -1.84533,5.51467 -3.65867,6.35733 0,0 -6.05866,-1.25866 -6.752,-1.48266 v -0.896 c 1.06667,0.26666 1.86667,0.36266 2.496,0.36266 2.92267,0 3.40267,-2.816 5.41867,-10.464 -2.432,-3.56266 -6.16533,-9.46133 -7.648,-9.46133 -1.26933,0 -1.33333,1.28 -2.96533,1.28 -1.184,0 -1.92,-0.85333 -1.92,-1.92 0,-1.376 1.00266,-2.32533 2.496,-2.32533 3.72266,0 7.168,6.624 10.42133,10.82666 0.14933,-0.416 1.36533,-5.152 1.36533,-5.152 1.33334,-4.87466 2.304,-5.67466 3.68,-5.67466 1.58934,0 4.08534,1.64266 6.63467,6.26133 l -0.8,0.48 c -0.84267,-1.16267 -2.37867,-3.73333 -3.712,-3.73333 -1.86667,0 -2.92267,7.552 -4.256,12.288 0.32,0.43733 3.98933,6.37866 6.00533,6.37866 1.01334,0 1.92,-0.84266 2.816,-0.84266 1.33334,0 1.81334,1.04533 1.81334,2.05866 z"
           inkscape:connector-curvature="0"
           style="fill:#000000;stroke-width:0" /><path
           id="path3148"
           d="M 515.584,449.94133 V 449.248 c 3.11467,-0.18133 3.56267,-0.59733 3.56267,-3.34933 v -16.50134 c 0,-2.752 -0.48,-3.232 -3.56267,-3.34933 v -0.704 H 528 c 2.89067,0 5.52533,0.78933 6.912,2.048 1.33333,1.184 2.06933,2.85867 2.06933,4.64 0,1.64267 -0.672,3.12533 -1.824,4.192 -1.10933,1.024 -2.112,1.45067 -4.53333,2.05867 1.94133,0.48 2.72,0.84266 3.60533,1.632 0.928,0.81066 1.504,2.19733 1.504,3.712 0,4.17066 -3.31733,6.31466 -9.74933,6.31466 l -0.58667,-1.36533 c 4.26667,0 6.528,-1.78133 6.528,-5.09867 0,-2.90133 -1.96266,-4.53333 -5.46133,-4.53333 h -3.53067 v -1.48267 c 3.616,0 5.312,-0.18133 6.66667,-0.74666 2.112,-0.88534 3.11467,-2.368 3.11467,-4.71467 0,-2.00533 -0.78934,-3.456 -2.272,-4.32 -1.184,-0.672 -2.70934,-0.94933 -5.16267,-0.94933 -1.81333,0 -2.34667,0.33066 -2.34667,1.51466 v 9.216 1.48267 8.52267 c 0,0.77866 0.26667,1.10933 0.832,1.10933 h 1.632 l 0.58667,1.36533 z"
           inkscape:connector-curvature="0"
           style="fill:#000000;stroke-width:0" /></g>    </g>
    <g
       transform="translate(297.33155,380.2142)"
       id="g3240">
      <g
         style="font-style:normal;font-variant:normal;font-weight:normal;font-stretch:normal;letter-spacing:normal;word-spacing:normal;text-anchor:start;fill:none;stroke:#000000;stroke-linecap:butt;stroke-linejoin:miter;stroke-miterlimit:10.43299961;stroke-dasharray:none;stroke-dashoffset:0;stroke-opacity:1"
         id="g3242"
         transform="matrix(0.26896036,0,0,-0.26896036,-50.205934,412.65527)"
         xml:space="preserve"
         stroke-miterlimit="10.433"
         font-style="normal"
         font-variant="normal"
         font-weight="normal"
         font-stretch="normal"
         font-size-adjust="none"
         letter-spacing="normal"
         word-spacing="normal"><path
           style="fill:#000000;stroke-width:0"
           inkscape:connector-curvature="0"
           d="m 513.568,454.05867 v 0.21333 l -0.0107,0.20267 -0.0213,0.20266 -0.0213,0.192 -0.032,0.18134 -0.0427,0.18133 -0.0427,0.17067 -0.0533,0.17066 -0.064,0.16 -0.064,0.14934 -0.0747,0.14933 -0.0747,0.13867 -0.0747,0.13866 -0.0853,0.128 -0.096,0.11734 -0.096,0.11733 -0.10667,0.10667 -0.10667,0.096 -0.10666,0.096 -0.11734,0.0853 -0.11733,0.0853 -0.11733,0.0747 -0.128,0.064 -0.128,0.0533 -0.13867,0.0533 -0.128,0.0533 -0.13867,0.032 -0.13866,0.032 -0.14934,0.032 -0.13866,0.0107 -0.14934,0.0107 H 510.656 c -1.28,0 -2.06933,-0.992 -2.06933,-2.112 0,-2.76266 2.92266,-1.96266 2.92266,-3.78666 0,-3.392 -6.656,-12.69334 -8.13866,-15.02934 -0.53334,10.688 -2.06934,18.64534 -3.936,20.928 l -7.744,-1.42933 v -0.896 c 0.512,0.096 1.216,0.21333 1.96266,0.21333 3.98934,0 4.256,-4.05333 6.31467,-22.96533 -0.8,-2.28267 -5.52533,-7.70133 -6.912,-7.70133 -1.00267,0 -0.94933,1.74933 -2.656,1.74933 -1.25867,0 -2.37867,-1.16267 -2.37867,-2.45333 0,-1.632 1.632,-2.16534 2.432,-2.16534 3.56267,0 10.048,8.02134 15.46667,16.20267 4.832,7.28533 7.648,12.82133 7.648,15.94667 z"
           id="path3244" /><path
           style="fill:#000000;stroke-width:0"
           inkscape:connector-curvature="0"
           d="M 516.08533,449.94133 V 449.248 c 3.11467,-0.18133 3.57334,-0.59733 3.57334,-3.34933 v -16.50134 c 0,-2.752 -0.49067,-3.232 -3.57334,-3.34933 v -0.704 h 12.416 c 2.90134,0 5.536,0.78933 6.92267,2.048 1.33333,1.184 2.05867,2.85867 2.05867,4.64 0,1.64267 -0.66134,3.12533 -1.81334,4.192 -1.12,1.024 -2.112,1.45067 -4.53333,2.05867 1.93067,0.48 2.72,0.84266 3.60533,1.632 0.928,0.81066 1.49334,2.19733 1.49334,3.712 0,4.17066 -3.31734,6.31466 -9.74934,6.31466 l -0.576,-1.36533 c 4.26667,0 6.528,-1.78133 6.528,-5.09867 0,-2.90133 -1.96266,-4.53333 -5.46133,-4.53333 h -3.54133 v -1.48267 c 3.616,0 5.32266,-0.18133 6.66666,-0.74666 2.12267,-0.88534 3.11467,-2.368 3.11467,-4.71467 0,-2.00533 -0.77867,-3.456 -2.26133,-4.32 -1.184,-0.672 -2.72,-0.94933 -5.16267,-0.94933 -1.824,0 -2.35733,0.33066 -2.35733,1.51466 v 9.216 1.48267 8.52267 c 0,0.77866 0.26666,1.10933 0.832,1.10933 h 1.64266 l 0.576,1.36533 z"
           id="path3246" /></g>    </g>
    <g
       id="g3431"
       transform="translate(228.5581,270.77942)">
      <path
         style="font-style:normal;font-variant:normal;font-weight:normal;font-stretch:normal;letter-spacing:normal;word-spacing:normal;text-anchor:start;fill:#000000;stroke:#000000;stroke-width:0;stroke-linecap:butt;stroke-linejoin:miter;stroke-miterlimit:10.43299961;stroke-dasharray:none;stroke-dashoffset:0;stroke-opacity:1"
         inkscape:connector-curvature="0"
         d="m 284.10511,575.58466 h -4.44395 l -0.61394,1.84185 h 0.28115 c 0.35862,-0.86928 0.70575,-0.88937 1.21642,-0.88937 h 2.32956 l -4.92879,5.57716 h 4.51854 l 0.63976,-1.89922 h -0.26967 c -0.34428,0.98405 -0.87215,0.98405 -1.41438,0.98405 h -2.26071 z"
         id="path3350" />
      <path
         style="font-style:normal;font-variant:normal;font-weight:normal;font-stretch:normal;letter-spacing:normal;word-spacing:normal;text-anchor:start;fill:#000000;stroke:#000000;stroke-width:0;stroke-linecap:butt;stroke-linejoin:miter;stroke-miterlimit:10.43299961;stroke-dasharray:none;stroke-dashoffset:0;stroke-opacity:1"
         inkscape:connector-curvature="0"
         d="m 284.49529,577.63307 v 0.18648 c 0.83771,0.0487 0.96107,0.16065 0.96107,0.90083 v 4.43821 c 0,0.74018 -0.13197,0.86928 -0.96107,0.90083 v 0.18936 h 3.33941 c 0.78034,0 1.48896,-0.2123 1.86192,-0.55084 0.35861,-0.31844 0.55369,-0.76886 0.55369,-1.24797 0,-0.44181 -0.17786,-0.84059 -0.48771,-1.12748 -0.30123,-0.27542 -0.56804,-0.39017 -1.21928,-0.5537 0.51927,-0.1291 0.73157,-0.22665 0.96968,-0.43894 0.2496,-0.21804 0.40166,-0.591 0.40166,-0.99838 0,-1.12175 -0.89224,-1.6984 -2.62219,-1.6984 l -0.15492,0.36722 c 1.14756,0 1.75577,0.4791 1.75577,1.37134 0,0.78034 -0.52788,1.21928 -1.46888,1.21928 h -0.95248 v 0.39879 c 0.97256,0 1.43159,0.0487 1.79307,0.20082 0.57092,0.23812 0.83772,0.63689 0.83772,1.26805 0,0.53936 -0.20943,0.92954 -0.60821,1.16191 -0.31844,0.18075 -0.73157,0.25534 -1.38855,0.25534 -0.49059,0 -0.63403,-0.089 -0.63403,-0.40739 v -2.47873 -0.39879 -2.29225 c 0,-0.20943 0.0717,-0.29837 0.22377,-0.29837 h 0.44182 l 0.15492,-0.36722 z"
         id="path3352" />
    </g>
    <path
       id="path3354"
       d="m 379.94722,748.72511 -0.003,-0.10613 -0.003,-0.10326 -0.009,-0.10037 -0.0115,-0.0976 -0.0143,-0.0976 -0.0144,-0.0918 -0.02,-0.0918 -0.0229,-0.089 -0.0258,-0.0832 -0.0287,-0.0832 -0.0344,-0.0774 -0.0345,-0.0774 -0.0373,-0.0717 -0.043,-0.0717 -0.043,-0.066 -0.0487,-0.0631 -0.0516,-0.0603 -0.0516,-0.0574 -0.0574,-0.0516 -0.0603,-0.0488 -0.0631,-0.0459 -0.0688,-0.043 -0.0688,-0.0402 -0.0717,-0.0344 -0.0774,-0.0316 -0.0803,-0.0258 -0.0832,-0.0229 -0.0832,-0.0201 -0.0918,-0.0144 -0.0918,-0.009 -0.0947,-0.009 h -0.10038 c -0.92665,0 -1.6697,0.68567 -2.31521,1.58651 l 0.50206,-1.58651 c 0,0 -1.91642,0.37009 -2.33242,0.41026 v 0.22952 c 0.53075,0 0.94674,-0.0402 0.94674,0.52787 0,0.27541 -0.18935,0.91519 -0.28689,1.25945 l -1.67258,5.94439 c -0.15778,0.5623 -0.41599,0.94674 -1.116,0.94674 l -0.0402,0.24098 h 3.14146 l 0.0459,-0.24098 c -0.54796,0 -1.01847,-0.0316 -1.01847,-0.416 0,-0.12623 0.0143,-0.28402 0.0861,-0.54222 l 0.50206,-1.99963 c 0.27254,0.21517 0.70002,0.35288 1.05863,0.35288 l -0.0459,-0.32706 c -0.32705,0 -0.62829,-0.14345 -0.91518,-0.39878 0.33279,-1.28528 1.20207,-5.31609 3.04391,-5.31609 0.77461,0 0.77461,1.02707 0.77461,1.35699 v 0 c 0,1.85619 -1.57216,4.35788 -2.90334,4.35788 l 0.0459,0.32706 c 1.69839,0 4.0882,-2.45579 4.0882,-4.82839 z"
       inkscape:connector-curvature="0"
       style="font-style:normal;font-variant:normal;font-weight:normal;font-stretch:normal;letter-spacing:normal;word-spacing:normal;text-anchor:start;fill:#000000;stroke:#000000;stroke-width:0;stroke-linecap:butt;stroke-linejoin:miter;stroke-miterlimit:10.43299961;stroke-dasharray:none;stroke-dashoffset:0;stroke-opacity:1" />
    <path
       id="path3356"
       d="m 456.70641,669.153 h -1.05862 l -0.20943,0.8865 c -0.26108,-0.67133 -0.70575,-0.8865 -1.17626,-0.8865 l 0.10037,0.29837 c 0.52788,0 0.86068,0.45903 0.86068,1.02707 v 0 c 0,1.50044 -1.60086,4.53288 -3.01809,4.53288 -0.43034,0 -0.78323,-0.35862 -0.78323,-1.08445 0,-1.75864 1.61234,-4.4755 2.94064,-4.4755 L 454.2621,669.153 c -1.75577,0 -4.04229,2.68243 -4.04229,4.84559 0,1.09593 0.49632,1.84185 1.35699,1.84185 1.22789,0 2.3439,-1.37134 2.92916,-2.37259 l -1.17051,4.15992 c -0.21517,0.74018 -0.65986,0.82912 -1.43159,0.82912 l -0.043,0.25532 h 3.4341 l 0.0373,-0.27254 c -0.52787,0 -1.12748,-0.0717 -0.92666,-0.79756 z"
       inkscape:connector-curvature="0"
       style="font-style:normal;font-variant:normal;font-weight:normal;font-stretch:normal;letter-spacing:normal;word-spacing:normal;text-anchor:start;fill:#000000;stroke:#000000;stroke-width:0;stroke-linecap:butt;stroke-linejoin:miter;stroke-miterlimit:10.43299961;stroke-dasharray:none;stroke-dashoffset:0;stroke-opacity:1" />
    <path
       id="path3358"
       d="m 510.18745,781.09106 v -0.043 l -0.003,-0.0373 -0.005,-0.0401 -0.005,-0.0373 -0.009,-0.0373 -0.0115,-0.0373 -0.0115,-0.0344 -0.0144,-0.0344 -0.0143,-0.0316 -0.0172,-0.0316 -0.0172,-0.0316 -0.0201,-0.0287 -0.0201,-0.0287 -0.0201,-0.0258 -0.0229,-0.0258 -0.0229,-0.0229 -0.0258,-0.0229 -0.0229,-0.0229 -0.0258,-0.0201 -0.0287,-0.02 -0.0258,-0.0172 -0.0287,-0.0172 -0.0258,-0.0143 -0.0287,-0.0115 -0.0287,-0.0144 -0.0287,-0.009 -0.0287,-0.009 -0.0287,-0.009 -0.0316,-0.005 -0.0287,-0.003 -0.0287,-0.003 h -0.0258 c -1.10453,0 -2.23202,2.35539 -2.67383,3.34229 0,0.0144 0.91519,-3.34229 0.91519,-3.34229 0,0 -1.95947,0.3701 -2.37546,0.41027 v 0.22951 c 0.52788,0 0.94674,-0.0402 0.94674,0.52787 0,0.27542 -0.17213,0.81765 -0.26107,1.17626 l -1.0701,4.18574 h 1.0701 c 0.33279,-1.46889 1.93364,-5.51692 2.67669,-5.51692 0.38444,0 0.14345,0.58526 0.70001,0.58526 0.39879,0 0.72871,-0.35861 0.72871,-0.87215 z"
       inkscape:connector-curvature="0"
       style="font-style:normal;font-variant:normal;font-weight:normal;font-stretch:normal;letter-spacing:normal;word-spacing:normal;text-anchor:start;fill:#000000;stroke:#000000;stroke-width:0;stroke-linecap:butt;stroke-linejoin:miter;stroke-miterlimit:10.43299961;stroke-dasharray:none;stroke-dashoffset:0;stroke-opacity:1" />
    <path
       id="path3360"
       d="m 663.87685,846.39845 0.0287,-0.0373 0.0258,-0.0401 0.0316,-0.0373 0.0316,-0.0402 0.0316,-0.043 0.0344,-0.043 0.0345,-0.043 0.0373,-0.0459 0.0746,-0.089 0.0803,-0.0947 0.0832,-0.0947 0.0861,-0.0975 0.0861,-0.0976 0.089,-0.0976 0.089,-0.0947 0.089,-0.0947 0.089,-0.0947 0.0861,-0.089 0.0832,-0.089 0.0832,-0.0803 c 1.48896,-1.41725 2.8144,-2.67383 2.8144,-4.31771 0,-1.47175 -1.14182,-2.86031 -4.28615,-2.86031 -3.97344,0 -5.91856,2.24636 -5.91856,4.24598 0,0.74306 0.24386,1.41438 0.80042,2.45866 0.54223,0.98691 0.70001,1.37421 0.78608,1.91644 h -1.18485 c -0.15779,0 -0.59961,0 -0.74305,-0.0603 -0.0861,-0.0402 -0.0861,-0.62543 -0.0861,-0.68567 0,-0.0975 0.0143,-0.18361 0.0143,-0.28116 0,-0.27254 -0.10037,-0.35861 -0.34713,-0.35861 -0.31272,0 -0.31272,0.1291 -0.33854,0.48484 -0.0144,0.17501 -0.0144,0.70289 -0.0144,0.8865 l -0.0143,0.84346 c 0,0.57379 0,0.5996 0.48485,0.5996 h 2.21479 c 0.44468,0 0.45616,-0.0144 0.57378,-0.67133 0.0861,-0.51639 0.0861,-1.116 0.0861,-1.13034 0,-0.35288 -0.0459,-1.02708 -0.0861,-1.38569 0,-0.043 -0.1291,-1.20207 -0.1291,-1.80167 0,-2.8603 1.61233,-4.54436 3.90172,-4.54436 1.00125,0 2.25784,0.32992 2.25784,1.88488 0,1.41724 -0.88363,2.90047 -1.52914,3.99066 -0.65985,1.07297 -0.78608,1.32829 -1.02707,1.7988 -0.41886,0.86067 -0.58811,1.47461 -0.58811,1.58651 0,0.27254 0.21516,0.27254 0.48484,0.27254 h 2.21479 c 0.34428,0 0.39018,0 0.50206,-0.22951 0.30124,-0.5996 0.57378,-1.1992 0.85495,-1.81316 0.0861,-0.17212 0.2295,-0.45901 0.2295,-0.51639 0,-0.25534 -0.28115,-0.25534 -0.3414,-0.25534 -0.22664,0 -0.27254,0.0717 -0.35861,0.24099 -0.19795,0.43034 -0.37009,0.77174 -0.48484,0.92953 -0.10038,0.1291 -0.15493,0.21517 -0.98405,0.21517 z"
       inkscape:connector-curvature="0"
       style="font-style:normal;font-variant:normal;font-weight:normal;font-stretch:normal;letter-spacing:normal;word-spacing:normal;text-anchor:start;fill:#000000;stroke:#000000;stroke-width:0.53333336;stroke-linecap:butt;stroke-linejoin:miter;stroke-miterlimit:10.43299961;stroke-dasharray:none;stroke-dashoffset:0;stroke-opacity:1" />
    <g
       transform="translate(559.54943,490.13627)"
       id="g4203">
      <g
         style="font-style:normal;font-variant:normal;font-weight:normal;font-stretch:normal;letter-spacing:normal;word-spacing:normal;text-anchor:start;fill:none;stroke:#000000;stroke-linecap:butt;stroke-linejoin:miter;stroke-miterlimit:10.43299961;stroke-dasharray:none;stroke-dashoffset:0;stroke-opacity:1"
         id="g4205"
         transform="matrix(0.26896036,0,0,-0.26896036,-50.205934,412.65527)"
         xml:space="preserve"
         stroke-miterlimit="10.433"
         font-style="normal"
         font-variant="normal"
         font-weight="normal"
         font-stretch="normal"
         font-size-adjust="none"
         letter-spacing="normal"
         word-spacing="normal"><path
           style="fill:#000000;stroke-width:0"
           inkscape:connector-curvature="0"
           d="m 513.41867,455.54133 v 0.128 l -0.0107,0.128 -0.0213,0.11734 -0.0213,0.11733 -0.032,0.10667 -0.0427,0.10666 -0.0427,0.10667 -0.0427,0.096 -0.0533,0.0853 -0.064,0.096 -0.0533,0.0853 -0.0747,0.0747 -0.0747,0.0747 -0.0747,0.0747 -0.0747,0.0747 -0.0853,0.064 -0.0853,0.0533 -0.0853,0.0533 -0.0853,0.0533 -0.096,0.0533 -0.096,0.0427 -0.096,0.0427 -0.096,0.032 -0.096,0.032 -0.096,0.032 -0.096,0.0213 -0.10667,0.0213 -0.096,0.0213 -0.096,0.0107 -0.096,0.0107 h -0.096 -0.096 c -2.66667,0 -6.06933,-3.97866 -8.71467,-8.18133 -0.064,0.0533 -0.43733,1.824 -0.43733,1.824 -0.84267,3.49867 -1.84533,5.51467 -3.65867,6.35733 0,0 -6.05866,-1.25866 -6.752,-1.48266 v -0.896 c 1.06667,0.26666 1.86667,0.36266 2.496,0.36266 2.92267,0 3.40267,-2.816 5.41867,-10.464 -2.432,-3.56266 -6.16533,-9.46133 -7.648,-9.46133 -1.26933,0 -1.33333,1.28 -2.96533,1.28 -1.184,0 -1.92,-0.85333 -1.92,-1.92 0,-1.376 1.00266,-2.32533 2.496,-2.32533 3.72266,0 7.168,6.624 10.42133,10.82666 0.14933,-0.416 1.36533,-5.152 1.36533,-5.152 1.33334,-4.87466 2.304,-5.67466 3.68,-5.67466 1.58934,0 4.08534,1.64266 6.63467,6.26133 l -0.8,0.48 c -0.84267,-1.16267 -2.37867,-3.73333 -3.712,-3.73333 -1.86667,0 -2.92267,7.552 -4.256,12.288 0.32,0.43733 3.98933,6.37866 6.00533,6.37866 1.01334,0 1.92,-0.84266 2.816,-0.84266 1.33334,0 1.81334,1.04533 1.81334,2.05866 z"
           id="path4207" /><path
           style="fill:#000000;stroke-width:0"
           inkscape:connector-curvature="0"
           d="M 515.584,449.94133 V 449.248 c 3.11467,-0.18133 3.56267,-0.59733 3.56267,-3.34933 v -16.50134 c 0,-2.752 -0.48,-3.232 -3.56267,-3.34933 v -0.704 H 528 c 2.89067,0 5.52533,0.78933 6.912,2.048 1.33333,1.184 2.06933,2.85867 2.06933,4.64 0,1.64267 -0.672,3.12533 -1.824,4.192 -1.10933,1.024 -2.112,1.45067 -4.53333,2.05867 1.94133,0.48 2.72,0.84266 3.60533,1.632 0.928,0.81066 1.504,2.19733 1.504,3.712 0,4.17066 -3.31733,6.31466 -9.74933,6.31466 l -0.58667,-1.36533 c 4.26667,0 6.528,-1.78133 6.528,-5.09867 0,-2.90133 -1.96266,-4.53333 -5.46133,-4.53333 h -3.53067 v -1.48267 c 3.616,0 5.312,-0.18133 6.66667,-0.74666 2.112,-0.88534 3.11467,-2.368 3.11467,-4.71467 0,-2.00533 -0.78934,-3.456 -2.272,-4.32 -1.184,-0.672 -2.70934,-0.94933 -5.16267,-0.94933 -1.81333,0 -2.34667,0.33066 -2.34667,1.51466 v 9.216 1.48267 8.52267 c 0,0.77866 0.26667,1.10933 0.832,1.10933 h 1.632 l 0.58667,1.36533 z"
           id="path4209" /></g>    </g>
    <g
       id="g4211"
       transform="translate(566.13155,380.2142)">
      <g
         word-spacing="normal"
         letter-spacing="normal"
         font-size-adjust="none"
         font-stretch="normal"
         font-weight="normal"
         font-variant="normal"
         font-style="normal"
         stroke-miterlimit="10.433"
         xml:space="preserve"
         transform="matrix(0.26896036,0,0,-0.26896036,-50.205934,412.65527)"
         id="g4213"
         style="font-style:normal;font-variant:normal;font-weight:normal;font-stretch:normal;letter-spacing:normal;word-spacing:normal;text-anchor:start;fill:none;stroke:#000000;stroke-linecap:butt;stroke-linejoin:miter;stroke-miterlimit:10.43299961;stroke-dasharray:none;stroke-dashoffset:0;stroke-opacity:1"><path
           id="path4215"
           d="m 513.568,454.05867 v 0.21333 l -0.0107,0.20267 -0.0213,0.20266 -0.0213,0.192 -0.032,0.18134 -0.0427,0.18133 -0.0427,0.17067 -0.0533,0.17066 -0.064,0.16 -0.064,0.14934 -0.0747,0.14933 -0.0747,0.13867 -0.0747,0.13866 -0.0853,0.128 -0.096,0.11734 -0.096,0.11733 -0.10667,0.10667 -0.10667,0.096 -0.10666,0.096 -0.11734,0.0853 -0.11733,0.0853 -0.11733,0.0747 -0.128,0.064 -0.128,0.0533 -0.13867,0.0533 -0.128,0.0533 -0.13867,0.032 -0.13866,0.032 -0.14934,0.032 -0.13866,0.0107 -0.14934,0.0107 H 510.656 c -1.28,0 -2.06933,-0.992 -2.06933,-2.112 0,-2.76266 2.92266,-1.96266 2.92266,-3.78666 0,-3.392 -6.656,-12.69334 -8.13866,-15.02934 -0.53334,10.688 -2.06934,18.64534 -3.936,20.928 l -7.744,-1.42933 v -0.896 c 0.512,0.096 1.216,0.21333 1.96266,0.21333 3.98934,0 4.256,-4.05333 6.31467,-22.96533 -0.8,-2.28267 -5.52533,-7.70133 -6.912,-7.70133 -1.00267,0 -0.94933,1.74933 -2.656,1.74933 -1.25867,0 -2.37867,-1.16267 -2.37867,-2.45333 0,-1.632 1.632,-2.16534 2.432,-2.16534 3.56267,0 10.048,8.02134 15.46667,16.20267 4.832,7.28533 7.648,12.82133 7.648,15.94667 z"
           inkscape:connector-curvature="0"
           style="fill:#000000;stroke-width:0" /><path
           id="path4217"
           d="M 516.08533,449.94133 V 449.248 c 3.11467,-0.18133 3.57334,-0.59733 3.57334,-3.34933 v -16.50134 c 0,-2.752 -0.49067,-3.232 -3.57334,-3.34933 v -0.704 h 12.416 c 2.90134,0 5.536,0.78933 6.92267,2.048 1.33333,1.184 2.05867,2.85867 2.05867,4.64 0,1.64267 -0.66134,3.12533 -1.81334,4.192 -1.12,1.024 -2.112,1.45067 -4.53333,2.05867 1.93067,0.48 2.72,0.84266 3.60533,1.632 0.928,0.81066 1.49334,2.19733 1.49334,3.712 0,4.17066 -3.31734,6.31466 -9.74934,6.31466 l -0.576,-1.36533 c 4.26667,0 6.528,-1.78133 6.528,-5.09867 0,-2.90133 -1.96266,-4.53333 -5.46133,-4.53333 h -3.54133 v -1.48267 c 3.616,0 5.32266,-0.18133 6.66666,-0.74666 2.12267,-0.88534 3.11467,-2.368 3.11467,-4.71467 0,-2.00533 -0.77867,-3.456 -2.26133,-4.32 -1.184,-0.672 -2.72,-0.94933 -5.16267,-0.94933 -1.824,0 -2.35733,0.33066 -2.35733,1.51466 v 9.216 1.48267 8.52267 c 0,0.77866 0.26666,1.10933 0.832,1.10933 h 1.64266 l 0.576,1.36533 z"
           inkscape:connector-curvature="0"
           style="fill:#000000;stroke-width:0" /></g>    </g>
    <g
       transform="translate(497.3581,270.77942)"
       id="g4219">
      <path
         id="path4221"
         d="m 284.10511,575.58466 h -4.44395 l -0.61394,1.84185 h 0.28115 c 0.35862,-0.86928 0.70575,-0.88937 1.21642,-0.88937 h 2.32956 l -4.92879,5.57716 h 4.51854 l 0.63976,-1.89922 h -0.26967 c -0.34428,0.98405 -0.87215,0.98405 -1.41438,0.98405 h -2.26071 z"
         inkscape:connector-curvature="0"
         style="font-style:normal;font-variant:normal;font-weight:normal;font-stretch:normal;letter-spacing:normal;word-spacing:normal;text-anchor:start;fill:#000000;stroke:#000000;stroke-width:0;stroke-linecap:butt;stroke-linejoin:miter;stroke-miterlimit:10.43299961;stroke-dasharray:none;stroke-dashoffset:0;stroke-opacity:1" />
      <path
         id="path4223"
         d="m 284.49529,577.63307 v 0.18648 c 0.83771,0.0487 0.96107,0.16065 0.96107,0.90083 v 4.43821 c 0,0.74018 -0.13197,0.86928 -0.96107,0.90083 v 0.18936 h 3.33941 c 0.78034,0 1.48896,-0.2123 1.86192,-0.55084 0.35861,-0.31844 0.55369,-0.76886 0.55369,-1.24797 0,-0.44181 -0.17786,-0.84059 -0.48771,-1.12748 -0.30123,-0.27542 -0.56804,-0.39017 -1.21928,-0.5537 0.51927,-0.1291 0.73157,-0.22665 0.96968,-0.43894 0.2496,-0.21804 0.40166,-0.591 0.40166,-0.99838 0,-1.12175 -0.89224,-1.6984 -2.62219,-1.6984 l -0.15492,0.36722 c 1.14756,0 1.75577,0.4791 1.75577,1.37134 0,0.78034 -0.52788,1.21928 -1.46888,1.21928 h -0.95248 v 0.39879 c 0.97256,0 1.43159,0.0487 1.79307,0.20082 0.57092,0.23812 0.83772,0.63689 0.83772,1.26805 0,0.53936 -0.20943,0.92954 -0.60821,1.16191 -0.31844,0.18075 -0.73157,0.25534 -1.38855,0.25534 -0.49059,0 -0.63403,-0.089 -0.63403,-0.40739 v -2.47873 -0.39879 -2.29225 c 0,-0.20943 0.0717,-0.29837 0.22377,-0.29837 h 0.44182 l 0.15492,-0.36722 z"
         inkscape:connector-curvature="0"
         style="font-style:normal;font-variant:normal;font-weight:normal;font-stretch:normal;letter-spacing:normal;word-spacing:normal;text-anchor:start;fill:#000000;stroke:#000000;stroke-width:0;stroke-linecap:butt;stroke-linejoin:miter;stroke-miterlimit:10.43299961;stroke-dasharray:none;stroke-dashoffset:0;stroke-opacity:1" />
    </g>
  </g>
</svg>
