<?xml version="1.0" encoding="UTF-8" standalone="no"?>
<!-- Generator: Adobe Illustrator 14.0.0, SVG Export Plug-In . SVG Version: 6.00 Build 43363)  -->

<svg
   xmlns:ns1="http://www.iki.fi/pav/software/textext/"
   xmlns:dc="http://purl.org/dc/elements/1.1/"
   xmlns:cc="http://creativecommons.org/ns#"
   xmlns:rdf="http://www.w3.org/1999/02/22-rdf-syntax-ns#"
   xmlns:svg="http://www.w3.org/2000/svg"
   xmlns="http://www.w3.org/2000/svg"
   xmlns:sodipodi="http://sodipodi.sourceforge.net/DTD/sodipodi-0.dtd"
   xmlns:inkscape="http://www.inkscape.org/namespaces/inkscape"
   version="1.0"
   id="Layer_1"
   x="0px"
   y="0px"
   width="455.35623"
   height="349.55792"
   viewBox="0 0 455.35623 349.5579"
   enable-background="new 0 0 841.89 595.28"
   xml:space="preserve"
   sodipodi:version="0.32"
   inkscape:version="0.92.4 (5da689c313, 2019-01-14)"
   sodipodi:docname="Boeing-727-wing-topview.svg"
   inkscape:output_extension="org.inkscape.output.svg.inkscape"><metadata
   id="metadata7160"><rdf:RDF><cc:Work
       rdf:about=""><dc:format>image/svg+xml</dc:format><dc:type
         rdf:resource="http://purl.org/dc/dcmitype/StillImage" /><dc:title></dc:title></cc:Work></rdf:RDF></metadata><defs
   id="defs7158"><marker
   inkscape:isstock="true"
   style="overflow:visible"
   id="marker7857"
   refX="0"
   refY="0"
   orient="auto"
   inkscape:stockid="Arrow2Lend"><path
     transform="matrix(-1.1,0,0,-1.1,-1.1,0)"
     d="M 8.7185878,4.0337352 -2.2072895,0.01601326 8.7185884,-4.0017078 c -1.7454984,2.3720609 -1.7354408,5.6174519 -6e-7,8.035443 z"
     style="fill:#000000;fill-opacity:1;fill-rule:evenodd;stroke:#000000;stroke-width:0.625;stroke-linejoin:round;stroke-opacity:1"
     id="path7855"
     inkscape:connector-curvature="0" /></marker><marker
   inkscape:isstock="true"
   style="overflow:visible"
   id="marker7793"
   refX="0"
   refY="0"
   orient="auto"
   inkscape:stockid="Arrow2Lstart"><path
     transform="matrix(1.1,0,0,1.1,1.1,0)"
     d="M 8.7185878,4.0337352 -2.2072895,0.01601326 8.7185884,-4.0017078 c -1.7454984,2.3720609 -1.7354408,5.6174519 -6e-7,8.035443 z"
     style="fill:#000000;fill-opacity:1;fill-rule:evenodd;stroke:#000000;stroke-width:0.625;stroke-linejoin:round;stroke-opacity:1"
     id="path7791"
     inkscape:connector-curvature="0" /></marker><marker
   inkscape:isstock="true"
   style="overflow:visible"
   id="marker6217"
   refX="0"
   refY="0"
   orient="auto"
   inkscape:stockid="Arrow1Mend"><path
     transform="matrix(-0.4,0,0,-0.4,-4,0)"
     style="fill:#000000;fill-opacity:1;fill-rule:evenodd;stroke:#000000;stroke-width:1.00000003pt;stroke-opacity:1"
     d="M 0,0 5,-5 -12.5,0 5,5 Z"
     id="path6215"
     inkscape:connector-curvature="0" /></marker><marker
   inkscape:stockid="Arrow1Mend"
   orient="auto"
   refY="0"
   refX="0"
   id="Arrow1Mend"
   style="overflow:visible"
   inkscape:isstock="true"
   inkscape:collect="always"><path
     id="path4576"
     d="M 0,0 5,-5 -12.5,0 5,5 Z"
     style="fill:#000000;fill-opacity:1;fill-rule:evenodd;stroke:#000000;stroke-width:1.00000003pt;stroke-opacity:1"
     transform="matrix(-0.4,0,0,-0.4,-4,0)"
     inkscape:connector-curvature="0" /></marker><marker
   inkscape:stockid="Arrow2Lend"
   orient="auto"
   refY="0"
   refX="0"
   id="marker5867"
   style="overflow:visible"
   inkscape:isstock="true"><path
     id="path5865"
     style="fill:#000000;fill-opacity:1;fill-rule:evenodd;stroke:#000000;stroke-width:0.625;stroke-linejoin:round;stroke-opacity:1"
     d="M 8.7185878,4.0337352 -2.2072895,0.01601326 8.7185884,-4.0017078 c -1.7454984,2.3720609 -1.7354408,5.6174519 -6e-7,8.035443 z"
     transform="matrix(-1.1,0,0,-1.1,-1.1,0)"
     inkscape:connector-curvature="0" /></marker><marker
   inkscape:isstock="true"
   style="overflow:visible"
   id="marker5029"
   refX="0"
   refY="0"
   orient="auto"
   inkscape:stockid="Arrow2Lstart"><path
     transform="matrix(1.1,0,0,1.1,1.1,0)"
     d="M 8.7185878,4.0337352 -2.2072895,0.01601326 8.7185884,-4.0017078 c -1.7454984,2.3720609 -1.7354408,5.6174519 -6e-7,8.035443 z"
     style="fill:#000000;fill-opacity:1;fill-rule:evenodd;stroke:#000000;stroke-width:0.625;stroke-linejoin:round;stroke-opacity:1"
     id="path5027"
     inkscape:connector-curvature="0" /></marker><marker
   inkscape:stockid="Arrow1Mstart"
   orient="auto"
   refY="0"
   refX="0"
   id="Arrow1Mstart"
   style="overflow:visible"
   inkscape:isstock="true"><path
     id="path4573"
     d="M 0,0 5,-5 -12.5,0 5,5 Z"
     style="fill:#000000;fill-opacity:1;fill-rule:evenodd;stroke:#000000;stroke-width:1.00000003pt;stroke-opacity:1"
     transform="matrix(0.4,0,0,0.4,4,0)"
     inkscape:connector-curvature="0" /></marker><marker
   inkscape:stockid="Arrow1Lstart"
   orient="auto"
   refY="0"
   refX="0"
   id="Arrow1Lstart"
   style="overflow:visible"
   inkscape:isstock="true"><path
     id="path4567"
     d="M 0,0 5,-5 -12.5,0 5,5 Z"
     style="fill:#000000;fill-opacity:1;fill-rule:evenodd;stroke:#000000;stroke-width:1.00000003pt;stroke-opacity:1"
     transform="matrix(0.8,0,0,0.8,10,0)"
     inkscape:connector-curvature="0" /></marker><inkscape:perspective
   sodipodi:type="inkscape:persp3d"
   inkscape:vp_x="0 : 297.64001 : 1"
   inkscape:vp_y="0 : 999.99999 : 0"
   inkscape:vp_z="841.89002 : 297.64001 : 1"
   inkscape:persp3d-origin="420.94501 : 198.42668 : 1"
   id="perspective7162" />
	

		
		
		
		
		
		
		
		
		
		
		
		
		
		
		
		
		
		
		
		
		
		
		
		
		
		
		
		
		
		
		
		
		
		
		
		
		
		
		
		
		
		
		
		
		
		
		
		
		
		
		
		
		
		
		
	
			
			
			
			
			
			
			
			
			
			
			
			
			
			
			
			
			
			
			
			
			
			
			
			
			
			
			
			
			
			
			
			
			
			
			
			
			
			
			
			
			
			
			
			
			
			
			
			
			
			
			
			
			
			
			
			
			
			
			
			
			
			
			
			
			
			
			
			
			
			
			
			
			
			
			
			
			
			
			
			
			
			
			
			
			
			
			
			
			
			
			
			
			
			
			
			
			
			
			
			
			
			
			
			
			
			
			
			
			
			
			
			
			
			
			
			
			
			
			
			
			
			
			
			
			
			
			
			
			
			
			
			
			
			
			
			
			
			
			
			
			
			
			
			
			
			
			
			
			
			
			
			
			
			
			
			
			
			
			
			
			
			
			
			
			
			
			
			
			
			
			
			
			
			
			
			
			
			
			
			
			
			
			
			
			
			
			
			
			
			
			
			
			
			
			
			
			
			
			
			
			
			
			
			
			
			
			
			
			
			
			
			
			
			
			
			
			
			
			
			
			
			
			
			
			
			
			
			
			
			
			
			
			
			
			
			
			
			
			
			
			
			
			
			
			
			
			
			
			
			
			
			
			
			
			
			
			
			
			
			
			
			
			
			
			
			
			
			
			
			
			
			
			
			
			
			
			
			
			
			
			
			
			
			
			
			
			
			
			
			
			
			
			
			
			
			
			
			
			
			
			
			
			
			
			
			
			
			
			
			
			
			
			
			
			
			
			
			
			
			
			
			
			
			
			
			
			
			
			
			
			
			
			
			
			
			
			
			
			
			
			
			
			
			
			
			
			
			
			
			
			
			
			
			
			
			
			
			
			
			
			
			
			
			
			
			
			
			
			
			
			
			
			
			
			
			
			
			
			
			
			
			
			
			
			
			
			
			
			
			
			
			
			
			
			
			
			
			
			
			
			
			
			
			
			
			
			
			
			
			
			
			
			
			
			
			
			
			
			
			
			
			
			
			
			
			
			
			
			
			
			
			
			
			
			
			
			
			
			
			
			
			
			
			
			
			
			
			
			
			
			
		<inkscape:perspective
   id="perspective9584"
   inkscape:persp3d-origin="0.5 : 0.33333333 : 1"
   inkscape:vp_z="1 : 0.5 : 1"
   inkscape:vp_y="0 : 999.99999 : 0"
   inkscape:vp_x="0 : 0.5 : 1"
   sodipodi:type="inkscape:persp3d" /><inkscape:perspective
   id="perspective9606"
   inkscape:persp3d-origin="0.5 : 0.33333333 : 1"
   inkscape:vp_z="1 : 0.5 : 1"
   inkscape:vp_y="0 : 999.99999 : 0"
   inkscape:vp_x="0 : 0.5 : 1"
   sodipodi:type="inkscape:persp3d" /></defs><sodipodi:namedview
   pagecolor="#ffffff"
   bordercolor="#666666"
   borderopacity="1"
   objecttolerance="10"
   gridtolerance="10"
   guidetolerance="10"
   inkscape:pageopacity="0"
   inkscape:pageshadow="2"
   inkscape:window-width="2335"
   inkscape:window-height="1334"
   id="namedview7156"
   showgrid="false"
   inkscape:zoom="1.6877533"
   inkscape:cx="67.502569"
   inkscape:cy="113.34409"
   inkscape:window-x="527"
   inkscape:window-y="0"
   inkscape:current-layer="Layer_1"
   inkscape:window-maximized="0"
   fit-margin-top="5"
   fit-margin-left="5"
   fit-margin-bottom="5"
   fit-margin-right="5" />

<path
   id="path14281"
   style="fill:#c0e2c3;fill-opacity:1;stroke:none;stroke-width:1.96103001;stroke-linecap:round;stroke-linejoin:round;stroke-miterlimit:4;stroke-dasharray:none;stroke-opacity:1"
   d="m 234.22432,203.2494 50.64211,7.21475 124.69707,53.24875 c 0.32077,-10.53146 -0.21187,-22.00807 -5.413,-31.44398 L 234.28764,106.60989 Z"
   sodipodi:nodetypes="cccccc"
   inkscape:connector-curvature="0" /><path
   id="path11428"
   style="fill:#dbdfeb;fill-opacity:1;stroke:none;stroke-width:1.12058854;stroke-linecap:butt;stroke-linejoin:miter;stroke-miterlimit:4;stroke-dasharray:2.2411772, 2.2411772;stroke-dashoffset:0;stroke-opacity:1"
   d="m 181.33134,106.89473 26.51436,-19.05223 2.9e-4,113.09979 -26.45104,2.59195 m 0,0 -50.64211,7.21475 -124.6970769,53.24875 c -0.32077,-10.53146 0.21189,-22.00807 5.4130099,-31.44398 L 181.33163,106.89473"
   inkscape:connector-curvature="0"
   sodipodi:nodetypes="ccccccccc" /><path
   style="fill:none;stroke:#000000;stroke-width:1.90500069;stroke-linecap:butt;stroke-linejoin:miter;stroke-miterlimit:4;stroke-dasharray:none;stroke-opacity:1;marker-end:url(#Arrow1Mend)"
   d="M 207.8454,88.22452 H 446.60208"
   id="path5025"
   inkscape:connector-curvature="0"
   sodipodi:nodetypes="cc" /><path
   inkscape:connector-curvature="0"
   id="path6806"
   style="fill:none;stroke:#000000;stroke-width:0.56029427;stroke-linecap:round;stroke-miterlimit:4;stroke-dasharray:none"
   d="m 22.430759,257.06525 -0.258209,-10.06132 -4.347811,-9.68181 -6.355824,-4.76837"
   sodipodi:nodetypes="cccc" /><path
   inkscape:connector-curvature="0"
   id="path6828"
   style="fill:none;stroke:#000000;stroke-width:0.56029427;stroke-linecap:round;stroke-miterlimit:4;stroke-dasharray:none"
   d="M 181.54457,123.70454 17.824599,237.32213"
   sodipodi:nodetypes="cc" /><path
   inkscape:connector-curvature="0"
   style="clip-rule:evenodd;fill:none;stroke:#000000;stroke-width:0.56029427;stroke-linecap:round;stroke-miterlimit:4;stroke-dasharray:none"
   id="path6830"
   d="m 58.687011,241.42755 -1.61578,-9.65854"
   sodipodi:nodetypes="cc" /><path
   inkscape:connector-curvature="0"
   style="clip-rule:evenodd;fill:none;stroke:#000000;stroke-width:0.56029427;stroke-linecap:round;stroke-miterlimit:4;stroke-dasharray:none"
   id="path6840"
   d="m 115.69878,216.77285 -1.90403,-9.93036"
   sodipodi:nodetypes="cc" /><path
   inkscape:connector-curvature="0"
   style="clip-rule:evenodd;fill:none;stroke:#000000;stroke-width:0.56029427;stroke-linecap:round;stroke-miterlimit:4;stroke-dasharray:none"
   id="path6886"
   d="m 130.82526,210.46415 -0.23331,-10.78829"
   sodipodi:nodetypes="cc" /><path
   inkscape:connector-curvature="0"
   id="path6894"
   style="fill:none;stroke:#000000;stroke-width:1.96103001;stroke-linecap:round;stroke-linejoin:round;stroke-miterlimit:4;stroke-dasharray:none"
   d="m 181.39495,203.53424 -50.64211,7.21475 -124.6970739,53.24875 c -0.32077,-10.53146 0.211891,-22.00807 5.4130089,-31.44398 L 181.33163,106.89473"
   sodipodi:nodetypes="ccccc" /><path
   inkscape:connector-curvature="0"
   id="path6902"
   style="fill:none;stroke:#000000;stroke-width:0.56029427;stroke-linecap:round;stroke-miterlimit:4;stroke-dasharray:none"
   d="m 22.17255,247.00393 108.17309,-47.57855 50.41248,-10.11989"
   sodipodi:nodetypes="ccc" /><path
   inkscape:connector-curvature="0"
   sodipodi:nodetypes="cccc"
   d="m 393.26093,257.06525 0.25821,-10.06132 4.3478,-9.68181 6.35584,-4.76837"
   style="fill:none;stroke:#000000;stroke-width:0.56029427;stroke-linecap:round;stroke-miterlimit:4;stroke-dasharray:none"
   id="path9671" /><path
   inkscape:connector-curvature="0"
   sodipodi:nodetypes="cc"
   d="M 234.14712,123.70454 397.86708,237.32213"
   style="fill:none;stroke:#000000;stroke-width:0.56029427;stroke-linecap:round;stroke-miterlimit:4;stroke-dasharray:none"
   id="path9673" /><path
   inkscape:connector-curvature="0"
   sodipodi:nodetypes="cc"
   d="m 357.00468,241.42755 1.61577,-9.65854"
   id="path9675"
   style="clip-rule:evenodd;fill:none;stroke:#000000;stroke-width:0.56029427;stroke-linecap:round;stroke-miterlimit:4;stroke-dasharray:none" /><path
   inkscape:connector-curvature="0"
   sodipodi:nodetypes="cc"
   d="m 299.99291,216.77285 1.90402,-9.93036"
   id="path9677"
   style="clip-rule:evenodd;fill:none;stroke:#000000;stroke-width:0.56029427;stroke-linecap:round;stroke-miterlimit:4;stroke-dasharray:none" /><path
   inkscape:connector-curvature="0"
   sodipodi:nodetypes="cc"
   d="m 284.86643,210.46415 0.23331,-10.78829"
   id="path9679"
   style="clip-rule:evenodd;fill:none;stroke:#000000;stroke-width:0.56029427;stroke-linecap:round;stroke-miterlimit:4;stroke-dasharray:none" /><path
   inkscape:connector-curvature="0"
   sodipodi:nodetypes="ccccc"
   d="m 234.29674,203.53424 50.64211,7.21475 124.69707,53.24875 c 0.32077,-10.53146 -0.21187,-22.00807 -5.413,-31.44398 L 234.36006,106.89473"
   style="fill:none;stroke:#000000;stroke-width:1.96103001;stroke-linecap:round;stroke-linejoin:round;stroke-miterlimit:4;stroke-dasharray:none"
   id="path9681" /><path
   inkscape:connector-curvature="0"
   sodipodi:nodetypes="ccc"
   d="M 393.51914,247.00393 285.34605,199.42538 234.93357,189.30549"
   style="fill:none;stroke:#000000;stroke-width:0.56029427;stroke-linecap:round;stroke-miterlimit:4;stroke-dasharray:none"
   id="path9683" /><path
   sodipodi:nodetypes="cc"
   inkscape:connector-curvature="0"
   id="path4563"
   d="m 410.13139,268.43424 v 75.55519"
   style="fill:none;stroke:#052aa9;stroke-width:1.12100005;stroke-linecap:round;stroke-linejoin:round;stroke-miterlimit:4;stroke-dasharray:none;stroke-opacity:1" /><g
   id="g7497"
   transform="matrix(1.1205886,0,0,1.1205886,231.9523,-18.10398)"><path
     style="fill:none;stroke:#052aa9;stroke-width:1px;stroke-linecap:round;stroke-linejoin:round;stroke-opacity:1"
     d="m 103.2611,264.16491 v -35.27065 m 0,-43.83786 v -24.91892"
     id="path7485"
     inkscape:connector-curvature="0"
     sodipodi:nodetypes="cccc" /><path
     sodipodi:nodetypes="cc"
     inkscape:connector-curvature="0"
     id="path7487"
     d="M 103.2611,228.89426 V 185.0564"
     style="fill:none;stroke:#052aa9;stroke-width:0.40000001;stroke-linecap:butt;stroke-linejoin:miter;stroke-miterlimit:4;stroke-dasharray:none;stroke-opacity:1" /><path
     style="fill:none;stroke:#052aa9;stroke-width:1;stroke-linecap:round;stroke-linejoin:round;stroke-miterlimit:4;stroke-dasharray:none;stroke-opacity:1"
     d="m 101.5751,177.8213 1.686,7.2351 1.686,-7.2351"
     id="path7489"
     inkscape:connector-curvature="0"
     sodipodi:nodetypes="ccc" /><path
     sodipodi:nodetypes="ccc"
     inkscape:connector-curvature="0"
     id="path7491"
     d="m 101.5751,236.12936 1.686,-7.2351 1.686,7.2351"
     style="fill:none;stroke:#052aa9;stroke-width:1;stroke-linecap:round;stroke-linejoin:round;stroke-miterlimit:4;stroke-dasharray:none;stroke-opacity:1" /></g><g
   transform="matrix(1.1205886,0,0,1.1205886,176.15032,-50.13233)"
   id="g7507"><path
     sodipodi:nodetypes="cccc"
     inkscape:connector-curvature="0"
     id="path7499"
     d="m 103.2611,254.14636 v -21.2521 m 0,-59.83786 v -24.91892"
     style="fill:none;stroke:#052aa9;stroke-width:1px;stroke-linecap:round;stroke-linejoin:round;stroke-opacity:1" /><path
     style="fill:none;stroke:#7f0425;stroke-width:1.78477633;stroke-linecap:round;stroke-linejoin:round;stroke-miterlimit:4;stroke-dasharray:none;stroke-opacity:1"
     d="M 103.2611,232.89426 V 173.0564"
     id="path7501"
     inkscape:connector-curvature="0"
     sodipodi:nodetypes="cc" /><path
     sodipodi:nodetypes="ccc"
     inkscape:connector-curvature="0"
     id="path7503"
     d="m 101.5751,165.8213 1.686,7.2351 1.686,-7.2351"
     style="fill:none;stroke:#052aa9;stroke-width:1;stroke-linecap:round;stroke-linejoin:round;stroke-miterlimit:4;stroke-dasharray:none;stroke-opacity:1" /><path
     style="fill:none;stroke:#052aa9;stroke-width:1;stroke-linecap:round;stroke-linejoin:round;stroke-miterlimit:4;stroke-dasharray:none;stroke-opacity:1"
     d="m 101.5751,240.12936 1.686,-7.2351 1.686,7.2351"
     id="path7505"
     inkscape:connector-curvature="0"
     sodipodi:nodetypes="ccc" /></g><path
   style="fill:none;stroke:#052aa9;stroke-width:1.12058854;stroke-linecap:butt;stroke-linejoin:miter;stroke-miterlimit:4;stroke-dasharray:2.2411772, 2.2411772;stroke-dashoffset:0;stroke-opacity:1"
   d="M 234.36006,106.89473 207.8454,87.8425"
   id="path7509"
   inkscape:connector-curvature="0"
   sodipodi:nodetypes="cc" /><path
   style="fill:none;stroke:#7f0425;stroke-width:1.12058854px;stroke-linecap:round;stroke-linejoin:round;stroke-opacity:1"
   d="m 290.0475,143.7927 h 3.63207"
   id="path7511"
   inkscape:connector-curvature="0"
   sodipodi:nodetypes="cc" /><path
   sodipodi:nodetypes="cc"
   inkscape:connector-curvature="0"
   id="path7513"
   d="m 290.0475,210.84632 h 3.63207"
   style="fill:none;stroke:#7f0425;stroke-width:1.12058854px;stroke-linecap:round;stroke-linejoin:round;stroke-opacity:1" /><g
   transform="matrix(1.1205886,0,0,1.1205886,-88.614384,-0.68591975)"
   id="g7523"><path
     sodipodi:nodetypes="cccc"
     inkscape:connector-curvature="0"
     id="path7515"
     d="m 103.2611,248.62125 v -19.72699 m 0,-31.83786 v -24.91892"
     style="fill:none;stroke:#052aa9;stroke-width:1px;stroke-linecap:round;stroke-linejoin:round;stroke-opacity:1" /><path
     style="fill:none;stroke:#052aa9;stroke-width:0.40000001;stroke-linecap:butt;stroke-linejoin:miter;stroke-miterlimit:4;stroke-dasharray:none;stroke-opacity:1"
     d="M 103.2611,228.89426 V 197.0564"
     id="path7517"
     inkscape:connector-curvature="0"
     sodipodi:nodetypes="cc" /><path
     sodipodi:nodetypes="ccc"
     inkscape:connector-curvature="0"
     id="path7519"
     d="m 101.5751,189.8213 1.686,7.2351 1.686,-7.2351"
     style="fill:none;stroke:#052aa9;stroke-width:1;stroke-linecap:round;stroke-linejoin:round;stroke-miterlimit:4;stroke-dasharray:none;stroke-opacity:1" /><path
     style="fill:none;stroke:#052aa9;stroke-width:1;stroke-linecap:round;stroke-linejoin:round;stroke-miterlimit:4;stroke-dasharray:none;stroke-opacity:1"
     d="m 101.5751,236.12936 1.686,-7.2351 1.686,7.2351"
     id="path7521"
     inkscape:connector-curvature="0"
     sodipodi:nodetypes="ccc" /></g><path
   style="fill:none;stroke:#000000;stroke-width:1.12058854px;stroke-linecap:butt;stroke-linejoin:miter;stroke-opacity:1;marker-start:url(#marker7793);marker-end:url(#marker7857)"
   d="M 209.87173,326.60316 H 407.93736"
   id="path7789"
   inkscape:connector-curvature="0"
   sodipodi:nodetypes="cc" /><path
   sodipodi:nodetypes="cc"
   inkscape:connector-curvature="0"
   id="path8453"
   d="M 234.29674,203.53423 207.8457,200.94228"
   style="fill:none;stroke:#052aa9;stroke-width:1.12058854;stroke-linecap:butt;stroke-linejoin:miter;stroke-miterlimit:4;stroke-dasharray:2.2411772, 2.2411772;stroke-dashoffset:0;stroke-opacity:1" /><path
   sodipodi:nodetypes="cc"
   inkscape:connector-curvature="0"
   id="path11380"
   d="M 181.33134,106.89473 207.8457,87.8425"
   style="fill:none;stroke:#052aa9;stroke-width:1.12058854;stroke-linecap:butt;stroke-linejoin:miter;stroke-miterlimit:4;stroke-dasharray:2.2411772, 2.2411772;stroke-dashoffset:0;stroke-opacity:1" /><path
   style="fill:none;stroke:#052aa9;stroke-width:1.12058854;stroke-linecap:butt;stroke-linejoin:miter;stroke-miterlimit:4;stroke-dasharray:2.2411772, 2.2411772;stroke-dashoffset:0;stroke-opacity:1"
   d="m 181.39495,203.53424 26.45104,-2.59195"
   id="path11382"
   inkscape:connector-curvature="0"
   sodipodi:nodetypes="cc" /><g
   id="g11927"
   transform="translate(108.0484,7.1537302)"><g
     id="g11870"><g
       id="g11677"
       style="fill:#000000;fill-opacity:1"
       transform="matrix(2,0,0,2,-383.7336,-179.5562)"><path
         id="path11675"
         transform="translate(148.712,134.765)"
         d="m 9.296875,-6.40625 v -0.1875 H 7.3125 v 0.1875 C 7.828125,-6.359375 8,-6.25 8,-5.984375 c 0,0.21875 -0.0625,0.46875 -0.15625,0.75 l -1.25,3.375 L 5.28125,-5.25 5.15625,-5.546875 C 5.078125,-5.765625 5.015625,-5.953125 5.015625,-6.0625 c 0,-0.234375 0.234375,-0.34375 0.765625,-0.34375 v -0.1875 H 3.125 v 0.1875 c 0.5625,0 0.65625,0.09375 1,0.890625 L 4.453125,-4.6875 3.390625,-1.890625 1.953125,-5.625 C 1.890625,-5.8125 1.84375,-5.984375 1.84375,-6.09375 1.84375,-6.3125 1.984375,-6.375 2.5,-6.40625 v -0.1875 H 0.046875 v 0.1875 C 0.5625,-6.359375 0.703125,-6.1875 1.078125,-5.25 L 3,0.109375 h 0.15625 l 1.53125,-4.21875 1.59375,4.21875 H 6.4375 l 2.03125,-5.8125 C 8.65625,-6.21875 8.765625,-6.3125 9.296875,-6.40625 Z m 0,0"
         style="stroke:none;stroke-width:0"
         inkscape:connector-curvature="0" /></g><g
       id="g11685"
       style="fill:#000000;fill-opacity:1"
       transform="matrix(2,0,0,2,-383.7336,-179.5562)"><path
         id="path11679"
         transform="translate(157.96725,134.765)"
         d="M 2.515625,0 V -0.15625 C 1.859375,-0.203125 1.78125,-0.296875 1.78125,-1.015625 V -4.5625 L 1.75,-4.578125 0.203125,-4.03125 v 0.140625 H 0.28125 c 0.125,-0.03125 0.25,-0.03125 0.34375,-0.03125 0.234375,0 0.328125,0.15625 0.328125,0.59375 v 2.3125 c 0,0.71875 -0.109375,0.828125 -0.796875,0.859375 V 0 Z M 1.875,-5.875 c 0,-0.28125 -0.21875,-0.515625 -0.515625,-0.515625 -0.265625,0 -0.5,0.234375 -0.5,0.515625 0,0.28125 0.234375,0.5 0.5,0.5 0.296875,0 0.515625,-0.21875 0.515625,-0.5 z m 0,0"
         style="stroke:none;stroke-width:0"
         inkscape:connector-curvature="0" /><path
         id="path11681"
         transform="translate(160.73686,134.765)"
         d="M 4.828125,0 V -0.15625 C 4.34375,-0.203125 4.234375,-0.3125 4.234375,-0.8125 v -2.28125 c 0,-0.9375 -0.453125,-1.484375 -1.1875,-1.484375 -0.453125,0 -0.765625,0.15625 -1.4375,0.796875 V -4.5625 L 1.53125,-4.578125 c -0.484375,0.171875 -0.828125,0.28125 -1.375,0.4375 V -3.96875 C 0.21875,-4 0.3125,-4 0.421875,-4 c 0.28125,0 0.375,0.140625 0.375,0.625 v 2.484375 c 0,0.5625 -0.109375,0.703125 -0.625,0.734375 V 0 h 2.125 V -0.15625 C 1.78125,-0.1875 1.640625,-0.3125 1.640625,-0.671875 V -3.46875 c 0.46875,-0.453125 0.6875,-0.5625 1.015625,-0.5625 0.5,0 0.734375,0.296875 0.734375,0.953125 v 2.09375 c 0,0.625 -0.125,0.796875 -0.625,0.828125 V 0 Z m 0,0"
         style="stroke:none;stroke-width:0"
         inkscape:connector-curvature="0" /><path
         id="path11683"
         transform="translate(165.71816,134.765)"
         d="M 4.6875,-3.875 V -4.25 H 3.921875 C 3.71875,-4.25 3.5625,-4.28125 3.375,-4.359375 L 3.15625,-4.4375 C 2.875,-4.53125 2.609375,-4.578125 2.359375,-4.578125 c -0.9375,0 -1.671875,0.703125 -1.671875,1.625 0,0.625 0.265625,1 0.921875,1.328125 L 1.1875,-1.21875 c -0.328125,0.28125 -0.453125,0.484375 -0.453125,0.6875 0,0.203125 0.109375,0.328125 0.515625,0.515625 -0.703125,0.53125 -0.96875,0.859375 -0.96875,1.21875 0,0.53125 0.78125,0.96875 1.71875,0.96875 0.75,0 1.53125,-0.265625 2.046875,-0.671875 0.375,-0.3125 0.546875,-0.625 0.546875,-1.015625 0,-0.609375 -0.46875,-1.03125 -1.203125,-1.0625 l -1.28125,-0.0625 C 1.578125,-0.65625 1.328125,-0.75 1.328125,-0.90625 c 0,-0.203125 0.328125,-0.546875 0.59375,-0.625 0.09375,0 0.15625,0.015625 0.1875,0.015625 C 2.296875,-1.5 2.4375,-1.484375 2.5,-1.484375 c 0.359375,0 0.765625,-0.15625 1.0625,-0.421875 0.328125,-0.28125 0.484375,-0.625 0.484375,-1.125 C 4.046875,-3.3125 4,-3.546875 3.859375,-3.875 Z m -0.375,4.515625 c 0,0.578125 -0.75,0.96875 -1.875,0.96875 -0.875,0 -1.453125,-0.296875 -1.453125,-0.734375 0,-0.234375 0.0625,-0.359375 0.484375,-0.859375 0.328125,0.078125 1.125,0.140625 1.609375,0.140625 0.90625,0 1.234375,0.125 1.234375,0.484375 z m -1.03125,-3.28125 c 0,0.5625 -0.296875,0.90625 -0.75,0.90625 -0.59375,0 -1.015625,-0.640625 -1.015625,-1.609375 V -3.375 c 0,-0.578125 0.28125,-0.9375 0.734375,-0.9375 0.3125,0 0.578125,0.171875 0.734375,0.46875 0.171875,0.359375 0.296875,0.8125 0.296875,1.203125 z m 0,0"
         style="stroke:none;stroke-width:0"
         inkscape:connector-curvature="0" /></g><g
       id="g11697"
       style="fill:#000000;fill-opacity:1"
       transform="matrix(2,0,0,2,-383.7336,-179.5562)"><path
         id="path11687"
         transform="translate(173.19011,134.765)"
         d="m 4.6875,-2.46875 c 0,-1.234375 -0.703125,-2.109375 -1.671875,-2.109375 -0.546875,0 -0.984375,0.234375 -1.4375,0.78125 V -4.5625 L 1.53125,-4.578125 C 0.984375,-4.375 0.640625,-4.25 0.09375,-4.078125 v 0.15625 c 0.078125,0 0.15625,0 0.25,0 0.328125,0 0.40625,0.09375 0.40625,0.5625 V 1.3125 C 0.75,1.828125 0.640625,1.9375 0.046875,2 V 2.15625 H 2.46875 V 1.984375 c -0.75,-0.015625 -0.890625,-0.125 -0.890625,-0.75 v -1.5625 C 1.9375,0 2.171875,0.09375 2.59375,0.09375 c 1.171875,0 2.09375,-1.109375 2.09375,-2.5625 z m -0.859375,0.390625 c 0,1.109375 -0.484375,1.859375 -1.203125,1.859375 -0.46875,0 -1.046875,-0.359375 -1.046875,-0.65625 v -2.453125 c 0,-0.296875 0.5625,-0.65625 1.03125,-0.65625 0.734375,0 1.21875,0.75 1.21875,1.90625 z m 0,0"
         style="stroke:none;stroke-width:0"
         inkscape:connector-curvature="0" /><path
         id="path11689"
         transform="translate(178.17141,134.765)"
         d="m 2.5625,0 v -0.15625 c -0.640625,-0.03125 -0.75,-0.140625 -0.75,-0.6875 v -5.9375 L 1.78125,-6.8125 C 1.25,-6.640625 0.875,-6.546875 0.1875,-6.375 v 0.171875 H 0.25 c 0.109375,-0.015625 0.234375,-0.03125 0.3125,-0.03125 0.3125,0 0.421875,0.140625 0.421875,0.609375 v 4.75 c 0,0.546875 -0.140625,0.671875 -0.78125,0.71875 V 0 Z m 0,0"
         style="stroke:none;stroke-width:0"
         inkscape:connector-curvature="0" /><path
         id="path11691"
         transform="translate(180.94101,134.765)"
         d="m 4.40625,-0.40625 v -0.25 c -0.171875,0.140625 -0.296875,0.1875 -0.4375,0.1875 -0.234375,0 -0.296875,-0.140625 -0.296875,-0.578125 v -1.9375 C 3.671875,-3.5 3.625,-3.78125 3.484375,-4 c -0.21875,-0.390625 -0.640625,-0.578125 -1.25,-0.578125 -0.515625,0 -0.984375,0.125 -1.265625,0.359375 -0.25,0.21875 -0.40625,0.5 -0.40625,0.75 0,0.234375 0.1875,0.421875 0.421875,0.421875 0.234375,0 0.453125,-0.1875 0.453125,-0.40625 0,-0.046875 -0.015625,-0.09375 -0.015625,-0.171875 -0.03125,-0.078125 -0.03125,-0.15625 -0.03125,-0.234375 0,-0.265625 0.3125,-0.484375 0.71875,-0.484375 0.484375,0 0.75,0.28125 0.75,0.828125 v 0.609375 c -1.53125,0.609375 -1.703125,0.6875 -2.125,1.078125 -0.21875,0.1875 -0.359375,0.53125 -0.359375,0.859375 0,0.625 0.421875,1.0625 1.046875,1.0625 0.4375,0 0.84375,-0.203125 1.453125,-0.71875 0.046875,0.53125 0.21875,0.71875 0.640625,0.71875 0.328125,0 0.546875,-0.109375 0.890625,-0.5 z m -1.546875,-0.8125 c 0,0.296875 -0.046875,0.390625 -0.25,0.515625 -0.25,0.140625 -0.53125,0.21875 -0.734375,0.21875 C 1.53125,-0.484375 1.25,-0.8125 1.25,-1.25 v -0.03125 c 0,-0.59375 0.40625,-0.953125 1.609375,-1.390625 z m 0,0"
         style="stroke:none;stroke-width:0"
         inkscape:connector-curvature="0" /><path
         id="path11693"
         transform="translate(185.3644,134.765)"
         d="M 4.828125,0 V -0.15625 C 4.34375,-0.203125 4.234375,-0.3125 4.234375,-0.8125 v -2.28125 c 0,-0.9375 -0.453125,-1.484375 -1.1875,-1.484375 -0.453125,0 -0.765625,0.15625 -1.4375,0.796875 V -4.5625 L 1.53125,-4.578125 c -0.484375,0.171875 -0.828125,0.28125 -1.375,0.4375 V -3.96875 C 0.21875,-4 0.3125,-4 0.421875,-4 c 0.28125,0 0.375,0.140625 0.375,0.625 v 2.484375 c 0,0.5625 -0.109375,0.703125 -0.625,0.734375 V 0 h 2.125 V -0.15625 C 1.78125,-0.1875 1.640625,-0.3125 1.640625,-0.671875 V -3.46875 c 0.46875,-0.453125 0.6875,-0.5625 1.015625,-0.5625 0.5,0 0.734375,0.296875 0.734375,0.953125 v 2.09375 c 0,0.625 -0.125,0.796875 -0.625,0.828125 V 0 Z m 0,0"
         style="stroke:none;stroke-width:0"
         inkscape:connector-curvature="0" /><path
         id="path11695"
         transform="translate(190.3457,134.765)"
         d="m 3.8125,-6.1875 c 0,-0.359375 -0.4375,-0.625 -1.03125,-0.625 -0.625,0 -1.140625,0.265625 -1.40625,0.71875 -0.265625,0.453125 -0.34375,0.8125 -0.34375,1.609375 H 0.203125 v 0.3125 H 1.03125 v 3.140625 c 0,0.71875 -0.109375,0.84375 -0.828125,0.875 V 0 h 2.59375 v -0.15625 c -0.828125,-0.015625 -0.9375,-0.140625 -0.9375,-0.875 v -3.140625 h 1.21875 v -0.3125 h -1.21875 v -1.15625 c 0,-0.59375 0.1875,-0.890625 0.5625,-0.890625 0.21875,0 0.34375,0.09375 0.53125,0.390625 0.15625,0.265625 0.28125,0.359375 0.453125,0.359375 0.234375,0 0.40625,-0.1875 0.40625,-0.40625 z m 0,0"
         style="stroke:none;stroke-width:0"
         inkscape:connector-curvature="0" /></g><g
       id="g11703"
       style="fill:#000000;fill-opacity:1"
       transform="matrix(2,0,0,2,-383.7336,-179.5562)"><path
         id="path11699"
         transform="translate(193.26475,134.765)"
         d="m 4.6875,-2.328125 c 0,-1.3125 -0.921875,-2.25 -2.1875,-2.25 -1.296875,0 -2.203125,0.953125 -2.203125,2.328125 0,1.34375 0.921875,2.34375 2.171875,2.34375 1.265625,0 2.21875,-1.046875 2.21875,-2.421875 z m -0.90625,0.34375 c 0,1.125 -0.4375,1.8125 -1.1875,1.8125 -0.390625,0 -0.765625,-0.25 -0.96875,-0.640625 -0.28125,-0.515625 -0.4375,-1.21875 -0.4375,-1.921875 0,-0.953125 0.46875,-1.578125 1.171875,-1.578125 0.84375,0 1.421875,0.96875 1.421875,2.328125 z m 0,0"
         style="stroke:none;stroke-width:0"
         inkscape:connector-curvature="0" /><path
         id="path11701"
         transform="translate(198.24605,134.765)"
         d="m 3.34375,-4.0625 c 0,-0.328125 -0.21875,-0.515625 -0.546875,-0.515625 -0.421875,0 -0.71875,0.21875 -1.203125,0.921875 V -4.5625 L 1.546875,-4.578125 c -0.53125,0.21875 -0.890625,0.34375 -1.484375,0.53125 v 0.15625 c 0.140625,-0.03125 0.234375,-0.03125 0.359375,-0.03125 0.25,0 0.328125,0.15625 0.328125,0.59375 v 2.484375 c 0,0.5 -0.0625,0.578125 -0.703125,0.6875 V 0 H 2.4375 V -0.15625 C 1.765625,-0.171875 1.59375,-0.328125 1.59375,-0.890625 v -2.25 c 0,-0.3125 0.4375,-0.8125 0.703125,-0.8125 0.0625,0 0.140625,0.046875 0.25,0.140625 0.171875,0.140625 0.28125,0.203125 0.40625,0.203125 0.234375,0 0.390625,-0.171875 0.390625,-0.453125 z m 0,0"
         style="stroke:none;stroke-width:0"
         inkscape:connector-curvature="0" /></g><g
       id="g11707"
       style="fill:#000000;fill-opacity:1"
       transform="matrix(2,0,0,2,-383.7336,-179.5562)"><path
         id="path11705"
         transform="translate(201.76284,134.765)"
         d="m 7.71875,0 v -0.15625 l -0.25,-0.015625 C 7.171875,-0.1875 7.03125,-0.375 7.03125,-0.75 v -2.0625 c 0,-1.171875 -0.375,-1.765625 -1.15625,-1.765625 -0.578125,0 -1.078125,0.25 -1.625,0.828125 -0.171875,-0.5625 -0.515625,-0.828125 -1.046875,-0.828125 -0.4375,0 -0.71875,0.125 -1.546875,0.765625 v -0.75 L 1.578125,-4.578125 c -0.5,0.1875 -0.84375,0.296875 -1.390625,0.4375 V -3.96875 C 0.3125,-4 0.40625,-4 0.515625,-4 c 0.25,0 0.34375,0.15625 0.34375,0.625 v 2.53125 c 0,0.53125 -0.140625,0.6875 -0.703125,0.6875 V 0 H 2.375 V -0.15625 C 1.84375,-0.171875 1.6875,-0.28125 1.6875,-0.671875 v -2.8125 c 0,0 0.09375,-0.109375 0.15625,-0.1875 0.25,-0.21875 0.671875,-0.390625 1.03125,-0.390625 0.4375,0 0.65625,0.34375 0.65625,1.046875 v 2.15625 c 0,0.5625 -0.109375,0.671875 -0.6875,0.703125 V 0 h 2.234375 v -0.15625 c -0.5625,0 -0.71875,-0.171875 -0.71875,-0.796875 v -2.5 C 4.671875,-3.890625 5,-4.0625 5.453125,-4.0625 c 0.5625,0 0.75,0.265625 0.75,1.09375 V -0.875 c 0,0.578125 -0.078125,0.65625 -0.65625,0.71875 V 0 Z m 0,0"
         style="stroke:none;stroke-width:0"
         inkscape:connector-curvature="0" /></g></g><g
     transform="translate(-127.5223,23.877219)"
     id="g11889"><g
       id="g11727"
       style="fill:#000000;fill-opacity:1"
       transform="matrix(2,0,0,2,-383.7336,-179.5562)"><path
         id="path11709"
         transform="translate(212.0044,134.765)"
         d="m 3.46875,-1.171875 c 0,-0.5 -0.234375,-0.828125 -0.84375,-1.1875 L 1.5625,-3 C 1.28125,-3.15625 1.125,-3.40625 1.125,-3.671875 c 0,-0.421875 0.3125,-0.6875 0.765625,-0.6875 0.578125,0 0.875,0.328125 1.09375,1.234375 h 0.15625 L 3.09375,-4.484375 H 2.984375 L 2.96875,-4.46875 C 2.875,-4.390625 2.875,-4.390625 2.828125,-4.390625 c -0.0625,0 -0.15625,-0.015625 -0.265625,-0.0625 -0.203125,-0.078125 -0.4375,-0.125 -0.671875,-0.125 -0.828125,0 -1.375,0.5 -1.375,1.234375 0,0.546875 0.3125,0.9375 1.15625,1.4375 L 2.25,-1.578125 c 0.359375,0.1875 0.515625,0.4375 0.515625,0.734375 0,0.4375 -0.3125,0.71875 -0.828125,0.71875 -0.6875,0 -1.03125,-0.375 -1.265625,-1.390625 h -0.15625 v 1.5625 h 0.125 C 0.71875,-0.0625 0.75,-0.078125 0.875,-0.078125 c 0.109375,0 0.21875,0.015625 0.453125,0.078125 0.28125,0.0625 0.53125,0.09375 0.75,0.09375 0.75,0 1.390625,-0.578125 1.390625,-1.265625 z m 0,0"
         style="stroke:none;stroke-width:0"
         inkscape:connector-curvature="0" /><path
         id="path11711"
         transform="translate(215.87985,134.765)"
         d="M 4.234375,-1.5625 4.0625,-1.640625 C 3.59375,-0.875 3.15625,-0.59375 2.515625,-0.59375 c -0.546875,0 -0.953125,-0.25 -1.25,-0.796875 C 1.0625,-1.78125 0.984375,-2.125 0.96875,-2.765625 h 3.0625 C 3.953125,-3.40625 3.859375,-3.703125 3.609375,-4.015625 3.3125,-4.375 2.84375,-4.578125 2.328125,-4.578125 1.09375,-4.578125 0.25,-3.59375 0.25,-2.140625 0.25,-0.75 0.96875,0.09375 2.109375,0.09375 c 0.96875,0 1.703125,-0.578125 2.125,-1.65625 z m -1.21875,-1.515625 h -2.03125 c 0.109375,-0.796875 0.453125,-1.15625 1.0625,-1.15625 0.609375,0 0.84375,0.28125 0.96875,1.15625 z m 0,0"
         style="stroke:none;stroke-width:0"
         inkscape:connector-curvature="0" /><path
         id="path11713"
         transform="translate(220.30324,134.765)"
         d="m 7.71875,0 v -0.15625 l -0.25,-0.015625 C 7.171875,-0.1875 7.03125,-0.375 7.03125,-0.75 v -2.0625 c 0,-1.171875 -0.375,-1.765625 -1.15625,-1.765625 -0.578125,0 -1.078125,0.25 -1.625,0.828125 -0.171875,-0.5625 -0.515625,-0.828125 -1.046875,-0.828125 -0.4375,0 -0.71875,0.125 -1.546875,0.765625 v -0.75 L 1.578125,-4.578125 c -0.5,0.1875 -0.84375,0.296875 -1.390625,0.4375 V -3.96875 C 0.3125,-4 0.40625,-4 0.515625,-4 c 0.25,0 0.34375,0.15625 0.34375,0.625 v 2.53125 c 0,0.53125 -0.140625,0.6875 -0.703125,0.6875 V 0 H 2.375 V -0.15625 C 1.84375,-0.171875 1.6875,-0.28125 1.6875,-0.671875 v -2.8125 c 0,0 0.09375,-0.109375 0.15625,-0.1875 0.25,-0.21875 0.671875,-0.390625 1.03125,-0.390625 0.4375,0 0.65625,0.34375 0.65625,1.046875 v 2.15625 c 0,0.5625 -0.109375,0.671875 -0.6875,0.703125 V 0 h 2.234375 v -0.15625 c -0.5625,0 -0.71875,-0.171875 -0.71875,-0.796875 v -2.5 C 4.671875,-3.890625 5,-4.0625 5.453125,-4.0625 c 0.5625,0 0.75,0.265625 0.75,1.09375 V -0.875 c 0,0.578125 -0.078125,0.65625 -0.65625,0.71875 V 0 Z m 0,0"
         style="stroke:none;stroke-width:0"
         inkscape:connector-curvature="0" /><path
         id="path11715"
         transform="translate(228.05415,134.765)"
         d="M 2.515625,0 V -0.15625 C 1.859375,-0.203125 1.78125,-0.296875 1.78125,-1.015625 V -4.5625 L 1.75,-4.578125 0.203125,-4.03125 v 0.140625 H 0.28125 c 0.125,-0.03125 0.25,-0.03125 0.34375,-0.03125 0.234375,0 0.328125,0.15625 0.328125,0.59375 v 2.3125 c 0,0.71875 -0.109375,0.828125 -0.796875,0.859375 V 0 Z M 1.875,-5.875 c 0,-0.28125 -0.21875,-0.515625 -0.515625,-0.515625 -0.265625,0 -0.5,0.234375 -0.5,0.515625 0,0.28125 0.234375,0.5 0.5,0.5 0.296875,0 0.515625,-0.21875 0.515625,-0.5 z m 0,0"
         style="stroke:none;stroke-width:0"
         inkscape:connector-curvature="0" /><path
         id="path11717"
         transform="translate(230.82375,134.765)"
         d="m 4.40625,-0.40625 v -0.25 c -0.171875,0.140625 -0.296875,0.1875 -0.4375,0.1875 -0.234375,0 -0.296875,-0.140625 -0.296875,-0.578125 v -1.9375 C 3.671875,-3.5 3.625,-3.78125 3.484375,-4 c -0.21875,-0.390625 -0.640625,-0.578125 -1.25,-0.578125 -0.515625,0 -0.984375,0.125 -1.265625,0.359375 -0.25,0.21875 -0.40625,0.5 -0.40625,0.75 0,0.234375 0.1875,0.421875 0.421875,0.421875 0.234375,0 0.453125,-0.1875 0.453125,-0.40625 0,-0.046875 -0.015625,-0.09375 -0.015625,-0.171875 -0.03125,-0.078125 -0.03125,-0.15625 -0.03125,-0.234375 0,-0.265625 0.3125,-0.484375 0.71875,-0.484375 0.484375,0 0.75,0.28125 0.75,0.828125 v 0.609375 c -1.53125,0.609375 -1.703125,0.6875 -2.125,1.078125 -0.21875,0.1875 -0.359375,0.53125 -0.359375,0.859375 0,0.625 0.421875,1.0625 1.046875,1.0625 0.4375,0 0.84375,-0.203125 1.453125,-0.71875 0.046875,0.53125 0.21875,0.71875 0.640625,0.71875 0.328125,0 0.546875,-0.109375 0.890625,-0.5 z m -1.546875,-0.8125 c 0,0.296875 -0.046875,0.390625 -0.25,0.515625 -0.25,0.140625 -0.53125,0.21875 -0.734375,0.21875 C 1.53125,-0.484375 1.25,-0.8125 1.25,-1.25 v -0.03125 c 0,-0.59375 0.40625,-0.953125 1.609375,-1.390625 z m 0,0"
         style="stroke:none;stroke-width:0"
         inkscape:connector-curvature="0" /><path
         id="path11719"
         transform="translate(235.24714,134.765)"
         d="m 3.34375,-4.0625 c 0,-0.328125 -0.21875,-0.515625 -0.546875,-0.515625 -0.421875,0 -0.71875,0.21875 -1.203125,0.921875 V -4.5625 L 1.546875,-4.578125 c -0.53125,0.21875 -0.890625,0.34375 -1.484375,0.53125 v 0.15625 c 0.140625,-0.03125 0.234375,-0.03125 0.359375,-0.03125 0.25,0 0.328125,0.15625 0.328125,0.59375 v 2.484375 c 0,0.5 -0.0625,0.578125 -0.703125,0.6875 V 0 H 2.4375 V -0.15625 C 1.765625,-0.171875 1.59375,-0.328125 1.59375,-0.890625 v -2.25 c 0,-0.3125 0.4375,-0.8125 0.703125,-0.8125 0.0625,0 0.140625,0.046875 0.25,0.140625 0.171875,0.140625 0.28125,0.203125 0.40625,0.203125 0.234375,0 0.390625,-0.171875 0.390625,-0.453125 z m 0,0"
         style="stroke:none;stroke-width:0"
         inkscape:connector-curvature="0" /><path
         id="path11721"
         transform="translate(238.56469,134.765)"
         d="M 4.234375,-1.5625 4.0625,-1.640625 C 3.59375,-0.875 3.15625,-0.59375 2.515625,-0.59375 c -0.546875,0 -0.953125,-0.25 -1.25,-0.796875 C 1.0625,-1.78125 0.984375,-2.125 0.96875,-2.765625 h 3.0625 C 3.953125,-3.40625 3.859375,-3.703125 3.609375,-4.015625 3.3125,-4.375 2.84375,-4.578125 2.328125,-4.578125 1.09375,-4.578125 0.25,-3.59375 0.25,-2.140625 0.25,-0.75 0.96875,0.09375 2.109375,0.09375 c 0.96875,0 1.703125,-0.578125 2.125,-1.65625 z m -1.21875,-1.515625 h -2.03125 c 0.109375,-0.796875 0.453125,-1.15625 1.0625,-1.15625 0.609375,0 0.84375,0.28125 0.96875,1.15625 z m 0,0"
         style="stroke:none;stroke-width:0"
         inkscape:connector-curvature="0" /><path
         id="path11723"
         transform="translate(242.98808,134.765)"
         d="m 4.40625,-0.40625 v -0.25 c -0.171875,0.140625 -0.296875,0.1875 -0.4375,0.1875 -0.234375,0 -0.296875,-0.140625 -0.296875,-0.578125 v -1.9375 C 3.671875,-3.5 3.625,-3.78125 3.484375,-4 c -0.21875,-0.390625 -0.640625,-0.578125 -1.25,-0.578125 -0.515625,0 -0.984375,0.125 -1.265625,0.359375 -0.25,0.21875 -0.40625,0.5 -0.40625,0.75 0,0.234375 0.1875,0.421875 0.421875,0.421875 0.234375,0 0.453125,-0.1875 0.453125,-0.40625 0,-0.046875 -0.015625,-0.09375 -0.015625,-0.171875 -0.03125,-0.078125 -0.03125,-0.15625 -0.03125,-0.234375 0,-0.265625 0.3125,-0.484375 0.71875,-0.484375 0.484375,0 0.75,0.28125 0.75,0.828125 v 0.609375 c -1.53125,0.609375 -1.703125,0.6875 -2.125,1.078125 -0.21875,0.1875 -0.359375,0.53125 -0.359375,0.859375 0,0.625 0.421875,1.0625 1.046875,1.0625 0.4375,0 0.84375,-0.203125 1.453125,-0.71875 0.046875,0.53125 0.21875,0.71875 0.640625,0.71875 0.328125,0 0.546875,-0.109375 0.890625,-0.5 z m -1.546875,-0.8125 c 0,0.296875 -0.046875,0.390625 -0.25,0.515625 -0.25,0.140625 -0.53125,0.21875 -0.734375,0.21875 C 1.53125,-0.484375 1.25,-0.8125 1.25,-1.25 v -0.03125 c 0,-0.59375 0.40625,-0.953125 1.609375,-1.390625 z m 0,0"
         style="stroke:none;stroke-width:0"
         inkscape:connector-curvature="0" /><path
         id="path11725"
         transform="translate(247.41148,134.765)"
         d="m 1.9375,-0.125 c 0,-0.5 -0.34375,-0.890625 -0.796875,-0.890625 -0.34375,0 -0.578125,0.234375 -0.578125,0.5625 0,0.328125 0.21875,0.515625 0.578125,0.515625 0.0625,0 0.140625,-0.015625 0.1875,-0.015625 0.078125,-0.03125 0.09375,-0.03125 0.09375,-0.03125 0.078125,0 0.140625,0.0625 0.140625,0.140625 0,0.328125 -0.28125,0.6875 -0.828125,1.0625 l 0.09375,0.1875 C 1.5,1.078125 1.9375,0.46875 1.9375,-0.125 Z m 0,0"
         style="stroke:none;stroke-width:0"
         inkscape:connector-curvature="0" /></g><g
       id="g11731"
       style="fill:#000000;fill-opacity:1"
       transform="matrix(2,0,0,2,-383.7336,-179.5562)"><path
         id="path11729"
         transform="translate(253.589,130.74)"
         d="m 3.15625,0 v -0.1875 c -0.53125,0 -0.703125,0 -0.703125,-0.84375 0,-0.015625 0,-3.671875 0,-3.671875 H 2.28125 L 0.9375,-4.125 1.015625,-3.9375 c 0.3125,-0.125 0.375,-0.140625 0.46875,-0.140625 0.203125,0 0.21875,0.171875 0.21875,0.375 v 2.671875 c 0,0.84375 -0.15625,0.828125 -0.6875,0.84375 V 0 Z m 0,0"
         style="stroke:none;stroke-width:0"
         inkscape:connector-curvature="0" /></g><path
       id="path11733"
       d="m 123.44609,84.951613 h 8.17187"
       style="fill:none;stroke:#000000;stroke-width:0.91600001;stroke-linecap:butt;stroke-linejoin:miter;stroke-miterlimit:10;stroke-opacity:1"
       inkscape:connector-curvature="0" /><g
       id="g11737"
       style="fill:#000000;fill-opacity:1"
       transform="matrix(2,0,0,2,-383.7336,-179.5562)"><path
         id="path11735"
         transform="translate(253.589,138.301)"
         d="M 3.8125,-0.96875 3.59375,-1 c -0.234375,0.359375 -0.421875,0.421875 -0.765625,0.421875 h -1.65625 c 1.1875,-0.984375 2.25,-1.875 2.25,-2.84375 0,-0.734375 -0.703125,-1.25 -1.46875,-1.25 -0.765625,0 -1.375,0.359375 -1.609375,1.375 h 0.25 c 0.21875,-0.390625 0.5,-0.78125 1.078125,-0.78125 0.640625,0 1,0.421875 1,0.921875 0,0.734375 -0.890625,1.796875 -2.40625,2.984375 V 0 h 3.09375 z m 0,0"
         style="stroke:none;stroke-width:0"
         inkscape:connector-curvature="0" /></g><g
       id="g11741"
       style="fill:#000000;fill-opacity:1"
       transform="matrix(2,0,0,2,-383.7336,-179.5562)"><path
         id="path11739"
         transform="translate(258.871,134.765)"
         d="M 6.03125,-6.875 H 5.828125 c -0.125,0.21875 -0.265625,0.328125 -0.484375,0.328125 -0.3125,0 -0.734375,-0.328125 -1.5,-0.328125 -1,0 -1.9375,0.640625 -1.9375,1.71875 0,1.515625 2.328125,2.25 2.328125,3.625 0,0.640625 -0.5,1.328125 -1.390625,1.328125 -0.765625,0 -1.5625,-0.609375 -1.5625,-1.6875 0,-0.15625 0,-0.265625 0.03125,-0.359375 H 1.109375 l -0.4375,2.375 h 0.1875 c 0.09375,-0.1875 0.203125,-0.390625 0.46875,-0.390625 0.296875,0 0.921875,0.421875 1.6875,0.421875 1.4375,0 2.171875,-1.046875 2.171875,-1.984375 C 5.1875,-3.46875 2.8125,-4.25 2.8125,-5.5 c 0,-0.625 0.484375,-1.03125 1.140625,-1.03125 0.828125,0 1.4375,0.546875 1.453125,1.375 0.015625,0.15625 0,0.265625 -0.015625,0.40625 h 0.1875 z m 0,0"
         style="stroke:none;stroke-width:0"
         inkscape:connector-curvature="0" /></g></g></g><path
   style="fill:none;stroke:#052aa9;stroke-width:0.44823545;stroke-linecap:butt;stroke-linejoin:miter;stroke-miterlimit:4;stroke-dasharray:none;stroke-opacity:1"
   d="M 160.19887,164.25284 130.40851,119.8299"
   id="path11931"
   inkscape:connector-curvature="0"
   sodipodi:nodetypes="cc" /><g
   id="g12865"
   ns1:jacobian_sqrt="2.0"
   inkscapeversion="0.92.4"
   ns1:alignment="middle center"
   ns1:scale="1.5"
   ns1:preamble="C:\\texlive\\texmf-local\\tex\\latex\\default_packages_guit.tex"
   ns1:text="$\\frac{1}{2}b$"
   ns1:pdfconverter="pdf2svg"
   ns1:texconverter="pdflatex"
   ns1:version="0.11.0"
   transform="matrix(2,0,0,2,-0.89482694,41.41926)"><g
     id="surface1"><g
       id="g12852"
       style="fill:#000000;fill-opacity:1"><path
         id="path12850"
         transform="translate(149.908,130.74)"
         d="m 3.15625,0 v -0.1875 c -0.53125,0 -0.703125,0 -0.703125,-0.84375 0,-0.015625 0,-3.671875 0,-3.671875 H 2.28125 L 0.9375,-4.125 1.015625,-3.9375 c 0.3125,-0.125 0.375,-0.140625 0.46875,-0.140625 0.203125,0 0.21875,0.171875 0.21875,0.375 v 2.671875 c 0,0.84375 -0.15625,0.828125 -0.6875,0.84375 V 0 Z m 0,0"
         style="stroke:none;stroke-width:0"
         inkscape:connector-curvature="0" /></g><path
       id="path12854"
       transform="matrix(1,0,0,-1,149.908,132.254)"
       d="M -0.00175,9.375e-5 H 4.088094"
       style="fill:none;stroke:#000000;stroke-width:0.458;stroke-linecap:butt;stroke-linejoin:miter;stroke-miterlimit:10;stroke-opacity:1"
       inkscape:connector-curvature="0" /><g
       id="g12858"
       style="fill:#000000;fill-opacity:1"><path
         id="path12856"
         transform="translate(149.908,138.301)"
         d="M 3.8125,-0.96875 3.59375,-1 c -0.234375,0.359375 -0.421875,0.421875 -0.765625,0.421875 h -1.65625 c 1.1875,-0.984375 2.25,-1.875 2.25,-2.84375 0,-0.734375 -0.703125,-1.25 -1.46875,-1.25 -0.765625,0 -1.375,0.359375 -1.609375,1.375 h 0.25 c 0.21875,-0.390625 0.5,-0.78125 1.078125,-0.78125 0.640625,0 1,0.421875 1,0.921875 0,0.734375 -0.890625,1.796875 -2.40625,2.984375 V 0 h 3.09375 z m 0,0"
         style="stroke:none;stroke-width:0"
         inkscape:connector-curvature="0" /></g><g
       id="g12862"
       style="fill:#000000;fill-opacity:1"><path
         id="path12860"
         transform="translate(155.19,134.765)"
         d="m 4.703125,-3.265625 c 0,-0.90625 -0.59375,-1.296875 -1.203125,-1.296875 -0.828125,0 -1.453125,0.78125 -1.734375,1.1875 l 1.03125,-3.765625 c 0,0 -1.34375,0.234375 -1.609375,0.25 v 0.1875 c 0.390625,0 0.640625,0.03125 0.640625,0.34375 0,0.1875 -0.09375,0.578125 -0.15625,0.8125 l -1.4375,5.09375 C 0.34375,-0.265625 1,0.125 1.640625,0.125 c 1.890625,0 3.0625,-1.875 3.0625,-3.390625 z m -0.828125,0.25 c 0,1.765625 -1.140625,2.921875 -2.171875,2.921875 -0.3125,0 -0.59375,-0.109375 -0.75,-0.3125 0.21875,-0.875 0.90625,-3.6875 2.203125,-3.6875 0.65625,0 0.71875,0.5625 0.71875,1.078125 z m 0,0"
         style="stroke:none;stroke-width:0"
         inkscape:connector-curvature="0" /></g></g></g><g
   id="g13125"
   ns1:jacobian_sqrt="2.0"
   inkscapeversion="0.92.4"
   ns1:alignment="middle center"
   ns1:scale="1.5"
   ns1:preamble="C:\\texlive\\texmf-local\\tex\\latex\\default_packages_guit.tex"
   ns1:text="$c(y)$"
   ns1:pdfconverter="pdf2svg"
   ns1:texconverter="pdflatex"
   ns1:version="0.11.0"
   transform="matrix(2,0,0,2,45.969467,-114.81921)"><g
     id="g13123"><g
       id="g13111"
       style="fill:#000000;fill-opacity:1"><path
         id="path13109"
         transform="translate(148.712,134.765)"
         d="m 4.171875,-3.765625 c 0,-0.375 -0.296875,-0.796875 -0.984375,-0.796875 -1.46875,0 -2.875,1.671875 -2.875,3.140625 0,1.046875 0.65625,1.546875 1.40625,1.546875 0.9375,0 1.5625,-0.65625 1.9375,-1.125 L 3.5,-1.109375 c -0.265625,0.328125 -0.765625,0.84375 -1.421875,0.84375 -0.578125,0 -0.90625,-0.46875 -0.90625,-1.21875 0,-0.953125 0.734375,-2.875 2.015625,-2.875 0.1875,0 0.375,0.09375 0.375,0.265625 0,0.171875 -0.25,0.28125 -0.25,0.5625 0,0.21875 0.140625,0.359375 0.359375,0.359375 0.3125,0 0.5,-0.28125 0.5,-0.59375 z m 0,0"
         style="stroke:none;stroke-width:0"
         inkscape:connector-curvature="0" /></g><g
       id="g13117"
       style="fill:#000000;fill-opacity:1"><path
         id="path13113"
         transform="translate(153.70326,134.765)"
         d="m 3.5625,2.140625 v -0.1875 C 2.359375,1.25 1.796875,-0.15625 1.796875,-2.515625 c 0,-2.34375 0.546875,-3.71875 1.765625,-4.46875 v -0.15625 c -1.71875,0.875 -2.71875,2.578125 -2.71875,4.625 0,2.09375 0.96875,3.6875 2.71875,4.65625 z m 0,0"
         style="stroke:none;stroke-width:0"
         inkscape:connector-curvature="0" /><path
         id="path13115"
         transform="translate(157.41931,134.765)"
         d="m 5.1875,-3.890625 c 0,-0.4375 -0.25,-0.671875 -0.546875,-0.671875 -0.234375,0 -0.390625,0.203125 -0.390625,0.40625 0,0.515625 0.5625,0.375 0.5625,0.703125 0,0.640625 -1.25,2.390625 -1.53125,2.828125 -0.09375,-2 -0.390625,-3.5 -0.734375,-3.9375 L 1.09375,-4.28125 v 0.171875 C 1.1875,-4.140625 1.3125,-4.15625 1.453125,-4.15625 c 0.75,0 0.796875,0.75 1.1875,4.3125 C 2.5,0.578125 1.609375,1.59375 1.34375,1.59375 c -0.1875,0 -0.171875,-0.328125 -0.5,-0.328125 -0.234375,0 -0.4375,0.21875 -0.4375,0.453125 0,0.3125 0.296875,0.421875 0.453125,0.421875 0.671875,0 1.875,-1.515625 2.90625,-3.046875 C 4.671875,-2.265625 5.1875,-3.3125 5.1875,-3.890625 Z m 0,0"
         style="stroke:none;stroke-width:0"
         inkscape:connector-curvature="0" /></g><g
       id="g13121"
       style="fill:#000000;fill-opacity:1"><path
         id="path13119"
         transform="translate(163.56624,134.765)"
         d="m 2.875,-2.5 c 0,-2.078125 -0.96875,-3.6875 -2.71875,-4.640625 v 0.171875 c 1.203125,0.703125 1.765625,2.109375 1.765625,4.46875 0,2.34375 -0.546875,3.734375 -1.765625,4.46875 V 2.140625 C 1.875,1.265625 2.875,-0.4375 2.875,-2.5 Z m 0,0"
         style="stroke:none;stroke-width:0"
         inkscape:connector-curvature="0" /></g></g></g><g
   id="g13672"
   ns1:jacobian_sqrt="2.0"
   inkscapeversion="0.92.4"
   ns1:alignment="middle center"
   ns1:scale="1.5"
   ns1:preamble="C:\\texlive\\texmf-local\\tex\\latex\\default_packages_guit.tex"
   ns1:text="$y$"
   ns1:pdfconverter="pdf2svg"
   ns1:texconverter="pdflatex"
   ns1:version="0.11.0"
   transform="matrix(2,0,0,2,142.55723,-161.16205)"><g
     id="g13670"><g
       id="g13668"
       style="fill:#000000;fill-opacity:1"><path
         id="path13666"
         transform="translate(148.712,134.765)"
         d="m 5.1875,-3.890625 c 0,-0.4375 -0.25,-0.671875 -0.546875,-0.671875 -0.234375,0 -0.390625,0.203125 -0.390625,0.40625 0,0.515625 0.5625,0.375 0.5625,0.703125 0,0.640625 -1.25,2.390625 -1.53125,2.828125 -0.09375,-2 -0.390625,-3.5 -0.734375,-3.9375 L 1.09375,-4.28125 v 0.171875 C 1.1875,-4.140625 1.3125,-4.15625 1.453125,-4.15625 c 0.75,0 0.796875,0.75 1.1875,4.3125 C 2.5,0.578125 1.609375,1.59375 1.34375,1.59375 c -0.1875,0 -0.171875,-0.328125 -0.5,-0.328125 -0.234375,0 -0.4375,0.21875 -0.4375,0.453125 0,0.3125 0.296875,0.421875 0.453125,0.421875 0.671875,0 1.875,-1.515625 2.90625,-3.046875 C 4.671875,-2.265625 5.1875,-3.3125 5.1875,-3.890625 Z m 0,0"
         style="stroke:none;stroke-width:0"
         inkscape:connector-curvature="0" /></g></g></g><circle
   style="fill:#052aa9;fill-opacity:1;stroke:none;stroke-width:2;stroke-linecap:round;stroke-linejoin:round;stroke-miterlimit:4;stroke-dasharray:none;stroke-dashoffset:0;stroke-opacity:1;paint-order:fill markers stroke"
   id="path14267"
   cx="207.84578"
   cy="88.22451"
   r="4.1896334" /><g
   id="g14508"
   ns1:jacobian_sqrt="2.0"
   inkscapeversion="0.92.4"
   ns1:alignment="middle center"
   ns1:scale="1.5"
   ns1:preamble="C:\\texlive\\texmf-local\\tex\\latex\\default_packages_guit.tex"
   ns1:text="$X$"
   ns1:pdfconverter="pdf2svg"
   ns1:texconverter="pdflatex"
   ns1:version="0.11.0"
   transform="matrix(2,0,0,2,-114.70688,37.33322)"><g
     id="g14506"><g
       id="g14504"
       style="fill:#000000;fill-opacity:1"><path
         id="path14502"
         transform="translate(148.712,134.765)"
         d="m 7.671875,-6.734375 h -1.875 L 5.765625,-6.5625 c 0.390625,0 0.53125,0.1875 0.53125,0.34375 0,0.15625 -0.140625,0.375 -0.3125,0.5625 l -1.5625,1.703125 -0.453125,-1.40625 c -0.0625,-0.1875 -0.1875,-0.484375 -0.1875,-0.75 C 3.78125,-6.5 4.203125,-6.5625 4.484375,-6.5625 l 0.03125,-0.171875 h -2.6875 L 1.796875,-6.5625 c 0.671875,0 0.859375,0.296875 1.046875,0.875 L 3.6875,-3.140625 C 2.90625,-2.21875 1.640625,-0.875 1.640625,-0.875 1.296875,-0.484375 0.875,-0.171875 0.515625,-0.171875 L 0.484375,0 h 2.15625 l 0.03125,-0.171875 c -0.25,0 -0.640625,0 -0.640625,-0.328125 0,-0.15625 0.15625,-0.390625 0.28125,-0.53125 l 1.515625,-1.6875 0.515625,1.5625 c 0.046875,0.125 0.109375,0.359375 0.109375,0.53125 0,0.421875 -0.359375,0.453125 -0.75,0.453125 L 3.671875,0 h 2.65625 l 0.03125,-0.171875 c -0.484375,0 -0.765625,-0.203125 -0.96875,-0.8125 L 4.5625,-3.53125 6.265625,-5.4375 C 6.5625,-5.78125 7.25,-6.5625 7.640625,-6.5625 Z m 0,0"
         style="stroke:none;stroke-width:0"
         inkscape:connector-curvature="0" /></g></g></g><g
   transform="matrix(2,0,0,2,-274.53751,25.95247)"
   ns1:version="0.11.0"
   ns1:texconverter="pdflatex"
   ns1:pdfconverter="pdf2svg"
   ns1:text="$c(y)$"
   ns1:preamble="C:\\texlive\\texmf-local\\tex\\latex\\default_packages_guit.tex"
   ns1:scale="1.5"
   ns1:alignment="middle center"
   inkscapeversion="0.92.4"
   ns1:jacobian_sqrt="2.0"
   id="g14543"><g
     id="g14541"><g
       style="fill:#000000;fill-opacity:1"
       id="g14529"><path
         inkscape:connector-curvature="0"
         style="stroke:none;stroke-width:0"
         d="m 4.171875,-3.765625 c 0,-0.375 -0.296875,-0.796875 -0.984375,-0.796875 -1.46875,0 -2.875,1.671875 -2.875,3.140625 0,1.046875 0.65625,1.546875 1.40625,1.546875 0.9375,0 1.5625,-0.65625 1.9375,-1.125 L 3.5,-1.109375 c -0.265625,0.328125 -0.765625,0.84375 -1.421875,0.84375 -0.578125,0 -0.90625,-0.46875 -0.90625,-1.21875 0,-0.953125 0.734375,-2.875 2.015625,-2.875 0.1875,0 0.375,0.09375 0.375,0.265625 0,0.171875 -0.25,0.28125 -0.25,0.5625 0,0.21875 0.140625,0.359375 0.359375,0.359375 0.3125,0 0.5,-0.28125 0.5,-0.59375 z m 0,0"
         transform="translate(148.712,134.765)"
         id="path14527" /></g><g
       style="fill:#000000;fill-opacity:1"
       id="g14535"><path
         inkscape:connector-curvature="0"
         style="stroke:none;stroke-width:0"
         d="m 3.5625,2.140625 v -0.1875 C 2.359375,1.25 1.796875,-0.15625 1.796875,-2.515625 c 0,-2.34375 0.546875,-3.71875 1.765625,-4.46875 v -0.15625 c -1.71875,0.875 -2.71875,2.578125 -2.71875,4.625 0,2.09375 0.96875,3.6875 2.71875,4.65625 z m 0,0"
         transform="translate(153.70326,134.765)"
         id="path14531" /><path
         inkscape:connector-curvature="0"
         style="stroke:none;stroke-width:0"
         d="m 5.1875,-3.890625 c 0,-0.4375 -0.25,-0.671875 -0.546875,-0.671875 -0.234375,0 -0.390625,0.203125 -0.390625,0.40625 0,0.515625 0.5625,0.375 0.5625,0.703125 0,0.640625 -1.25,2.390625 -1.53125,2.828125 -0.09375,-2 -0.390625,-3.5 -0.734375,-3.9375 L 1.09375,-4.28125 v 0.171875 C 1.1875,-4.140625 1.3125,-4.15625 1.453125,-4.15625 c 0.75,0 0.796875,0.75 1.1875,4.3125 C 2.5,0.578125 1.609375,1.59375 1.34375,1.59375 c -0.1875,0 -0.171875,-0.328125 -0.5,-0.328125 -0.234375,0 -0.4375,0.21875 -0.4375,0.453125 0,0.3125 0.296875,0.421875 0.453125,0.421875 0.671875,0 1.875,-1.515625 2.90625,-3.046875 C 4.671875,-2.265625 5.1875,-3.3125 5.1875,-3.890625 Z m 0,0"
         transform="translate(157.41931,134.765)"
         id="path14533" /></g><g
       style="fill:#000000;fill-opacity:1"
       id="g14539"><path
         inkscape:connector-curvature="0"
         style="stroke:none;stroke-width:0"
         d="m 2.875,-2.5 c 0,-2.078125 -0.96875,-3.6875 -2.71875,-4.640625 v 0.171875 c 1.203125,0.703125 1.765625,2.109375 1.765625,4.46875 0,2.34375 -0.546875,3.734375 -1.765625,4.46875 V 2.140625 C 1.875,1.265625 2.875,-0.4375 2.875,-2.5 Z m 0,0"
         transform="translate(163.56624,134.765)"
         id="path14537" /></g></g></g><g
   id="g14743"
   ns1:jacobian_sqrt="2.0"
   inkscapeversion="0.92.4"
   ns1:alignment="middle center"
   ns1:scale="1.5"
   ns1:preamble="C:\\texlive\\texmf-local\\tex\\latex\\default_packages_guit.tex"
   ns1:text="$\\bar{c}$"
   ns1:pdfconverter="pdf2svg"
   ns1:texconverter="pdflatex"
   ns1:version="0.11.0"
   transform="matrix(2,0,0,2,-10.41109,-16.16384)"><g
     id="g14741"><g
       id="g14735"
       style="fill:#000000;fill-opacity:1"><path
         id="path14733"
         transform="translate(150.047,134.765)"
         d="m 3.203125,-6.078125 v -0.53125 h -3.09375 v 0.53125 z m 0,0"
         style="stroke:none;stroke-width:0"
         inkscape:connector-curvature="0" /></g><g
       id="g14739"
       style="fill:#000000;fill-opacity:1"><path
         id="path14737"
         transform="translate(148.712,134.765)"
         d="m 4.171875,-3.765625 c 0,-0.375 -0.296875,-0.796875 -0.984375,-0.796875 -1.46875,0 -2.875,1.671875 -2.875,3.140625 0,1.046875 0.65625,1.546875 1.40625,1.546875 0.9375,0 1.5625,-0.65625 1.9375,-1.125 L 3.5,-1.109375 c -0.265625,0.328125 -0.765625,0.84375 -1.421875,0.84375 -0.578125,0 -0.90625,-0.46875 -0.90625,-1.21875 0,-0.953125 0.734375,-2.875 2.015625,-2.875 0.1875,0 0.375,0.09375 0.375,0.265625 0,0.171875 -0.25,0.28125 -0.25,0.5625 0,0.21875 0.140625,0.359375 0.359375,0.359375 0.3125,0 0.5,-0.28125 0.5,-0.59375 z m 0,0"
         style="stroke:none;stroke-width:0"
         inkscape:connector-curvature="0" /></g></g></g><g
   id="g14942"
   ns1:jacobian_sqrt="2.0"
   inkscapeversion="0.92.4"
   ns1:alignment="middle center"
   ns1:scale="1.5"
   ns1:preamble="C:\\texlive\\texmf-local\\tex\\latex\\default_packages_guit.tex"
   ns1:text="$A$"
   ns1:pdfconverter="pdf2svg"
   ns1:texconverter="pdflatex"
   ns1:version="0.11.0"
   transform="matrix(2,0,0,2,-108.52306,-184.9957)"><g
     id="g14940"><g
       id="g14938"
       style="fill:#000000;fill-opacity:1"><path
         id="path14936"
         transform="translate(148.712,134.765)"
         d="M 6.546875,-0.171875 C 5.90625,-0.171875 5.84375,-0.46875 5.8125,-1.15625 L 5.578125,-6.875 H 5.375 l -3.890625,5.90625 c -0.453125,0.703125 -0.71875,0.796875 -1,0.796875 L 0.453125,0 h 1.84375 l 0.03125,-0.171875 c -0.328125,0 -0.5625,-0.09375 -0.5625,-0.375 0,-0.15625 0.078125,-0.375 0.265625,-0.671875 l 0.6875,-1.046875 H 4.8125 l 0.046875,1.28125 C 4.890625,-0.25 4.5625,-0.171875 4.03125,-0.171875 L 3.984375,0 h 2.53125 z m -1.75,-2.4375 H 2.953125 L 4.671875,-5.25 Z m 0,0"
         style="stroke:none;stroke-width:0"
         inkscape:connector-curvature="0" /></g></g></g><path
   id="path14951"
   style="fill:none;stroke:#000000;stroke-width:1.96099997;stroke-linecap:round;stroke-linejoin:round;stroke-miterlimit:4;stroke-dasharray:none"
   d="M 234.22432,244.89473 V 25.76002 c -27.03488,8.94772 -25.4391,-7.414 -52.89269,0 v 219.13471 c 26.81435,-11.8476 26.46233,7.97464 52.89269,0 z"
   inkscape:connector-curvature="0"
   sodipodi:nodetypes="ccccc" /><path
   style="fill:none;stroke:#000000;stroke-width:1.96099997;stroke-linecap:round;stroke-linejoin:round;stroke-miterlimit:4;stroke-dasharray:none;stroke-opacity:1"
   d="m 207.93237,26.13019 c 13.12295,-3.493 26.43419,-4.72224 26.29195,-0.37017"
   id="path14956"
   inkscape:connector-curvature="0"
   sodipodi:nodetypes="cc" /><path
   sodipodi:nodetypes="cc"
   inkscape:connector-curvature="0"
   id="path14958"
   d="m 207.91983,243.56174 c -7.4201,-0.58046 -26.73044,5.68506 -26.5882,1.33299"
   style="fill:none;stroke:#000000;stroke-width:1.96099997;stroke-linecap:round;stroke-linejoin:round;stroke-miterlimit:4;stroke-dasharray:none;stroke-opacity:1" /><g
   id="g15313"
   transform="translate(13.739298,-194.80111)"><g
     transform="translate(0.6802265)"
     id="g15286"><g
       id="g15157"
       style="fill:#000000;fill-opacity:1"
       transform="matrix(2,0,0,2,-7.7494765,-30.294206)"><path
         id="path15143"
         transform="translate(148.712,134.765)"
         d="M 5.953125,-1.6875 H 5.671875 C 5.171875,-0.609375 4.75,-0.375 3.3125,-0.375 H 3.046875 c -0.46875,0 -0.875,-0.03125 -0.96875,-0.109375 C 2.03125,-0.515625 2,-0.609375 2,-0.796875 v -2.46875 h 1.53125 c 0.828125,0 0.96875,0.140625 1.109375,0.96875 h 0.21875 v -2.3125 H 4.640625 C 4.5,-3.796875 4.34375,-3.671875 3.53125,-3.671875 H 2 V -5.875 c 0,-0.28125 0.0625,-0.34375 0.328125,-0.34375 h 1.34375 c 1.140625,0 1.359375,0.140625 1.515625,1.046875 h 0.25 L 5.40625,-6.59375 H 0.125 v 0.1875 c 0.734375,0.0625 0.859375,0.1875 0.859375,0.890625 v 4.421875 c 0,0.71875 -0.140625,0.859375 -0.859375,0.90625 V 0 H 5.5 Z m 0,0"
         style="stroke:none;stroke-width:0"
         inkscape:connector-curvature="0" /><path
         id="path15145"
         transform="translate(154.79915,134.765)"
         d="m 4.78125,0 v -0.15625 c -0.3125,0 -0.515625,-0.15625 -0.828125,-0.59375 L 2.6875,-2.703125 3.515625,-3.890625 C 3.703125,-4.171875 4,-4.328125 4.3125,-4.34375 V -4.484375 H 2.734375 v 0.140625 c 0.3125,0.03125 0.40625,0.09375 0.40625,0.234375 0,0.109375 -0.125,0.328125 -0.375,0.640625 -0.046875,0.0625 -0.15625,0.234375 -0.296875,0.4375 L 2.328125,-3.234375 C 2.046875,-3.65625 1.875,-3.984375 1.875,-4.109375 1.875,-4.25 2,-4.328125 2.296875,-4.34375 v -0.140625 h -2.0625 v 0.140625 h 0.09375 c 0.296875,0 0.453125,0.140625 0.765625,0.609375 l 0.9375,1.4375 -1.140625,1.640625 C 0.59375,-0.25 0.5,-0.171875 0.171875,-0.15625 V 0 h 1.4375 v -0.15625 c -0.28125,0 -0.390625,-0.046875 -0.390625,-0.171875 0,-0.0625 0.0625,-0.203125 0.203125,-0.40625 l 0.78125,-1.234375 0.90625,1.40625 c 0.046875,0.046875 0.0625,0.109375 0.0625,0.171875 0,0.1875 -0.078125,0.21875 -0.40625,0.234375 V 0 Z m 0,0"
         style="stroke:none;stroke-width:0"
         inkscape:connector-curvature="0" /><path
         id="path15147"
         transform="translate(159.78045,134.765)"
         d="m 4.6875,-2.46875 c 0,-1.234375 -0.703125,-2.109375 -1.671875,-2.109375 -0.546875,0 -0.984375,0.234375 -1.4375,0.78125 V -4.5625 L 1.53125,-4.578125 C 0.984375,-4.375 0.640625,-4.25 0.09375,-4.078125 v 0.15625 c 0.078125,0 0.15625,0 0.25,0 0.328125,0 0.40625,0.09375 0.40625,0.5625 V 1.3125 C 0.75,1.828125 0.640625,1.9375 0.046875,2 V 2.15625 H 2.46875 V 1.984375 c -0.75,-0.015625 -0.890625,-0.125 -0.890625,-0.75 v -1.5625 C 1.9375,0 2.171875,0.09375 2.59375,0.09375 c 1.171875,0 2.09375,-1.109375 2.09375,-2.5625 z m -0.859375,0.390625 c 0,1.109375 -0.484375,1.859375 -1.203125,1.859375 -0.46875,0 -1.046875,-0.359375 -1.046875,-0.65625 v -2.453125 c 0,-0.296875 0.5625,-0.65625 1.03125,-0.65625 0.734375,0 1.21875,0.75 1.21875,1.90625 z m 0,0"
         style="stroke:none;stroke-width:0"
         inkscape:connector-curvature="0" /><path
         id="path15149"
         transform="translate(164.76175,134.765)"
         d="m 4.6875,-2.328125 c 0,-1.3125 -0.921875,-2.25 -2.1875,-2.25 -1.296875,0 -2.203125,0.953125 -2.203125,2.328125 0,1.34375 0.921875,2.34375 2.171875,2.34375 1.265625,0 2.21875,-1.046875 2.21875,-2.421875 z m -0.90625,0.34375 c 0,1.125 -0.4375,1.8125 -1.1875,1.8125 -0.390625,0 -0.765625,-0.25 -0.96875,-0.640625 -0.28125,-0.515625 -0.4375,-1.21875 -0.4375,-1.921875 0,-0.953125 0.46875,-1.578125 1.171875,-1.578125 0.84375,0 1.421875,0.96875 1.421875,2.328125 z m 0,0"
         style="stroke:none;stroke-width:0"
         inkscape:connector-curvature="0" /><path
         id="path15151"
         transform="translate(169.74305,134.765)"
         d="m 3.46875,-1.171875 c 0,-0.5 -0.234375,-0.828125 -0.84375,-1.1875 L 1.5625,-3 C 1.28125,-3.15625 1.125,-3.40625 1.125,-3.671875 c 0,-0.421875 0.3125,-0.6875 0.765625,-0.6875 0.578125,0 0.875,0.328125 1.09375,1.234375 h 0.15625 L 3.09375,-4.484375 H 2.984375 L 2.96875,-4.46875 C 2.875,-4.390625 2.875,-4.390625 2.828125,-4.390625 c -0.0625,0 -0.15625,-0.015625 -0.265625,-0.0625 -0.203125,-0.078125 -0.4375,-0.125 -0.671875,-0.125 -0.828125,0 -1.375,0.5 -1.375,1.234375 0,0.546875 0.3125,0.9375 1.15625,1.4375 L 2.25,-1.578125 c 0.359375,0.1875 0.515625,0.4375 0.515625,0.734375 0,0.4375 -0.3125,0.71875 -0.828125,0.71875 -0.6875,0 -1.03125,-0.375 -1.265625,-1.390625 h -0.15625 v 1.5625 h 0.125 C 0.71875,-0.0625 0.75,-0.078125 0.875,-0.078125 c 0.109375,0 0.21875,0.015625 0.453125,0.078125 0.28125,0.0625 0.53125,0.09375 0.75,0.09375 0.75,0 1.390625,-0.578125 1.390625,-1.265625 z m 0,0"
         style="stroke:none;stroke-width:0"
         inkscape:connector-curvature="0" /><path
         id="path15153"
         transform="translate(173.6185,134.765)"
         d="M 4.234375,-1.5625 4.0625,-1.640625 C 3.59375,-0.875 3.15625,-0.59375 2.515625,-0.59375 c -0.546875,0 -0.953125,-0.25 -1.25,-0.796875 C 1.0625,-1.78125 0.984375,-2.125 0.96875,-2.765625 h 3.0625 C 3.953125,-3.40625 3.859375,-3.703125 3.609375,-4.015625 3.3125,-4.375 2.84375,-4.578125 2.328125,-4.578125 1.09375,-4.578125 0.25,-3.59375 0.25,-2.140625 0.25,-0.75 0.96875,0.09375 2.109375,0.09375 c 0.96875,0 1.703125,-0.578125 2.125,-1.65625 z m -1.21875,-1.515625 h -2.03125 c 0.109375,-0.796875 0.453125,-1.15625 1.0625,-1.15625 0.609375,0 0.84375,0.28125 0.96875,1.15625 z m 0,0"
         style="stroke:none;stroke-width:0"
         inkscape:connector-curvature="0" /><path
         id="path15155"
         transform="translate(178.04189,134.765)"
         d="m 4.890625,-0.421875 v -0.15625 C 4.71875,-0.5625 4.6875,-0.5625 4.671875,-0.5625 c -0.359375,0 -0.4375,-0.109375 -0.4375,-0.578125 V -6.78125 L 4.171875,-6.8125 C 3.703125,-6.640625 3.34375,-6.546875 2.71875,-6.375 v 0.171875 c 0.078125,-0.015625 0.125,-0.015625 0.21875,-0.015625 0.359375,0 0.453125,0.09375 0.453125,0.5 v 1.5625 c -0.375,-0.3125 -0.65625,-0.421875 -1.046875,-0.421875 -1.140625,0 -2.078125,1.125 -2.078125,2.53125 0,1.28125 0.75,2.140625 1.84375,2.140625 0.5625,0 0.9375,-0.1875 1.28125,-0.65625 v 0.625 l 0.03125,0.03125 z m -1.5,-0.59375 c 0,0.0625 -0.078125,0.1875 -0.171875,0.296875 -0.171875,0.203125 -0.421875,0.296875 -0.71875,0.296875 -0.828125,0 -1.375,-0.796875 -1.375,-2.015625 0,-1.125 0.484375,-1.875 1.25,-1.875 0.53125,0 1.015625,0.46875 1.015625,1 z m 0,0"
         style="stroke:none;stroke-width:0"
         inkscape:connector-curvature="0" /></g><g
       id="g15161"
       style="fill:#000000;fill-opacity:1"
       transform="matrix(2,0,0,2,-7.7494765,-30.294206)"><path
         id="path15159"
         transform="translate(185.51384,134.765)"
         d="m 3.34375,-4.0625 c 0,-0.328125 -0.21875,-0.515625 -0.546875,-0.515625 -0.421875,0 -0.71875,0.21875 -1.203125,0.921875 V -4.5625 L 1.546875,-4.578125 c -0.53125,0.21875 -0.890625,0.34375 -1.484375,0.53125 v 0.15625 c 0.140625,-0.03125 0.234375,-0.03125 0.359375,-0.03125 0.25,0 0.328125,0.15625 0.328125,0.59375 v 2.484375 c 0,0.5 -0.0625,0.578125 -0.703125,0.6875 V 0 H 2.4375 V -0.15625 C 1.765625,-0.171875 1.59375,-0.328125 1.59375,-0.890625 v -2.25 c 0,-0.3125 0.4375,-0.8125 0.703125,-0.8125 0.0625,0 0.140625,0.046875 0.25,0.140625 0.171875,0.140625 0.28125,0.203125 0.40625,0.203125 0.234375,0 0.390625,-0.171875 0.390625,-0.453125 z m 0,0"
         style="stroke:none;stroke-width:0"
         inkscape:connector-curvature="0" /></g><g
       id="g15171"
       style="fill:#000000;fill-opacity:1"
       transform="matrix(2,0,0,2,-7.7494765,-30.294206)"><path
         id="path15163"
         transform="translate(189.03064,134.765)"
         d="M 2.515625,0 V -0.15625 C 1.859375,-0.203125 1.78125,-0.296875 1.78125,-1.015625 V -4.5625 L 1.75,-4.578125 0.203125,-4.03125 v 0.140625 H 0.28125 c 0.125,-0.03125 0.25,-0.03125 0.34375,-0.03125 0.234375,0 0.328125,0.15625 0.328125,0.59375 v 2.3125 c 0,0.71875 -0.109375,0.828125 -0.796875,0.859375 V 0 Z M 1.875,-5.875 c 0,-0.28125 -0.21875,-0.515625 -0.515625,-0.515625 -0.265625,0 -0.5,0.234375 -0.5,0.515625 0,0.28125 0.234375,0.5 0.5,0.5 0.296875,0 0.515625,-0.21875 0.515625,-0.5 z m 0,0"
         style="stroke:none;stroke-width:0"
         inkscape:connector-curvature="0" /><path
         id="path15165"
         transform="translate(191.80024,134.765)"
         d="M 4.6875,-3.875 V -4.25 H 3.921875 C 3.71875,-4.25 3.5625,-4.28125 3.375,-4.359375 L 3.15625,-4.4375 C 2.875,-4.53125 2.609375,-4.578125 2.359375,-4.578125 c -0.9375,0 -1.671875,0.703125 -1.671875,1.625 0,0.625 0.265625,1 0.921875,1.328125 L 1.1875,-1.21875 c -0.328125,0.28125 -0.453125,0.484375 -0.453125,0.6875 0,0.203125 0.109375,0.328125 0.515625,0.515625 -0.703125,0.53125 -0.96875,0.859375 -0.96875,1.21875 0,0.53125 0.78125,0.96875 1.71875,0.96875 0.75,0 1.53125,-0.265625 2.046875,-0.671875 0.375,-0.3125 0.546875,-0.625 0.546875,-1.015625 0,-0.609375 -0.46875,-1.03125 -1.203125,-1.0625 l -1.28125,-0.0625 C 1.578125,-0.65625 1.328125,-0.75 1.328125,-0.90625 c 0,-0.203125 0.328125,-0.546875 0.59375,-0.625 0.09375,0 0.15625,0.015625 0.1875,0.015625 C 2.296875,-1.5 2.4375,-1.484375 2.5,-1.484375 c 0.359375,0 0.765625,-0.15625 1.0625,-0.421875 0.328125,-0.28125 0.484375,-0.625 0.484375,-1.125 C 4.046875,-3.3125 4,-3.546875 3.859375,-3.875 Z m -0.375,4.515625 c 0,0.578125 -0.75,0.96875 -1.875,0.96875 -0.875,0 -1.453125,-0.296875 -1.453125,-0.734375 0,-0.234375 0.0625,-0.359375 0.484375,-0.859375 0.328125,0.078125 1.125,0.140625 1.609375,0.140625 0.90625,0 1.234375,0.125 1.234375,0.484375 z m -1.03125,-3.28125 c 0,0.5625 -0.296875,0.90625 -0.75,0.90625 -0.59375,0 -1.015625,-0.640625 -1.015625,-1.609375 V -3.375 c 0,-0.578125 0.28125,-0.9375 0.734375,-0.9375 0.3125,0 0.578125,0.171875 0.734375,0.46875 0.171875,0.359375 0.296875,0.8125 0.296875,1.203125 z m 0,0"
         style="stroke:none;stroke-width:0"
         inkscape:connector-curvature="0" /><path
         id="path15167"
         transform="translate(196.78154,134.765)"
         d="M 4.859375,0 V -0.15625 C 4.3125,-0.25 4.25,-0.328125 4.25,-1.015625 V -3 c 0,-1.046875 -0.40625,-1.578125 -1.21875,-1.578125 -0.59375,0 -1,0.234375 -1.46875,0.828125 V -6.78125 L 1.515625,-6.8125 C 1.171875,-6.6875 0.921875,-6.609375 0.375,-6.453125 L 0.09375,-6.375 v 0.171875 c 0.046875,-0.015625 0.078125,-0.015625 0.125,-0.015625 0.421875,0 0.515625,0.078125 0.515625,0.5 v 4.703125 c 0,0.703125 -0.0625,0.78125 -0.640625,0.859375 V 0 H 2.25 V -0.15625 C 1.671875,-0.203125 1.5625,-0.328125 1.5625,-1.015625 v -2.40625 c 0.421875,-0.453125 0.71875,-0.625 1.109375,-0.625 0.5,0 0.75,0.359375 0.75,1.0625 v 1.96875 c 0,0.671875 -0.109375,0.8125 -0.6875,0.859375 V 0 Z m 0,0"
         style="stroke:none;stroke-width:0"
         inkscape:connector-curvature="0" /><path
         id="path15169"
         transform="translate(201.76284,134.765)"
         d="m 2.78125,-0.65625 -0.125,-0.109375 c -0.21875,0.25 -0.390625,0.34375 -0.609375,0.34375 -0.359375,0 -0.515625,-0.25 -0.515625,-0.890625 v -2.859375 h 1.015625 v -0.3125 H 1.53125 v -1.15625 c 0,-0.09375 -0.015625,-0.125 -0.0625,-0.125 -0.0625,0.09375 -0.140625,0.1875 -0.203125,0.265625 -0.375,0.5625 -0.703125,0.921875 -0.96875,1.078125 -0.109375,0.0625 -0.171875,0.125 -0.171875,0.1875 0,0.03125 0.015625,0.046875 0.046875,0.0625 h 0.53125 v 3 c 0,0.84375 0.296875,1.265625 0.875,1.265625 0.5,0 0.875,-0.234375 1.203125,-0.75 z m 0,0"
         style="stroke:none;stroke-width:0"
         inkscape:connector-curvature="0" /></g></g><g
     transform="matrix(2,0,0,2,-124.4727,-7.7790668)"
     style="fill:#000000;fill-opacity:1"
     id="g15189"><path
       inkscape:connector-curvature="0"
       style="stroke:none;stroke-width:0"
       d="m 3.46875,-1.171875 c 0,-0.5 -0.234375,-0.828125 -0.84375,-1.1875 L 1.5625,-3 C 1.28125,-3.15625 1.125,-3.40625 1.125,-3.671875 c 0,-0.421875 0.3125,-0.6875 0.765625,-0.6875 0.578125,0 0.875,0.328125 1.09375,1.234375 h 0.15625 L 3.09375,-4.484375 H 2.984375 L 2.96875,-4.46875 C 2.875,-4.390625 2.875,-4.390625 2.828125,-4.390625 c -0.0625,0 -0.15625,-0.015625 -0.265625,-0.0625 -0.203125,-0.078125 -0.4375,-0.125 -0.671875,-0.125 -0.828125,0 -1.375,0.5 -1.375,1.234375 0,0.546875 0.3125,0.9375 1.15625,1.4375 L 2.25,-1.578125 c 0.359375,0.1875 0.515625,0.4375 0.515625,0.734375 0,0.4375 -0.3125,0.71875 -0.828125,0.71875 -0.6875,0 -1.03125,-0.375 -1.265625,-1.390625 h -0.15625 v 1.5625 h 0.125 C 0.71875,-0.0625 0.75,-0.078125 0.875,-0.078125 c 0.109375,0 0.21875,0.015625 0.453125,0.078125 0.28125,0.0625 0.53125,0.09375 0.75,0.09375 0.75,0 1.390625,-0.578125 1.390625,-1.265625 z m 0,0"
       transform="translate(207.0231,134.765)"
       id="path15173" /><path
       inkscape:connector-curvature="0"
       style="stroke:none;stroke-width:0"
       d="M 4.234375,-1.5625 4.0625,-1.640625 C 3.59375,-0.875 3.15625,-0.59375 2.515625,-0.59375 c -0.546875,0 -0.953125,-0.25 -1.25,-0.796875 C 1.0625,-1.78125 0.984375,-2.125 0.96875,-2.765625 h 3.0625 C 3.953125,-3.40625 3.859375,-3.703125 3.609375,-4.015625 3.3125,-4.375 2.84375,-4.578125 2.328125,-4.578125 1.09375,-4.578125 0.25,-3.59375 0.25,-2.140625 0.25,-0.75 0.96875,0.09375 2.109375,0.09375 c 0.96875,0 1.703125,-0.578125 2.125,-1.65625 z m -1.21875,-1.515625 h -2.03125 c 0.109375,-0.796875 0.453125,-1.15625 1.0625,-1.15625 0.609375,0 0.84375,0.28125 0.96875,1.15625 z m 0,0"
       transform="translate(210.89855,134.765)"
       id="path15175" /><path
       inkscape:connector-curvature="0"
       style="stroke:none;stroke-width:0"
       d="m 7.71875,0 v -0.15625 l -0.25,-0.015625 C 7.171875,-0.1875 7.03125,-0.375 7.03125,-0.75 v -2.0625 c 0,-1.171875 -0.375,-1.765625 -1.15625,-1.765625 -0.578125,0 -1.078125,0.25 -1.625,0.828125 -0.171875,-0.5625 -0.515625,-0.828125 -1.046875,-0.828125 -0.4375,0 -0.71875,0.125 -1.546875,0.765625 v -0.75 L 1.578125,-4.578125 c -0.5,0.1875 -0.84375,0.296875 -1.390625,0.4375 V -3.96875 C 0.3125,-4 0.40625,-4 0.515625,-4 c 0.25,0 0.34375,0.15625 0.34375,0.625 v 2.53125 c 0,0.53125 -0.140625,0.6875 -0.703125,0.6875 V 0 H 2.375 V -0.15625 C 1.84375,-0.171875 1.6875,-0.28125 1.6875,-0.671875 v -2.8125 c 0,0 0.09375,-0.109375 0.15625,-0.1875 0.25,-0.21875 0.671875,-0.390625 1.03125,-0.390625 0.4375,0 0.65625,0.34375 0.65625,1.046875 v 2.15625 c 0,0.5625 -0.109375,0.671875 -0.6875,0.703125 V 0 h 2.234375 v -0.15625 c -0.5625,0 -0.71875,-0.171875 -0.71875,-0.796875 v -2.5 C 4.671875,-3.890625 5,-4.0625 5.453125,-4.0625 c 0.5625,0 0.75,0.265625 0.75,1.09375 V -0.875 c 0,0.578125 -0.078125,0.65625 -0.65625,0.71875 V 0 Z m 0,0"
       transform="translate(215.32194,134.765)"
       id="path15177" /><path
       inkscape:connector-curvature="0"
       style="stroke:none;stroke-width:0"
       d="M 2.515625,0 V -0.15625 C 1.859375,-0.203125 1.78125,-0.296875 1.78125,-1.015625 V -4.5625 L 1.75,-4.578125 0.203125,-4.03125 v 0.140625 H 0.28125 c 0.125,-0.03125 0.25,-0.03125 0.34375,-0.03125 0.234375,0 0.328125,0.15625 0.328125,0.59375 v 2.3125 c 0,0.71875 -0.109375,0.828125 -0.796875,0.859375 V 0 Z M 1.875,-5.875 c 0,-0.28125 -0.21875,-0.515625 -0.515625,-0.515625 -0.265625,0 -0.5,0.234375 -0.5,0.515625 0,0.28125 0.234375,0.5 0.5,0.5 0.296875,0 0.515625,-0.21875 0.515625,-0.5 z m 0,0"
       transform="translate(223.07285,134.765)"
       id="path15179" /><path
       inkscape:connector-curvature="0"
       style="stroke:none;stroke-width:0"
       d="M 6.921875,-4.34375 V -4.484375 H 5.6875 v 0.140625 c 0.34375,0.078125 0.4375,0.140625 0.4375,0.3125 0,0.15625 -0.046875,0.390625 -0.15625,0.65625 L 5.0625,-1.15625 4.234375,-3.390625 C 4.0625,-3.84375 4.0625,-3.84375 4.0625,-3.984375 c 0,-0.21875 0.109375,-0.28125 0.578125,-0.359375 v -0.140625 h -2.03125 v 0.140625 c 0.375,0.046875 0.484375,0.15625 0.6875,0.6875 L 3.5,-3.09375 2.59375,-1.109375 1.609375,-3.703125 C 1.5625,-3.8125 1.546875,-3.90625 1.546875,-4 c 0,-0.21875 0.125,-0.296875 0.453125,-0.34375 V -4.484375 H 0.203125 v 0.140625 c 0.234375,0.03125 0.3125,0.125 0.53125,0.640625 l 1.34375,3.40625 c 0.125,0.296875 0.203125,0.4375 0.265625,0.4375 0.046875,0 0.125,-0.125 0.25,-0.390625 l 1.109375,-2.390625 0.90625,2.34375 c 0.140625,0.375 0.1875,0.4375 0.25,0.4375 0.0625,0 0.109375,-0.09375 0.28125,-0.484375 l 1.375,-3.453125 C 6.6875,-4.21875 6.71875,-4.265625 6.921875,-4.34375 Z m 0,0"
       transform="translate(225.84245,134.765)"
       id="path15181" /><path
       inkscape:connector-curvature="0"
       style="stroke:none;stroke-width:0"
       d="M 2.515625,0 V -0.15625 C 1.859375,-0.203125 1.78125,-0.296875 1.78125,-1.015625 V -4.5625 L 1.75,-4.578125 0.203125,-4.03125 v 0.140625 H 0.28125 c 0.125,-0.03125 0.25,-0.03125 0.34375,-0.03125 0.234375,0 0.328125,0.15625 0.328125,0.59375 v 2.3125 c 0,0.71875 -0.109375,0.828125 -0.796875,0.859375 V 0 Z M 1.875,-5.875 c 0,-0.28125 -0.21875,-0.515625 -0.515625,-0.515625 -0.265625,0 -0.5,0.234375 -0.5,0.515625 0,0.28125 0.234375,0.5 0.5,0.5 0.296875,0 0.515625,-0.21875 0.515625,-0.5 z m 0,0"
       transform="translate(233.03545,134.765)"
       id="path15183" /><path
       inkscape:connector-curvature="0"
       style="stroke:none;stroke-width:0"
       d="M 4.828125,0 V -0.15625 C 4.34375,-0.203125 4.234375,-0.3125 4.234375,-0.8125 v -2.28125 c 0,-0.9375 -0.453125,-1.484375 -1.1875,-1.484375 -0.453125,0 -0.765625,0.15625 -1.4375,0.796875 V -4.5625 L 1.53125,-4.578125 c -0.484375,0.171875 -0.828125,0.28125 -1.375,0.4375 V -3.96875 C 0.21875,-4 0.3125,-4 0.421875,-4 c 0.28125,0 0.375,0.140625 0.375,0.625 v 2.484375 c 0,0.5625 -0.109375,0.703125 -0.625,0.734375 V 0 h 2.125 V -0.15625 C 1.78125,-0.1875 1.640625,-0.3125 1.640625,-0.671875 V -3.46875 c 0.46875,-0.453125 0.6875,-0.5625 1.015625,-0.5625 0.5,0 0.734375,0.296875 0.734375,0.953125 v 2.09375 c 0,0.625 -0.125,0.796875 -0.625,0.828125 V 0 Z m 0,0"
       transform="translate(235.80505,134.765)"
       id="path15185" /><path
       inkscape:connector-curvature="0"
       style="stroke:none;stroke-width:0"
       d="M 4.6875,-3.875 V -4.25 H 3.921875 C 3.71875,-4.25 3.5625,-4.28125 3.375,-4.359375 L 3.15625,-4.4375 C 2.875,-4.53125 2.609375,-4.578125 2.359375,-4.578125 c -0.9375,0 -1.671875,0.703125 -1.671875,1.625 0,0.625 0.265625,1 0.921875,1.328125 L 1.1875,-1.21875 c -0.328125,0.28125 -0.453125,0.484375 -0.453125,0.6875 0,0.203125 0.109375,0.328125 0.515625,0.515625 -0.703125,0.53125 -0.96875,0.859375 -0.96875,1.21875 0,0.53125 0.78125,0.96875 1.71875,0.96875 0.75,0 1.53125,-0.265625 2.046875,-0.671875 0.375,-0.3125 0.546875,-0.625 0.546875,-1.015625 0,-0.609375 -0.46875,-1.03125 -1.203125,-1.0625 l -1.28125,-0.0625 C 1.578125,-0.65625 1.328125,-0.75 1.328125,-0.90625 c 0,-0.203125 0.328125,-0.546875 0.59375,-0.625 0.09375,0 0.15625,0.015625 0.1875,0.015625 C 2.296875,-1.5 2.4375,-1.484375 2.5,-1.484375 c 0.359375,0 0.765625,-0.15625 1.0625,-0.421875 0.328125,-0.28125 0.484375,-0.625 0.484375,-1.125 C 4.046875,-3.3125 4,-3.546875 3.859375,-3.875 Z m -0.375,4.515625 c 0,0.578125 -0.75,0.96875 -1.875,0.96875 -0.875,0 -1.453125,-0.296875 -1.453125,-0.734375 0,-0.234375 0.0625,-0.359375 0.484375,-0.859375 0.328125,0.078125 1.125,0.140625 1.609375,0.140625 0.90625,0 1.234375,0.125 1.234375,0.484375 z m -1.03125,-3.28125 c 0,0.5625 -0.296875,0.90625 -0.75,0.90625 -0.59375,0 -1.015625,-0.640625 -1.015625,-1.609375 V -3.375 c 0,-0.578125 0.28125,-0.9375 0.734375,-0.9375 0.3125,0 0.578125,0.171875 0.734375,0.46875 0.171875,0.359375 0.296875,0.8125 0.296875,1.203125 z m 0,0"
       transform="translate(240.78635,134.765)"
       id="path15187" /></g></g><path
   sodipodi:nodetypes="cc"
   inkscape:connector-curvature="0"
   id="path15315"
   d="m 259.91048,135.20166 43.5091,-63.0683"
   style="fill:none;stroke:#052aa9;stroke-width:0.44823545;stroke-linecap:butt;stroke-linejoin:miter;stroke-miterlimit:4;stroke-dasharray:none;stroke-opacity:1" /><g
   id="g15601"
   ns1:jacobian_sqrt="2.0"
   inkscapeversion="0.92.4"
   ns1:alignment="middle center"
   ns1:scale="1.5"
   ns1:preamble="C:\\texlive\\texmf-local\\tex\\latex\\default_packages_guit.tex"
   ns1:text="$X_{\\mathrm{le},\\bar{c}}$"
   ns1:pdfconverter="pdf2svg"
   ns1:texconverter="pdflatex"
   ns1:version="0.11.0"
   transform="matrix(2,0,0,2,18.291822,-149.84351)"><g
     id="g15599"><g
       id="g15579"
       style="fill:#000000;fill-opacity:1"><path
         id="path15577"
         transform="translate(148.712,134.765)"
         d="m 7.671875,-6.734375 h -1.875 L 5.765625,-6.5625 c 0.390625,0 0.53125,0.1875 0.53125,0.34375 0,0.15625 -0.140625,0.375 -0.3125,0.5625 l -1.5625,1.703125 -0.453125,-1.40625 c -0.0625,-0.1875 -0.1875,-0.484375 -0.1875,-0.75 C 3.78125,-6.5 4.203125,-6.5625 4.484375,-6.5625 l 0.03125,-0.171875 h -2.6875 L 1.796875,-6.5625 c 0.671875,0 0.859375,0.296875 1.046875,0.875 L 3.6875,-3.140625 C 2.90625,-2.21875 1.640625,-0.875 1.640625,-0.875 1.296875,-0.484375 0.875,-0.171875 0.515625,-0.171875 L 0.484375,0 h 2.15625 l 0.03125,-0.171875 c -0.25,0 -0.640625,0 -0.640625,-0.328125 0,-0.15625 0.15625,-0.390625 0.28125,-0.53125 l 1.515625,-1.6875 0.515625,1.5625 c 0.046875,0.125 0.109375,0.359375 0.109375,0.53125 0,0.421875 -0.359375,0.453125 -0.75,0.453125 L 3.671875,0 h 2.65625 l 0.03125,-0.171875 c -0.484375,0 -0.765625,-0.203125 -0.96875,-0.8125 L 4.5625,-3.53125 6.265625,-5.4375 C 6.5625,-5.78125 7.25,-6.5625 7.640625,-6.5625 Z m 0,0"
         style="stroke:none;stroke-width:0"
         inkscape:connector-curvature="0" /></g><g
       id="g15585"
       style="fill:#000000;fill-opacity:1"><path
         id="path15581"
         transform="translate(156.224,136.259)"
         d="M 1.796875,0 V -0.109375 C 1.34375,-0.125 1.265625,-0.203125 1.265625,-0.578125 V -4.75 l -0.03125,-0.015625 c -0.359375,0.125 -0.625,0.1875 -1.109375,0.3125 v 0.109375 h 0.046875 c 0.078125,0 0.15625,-0.015625 0.21875,-0.015625 0.21875,0 0.296875,0.09375 0.296875,0.421875 v 3.328125 c 0,0.375 -0.109375,0.46875 -0.546875,0.5 V 0 Z m 0,0"
         style="stroke:none;stroke-width:0"
         inkscape:connector-curvature="0" /><path
         id="path15583"
         transform="translate(158.16272,136.259)"
         d="M 2.953125,-1.09375 2.84375,-1.140625 c -0.328125,0.53125 -0.640625,0.734375 -1.078125,0.734375 -0.390625,0 -0.671875,-0.1875 -0.875,-0.5625 C 0.75,-1.234375 0.6875,-1.484375 0.671875,-1.9375 h 2.15625 c -0.0625,-0.453125 -0.125,-0.640625 -0.3125,-0.875 C 2.3125,-3.0625 2,-3.203125 1.625,-3.203125 c -0.859375,0 -1.453125,0.6875 -1.453125,1.71875 0,0.953125 0.5,1.546875 1.3125,1.546875 0.65625,0 1.171875,-0.40625 1.46875,-1.15625 z m -0.84375,-1.0625 H 0.6875 C 0.765625,-2.703125 1,-2.953125 1.421875,-2.953125 c 0.4375,0 0.59375,0.1875 0.6875,0.796875 z m 0,0"
         style="stroke:none;stroke-width:0"
         inkscape:connector-curvature="0" /></g><g
       id="g15589"
       style="fill:#000000;fill-opacity:1"><path
         id="path15587"
         transform="translate(161.259,136.259)"
         d="M 0.609375,1.140625 C 0.8125,1.09375 0.90625,1.046875 1.09375,0.9375 c 0.328125,-0.21875 0.5625,-0.53125 0.5625,-1.078125 0,-0.53125 -0.25,-0.765625 -0.578125,-0.765625 -0.296875,0 -0.484375,0.1875 -0.484375,0.46875 0,0.265625 0.1875,0.4375 0.4375,0.4375 0.078125,0 0.15625,-0.015625 0.234375,-0.0625 0.03125,-0.015625 0.03125,-0.015625 0.046875,-0.015625 0.03125,0 0.046875,0.0625 0.046875,0.140625 0,0.078125 0,0.578125 -0.75,0.859375 z m 0,0"
         style="stroke:none;stroke-width:0"
         inkscape:connector-curvature="0" /></g><g
       id="g15593"
       style="fill:#000000;fill-opacity:1"><path
         id="path15591"
         transform="translate(164.54,136.259)"
         d="m 2.46875,-4.546875 v -0.4375 H 0.078125 v 0.4375 z m 0,0"
         style="stroke:none;stroke-width:0"
         inkscape:connector-curvature="0" /></g><g
       id="g15597"
       style="fill:#000000;fill-opacity:1"><path
         id="path15595"
         transform="translate(163.505,136.259)"
         d="m 3.3125,-2.796875 c 0,-0.296875 -0.234375,-0.625 -0.8125,-0.625 -1.140625,0 -2.234375,1.234375 -2.234375,2.328125 0,0.796875 0.515625,1.171875 1.109375,1.171875 0.75,0 1.234375,-0.484375 1.5625,-0.890625 L 2.734375,-0.921875 c -0.21875,0.265625 -0.59375,0.625 -1.078125,0.625 C 1.234375,-0.296875 1,-0.609375 1,-1.140625 1,-1.8125 1.546875,-3.1875 2.5,-3.1875 c 0.125,0 0.25,0.046875 0.25,0.15625 0,0.109375 -0.1875,0.203125 -0.1875,0.390625 0,0.1875 0.125,0.328125 0.328125,0.328125 0.265625,0 0.421875,-0.234375 0.421875,-0.484375 z m 0,0"
         style="stroke:none;stroke-width:0"
         inkscape:connector-curvature="0" /></g></g></g><path
   style="fill:none;stroke:#052aa9;stroke-width:0.44823545;stroke-linecap:round;stroke-linejoin:round;stroke-miterlimit:4;stroke-dasharray:none;stroke-opacity:1"
   d="M 321.06362,143.7927 H 293.67957"
   id="path15617"
   inkscape:connector-curvature="0"
   sodipodi:nodetypes="cc" /><g
   id="g15635"
   transform="translate(0,3.3590159)"><path
     style="fill:none;stroke:#052aa9;stroke-width:1.12058854px;stroke-linecap:round;stroke-linejoin:round;stroke-opacity:1"
     d="M 310.97178,140.08955 V 84.365906"
     id="path15619"
     inkscape:connector-curvature="0"
     sodipodi:nodetypes="cc" /><path
     style="fill:none;stroke:#052aa9;stroke-width:1.12058854;stroke-linecap:round;stroke-linejoin:round;stroke-miterlimit:4;stroke-dasharray:none;stroke-opacity:1"
     d="m 309.08247,131.98198 1.88931,8.10757 1.88931,-8.10757"
     id="path15623"
     inkscape:connector-curvature="0"
     sodipodi:nodetypes="ccc" /></g><path
   sodipodi:nodetypes="cc"
   inkscape:connector-curvature="0"
   id="path15637"
   d="M 285.24225,143.7927 H 203.8582"
   style="fill:none;stroke:#052aa9;stroke-width:0.44823545;stroke-linecap:round;stroke-linejoin:round;stroke-miterlimit:4;stroke-dasharray:none;stroke-opacity:1" /><path
   style="fill:none;stroke:#052aa9;stroke-width:0.44823545;stroke-linecap:round;stroke-linejoin:round;stroke-miterlimit:4;stroke-dasharray:none;stroke-opacity:1"
   d="M 285.24225,210.84632 H 203.8582"
   id="path15639"
   inkscape:connector-curvature="0"
   sodipodi:nodetypes="cc" /><path
   style="fill:none;stroke:#f93e70;stroke-width:4;stroke-linecap:butt;stroke-linejoin:round;stroke-miterlimit:4;stroke-dasharray:none;stroke-opacity:1"
   d="M 207.84577,210.84632 V 143.79269"
   id="path15643"
   inkscape:connector-curvature="0"
   sodipodi:nodetypes="cc" /><path
   sodipodi:nodetypes="cc"
   inkscape:connector-curvature="0"
   id="path4999"
   d="M 207.84585,343.98943 207.8457,5.0000002"
   style="fill:none;stroke:#052aa9;stroke-width:1.12058854;stroke-linecap:butt;stroke-linejoin:miter;stroke-miterlimit:4;stroke-dasharray:8.9647088, 2.2411772, 1.1205886, 2.2411772;stroke-dashoffset:0;stroke-opacity:1" /><g
   style="display:inline"
   id="g5472"
   transform="matrix(0.53799478,0,0,0.53799478,-62.026667,131.6764)"><circle
     r="15"
     cy="74.909431"
     cx="501.62665"
     id="path5465"
     style="fill:#ffffff;fill-opacity:1;stroke:#000000;stroke-width:2.5999999;stroke-linecap:round;stroke-linejoin:miter;stroke-miterlimit:4;stroke-dasharray:none;stroke-dashoffset:0;stroke-opacity:1" /><path
     sodipodi:nodetypes="cccc"
     inkscape:connector-curvature="0"
     id="path5467"
     d="m 516.62665,74.912674 c 0,8.16271 -6.68309,14.827015 -14.84404,14.996757 V 74.912674 Z"
     style="fill:#000000;fill-opacity:1;stroke:#000000;stroke-width:1.39999998;stroke-linecap:round;stroke-linejoin:miter;stroke-miterlimit:4;stroke-dashoffset:0;stroke-opacity:1" /><path
     style="fill:#000000;fill-opacity:1;stroke:#000000;stroke-width:1.39999998;stroke-linecap:round;stroke-linejoin:miter;stroke-miterlimit:4;stroke-dashoffset:0;stroke-opacity:1"
     d="m 486.62665,74.906188 c 0,-8.16271 6.68309,-14.827015 14.84404,-14.996757 v 14.996757 z"
     id="path5470"
     inkscape:connector-curvature="0"
     sodipodi:nodetypes="cccc" /></g><path
   sodipodi:nodetypes="cc"
   inkscape:connector-curvature="0"
   id="path6213"
   d="m 207.84577,230.01792 v 73.09115"
   style="fill:none;stroke:#000000;stroke-width:1.90500069;stroke-linecap:butt;stroke-linejoin:miter;stroke-miterlimit:4;stroke-dasharray:none;stroke-opacity:1;marker-end:url(#marker6217)" /></svg>