<?xml version="1.0" encoding="UTF-8" standalone="no"?>
<!-- Generator: Adobe Illustrator 15.0.0, SVG Export Plug-In . SVG Version: 6.00 Build 0)  -->

<svg
   xmlns:dc="http://purl.org/dc/elements/1.1/"
   xmlns:cc="http://creativecommons.org/ns#"
   xmlns:rdf="http://www.w3.org/1999/02/22-rdf-syntax-ns#"
   xmlns:svg="http://www.w3.org/2000/svg"
   xmlns="http://www.w3.org/2000/svg"
   xmlns:xlink="http://www.w3.org/1999/xlink"
   xmlns:sodipodi="http://sodipodi.sourceforge.net/DTD/sodipodi-0.dtd"
   xmlns:inkscape="http://www.inkscape.org/namespaces/inkscape"
   version="1.1"
   id="Layer_1"
   x="0px"
   y="0px"
   width="1142.4"
   height="1005.8666"
   viewBox="0 0 1071 943.00001"
   enable-background="new 0 0 2383.939 3370.39"
   xml:space="preserve"
   inkscape:version="0.92.1 r15371"
   sodipodi:docname="logo_jsbsim_globe.svg"
   inkscape:export-filename="./logo_006_globe-concept.png"
   inkscape:export-xdpi="96"
   inkscape:export-ydpi="96"><sodipodi:namedview
     pagecolor="#ffffff"
     bordercolor="#666666"
     borderopacity="1"
     objecttolerance="10"
     gridtolerance="10"
     guidetolerance="10"
     inkscape:pageopacity="0"
     inkscape:pageshadow="2"
     inkscape:window-width="1280"
     inkscape:window-height="657"
     id="namedview7"
     showgrid="false"
     inkscape:zoom="0.36230786"
     inkscape:cx="573.9864"
     inkscape:cy="517.61577"
     inkscape:window-x="-8"
     inkscape:window-y="-8"
     inkscape:window-maximized="1"
     inkscape:current-layer="Layer_1"
     fit-margin-top="50"
     fit-margin-left="50"
     fit-margin-right="50"
     fit-margin-bottom="50" /><metadata
     id="metadata11"><rdf:RDF><cc:Work
         rdf:about=""><dc:format>image/svg+xml</dc:format><dc:type
           rdf:resource="http://purl.org/dc/dcmitype/StillImage" /><dc:title /></cc:Work></rdf:RDF></metadata><defs
     id="defs9"><inkscape:path-effect
       fuse_tolerance="0"
       vertical_pattern="false"
       prop_units="false"
       tang_offset="0"
       normal_offset="0"
       spacing="0"
       scale_y_rel="false"
       prop_scale="1"
       copytype="single_stretched"
       pattern="M 0,0 H 1"
       is_visible="true"
       id="path-effect6214"
       effect="skeletal" /><radialGradient
       id="radialGradient3903"
       spreadMethod="pad"
       gradientTransform="matrix(179.74438,0,0,-179.74438,343,556.38965)"
       gradientUnits="userSpaceOnUse"
       r="1"
       cy="0"
       cx="0"
       fy="0"
       fx="0"><stop
         id="stop3905"
         offset="0"
         style="stop-opacity:1;stop-color:#dbe1f4" /><stop
         id="stop3907"
         offset="0.438202"
         style="stop-opacity:1;stop-color:#0b8ed8" /><stop
         id="stop3909"
         offset="1"
         style="stop-opacity:1;stop-color:#176fc1" /></radialGradient><clipPath
       id="clipPath3895"
       clipPathUnits="userSpaceOnUse"><path
         id="path3897"
         d="M 297.568,645.012 H 520.912 V 422.317 H 297.568 Z"
         inkscape:connector-curvature="0" /></clipPath><clipPath
       id="clipPath3777"
       clipPathUnits="userSpaceOnUse"><path
         id="path3779"
         d="m 297.546,644.145 h 223.31 v -222.48 h -223.31 z"
         inkscape:connector-curvature="0" /></clipPath><linearGradient
       id="linearGradient3701"
       spreadMethod="pad"
       gradientTransform="matrix(173.23311,-88.776855,-88.776855,-173.23311,325.46582,575.52393)"
       gradientUnits="userSpaceOnUse"
       y2="0"
       x2="1"
       y1="0"
       x1="0"><stop
         id="stop3703"
         offset="0"
         style="stop-opacity:1;stop-color:#dbe1f4" /><stop
         id="stop3705"
         offset="0.460674"
         style="stop-opacity:1;stop-color:#2350a9" /><stop
         id="stop3707"
         offset="1"
         style="stop-opacity:1;stop-color:#2350a9" /></linearGradient><clipPath
       id="clipPath3685"
       clipPathUnits="userSpaceOnUse"><path
         id="path3687"
         d="M 0,841.89 H 595.276 V 0 H 0 Z"
         inkscape:connector-curvature="0" /></clipPath><linearGradient
       inkscape:collect="always"
       xlink:href="#linearGradient3701"
       id="linearGradient8184"
       gradientUnits="userSpaceOnUse"
       gradientTransform="matrix(173.23311,-88.776855,-88.776855,-173.23311,325.46582,575.52393)"
       spreadMethod="pad"
       x1="0"
       y1="0"
       x2="1"
       y2="0" /><radialGradient
       inkscape:collect="always"
       xlink:href="#radialGradient3903"
       id="radialGradient8186"
       gradientUnits="userSpaceOnUse"
       gradientTransform="matrix(179.74438,0,0,-179.74438,343,556.38965)"
       spreadMethod="pad"
       cx="0"
       cy="0"
       fx="0"
       fy="0"
       r="1" /><linearGradient
       inkscape:collect="always"
       xlink:href="#linearGradient3701"
       id="linearGradient8472"
       gradientUnits="userSpaceOnUse"
       gradientTransform="matrix(173.23311,-88.776855,-88.776855,-173.23311,325.46582,575.52393)"
       spreadMethod="pad"
       x1="0"
       y1="0"
       x2="1"
       y2="0" /><radialGradient
       inkscape:collect="always"
       xlink:href="#radialGradient3903"
       id="radialGradient8474"
       gradientUnits="userSpaceOnUse"
       gradientTransform="matrix(179.74438,0,0,-179.74438,343,556.38965)"
       spreadMethod="pad"
       cx="0"
       cy="0"
       fx="0"
       fy="0"
       r="1" /><linearGradient
       inkscape:collect="always"
       xlink:href="#linearGradient3701"
       id="linearGradient8918"
       gradientUnits="userSpaceOnUse"
       gradientTransform="matrix(173.23311,-88.776855,-88.776855,-173.23311,325.46582,575.52393)"
       spreadMethod="pad"
       x1="0"
       y1="0"
       x2="1"
       y2="0" /><radialGradient
       inkscape:collect="always"
       xlink:href="#radialGradient3903"
       id="radialGradient8920"
       gradientUnits="userSpaceOnUse"
       gradientTransform="matrix(179.74438,0,0,-179.74438,343,556.38965)"
       spreadMethod="pad"
       cx="0"
       cy="0"
       fx="0"
       fy="0"
       r="1" /></defs><rect
     style="fill:#ffffff;fill-opacity:1;stroke:none;stroke-width:0.91025615"
     id="rect3160"
     width="800.39502"
     height="838"
     x="137.91476"
     y="52.500004"
     inkscape:export-filename="logo_JSBSIM_globe.png"
     inkscape:export-xdpi="250"
     inkscape:export-ydpi="250" /><g
     id="g4851"
     transform="translate(27.529757,23.170296)"
     inkscape:export-filename="logo_JSBSIM_globe.png"
     inkscape:export-xdpi="250"
     inkscape:export-ydpi="250"><g
       transform="translate(1388.2446,-130.59362)"
       id="g8476"><g
         transform="translate(-1286.002,85.442878)"
         id="g8188"><g
           transform="matrix(2.6433952,0,0,-2.6433952,-673.39324,1926.6745)"
           inkscape:label="Globe-Vector-7_vectormadness"
           id="g8190"
           style="opacity:0.71255056"><g
             id="g8192"><g
               clip-path="url(#clipPath3685)"
               id="g8194"><g
                 id="g8196"><g
                   id="g8198"><g
                     id="g8200"><g
                       id="g8202"><path
                         id="path8204"
                         style="fill:url(#linearGradient8472);fill-rule:evenodd;stroke:none"
                         d="m 354.734,630.177 4.608,2.159 4.32,2.161 4.536,1.944 4.536,1.656 4.536,1.44 4.824,1.44 4.824,1.008 4.752,0.935 5.04,0.721 4.824,0.216 4.824,0.288 h 5.039 l 4.753,-0.288 4.824,-0.216 5.04,-0.936 4.824,-0.72 4.752,-1.224 4.608,-1.224 4.536,-1.657 4.536,-1.439 4.104,-1.944 3.384,-1.44 3.6,-1.656 3.6,-1.944 1.872,-1.152 2.448,-1.44 2.376,-1.728 2.376,-1.656 2.159,-1.44 2.377,-1.944 2.16,-1.656 h -0.216 l 4.32,-3.601 4.32,-4.103 3.384,-3.312 3.096,-3.384 3.096,-3.816 2.879,-4.104 2.665,-4.104 2.88,-4.032 2.16,-4.609 2.16,-4.248 2.16,-4.607 1.656,-4.752 1.44,-4.608 1.728,-4.752 0.936,-4.825 0.72,-4.823 0.504,-2.881 0.72,-5.975 0.216,-5.976 0.216,-6.049 -0.216,-5.975 -0.72,-6.264 -0.936,-5.761 -1.44,-5.975 -1.728,-5.76 -1.656,-5.76 -2.376,-5.76 -2.664,-5.256 -2.88,-5.544 -3.096,-5.04 -3.384,-5.04 -3.6,-4.752 -4.104,-4.825 -4.032,-4.103 -4.608,-4.032 -4.536,-3.888 -4.752,-3.601 -5.328,-3.311 -5.04,-3.168 -5.472,-2.592 -5.544,-2.448 -5.544,-2.16 -5.04,-1.657 -10.296,-3.095 -7.2,-1.224 -9.144,-1.224 h -8.856 l -9.144,0.72 -8.856,1.224 -8.64,1.656 -8.64,2.88 -8.352,3.168 -8.208,4.32 -7.416,4.752 -7.2,5.04 -6.984,6.048 -6.192,6.192 -6.048,6.984 -5.04,7.2 -4.752,7.632 -3.888,8.208 -3.312,8.352 -2.448,8.64 -2.16,8.64 -1.152,9.143 -0.504,8.857 0.216,8.928 1.224,8.856 1.44,8.855 2.664,8.641 3.096,8.424 3.816,8.351 4.32,7.705 5.04,7.416 5.544,6.984 6.264,6.479 6.48,6.481 3.096,2.664 1.224,0.936 1.872,1.44 2.16,1.439 2.16,1.441 2.16,1.223 2.16,1.441 z"
                         inkscape:connector-curvature="0" /></g></g></g></g><path
                 id="path8206"
                 style="fill:none;stroke:#3c4ba7;stroke-width:0.21600001;stroke-linecap:butt;stroke-linejoin:miter;stroke-miterlimit:2.41400003;stroke-dasharray:none;stroke-opacity:1"
                 d="m 354.734,630.177 4.608,2.159 4.32,2.161 4.536,1.944 4.536,1.656 4.536,1.44 4.824,1.44 4.824,1.008 4.752,0.935 5.04,0.721 4.824,0.216 4.824,0.288 h 5.039 l 4.753,-0.288 4.824,-0.216 5.04,-0.936 4.824,-0.72 4.752,-1.224 4.608,-1.224 4.536,-1.657 4.536,-1.439 4.104,-1.944 3.384,-1.44 3.6,-1.656 3.6,-1.944 1.872,-1.152 2.448,-1.44 2.376,-1.728 2.376,-1.656 2.159,-1.44 2.377,-1.944 2.16,-1.656 h -0.216 l 4.32,-3.601 4.32,-4.103 3.384,-3.312 3.096,-3.384 3.096,-3.816 2.879,-4.104 2.665,-4.104 2.88,-4.032 2.16,-4.609 2.16,-4.248 2.16,-4.607 1.656,-4.752 1.44,-4.608 1.728,-4.752 0.936,-4.825 0.72,-4.823 0.504,-2.881 0.72,-5.975 0.216,-5.976 0.216,-6.049 -0.216,-5.975 -0.72,-6.264 -0.936,-5.761 -1.44,-5.975 -1.728,-5.76 -1.656,-5.76 -2.376,-5.76 -2.664,-5.256 -2.88,-5.544 -3.096,-5.04 -3.384,-5.04 -3.6,-4.752 -4.104,-4.825 -4.032,-4.103 -4.608,-4.032 -4.536,-3.888 -4.752,-3.601 -5.328,-3.311 -5.04,-3.168 -5.472,-2.592 -5.544,-2.448 -5.544,-2.16 -5.04,-1.657 -10.296,-3.095 -7.2,-1.224 -9.144,-1.224 h -8.856 l -9.144,0.72 -8.856,1.224 -8.64,1.656 -8.64,2.88 -8.352,3.168 -8.208,4.32 -7.416,4.752 -7.2,5.04 -6.984,6.048 -6.192,6.192 -6.048,6.984 -5.04,7.2 -4.752,7.632 -3.888,8.208 -3.312,8.352 -2.448,8.64 -2.16,8.64 -1.152,9.143 -0.504,8.857 0.216,8.928 1.224,8.856 1.44,8.855 2.664,8.641 3.096,8.424 3.816,8.351 4.32,7.705 5.04,7.416 5.544,6.984 6.264,6.479 6.48,6.481 3.096,2.664 1.224,0.936 1.872,1.44 2.16,1.439 2.16,1.441 2.16,1.223 2.16,1.441 z"
                 inkscape:connector-curvature="0" /><path
                 id="path8208"
                 style="fill:#ceeff2;fill-opacity:1;fill-rule:evenodd;stroke:none"
                 d="m 431.774,424.113 -1.44,3.095 3.384,1.657 v 3.168 l -1.224,-0.72 2.376,7.632 2.448,2.88 0.936,5.328 1.944,8.856 -0.288,3.384 -9.072,4.752 -2.16,5.76 -5.04,4.104 1.872,3.816 -1.656,0.216 0.504,1.728 1.44,2.88 2.376,3.6 v 3.816 l -1.945,2.376 -1.655,-1.152 -1.944,0.215 v 1.945 l 1.944,-0.288 1.44,1.007 3.383,-1.727 2.161,4.607 4.032,2.593 0.72,-3.6 1.44,2.879 2.664,-0.215 5.544,0.215 3.096,1.945 0.216,-1.945 3.168,-1.151 5.256,-1.944 3.816,0.936 3.168,-0.72 1.656,-1.44 v -5.473 h 1.656 l 1.44,3.097 h 4.104 l 1.224,-0.504 5.256,1.944 5.04,-0.72 1.872,0.72 0.504,-3.6 -0.504,-3.384 -1.152,-2.88 -1.44,-2.376 -1.224,-2.664 -0.505,-6.192 -1.439,-3.6 -1.656,-2.664 -3.096,-2.16 -3.384,-2.592 -1.872,-3.385 -1.728,-3.095 -3.096,-3.6 -2.88,-3.6 -2.664,-2.448 -2.88,-0.936 -2.88,0.216 v -0.936 l 1.728,-1.656 v -1.441 l -5.544,-2.159 -3.6,-1.728 -0.504,-1.872 h -1.872 l -0.504,-1.224 h 1.656 l -0.432,-0.72 -4.32,-2.881 -1.224,-1.655 1.656,-1.225 -5.257,-1.943 z"
                 inkscape:connector-curvature="0" /><path
                 id="path8210"
                 style="fill:#ceeff2;fill-opacity:1;fill-rule:evenodd;stroke:none"
                 d="m 422.63,493.449 h -1.872 l -1.728,3.095 v 4.825 h -2.376 l -2.376,-0.72 -2.448,0.935 1.728,3.601 0.72,4.104 h -2.16 l -1.44,-0.72 -1.944,-3.6 h -4.536 l -2.448,2.159 -1.152,5.473 0.432,5.04 3.6,2.447 6.048,-1.223 v 1.656 h 5.976 l 2.159,-0.937 0.721,-3.095 1.944,-1.728 0.936,0.504 -0.216,2.16 -1.728,4.104 0.504,2.376 1.44,2.16 2.88,3.096 -0.504,2.16 1.439,4.104 2.665,3.6 0.503,3.096 4.321,3.383 -0.72,2.881 -2.448,1.224 -2.592,-2.88 2.16,4.536 3.096,0.72 2.376,1.656 1.728,1.943 -1.944,3.097 -4.824,1.224 -3.6,3.599 -0.936,-2.376 -3.096,0.721 -2.448,4.319 -2.592,-1.439 v -4.104 l 1.872,-3.6 -1.872,-2.88 1.44,-3.816 -1.944,-1.224 -1.944,5.544 -6.48,2.376 -1.44,-0.216 v 2.376 h -0.72 l 0.288,3.096 1.151,2.88 2.449,1.728 v 1.655 l 1.152,-1.943 -0.433,-1.152 1.153,-0.504 1.008,0.935 2.16,0.288 -3.168,2.161 -0.216,0.936 1.44,2.664 v 3.096 l 2.88,-0.937 1.656,-1.727 0.72,-2.88 -1.872,-0.937 v -0.719 l 6.48,-1.945 0.72,1.225 -1.44,1.224 h 1.656 l -0.216,1.44 -2.664,1.151 0.504,1.009 2.16,-1.009 0.432,1.945 -4.032,1.44 -1.44,2.376 -5.544,1.224 v 0.935 h -1.944 l -0.72,-0.935 -0.72,1.223 -1.44,-2.664 1.44,-0.935 v -0.504 l 1.007,-0.72 0.721,-1.656 -1.224,-1.729 -1.44,2.449 -2.16,3.6 -0.72,-0.72 0.72,-3.168 -0.72,-1.656 v 1.656 l -1.656,0.503 v -1.223 l 0.936,-0.432 -2.376,-0.504 -3.168,1.44 -1.44,-0.72 -2.592,1.224 v 1.656 l -2.448,1.656 h -1.44 l -1.872,2.159 -3.888,0.288 -1.152,3.529 -1.44,3.599 v 1.441 l -1.944,0.72 -2.16,-0.432 -1.656,1.152 -1.44,-3.816 -1.728,0.72 0.504,0.936 -1.656,0.72 -1.008,-1.872 1.008,-1.44 -1.008,-0.72 -1.44,0.432 -1.656,0.504 -2.592,-2.16 1.152,-0.937 -2.16,-1.439 1.44,-0.937 0.288,-2.447 h -4.824 l -2.88,1.944 1.224,-1.44 4.032,-1.656 h 3.6 l 3.816,0.72 0.72,-0.504 -2.376,-0.216 1.656,-1.008 h 1.944 l -0.504,-0.937 2.664,-3.599 0.216,-5.76 -0.936,-5.761 2.376,-6.479 -1.656,5.975 0.216,3.601 1.008,-0.216 0.72,-4.536 1.152,-4.608 -0.216,-3.096 -0.504,2.376 -1.152,-0.432 0.432,-0.72 -3.6,-10.8 1.224,-6.048 0.72,-2.592 1.944,-2.88 1.656,-6.48 -0.504,-1.008 2.663,-2.376 v -2.16 l 1.945,-3.384 1.152,0.72 -1.44,2.88 -2.592,6.263 -0.288,3.097 1.44,-1.656 3.6,-6.985 2.88,-4.535 0.719,-2.664 h -0.719 l 2.16,-3.6 4.608,-3.096 3.096,-1.656 h 2.664 l 3.096,-0.72 3.384,-2.16 5.04,-0.72 0.936,-1.944 h 2.88 l -1.224,-0.504 0.72,-1.872 2.448,-0.72 3.312,-1.225 z"
                 inkscape:connector-curvature="0" /><path
                 id="path8212"
                 style="fill:#ceeff2;fill-opacity:1;fill-rule:evenodd;stroke:none"
                 d="m 427.238,509.721 -2.664,1.44 -2.16,0.504 -1.225,0.72 -1.439,-0.217 -0.432,-0.503 -1.944,-0.72 -0.72,-1.656 1.944,1.44 1.152,0.216 1.439,-0.504 h 1.441 l 2.16,-0.72 1.439,-0.936 v -0.936 l 1.441,0.72 2.16,0.216 z"
                 inkscape:connector-curvature="0" /><path
                 id="path8214"
                 style="fill:#ceeff2;fill-opacity:1;fill-rule:evenodd;stroke:none"
                 d="m 426.014,506.121 -0.504,-0.72 1.44,-0.432 1.728,0.216 0.216,0.72 z"
                 inkscape:connector-curvature="0" /><path
                 id="path8216"
                 style="fill:#ceeff2;fill-opacity:1;fill-rule:evenodd;stroke:none"
                 d="m 432.494,509 v -0.935 l -1.656,-1.44 h 2.88 l 0.216,-0.72 0.936,1.44 3.168,0.72 -0.72,0.72 -1.944,0.504 -1.224,0.432 z"
                 inkscape:connector-curvature="0" /><path
                 id="path8218"
                 style="fill:#ceeff2;fill-opacity:1;fill-rule:evenodd;stroke:none"
                 d="m 440.63,508.281 1.44,0.504 0.504,0.504 -0.216,0.432 -1.224,-0.721 -1.44,0.289 -0.216,-0.504 z"
                 inkscape:connector-curvature="0" /><path
                 id="path8220"
                 style="fill:#4a73c1;fill-opacity:1;fill-rule:evenodd;stroke:none"
                 d="m 414.998,543.128 -0.504,1.657 h -1.224 l -0.72,0.936 -0.936,0.288 -3.385,-3.384 2.665,0.936 0.503,-0.936 2.377,0.216 0.72,-0.432 -2.376,-1.224 -0.288,-1.225 0.288,-3.599 0.72,-0.432 0.72,0.936 v 3.095 l 0.72,1.441 0.432,0.72 0.72,-0.216 0.72,-0.72 0.288,-0.936 -0.288,-1.224 0.72,0.216 0.504,-0.936 0.504,1.224 v 0.935 h 0.935 l 0.505,0.721 -0.288,0.936 -1.152,0.504 -1.224,-0.216 -0.936,0.432 z"
                 inkscape:connector-curvature="0" /><path
                 id="path8222"
                 style="fill:#4a73c1;fill-opacity:1;fill-rule:evenodd;stroke:none"
                 d="m 422.918,539.529 0.72,1.872 h -1.224 l -0.936,-1.441 -0.72,0.504 -1.008,-0.935 z"
                 inkscape:connector-curvature="0" /><path
                 id="path8224"
                 style="fill:#4a73c1;fill-opacity:1;fill-rule:evenodd;stroke:none"
                 d="m 419.03,536.361 -2.592,-0.72 0.936,1.943 h 1.656 l 0.72,0.721 0.72,-0.217 z"
                 inkscape:connector-curvature="0" /><path
                 id="path8226"
                 style="fill:#ceeff2;fill-opacity:1;fill-rule:evenodd;stroke:none"
                 d="m 435.374,547.161 -1.224,-1.657 -1.656,-2.376 1.224,-0.503 0.936,2.16 1.944,1.44 0.215,0.936 z"
                 inkscape:connector-curvature="0" /><path
                 id="path8228"
                 style="fill:#ceeff2;fill-opacity:1;fill-rule:evenodd;stroke:none"
                 d="m 437.03,549.105 1.44,0.72 3.6,0.216 0.504,0.503 -0.936,1.657 -0.288,1.224 h -3.6 l -0.72,0.936 z"
                 inkscape:connector-curvature="0" /><path
                 id="path8230"
                 style="fill:#ceeff2;fill-opacity:1;fill-rule:evenodd;stroke:none"
                 d="m 395.99,582.225 -2.16,-3.097 1.224,-0.719 1.224,0.216 0.72,0.936 -0.288,-1.656 1.44,-1.656 -1.656,0.215 0.216,-1.439 2.448,-1.944 1.44,0.288 h 2.88 l -0.289,2.16 -0.719,1.152 v 1.944 l -1.44,-0.216 -0.72,1.44 -1.44,0.432 -0.936,1.728 -0.72,0.648 z"
                 inkscape:connector-curvature="0" /><path
                 id="path8232"
                 style="fill:#ceeff2;fill-opacity:1;fill-rule:evenodd;stroke:none"
                 d="m 404.198,577.401 0.72,-0.72 h 0.936 l 1.944,1.008 0.936,1.439 h -1.44 l -0.72,-1.007 -0.72,1.224 -0.936,0.504 z"
                 inkscape:connector-curvature="0" /><path
                 id="path8234"
                 style="fill:#ceeff2;fill-opacity:1;fill-rule:evenodd;stroke:none"
                 d="m 398.438,584.097 0.72,-0.721 0.936,-1.872 4.104,-0.935 0.432,0.935 h 1.224 l 1.656,-0.935 1.944,-0.288 3.096,0.288 v 2.376 l 1.224,3.816 0.504,3.816 0.72,0.719 -1.224,0.288 -1.656,-0.719 -2.16,-0.504 -1.44,-3.096 0.432,-1.009 -0.216,-1.439 0.504,-0.216 0.72,0.216 -1.008,-1.872 -0.936,2.16 -2.16,1.151 -0.72,-0.431 0.504,-1.224 0.936,-0.504 0.936,0.504 -0.432,-2.376 -1.008,0.72 -1.872,-1.224 -0.72,1.224 -1.44,-0.72 -1.008,1.151 v 1.945 z"
                 inkscape:connector-curvature="0" /><path
                 id="path8236"
                 style="fill:#ceeff2;fill-opacity:1;fill-rule:evenodd;stroke:none"
                 d="m 414.494,590.145 v -1.944 h 0.504 l -0.504,-1.945 0.936,-2.88 h 1.728 l 1.872,0.289 2.159,-0.72 2.881,-2.664 1.224,0.504 0.72,-0.216 -0.216,-1.224 0.216,-0.72 1.224,0.503 0.432,-1.439 v -1.225 l 1.944,-2.376 1.656,-1.007 2.16,-2.592 2.16,-0.504 1.008,0.216 1.656,-0.216 v 0.935 l -1.441,4.825 -1.223,1.224 0.72,2.376 -0.216,1.944 0.504,2.808 -1.44,3.168 -0.72,-1.009 -1.224,1.225 0.216,0.72 h 1.008 v 0.504 l -1.944,1.152 -0.72,1.727 -3.816,1.873 -2.16,0.288 -3.168,2.376 -2.16,0.719 -0.216,-1.223 -1.656,0.504 -1.008,-0.504 -0.936,-0.936 v -1.656 l -0.936,-1.729 z"
                 inkscape:connector-curvature="0" /><path
                 id="path8238"
                 style="fill:#ceeff2;fill-opacity:1;fill-rule:evenodd;stroke:none"
                 d="m 440.414,585.825 -0.216,-1.44 h 1.872 l 0.72,-1.224 1.728,0.719 0.72,2.161 -0.72,2.16 -2.16,0.216 -0.72,-2.376 v -0.72 z"
                 inkscape:connector-curvature="0" /><path
                 id="path8240"
                 style="fill:#ceeff2;fill-opacity:1;fill-rule:evenodd;stroke:none"
                 d="m 359.558,578.121 h -1.224 l -2.16,1.728 0.288,0.432 3.096,-1.656 z"
                 inkscape:connector-curvature="0" /><path
                 id="path8242"
                 style="fill:#ceeff2;fill-opacity:1;fill-rule:evenodd;stroke:none"
                 d="m 354.014,583.161 0.72,-0.936 -0.936,-0.216 -0.504,1.367 0.288,0.289 h 0.432 z"
                 inkscape:connector-curvature="0" /><path
                 id="path8244"
                 style="fill:#ceeff2;fill-opacity:1;fill-rule:evenodd;stroke:none"
                 d="m 449.27,636.441 -4.536,1.439 -4.536,1.657 -4.608,1.224 -4.752,1.224 -4.824,0.72 -5.04,0.936 -4.824,0.216 -4.753,0.288 h -5.039 l -4.824,-0.288 -4.824,-0.216 -5.04,-0.721 -4.752,-0.935 -4.824,-1.008 -4.824,-1.44 -4.536,-1.44 -4.536,-1.656 -4.536,-1.944 -4.32,-2.161 -4.608,-2.159 0.504,-2.16 -1.656,-0.936 -0.504,-2.376 2.88,-4.608 3.6,-2.16 -4.824,-0.216 -3.6,0.72 0.288,-1.656 3.816,0.432 -1.224,-1.656 2.16,0.504 2.88,1.152 3.6,-1.152 -2.16,1.872 3.384,1.224 0.504,1.224 0.72,0.72 1.152,-0.72 1.224,0.936 0.936,-3.384 0.72,-3.312 -2.16,-3.384 0.288,-1.44 -2.16,-0.505 -0.289,-1.655 2.449,-0.936 0.432,-2.161 h -1.656 l 1.224,-2.159 1.44,-1.009 -3.168,0.289 -1.44,2.591 -3.816,2.664 -3.816,-0.503 -1.224,-0.72 h -3.096 l 1.656,-0.936 h 0.936 l 0.72,-1.656 1.008,0.216 0.935,-0.72 0.937,-0.504 0.504,0.504 1.44,-0.721 1.656,0.217 0.504,0.72 1.656,-0.72 0.719,-2.16 -0.719,-2.592 4.32,-2.448 0.72,-1.872 2.376,1.152 1.728,-0.217 -1.44,-1.943 v -2.592 h 2.592 l 1.44,2.376 -0.216,1.224 2.16,4.032 1.224,2.88 h -1.44 l 2.16,4.319 7.2,5.545 0.216,2.663 3.095,2.161 h 4.321 v 0.936 l 3.6,0.936 3.888,1.944 -1.44,-1.656 -0.72,-2.449 1.152,-1.151 4.32,1.44 7.488,5.04 -1.441,1.152 4.033,-0.216 0.504,-0.936 1.44,0.936 0.72,2.88 2.376,2.376 h 1.008 l -2.665,-3.816 -1.439,-3.6 2.376,0.935 2.16,1.441 -0.432,1.944 2.88,-1.944 1.152,-1.441 -0.216,1.441 2.376,-0.937 2.88,2.664 2.664,2.161 2.88,2.376 2.88,2.376 3.096,2.16 2.88,1.944 3.384,2.16 z"
                 inkscape:connector-curvature="0" /><path
                 id="path8246"
                 style="fill:#ceeff2;fill-opacity:1;fill-rule:evenodd;stroke:none"
                 d="m 343.718,621.105 2.376,-0.72 1.944,0.432 0.504,-1.152 1.872,-1.728 -0.936,-0.433 -1.224,-0.719 -1.441,-1.945 -0.215,-1.223 0.72,-1.657 h -0.72 l -0.936,2.665 0.216,0.936 -0.72,1.439 0.936,0.937 1.008,1.728 -1.008,0.432 -1.44,-0.432 v -0.72 l -2.88,-0.504 -0.936,0.935 -3.096,-0.935 3.096,2.664 z"
                 inkscape:connector-curvature="0" /><path
                 id="path8248"
                 style="fill:#ceeff2;fill-opacity:1;fill-rule:evenodd;stroke:none"
                 d="m 388.358,609.296 1.44,0.288 -0.72,-1.727 0.216,-0.937 2.376,1.441 1.224,0.72 -0.72,0.936 h -3.6 l -0.72,0.504 -0.504,-0.216 z"
                 inkscape:connector-curvature="0" /><path
                 id="path8250"
                 style="fill:#4a73c1;fill-opacity:1;fill-rule:evenodd;stroke:none"
                 d="m 389.798,639.537 -1.44,-0.936 -0.504,-2.664 v -1.872 h 0.72 l 0.504,2.16 0.72,2.376 1.152,0.936 z"
                 inkscape:connector-curvature="0" /><path
                 id="path8252"
                 style="fill:#7bd3dd;fill-opacity:1;fill-rule:evenodd;stroke:none"
                 d="m 390.95,640.256 h 0.504 l 0.216,0.721 z"
                 inkscape:connector-curvature="0" /><path
                 id="path8254"
                 style="fill:none;stroke:#7bd3dd;stroke-width:0.21600001;stroke-linecap:butt;stroke-linejoin:miter;stroke-miterlimit:2.41400003;stroke-dasharray:none;stroke-opacity:1"
                 d="m 390.95,640.256 h 0.504 l 0.216,0.721 z"
                 inkscape:connector-curvature="0" /><path
                 id="path8256"
                 style="fill:#ceeff2;fill-opacity:1;fill-rule:evenodd;stroke:none"
                 d="m 427.67,619.88 2.88,2.664 2.664,2.161 2.88,2.376 2.88,2.376 3.096,2.16 2.88,1.944 3.384,2.16 0.936,0.72 4.104,-1.944 -0.504,-1.872 1.224,-1.44 3.6,-1.728 0.216,-0.72 2.88,-1.153 0.72,0.433 -0.216,0.72 0.72,0.504 1.944,0.216 1.872,-1.152 2.448,-1.44 2.376,-1.728 2.376,-1.656 2.159,-1.44 2.377,-1.944 2.16,-1.656 -0.72,-1.224 1.728,-1.44 1.152,-3.817 1.224,-2.664 0.216,-1.151 -5.04,-0.504 v -1.224 l 1.224,-1.152 v -1.009 l 2.88,1.009 0.936,-1.44 1.944,-1.44 -0.72,-1.009 -1.44,1.009 -0.72,-1.009 -3.816,-0.431 -1.944,-2.448 -2.376,-1.657 1.224,-0.935 1.872,0.72 v 0.432 l 1.44,0.72 1.944,1.44 h 0.936 l -0.216,-1.44 1.872,-0.72 0.72,-2.16 -1.656,1.224 -1.656,-0.216 -1.728,-2.16 -3.312,-1.944 0.936,-1.656 v -2.664 l 3.384,-4.105 1.44,-4.031 2.16,-1.224 -0.288,-5.04 -1.152,-1.152 -0.72,-1.728 h -1.44 l -3.096,2.448 -2.664,2.16 -0.72,1.655 0.72,1.945 0.72,1.872 -0.216,1.728 -2.448,2.088 -3.6,-1.44 v 2.664 h -1.152 l 0.432,1.223 -0.216,1.873 -1.44,-0.216 v -3.6 h -0.72 l -1.224,0.72 -2.161,0.72 -4.031,0.503 -3.168,0.937 -0.72,2.664 v 0.936 l 1.008,-1.44 1.44,0.936 1.656,-0.936 4.536,0.936 3.384,-0.936 -2.88,5.256 -5.04,1.943 -0.72,1.945 h 3.816 l 0.719,1.44 -1.871,5.04 -3.888,1.152 v 1.944 l -1.657,1.223 -1.223,-1.727 -1.656,2.16 -2.376,1.44 2.376,-4.32 -2.664,-0.72 -4.752,2.16 -0.504,-1.44 8.424,-3.816 h 4.751 l 2.449,-2.376 h -2.88 l -2.448,-0.72 1.944,-2.448 -0.72,-1.152 -3.6,0.72 -2.376,1.872 -2.448,2.448 -3.816,0.72 -7.2,4.032 v 5.04 l 0.719,3.383 h 1.441 l 0.504,-2.663 h 1.656 l 1.944,1.44 v 2.448 l -1.008,-1.225 -1.152,1.225 h -2.16 l -1.44,0.935 -2.16,-1.223 h -1.944 l 1.944,1.727 -1.224,0.721 h -4.104 z"
                 inkscape:connector-curvature="0" /><path
                 id="path8258"
                 style="fill:#4a73c1;fill-opacity:1;fill-rule:evenodd;stroke:none"
                 d="m 448.334,611.241 0.936,1.656 -0.432,0.72 h -1.224 l -0.504,-1.872 z"
                 inkscape:connector-curvature="0" /><path
                 id="path8260"
                 style="fill:#ceeff2;fill-opacity:1;fill-rule:evenodd;stroke:none"
                 d="m 461.294,585.537 2.16,-1.44 v -3.312 l -0.936,1.224 -2.448,0.432 0.288,0.504 -1.008,1.152 v 1.44 z"
                 inkscape:connector-curvature="0" /><path
                 id="path8262"
                 style="fill:#4a73c1;fill-opacity:1;fill-rule:evenodd;stroke:none"
                 d="m 465.614,620.097 h -2.664 l 2.664,-1.152 1.44,-0.504 v -0.937 l 0.72,-1.727 -0.504,-1.656 4.608,-1.657 2.376,-2.447 2.376,1.008 -1.441,2.592 -2.159,2.16 -1.44,3.599 -0.432,3.385 -2.88,1.656 -0.504,-1.152 v -1.44 l -0.504,-2.449 z"
                 inkscape:connector-curvature="0" /><path
                 id="path8264"
                 style="fill:#ceeff2;fill-opacity:1;fill-rule:evenodd;stroke:none"
                 d="m 484.334,591.584 1.656,1.657 v 0.936 l -1.44,1.224 z"
                 inkscape:connector-curvature="0" /><path
                 id="path8266"
                 style="fill:#ceeff2;fill-opacity:1;fill-rule:evenodd;stroke:none"
                 d="m 494.63,604.041 3.096,-3.816 2.879,-4.104 2.665,-4.104 2.88,-4.032 2.16,-4.609 2.16,-4.248 2.16,-4.607 1.656,-4.752 1.44,-4.608 1.728,-4.752 0.936,-4.825 0.72,-4.823 -1.944,-2.376 -0.72,-6.984 -2.16,-4.032 -3.312,-4.608 -5.328,-1.44 -1.656,1.44 -5.04,0.72 -2.88,2.88 -0.936,4.103 -3.384,4.536 -2.88,11.088 -0.72,5.04 -1.944,2.593 -0.72,4.32 -1.656,2.664 1.656,2.664 v 16.272 l 4.32,-3.097 1.224,2.881 3.384,4.32 -2.16,1.872 -1.728,3.383 1.008,8.425 z"
                 inkscape:connector-curvature="0" /><g
                 id="g8268"><g
                   id="g8270" /><g
                   id="g8272"><g
                     id="g8274"
                     clip-path="url(#clipPath3777)"
                     style="opacity:0.58000201"><path
                       id="path8276"
                       style="fill:none;stroke:#75d3f6;stroke-width:0.21600001;stroke-linecap:butt;stroke-linejoin:miter;stroke-miterlimit:2.41400003;stroke-dasharray:none;stroke-opacity:1"
                       d="M 409.454,644.145 V 421.665"
                       inkscape:connector-curvature="0" /><path
                       id="path8278"
                       style="fill:none;stroke:#75d3f6;stroke-width:0.21600001;stroke-linecap:butt;stroke-linejoin:miter;stroke-miterlimit:2.41400003;stroke-dasharray:none;stroke-opacity:1"
                       d="m 406.07,610.737 -1.152,4.608 -1.44,4.752 -1.44,4.608 -1.44,4.536 -1.728,4.32 -1.872,4.536 -2.16,5.04"
                       inkscape:connector-curvature="0" /><path
                       id="path8280"
                       style="fill:none;stroke:#75d3f6;stroke-width:0.21600001;stroke-linecap:butt;stroke-linejoin:miter;stroke-miterlimit:2.41400003;stroke-dasharray:none;stroke-opacity:1"
                       d="m 402.974,610.017 -1.656,3.384 -1.944,3.384 -1.656,3.312 -1.944,3.168 -2.377,3.312 -1.943,2.88 -2.376,3.383 -2.448,2.664 -2.592,3.097 -2.16,2.16"
                       inkscape:connector-curvature="0" /><path
                       id="path8282"
                       style="fill:none;stroke:#75d3f6;stroke-width:0.21600001;stroke-linecap:butt;stroke-linejoin:miter;stroke-miterlimit:2.41400003;stroke-dasharray:none;stroke-opacity:1"
                       d="m 400.598,608.865 -2.448,2.88 -2.376,2.591 -2.377,2.881 -5.327,5.327 -2.592,2.161 -2.88,2.376 -3.168,2.376 -2.88,2.16 -3.096,1.944 -3.096,1.943 -1.656,1.153"
                       inkscape:connector-curvature="0" /><path
                       id="path8284"
                       style="fill:none;stroke:#75d3f6;stroke-width:0.21600001;stroke-linecap:butt;stroke-linejoin:miter;stroke-miterlimit:2.41400003;stroke-dasharray:none;stroke-opacity:1"
                       d="m 398.654,607.641 -2.88,2.16 -2.664,2.159 -2.881,2.161 -3.095,1.944 -3.096,1.872 -2.88,1.728 -3.168,1.656 -3.312,1.44 -3.168,1.656 -3.312,1.224 -3.385,1.224 -3.311,1.152 -3.384,0.72 -4.104,0.72"
                       inkscape:connector-curvature="0" /><path
                       id="path8286"
                       style="fill:none;stroke:#75d3f6;stroke-width:0.21600001;stroke-linecap:butt;stroke-linejoin:miter;stroke-miterlimit:2.41400003;stroke-dasharray:none;stroke-opacity:1"
                       d="m 340.118,620.385 h 4.32 l 4.824,-0.288 5.04,-0.721 4.32,-0.431 5.04,-1.224 3.816,-0.936 3.6,-0.72 3.816,-1.225 3.816,-1.223 3.6,-1.153 3.6,-1.439 3.6,-1.729 3.6,-1.439 3.6,-1.872"
                       inkscape:connector-curvature="0" /><path
                       id="path8288"
                       style="fill:none;stroke:#75d3f6;stroke-width:0.21600001;stroke-linecap:butt;stroke-linejoin:miter;stroke-miterlimit:2.41400003;stroke-dasharray:none;stroke-opacity:1"
                       d="m 325.718,605.985 5.76,1.656 4.32,1.224 4.32,0.719 4.104,0.433 4.32,0.504 4.32,0.216 4.32,-0.216 h 4.32 l 6.48,-0.504 4.032,-0.721 3.816,-0.431 4.104,-0.72 3.816,-1.008 4.104,-0.936 3.6,-0.936 3.816,-1.224"
                       inkscape:connector-curvature="0" /><path
                       id="path8290"
                       style="fill:none;stroke:#75d3f6;stroke-width:0.21600001;stroke-linecap:butt;stroke-linejoin:miter;stroke-miterlimit:2.41400003;stroke-dasharray:none;stroke-opacity:1"
                       d="m 312.974,588.417 2.88,2.16 3.888,1.944 4.032,1.943 3.888,1.872 4.032,1.441 4.32,1.44 4.104,1.224 4.32,0.935 4.32,0.721 4.32,0.72 6.696,0.504 4.32,0.216 4.32,0.288 h 4.32 l 4.32,-0.288 4.32,-0.216 4.536,-0.216 4.319,-0.504 4.105,-0.504"
                       inkscape:connector-curvature="0" /><path
                       id="path8292"
                       style="fill:none;stroke:#75d3f6;stroke-width:0.21600001;stroke-linecap:butt;stroke-linejoin:miter;stroke-miterlimit:2.41400003;stroke-dasharray:none;stroke-opacity:1"
                       d="m 302.174,563 4.104,4.825 3.096,2.88 3.168,3.096 3.312,2.88 3.384,2.664 3.384,2.376 4.032,2.376 3.888,1.944 4.032,1.944 4.32,1.872 4.824,1.944 4.824,1.944 4.752,1.44 4.824,1.151 5.04,1.225 5.256,0.936 4.824,0.503 5.04,0.504 5.256,0.217 5.04,0.216 5.256,-0.216"
                       inkscape:connector-curvature="0" /><path
                       id="path8294"
                       style="fill:none;stroke:#75d3f6;stroke-width:0.21600001;stroke-linecap:butt;stroke-linejoin:miter;stroke-miterlimit:2.41400003;stroke-dasharray:none;stroke-opacity:1"
                       d="m 301.454,504.681 1.224,6.768 1.44,4.752 1.656,4.824 1.728,4.536 1.872,4.607 2.16,4.537 2.448,4.536 2.592,4.104 2.664,4.104 3.096,4.032 3.168,3.888 3.311,3.816 3.601,3.384 3.6,3.311 3.888,3.385 2.88,2.376 4.031,2.88 4.321,3.168 4.608,2.88 4.32,2.376 4.751,2.376 4.537,2.16 4.824,2.16 5.04,1.655 4.536,1.729 5.04,1.439 5.04,1.153"
                       inkscape:connector-curvature="0" /><path
                       id="path8296"
                       style="fill:none;stroke:#75d3f6;stroke-width:0.21600001;stroke-linecap:butt;stroke-linejoin:miter;stroke-miterlimit:2.41400003;stroke-dasharray:none;stroke-opacity:1"
                       d="m 297.854,535.641 2.448,4.608 2.376,4.032 2.376,4.104 2.88,3.816 3.168,3.887 2.88,3.601 6.912,6.912 3.6,3.168 3.888,2.88 3.816,2.88 4.104,2.376 4.32,2.88 4.536,2.591 4.536,2.161 4.608,2.16 4.752,1.944 4.824,1.655 4.824,1.729 4.752,1.152 5.256,1.224 5.04,1.224 4.824,0.432 5.04,0.72"
                       inkscape:connector-curvature="0" /><path
                       id="path8298"
                       style="fill:none;stroke:#75d3f6;stroke-width:0.21600001;stroke-linecap:butt;stroke-linejoin:miter;stroke-miterlimit:2.41400003;stroke-dasharray:none;stroke-opacity:1"
                       d="m 398.87,422.385 -1.44,7.703 -1.152,8.137 -0.288,8.424 -0.432,8.424 -0.504,8.352 v 8.424 l 0.216,8.352 0.504,8.424 0.504,12.24 0.72,12.24 1.152,12.24 1.224,12.239 0.504,5.257 1.44,11.088 1.44,11.016 1.872,10.8 1.944,10.799"
                       inkscape:connector-curvature="0" /><path
                       id="path8300"
                       style="fill:none;stroke:#75d3f6;stroke-width:0.21600001;stroke-linecap:butt;stroke-linejoin:miter;stroke-miterlimit:2.41400003;stroke-dasharray:none;stroke-opacity:1"
                       d="m 385.694,424.113 -2.16,9.576 -1.224,7.92 -0.936,7.92 -0.72,7.704 -0.504,7.92 v 7.92 l 0.288,7.416 0.432,7.92 0.504,5.976 0.936,7.199 1.224,8.857 1.655,9.143 1.729,9.145 1.44,6.191 1.44,6.985 1.656,6.48 1.943,7.92 2.377,7.92 2.664,7.704 2.88,7.632 2.88,7.416"
                       inkscape:connector-curvature="0" /><path
                       id="path8302"
                       style="fill:none;stroke:#75d3f6;stroke-width:0.21600001;stroke-linecap:butt;stroke-linejoin:miter;stroke-miterlimit:2.41400003;stroke-dasharray:none;stroke-opacity:1"
                       d="m 372.734,427.712 -2.376,6.697 -1.656,5.256 -1.224,5.76 -1.224,5.76 -0.72,5.76 v 1.727 l -0.432,6.481 0.216,6.192 0.216,6.48 0.72,6.263 1.008,6.481 1.44,9.576 1.152,7.416 1.944,7.704 1.656,7.416 2.16,7.487 2.376,7.416 3.888,10.296 3.6,8.208 3.6,8.137 4.032,7.92 4.104,8.136 4.32,7.416"
                       inkscape:connector-curvature="0" /><path
                       id="path8304"
                       style="fill:none;stroke:#75d3f6;stroke-width:0.21600001;stroke-linecap:butt;stroke-linejoin:miter;stroke-miterlimit:2.41400003;stroke-dasharray:none;stroke-opacity:1"
                       d="m 358.622,433.689 -1.728,4.824 -1.656,5.04 -1.44,5.256 -1.224,5.04 -0.72,5.256 -0.72,5.04 -0.216,5.544 v 5.256 l 0.216,5.256 0.72,5.328 0.72,5.256 1.44,6.984 1.224,5.976 1.656,5.976 1.44,5.76 1.944,5.76 2.16,5.759 2.375,5.544 2.449,5.544 1.44,3.313 3.312,6.264 3.096,6.264 3.6,6.48 3.6,5.759 4.104,5.977 4.104,5.76 4.32,5.76 4.32,5.255"
                       inkscape:connector-curvature="0" /><path
                       id="path8306"
                       style="fill:none;stroke:#75d3f6;stroke-width:0.21600001;stroke-linecap:butt;stroke-linejoin:miter;stroke-miterlimit:2.41400003;stroke-dasharray:none;stroke-opacity:1"
                       d="m 312.542,477.105 -0.72,7.416 v 4.824 l 0.432,4.823 0.504,4.537 0.72,4.536 1.224,4.608 1.152,4.536 1.944,5.04 1.944,5.039 1.655,4.536 2.377,4.609 2.448,4.752 2.88,4.32 3.096,4.104 2.88,4.32 3.384,4.103 3.312,3.817 3.6,3.6 3.888,4.104 4.032,3.6 3.888,3.6 4.32,3.096 4.536,3.384 4.32,3.095 4.752,2.593 4.824,2.88 4.824,2.448 4.752,2.376 5.04,1.944"
                       inkscape:connector-curvature="0" /><path
                       id="path8308"
                       style="fill:none;stroke:#75d3f6;stroke-width:0.21600001;stroke-linecap:butt;stroke-linejoin:miter;stroke-miterlimit:2.41400003;stroke-dasharray:none;stroke-opacity:1"
                       d="m 327.374,457.449 -1.656,7.704 -0.72,6.696 -0.72,5.976 -0.504,5.759 0.72,5.761 0.504,4.104 0.936,4.752 1.008,4.824 1.44,4.536 1.656,4.824 1.656,4.535 2.448,6.985 2.879,5.544 2.593,5.256 3.168,5.255 3.312,5.329 3.6,5.04 3.6,4.752 3.888,4.824 4.032,4.824 5.76,5.472 4.536,4.104 4.32,3.816 4.824,3.6 4.824,3.6 5.04,3.096 5.04,3.384"
                       inkscape:connector-curvature="0" /><path
                       id="path8310"
                       style="fill:none;stroke:#75d3f6;stroke-width:0.21600001;stroke-linecap:butt;stroke-linejoin:miter;stroke-miterlimit:2.41400003;stroke-dasharray:none;stroke-opacity:1"
                       d="m 343.214,443.048 -1.44,4.105 -1.44,4.32 -1.152,4.536 -0.72,4.32 -0.288,4.824 -0.72,4.32 -0.216,4.536 0.216,4.535 0.288,3.601 0.432,5.04 0.72,5.544 0.72,5.472 1.44,5.544 1.44,5.255 2.664,7.705 2.88,7.416 3.096,6.264 2.88,5.976 3.168,5.76 3.312,5.759 3.384,5.545 3.816,5.76 2.16,2.376 3.384,4.607 3.6,4.321 3.816,4.32 3.816,4.031 4.104,3.817 4.32,3.887 4.32,3.601"
                       inkscape:connector-curvature="0" /><path
                       id="path8312"
                       style="fill:none;stroke:#75d3f6;stroke-width:0.21600001;stroke-linecap:butt;stroke-linejoin:miter;stroke-miterlimit:2.41400003;stroke-dasharray:none;stroke-opacity:1"
                       d="m 393.614,597.777 6.48,0.504 4.536,0.216 h 4.824"
                       inkscape:connector-curvature="0" /><path
                       id="path8314"
                       style="fill:none;stroke:#75d3f6;stroke-width:0.21600001;stroke-linecap:butt;stroke-linejoin:miter;stroke-miterlimit:2.41400003;stroke-dasharray:none;stroke-opacity:1"
                       d="m 425.078,597.777 -6.48,0.72 h -9.144"
                       inkscape:connector-curvature="0" /><path
                       id="path8316"
                       style="fill:none;stroke:#75d3f6;stroke-width:0.21600001;stroke-linecap:butt;stroke-linejoin:miter;stroke-miterlimit:2.41400003;stroke-dasharray:none;stroke-opacity:1"
                       d="m 412.55,610.737 1.224,4.608 1.44,4.752 1.44,4.608 1.44,4.536 1.656,4.536 1.728,4.608 2.16,4.752"
                       inkscape:connector-curvature="0" /><path
                       id="path8318"
                       style="fill:none;stroke:#75d3f6;stroke-width:0.21600001;stroke-linecap:butt;stroke-linejoin:miter;stroke-miterlimit:2.41400003;stroke-dasharray:none;stroke-opacity:1"
                       d="m 415.43,610.017 1.944,3.384 1.656,3.384 1.944,3.312 1.944,3.168 2.16,3.312 2.16,2.88 2.376,3.383 2.376,2.664 2.664,3.097 1.656,1.943"
                       inkscape:connector-curvature="0" /><path
                       id="path8320"
                       style="fill:none;stroke:#75d3f6;stroke-width:0.21600001;stroke-linecap:butt;stroke-linejoin:miter;stroke-miterlimit:2.41400003;stroke-dasharray:none;stroke-opacity:1"
                       d="m 418.094,609.081 2.16,2.664 2.376,2.591 2.664,2.881 2.376,2.663"
                       inkscape:connector-curvature="0" /><path
                       id="path8322"
                       style="fill:none;stroke:#75d3f6;stroke-width:0.21600001;stroke-linecap:butt;stroke-linejoin:miter;stroke-miterlimit:2.41400003;stroke-dasharray:none;stroke-opacity:1"
                       d="m 420.038,607.641 2.88,2.16 2.88,2.159 2.592,2.161 3.168,1.944 2.88,1.872 3.312,1.728 3.168,1.656 3.096,1.44 3.096,1.656 3.384,1.224 3.384,1.224 3.311,1.152 3.601,1.008 2.664,0.432"
                       inkscape:connector-curvature="0" /><path
                       id="path8324"
                       style="fill:none;stroke:#75d3f6;stroke-width:0.21600001;stroke-linecap:butt;stroke-linejoin:miter;stroke-miterlimit:2.41400003;stroke-dasharray:none;stroke-opacity:1"
                       d="m 477.134,620.385 h -2.88 l -4.824,-0.288 -5.04,-0.721 -4.32,-0.431 -5.04,-1.008 -3.816,-1.152 -3.817,-0.72 -3.887,-1.225 -3.6,-1.223 -3.6,-1.153 -3.6,-1.439 -3.6,-1.441 -3.6,-1.727 -3.6,-1.872"
                       inkscape:connector-curvature="0" /><path
                       id="path8326"
                       style="fill:none;stroke:#75d3f6;stroke-width:0.21600001;stroke-linecap:butt;stroke-linejoin:miter;stroke-miterlimit:2.41400003;stroke-dasharray:none;stroke-opacity:1"
                       d="m 492.254,606.417 -5.04,1.224 -4.104,1.224 -4.32,0.719 -4.536,0.433 -4.104,0.504 -4.32,0.216 h -4.32 l -4.321,-0.216 -6.479,-0.504 -4.032,-0.433 -3.888,-0.719 -4.032,-0.72 -3.888,-1.008 -4.032,-0.936 -3.6,-0.936 -3.888,-1.224"
                       inkscape:connector-curvature="0" /><path
                       id="path8328"
                       style="fill:none;stroke:#75d3f6;stroke-width:0.21600001;stroke-linecap:butt;stroke-linejoin:miter;stroke-miterlimit:2.41400003;stroke-dasharray:none;stroke-opacity:1"
                       d="m 505.934,588.201 -3.384,2.376 -3.6,1.944 -4.104,1.943 -3.816,1.872 -4.104,1.729 -4.321,1.152 -4.031,1.224 -4.32,0.935 -4.32,1.009 -4.32,0.432 -6.696,0.504 -4.32,0.216 -4.32,0.288 h -4.32 l -4.608,-0.288 h -4.32 l -4.032,-0.432 -4.608,-0.504 -4.32,-0.504"
                       inkscape:connector-curvature="0" /><path
                       id="path8330"
                       style="fill:none;stroke:#75d3f6;stroke-width:0.21600001;stroke-linecap:butt;stroke-linejoin:miter;stroke-miterlimit:2.41400003;stroke-dasharray:none;stroke-opacity:1"
                       d="m 516.229,563.504 -3.599,4.321 -3.384,2.88 -3.096,3.096 -3.384,2.88 -3.312,2.664 -3.6,2.376 -3.888,2.376 -3.816,1.944 -3.816,2.16 -4.32,1.944 -4.825,1.656 -4.751,1.944 -5.041,1.44 -5.039,1.44 -4.824,0.936 -5.04,0.936 -5.256,0.72 -5.04,0.504 -5.04,0.216 h -5.04 l -5.328,-0.216"
                       inkscape:connector-curvature="0" /><path
                       id="path8332"
                       style="fill:none;stroke:#75d3f6;stroke-width:0.21600001;stroke-linecap:butt;stroke-linejoin:miter;stroke-miterlimit:2.41400003;stroke-dasharray:none;stroke-opacity:1"
                       d="m 517.166,504.969 -1.44,6.48 -1.152,4.752 -1.728,4.824 -1.657,4.536 -1.943,4.824 -2.16,4.32 -2.592,4.536 -2.448,4.104 -2.592,4.104 -3.168,4.032 -3.097,4.103 -3.383,3.601 -3.6,3.384 -3.601,3.599 -3.815,3.097 -2.88,2.376 -4.32,3.168 -4.032,2.88 -4.32,2.88 -4.824,2.376 -4.32,2.376 -4.824,2.376 -4.752,1.944 -4.824,1.655 -5.04,1.729 -5.04,1.439 -5.04,1.153"
                       inkscape:connector-curvature="0" /><path
                       id="path8334"
                       style="fill:none;stroke:#75d3f6;stroke-width:0.21600001;stroke-linecap:butt;stroke-linejoin:miter;stroke-miterlimit:2.41400003;stroke-dasharray:none;stroke-opacity:1"
                       d="m 520.55,535.929 -1.945,4.32 -2.376,4.032 -2.663,4.104 -2.88,3.816 -2.88,3.887 -3.312,3.817 -3.168,3.384 -3.6,3.312 -3.6,3.168 -3.816,2.88 -3.816,2.88 -4.104,2.376 -4.536,2.88 -4.32,2.591 -4.536,2.161 -4.608,2.16 -4.752,1.944 -4.825,1.655 -4.823,1.729 -5.04,1.152 -4.752,1.224 -5.328,1.224 -4.752,0.72 -5.04,0.432"
                       inkscape:connector-curvature="0" /><path
                       id="path8336"
                       style="fill:none;stroke:#75d3f6;stroke-width:0.21600001;stroke-linecap:butt;stroke-linejoin:miter;stroke-miterlimit:2.41400003;stroke-dasharray:none;stroke-opacity:1"
                       d="m 419.75,422.385 1.224,7.703 1.224,8.137 0.72,8.424 0.432,8.424 0.288,8.352 v 8.424 l -0.288,8.352 -0.432,8.424 -0.288,2.879 v 1.945 l -0.216,7.416 -0.72,12.24 -1.224,12.24 -1.152,12.239 -0.505,5.257 -1.439,11.088 -1.44,11.016 -1.656,10.8 -2.16,10.799"
                       inkscape:connector-curvature="0" /><path
                       id="path8338"
                       style="fill:none;stroke:#75d3f6;stroke-width:0.21600001;stroke-linecap:butt;stroke-linejoin:miter;stroke-miterlimit:2.41400003;stroke-dasharray:none;stroke-opacity:1"
                       d="m 433.214,424.833 1.944,8.856 1.152,8.136 1.008,7.704 0.72,7.92 0.216,7.704 0.216,7.92 -0.216,7.632 -0.504,7.704 -0.432,5.976 -0.72,7.199 -1.44,8.857 -1.728,9.143 -1.656,9.145 -1.44,6.191 -1.656,6.985 -1.44,6.48 -2.16,7.92 -2.16,7.92 -2.664,7.704 -2.88,7.632 -2.88,7.416"
                       inkscape:connector-curvature="0" /><path
                       id="path8340"
                       style="fill:none;stroke:#75d3f6;stroke-width:0.21600001;stroke-linecap:butt;stroke-linejoin:miter;stroke-miterlimit:2.41400003;stroke-dasharray:none;stroke-opacity:1"
                       d="m 446.39,428.649 1.944,5.76 1.44,5.256 1.44,5.76 0.936,5.76 1.008,5.76 v 1.727 l 0.216,6.481 v 6.192 l -0.504,6.48 -0.432,6.48 -1.008,6.264 -1.44,9.576 -1.44,7.416 -1.656,7.704 -1.944,7.416 -2.16,7.704 -2.16,7.199 -3.817,10.296 -3.599,8.425 -3.6,7.92 -4.104,7.92 -4.032,8.136 -4.32,7.416"
                       inkscape:connector-curvature="0" /><path
                       id="path8342"
                       style="fill:none;stroke:#75d3f6;stroke-width:0.21600001;stroke-linecap:butt;stroke-linejoin:miter;stroke-miterlimit:2.41400003;stroke-dasharray:none;stroke-opacity:1"
                       d="m 460.358,434.409 1.656,4.104 1.44,5.04 1.44,5.256 0.936,5.04 1.008,5.256 0.432,5.04 0.288,5.76 v 5.04 l -0.288,5.544 -0.432,5.256 -1.008,5.255 -1.152,6.769 -1.224,5.976 -1.44,5.976 -1.656,5.76 -1.944,5.76 -2.16,5.759 -2.376,5.544 -2.664,5.544 -1.224,3.313 -3.096,6.264 -3.6,6.264 -3.384,6.48 -3.816,5.759 -3.816,5.977 -4.104,5.76 -4.32,5.76 -4.32,5.255"
                       inkscape:connector-curvature="0" /><path
                       id="path8344"
                       style="fill:none;stroke:#75d3f6;stroke-width:0.21600001;stroke-linecap:butt;stroke-linejoin:miter;stroke-miterlimit:2.41400003;stroke-dasharray:none;stroke-opacity:1"
                       d="m 506.15,477.825 0.504,2.664 v 8.856 l -0.288,4.823 -0.432,4.537 -1.008,4.536 -0.936,4.824 -1.44,4.32 -1.656,5.04 -1.944,5.039 -1.944,4.536 -2.376,4.609 -2.376,4.752 -2.88,4.32 -2.664,4.319 -3.384,4.105 -3.097,4.103 -3.599,3.817 -3.6,3.815 -3.6,3.889 -3.816,3.6 -4.32,3.6 -4.105,3.096 -4.535,3.384 -4.536,3.095 -4.608,2.593 -4.536,2.88 -4.824,2.448 -5.04,2.376 -5.04,1.944"
                       inkscape:connector-curvature="0" /><path
                       id="path8346"
                       style="fill:none;stroke:#75d3f6;stroke-width:0.21600001;stroke-linecap:butt;stroke-linejoin:miter;stroke-miterlimit:2.41400003;stroke-dasharray:none;stroke-opacity:1"
                       d="m 491.534,458.168 0.72,3.097 0.72,3.888 0.936,6.696 0.216,5.976 0.504,5.759 -0.504,5.977 -0.72,4.104 -0.72,4.824 -1.152,4.752 -1.224,4.32 -1.656,4.824 -1.728,4.535 -2.592,6.985 -2.664,5.544 -2.88,5.256 -3.096,5.544 -3.384,5.04 -3.312,5.04 -3.888,5.04 -3.816,4.536 -3.816,4.824 -5.76,5.472 -4.608,4.104 -4.536,3.816 -4.536,3.6 -4.824,3.6 -5.04,3.384 -5.256,3.096"
                       inkscape:connector-curvature="0" /><path
                       id="path8348"
                       style="fill:none;stroke:#75d3f6;stroke-width:0.21600001;stroke-linecap:butt;stroke-linejoin:miter;stroke-miterlimit:2.41400003;stroke-dasharray:none;stroke-opacity:1"
                       d="m 475.189,443.553 1.441,3.6 1.656,4.32 1.008,4.536 0.72,4.32 0.72,4.824 0.432,4.32 0.288,4.536 -0.288,4.535 -0.216,3.601 -0.216,5.04 -0.72,5.544 -1.224,5.472 -1.224,5.544 -1.368,5.255 -2.664,7.92 -3.096,7.489 -2.88,5.976 -2.88,5.976 -3.168,5.76 -3.312,5.759 -3.6,5.545 -3.888,5.76 -1.872,2.376 -3.384,4.607 -3.816,4.537 -3.6,4.104 -3.888,4.031 -4.032,4.105 -4.32,3.599 -4.32,3.601"
                       inkscape:connector-curvature="0" /><path
                       id="path8350"
                       style="fill:none;stroke:#75d3f6;stroke-width:0.21600001;stroke-linecap:butt;stroke-linejoin:miter;stroke-miterlimit:2.41400003;stroke-dasharray:none;stroke-opacity:1"
                       d="m 472.094,441.609 -6.697,-2.16 -7.487,-1.44 -7.416,-1.944 -7.416,-1.152 -7.488,-0.504 -7.632,-0.72 -7.488,-0.504 h -7.632 l -3.6,-0.216 h -3.384 l -7.704,0.216 -7.416,0.504 -7.704,0.72 -7.416,0.504 -7.416,1.152 -7.416,1.944 -7.488,1.44 -8.136,2.16"
                       inkscape:connector-curvature="0" /><path
                       id="path8352"
                       style="fill:none;stroke:#75d3f6;stroke-width:0.21600001;stroke-linecap:butt;stroke-linejoin:miter;stroke-miterlimit:2.41400003;stroke-dasharray:none;stroke-opacity:1"
                       d="m 494.846,461.769 -8.64,-3.601 -6.696,-2.159 -7.2,-2.376 -7.2,-2.16 -7.2,-1.728 -7.2,-1.657 -7.2,-1.223 -7.416,-0.936 -7.2,-0.721 -7.416,-0.719 -7.488,-0.216 -4.752,-0.288 -4.608,0.288 h -7.416 l -7.416,0.72 -7.488,0.936 -7.2,0.936 -7.416,1.223 -7.2,1.657 -7.2,1.728 -6.912,2.16 -7.2,2.159 -6.984,2.376 -8.64,3.601"
                       inkscape:connector-curvature="0" /><path
                       id="path8354"
                       style="fill:none;stroke:#75d3f6;stroke-width:0.21600001;stroke-linecap:butt;stroke-linejoin:miter;stroke-miterlimit:2.41400003;stroke-dasharray:none;stroke-opacity:1"
                       d="m 509.75,484.521 -6.48,-4.032 -5.256,-3.168 -5.544,-3.096 -5.76,-2.592 -5.544,-2.664 -5.977,-2.376 -7.919,-2.448 -6.696,-1.872 -6.984,-1.729 -6.696,-1.439 -6.696,-1.152 -6.984,-0.72 -7.2,-0.72 -7.416,-0.504 h -18.504 l -7.416,0.504 -7.489,0.72 -6.479,0.72 -6.912,1.152 -6.696,1.439 -6.984,1.729 -6.984,1.872 -7.92,2.448 -5.472,2.376 -6.048,2.664 -5.472,2.592 -6.048,3.096 -5.04,3.168 -6.192,3.599"
                       inkscape:connector-curvature="0" /><path
                       id="path8356"
                       style="fill:none;stroke:#75d3f6;stroke-width:0.21600001;stroke-linecap:butt;stroke-linejoin:miter;stroke-miterlimit:2.41400003;stroke-dasharray:none;stroke-opacity:1"
                       d="m 518.39,509.504 -3.6,-4.319 -2.88,-2.88 -3.6,-2.664 -3.384,-3.097 -3.096,-2.159 -3.601,-2.376 -4.319,-2.664 -5.256,-2.881 -5.76,-2.88 -5.76,-2.664 -5.76,-2.376 -5.76,-1.943 -5.976,-1.872 -6.264,-1.656 -6.48,-1.44 -6.696,-1.44 -6.48,-0.72 -6.768,-0.721 -6.696,-0.503 h -6.48 l -4.32,-0.504 h -4.536 l -6.48,0.504 -6.768,0.503 -6.696,0.721 -6.696,0.72 -6.264,1.44 -6.912,1.44 -5.76,1.656 -6.048,1.872 -5.976,1.943 -5.76,2.376 -5.76,2.664 -5.76,2.88 -5.04,2.881 -4.824,2.664 -3.6,2.376 -2.88,2.159 -3.312,2.881 -3.888,2.88 -2.592,2.88 -3.6,4.104"
                       inkscape:connector-curvature="0" /><path
                       id="path8358"
                       style="fill:none;stroke:#75d3f6;stroke-width:0.21600001;stroke-linecap:butt;stroke-linejoin:miter;stroke-miterlimit:2.41400003;stroke-dasharray:none;stroke-opacity:1"
                       d="M 520.766,531.825 517.67,527 l -3.096,-3.815 -3.385,-3.816 -3.383,-3.6 -3.6,-3.601 -3.816,-3.168 -4.104,-3.095 -4.032,-2.88 -4.32,-2.664 -4.104,-2.592 -4.32,-1.944 -5.76,-2.664 -5.76,-2.376 -5.761,-2.16 -5.975,-1.944 -5.976,-1.656 -6.264,-1.441 -5.976,-0.935 -6.048,-1.224 -6.192,-0.72 -6.264,-0.216 -6.264,-0.288 h -14.112 l -6.264,0.504 -6.264,0.72 -5.976,0.936 -6.264,1.223 -5.976,1.441 -5.976,1.656 -5.976,1.944 -5.76,2.16 -5.76,2.16 -5.76,2.88 -4.32,1.944 -4.104,2.592 -4.536,2.664 -3.888,2.88 -4.032,2.88 -3.888,3.383 -3.601,3.601 -3.311,3.6 -3.384,3.816 -3.097,3.815 -3.383,5.329"
                       inkscape:connector-curvature="0" /><path
                       id="path8360"
                       style="fill:none;stroke:#75d3f6;stroke-width:0.21600001;stroke-linecap:butt;stroke-linejoin:miter;stroke-miterlimit:2.41400003;stroke-dasharray:none;stroke-opacity:1"
                       d="m 518.174,555.801 -1.945,-5.76 -2.159,-4.032 -2.16,-3.888 -2.376,-3.816 -2.664,-3.6 -2.664,-3.6 -3.096,-3.384 -3.096,-3.096 -4.104,-3.6 -4.536,-3.384 -4.32,-3.097 -4.825,-3.095 -4.751,-2.664 -4.824,-2.664 -5.04,-2.376 -4.32,-1.944 -5.76,-1.872 -5.976,-1.728 -6.048,-1.657 -5.76,-1.223 -6.192,-0.936 -6.264,-0.72 -2.664,-0.216 -3.312,-0.504 -6.264,-0.216 h -7.704 l -5.976,0.216 -6.264,0.504 -5.976,0.936 -5.976,0.936 -6.264,1.223 -5.76,1.657 -5.976,1.728 -5.761,1.872 -4.535,1.944 -4.824,2.376 -4.824,2.448 -4.752,2.88 -4.824,3.095 -4.32,3.097 -4.32,3.384 -4.32,3.6 -3.384,3.096 -2.88,3.384 -2.592,3.6 -2.88,3.6 -2.448,3.816 -1.872,3.888 -1.944,4.032 -1.657,3.888 -0.503,2.592"
                       inkscape:connector-curvature="0" /><path
                       id="path8362"
                       style="fill:none;stroke:#75d3f6;stroke-width:0.21600001;stroke-linecap:butt;stroke-linejoin:miter;stroke-miterlimit:2.41400003;stroke-dasharray:none;stroke-opacity:1"
                       d="m 510.254,580.281 -0.504,-5.76 -0.504,-3.816 -0.936,-3.6 -1.224,-4.105 -1.44,-3.599 -1.44,-3.6 -1.872,-3.6 -1.944,-3.096 -2.376,-3.384 -0.72,-1.152 -2.664,-3.384 -2.88,-3.384 -3.096,-3.312 -3.168,-2.88 -3.312,-2.88 -3.6,-2.664 -3.816,-2.376 -3.6,-2.16 -4.104,-1.945 -3.816,-1.943 -5.04,-2.16 -5.04,-2.16 -5.04,-1.656 -5.04,-1.224 -5.544,-1.656 -5.256,-0.72 -5.328,-0.72 -5.761,-0.72 -5.039,-0.504 h -13.68 l -5.256,0.288 -5.544,0.936 -5.472,0.72 -5.04,0.72 -5.544,1.656 -5.04,1.224 -5.04,1.656 -5.256,2.16 -4.536,2.16 -4.104,1.943 -4.104,1.945 -3.816,2.16 -3.6,2.376 -3.6,2.664 -3.096,2.88 -3.384,2.88 -3.096,3.312 -3.168,3.384 -2.377,3.384 -1.223,1.152 -1.872,3.168 -1.944,3.312 -1.944,3.6 -1.656,3.6 -1.44,3.599 -0.936,3.889 -1.008,3.816 -0.432,3.816 -0.288,5.76"
                       inkscape:connector-curvature="0" /><path
                       id="path8364"
                       style="fill:none;stroke:#75d3f6;stroke-width:0.21600001;stroke-linecap:butt;stroke-linejoin:miter;stroke-miterlimit:2.41400003;stroke-dasharray:none;stroke-opacity:1"
                       d="m 496.07,602.385 0.504,-1.44 0.936,-4.32 0.216,-4.608 0.288,-4.32 -0.288,-4.321 -0.432,-4.248 -1.008,-4.103 -1.152,-4.32 -1.44,-4.104 -1.944,-4.032 -1.656,-3.168 -2.88,-4.032 -2.88,-4.32 -3.6,-3.888 -3.384,-3.6 -3.816,-3.312 -4.104,-3.384 -4.32,-2.88 -4.32,-2.376 -4.536,-2.448 -6.696,-2.88 -6.048,-1.872 -5.76,-1.728 -5.976,-1.44 -6.264,-1.153 -6.192,-0.504 -9.864,-0.719 -10.08,0.504 -6.264,0.719 -5.976,1.153 -6.264,1.44 -5.76,1.728 -5.976,1.872 -6.696,2.88 -4.536,2.448 -4.32,2.376 -4.32,2.88 -4.104,3.095 -3.816,3.601 -3.6,3.6 -3.168,3.888 -3.096,4.032 -2.88,4.32 -1.656,3.168 -1.944,4.032 -1.656,4.104 -1.224,4.104 -0.721,4.319 -0.503,4.248 -0.72,4.321 0.504,4.32 0.719,4.608 0.721,4.032 0.504,1.944"
                       inkscape:connector-curvature="0" /><path
                       id="path8366"
                       style="fill:none;stroke:#75d3f6;stroke-width:0.21600001;stroke-linecap:butt;stroke-linejoin:miter;stroke-miterlimit:2.41400003;stroke-dasharray:none;stroke-opacity:1"
                       d="m 472.813,623.985 1.945,-2.88 1.872,-3.168 1.944,-3.312 1.655,-3.384 1.225,-3.6 1.151,-3.6 0.721,-3.6 0.72,-5.04 0.288,-3.6 v -3.6 l -0.504,-3.6 -0.72,-3.601 -0.72,-3.311 -1.224,-3.384 -1.44,-3.385 -0.936,-1.871 -2.16,-3.6 -2.376,-3.168 -2.376,-3.312 -2.88,-3.168 -3.168,-2.881 -3.096,-2.879 -3.096,-2.592 -3.6,-2.16 -4.32,-2.664 -4.608,-2.161 -4.752,-1.655 -4.608,-1.728 -4.752,-1.44 -5.04,-1.152 -5.04,-1.008 -4.824,-0.433 -5.04,-0.287 h -7.416 l -5.04,0.287 -5.04,0.433 -4.824,1.008 -5.04,1.152 -4.824,1.224 -4.752,1.656 -4.608,1.943 -4.536,2.161 -4.536,2.664 -3.384,2.16 -3.312,2.592 -3.168,2.664 -2.88,2.879 -2.881,3.385 -2.591,3.312 -2.16,3.168 -2.448,3.6 -0.72,1.871 -1.44,3.385 -1.152,3.384 -0.72,3.311 -0.72,3.601 -0.288,3.6 v 6.984 l 0.72,5.256 0.72,3.6 1.224,3.6 1.224,3.6 1.656,3.384 1.656,3.312 2.16,3.168 2.16,2.88 1.944,2.376"
                       inkscape:connector-curvature="0" /><path
                       id="path8368"
                       style="fill:none;stroke:#75d3f6;stroke-width:0.21600001;stroke-linecap:butt;stroke-linejoin:miter;stroke-miterlimit:2.41400003;stroke-dasharray:none;stroke-opacity:1"
                       d="m 409.238,643.641 5.76,-0.504 4.536,-0.432 4.536,-0.72 4.32,-1.008 4.32,-1.44 4.32,-1.44 4.32,-1.656 3.888,-2.16 3.312,-2.376 3.384,-2.664 5.976,-5.976 2.664,-3.168 2.376,-3.312 2.447,-3.6 1.153,-2.16 1.224,-2.88 0.936,-3.384 0.72,-3.096 0.504,-3.384 v -6.697 l -0.504,-3.167 -0.432,-3.312 -1.008,-3.096 -0.936,-3.169 -0.504,-0.935 -1.656,-3.096 -1.656,-2.88 -2.16,-3.168 -2.16,-2.593 -2.664,-2.664 -2.664,-2.376 -2.88,-2.159 -3.096,-1.944 -3.096,-1.656 -1.44,-0.72 -3.889,-1.944 -3.815,-1.656 -3.816,-1.44 -3.888,-1.224 -4.32,-0.936 -4.032,-0.72 -4.32,-0.288 -6.984,-0.216 -4.32,0.216 -4.32,0.288 -3.816,0.72 -4.608,0.936 -3.816,1.224 -4.104,1.44 -3.816,1.656 -3.6,1.944 -1.44,0.72 -3.384,1.656 -2.808,1.944 -2.88,2.159 -2.664,2.376 -2.376,2.376 -2.448,2.881 -1.872,2.88 -2.16,3.168 -1.44,3.096 -0.504,0.72 -0.936,3.384 -1.008,3.096 -0.72,3.096 -0.216,3.383 v 6.697 l 0.504,3.384 0.72,3.096 0.936,3.096 1.224,3.168 1.152,2.16 2.448,3.6 2.376,3.312 2.664,3.168 2.88,3.096 3.096,2.88 3.312,2.664 3.384,2.376 3.816,2.16 4.32,1.656 4.32,1.44 4.319,1.224 4.321,1.224 4.608,0.72 4.536,0.432 z"
                       inkscape:connector-curvature="0" /><path
                       id="path8370"
                       style="fill:none;stroke:#75d3f6;stroke-width:0.21600001;stroke-linecap:butt;stroke-linejoin:miter;stroke-miterlimit:2.41400003;stroke-dasharray:none;stroke-opacity:1"
                       d="m 409.454,633.057 h 4.32 l 3.6,-0.432 3.6,-0.72 3.6,-1.008 3.6,-1.152 3.384,-1.44 3.312,-1.728 3.168,-1.872 3.096,-1.944 0.936,-0.936 2.448,-2.16 2.16,-2.161 1.872,-2.447 1.944,-2.593 1.44,-2.88 1.224,-2.664 1.152,-3.095 0.503,-2.88 0.217,-2.88 -0.217,-2.88 -0.215,-2.88 -0.504,-2.88 -0.936,-2.881 -0.72,-2.447 -1.44,-2.593 -1.44,-2.376 -1.944,-2.447 -1.44,-1.656 -2.664,-2.376 -2.88,-2.448 -2.88,-2.16 -3.096,-1.873 -3.384,-1.439 -3.312,-1.44 -3.384,-1.224 -3.6,-0.937 -3.6,-0.503 -3.6,-0.216 -4.536,-0.288 h -4.608 l -3.6,0.504 -3.6,0.503 -3.312,0.937 -3.384,0.935 -3.6,1.729 -3.096,1.439 -3.168,1.873 -2.88,2.16 -2.88,2.16 -4.32,4.32 -1.656,2.447 -1.44,2.376 -1.44,2.376 -0.936,2.664 -0.72,2.881 -0.72,2.88 -0.216,2.88 v 2.88 l 0.216,2.88 0.504,2.592 1.152,3.168 1.224,2.879 1.656,2.88 1.44,2.376 2.16,2.664 2.16,2.161 2.376,2.16 1.008,0.719 3.096,2.161 3.096,1.872 3.384,1.728 3.6,1.44 3.384,1.152 3.6,1.008 3.6,0.72 3.6,0.215 4.32,0.217"
                       inkscape:connector-curvature="0" /><path
                       id="path8372"
                       style="fill:none;stroke:#75d3f6;stroke-width:0.21600001;stroke-linecap:butt;stroke-linejoin:miter;stroke-miterlimit:2.41400003;stroke-dasharray:none;stroke-opacity:1"
                       d="m 409.454,621.825 h 3.384 l 2.88,-0.288 2.88,-0.432 2.88,-1.008 2.592,-0.936 2.88,-1.224 2.447,-1.44 2.377,-1.657 1.224,-0.935 1.656,-1.945 1.44,-2.159 1.656,-2.16 1.008,-2.376 0.936,-2.664 0.72,-2.376 v -4.824 l -0.216,-2.16 -0.504,-1.945 -0.936,-1.871 -1.008,-2.16 -1.152,-1.728 -1.728,-1.44 -1.152,-1.152 -2.448,-1.945 -2.592,-1.655 -2.88,-1.44 -2.664,-1.224 -3.096,-0.936 -3.384,-0.72 -2.664,-0.72 h -9.36 l -2.592,0.72 -3.384,0.72 -3.096,0.936 -2.88,1.224 -2.664,1.44 -2.664,1.655 -2.376,1.945 -2.664,2.592 -1.44,1.728 -0.936,1.872 -0.72,2.159 -0.72,1.945 -0.504,2.16 v 2.16 l 0.288,2.664 0.72,2.376 0.936,2.376 1.224,2.448 1.152,2.159 1.728,2.376 1.872,1.657 1.008,1.008 2.376,1.872 2.376,1.44 2.664,1.224 2.88,0.936 2.88,1.008 2.88,0.432 2.88,0.288 h 3.384"
                       inkscape:connector-curvature="0" /><path
                       id="path8374"
                       style="fill:none;stroke:#75d3f6;stroke-width:0.21600001;stroke-linecap:butt;stroke-linejoin:miter;stroke-miterlimit:2.41400003;stroke-dasharray:none;stroke-opacity:1"
                       d="m 409.454,610.737 h 2.88 l 3.096,-0.72 3.6,-1.656 2.88,-2.376 1.728,-2.448 1.152,-2.592 0.288,-2.88 -0.288,-3.168 -1.44,-2.88 -2.88,-2.592 -3.816,-1.728 -3.6,-0.936 -3.6,-0.217 h -3.6 l -3.816,1.153 -3.888,1.728 -2.592,2.592 -1.728,2.88 -0.433,3.168 0.433,2.88 1.224,2.376 1.656,2.664 3.168,2.376 3.311,1.656 2.881,0.504 z"
                       inkscape:connector-curvature="0" /><path
                       id="path8376"
                       style="fill:none;stroke:#75d3f6;stroke-width:0.21600001;stroke-linecap:butt;stroke-linejoin:miter;stroke-miterlimit:2.41400003;stroke-dasharray:none;stroke-opacity:1"
                       d="m 426.229,618.225 4.321,4.319 2.664,2.161 2.88,2.376 2.88,2.376 3.096,2.16 2.88,1.944 3.384,2.16 0.936,0.72"
                       inkscape:connector-curvature="0" /></g></g></g><path
                 id="path8378"
                 style="fill:#4a73c1;fill-opacity:1;fill-rule:evenodd;stroke:none"
                 d="m 460.574,631.185 -3.816,1.872 -3.384,1.44 -0.504,-1.872 1.224,-1.44 3.6,-1.728 0.216,-0.72 2.88,-1.153 0.72,0.433 -0.216,0.72 0.72,0.504 1.944,0.216 z"
                 inkscape:connector-curvature="0" /><path
                 id="path8380"
                 style="fill:none;stroke:#4a73c1;stroke-width:0.21600001;stroke-linecap:butt;stroke-linejoin:miter;stroke-miterlimit:2.41400003;stroke-dasharray:none;stroke-opacity:1"
                 d="m 460.574,631.185 -3.816,1.872 -3.384,1.44 -0.504,-1.872 1.224,-1.44 3.6,-1.728 0.216,-0.72 2.88,-1.153 0.72,0.433 -0.216,0.72 0.72,0.504 1.944,0.216 z"
                 inkscape:connector-curvature="0" /><g
                 id="g8382"><g
                   id="g8384" /><g
                   id="g8386"><g
                     id="g8388"
                     clip-path="url(#clipPath3895)"
                     style="opacity:0.28999299"><g
                       id="g8390"><g
                         id="g8392"><g
                           id="g8394"><g
                             id="g8396"><path
                               id="path8398"
                               style="fill:url(#radialGradient8474);fill-rule:evenodd;stroke:none"
                               d="m 354.772,630.937 4.608,2.159 4.32,2.16 4.536,1.944 4.536,1.656 4.536,1.44 4.824,1.44 4.824,1.008 4.752,0.936 5.04,0.72 4.824,0.216 4.824,0.288 h 5.04 l 4.752,-0.288 4.824,-0.216 5.04,-0.936 4.824,-0.72 4.752,-1.223 4.608,-1.225 4.536,-1.656 4.536,-1.44 4.104,-1.944 3.384,-1.44 3.6,-1.656 3.6,-1.944 1.872,-1.152 2.448,-1.44 2.376,-1.728 2.376,-1.656 2.16,-1.44 2.376,-1.944 2.16,-1.656 h -0.216 l 4.32,-3.6 4.32,-4.104 3.384,-3.311 3.096,-3.385 3.096,-3.816 2.88,-4.104 2.664,-4.104 2.88,-4.032 2.16,-4.608 2.16,-4.248 2.16,-4.608 1.656,-4.752 1.44,-4.608 1.728,-4.752 0.936,-4.824 0.72,-4.823 0.504,-2.881 0.72,-5.976 0.216,-5.976 0.216,-6.049 -0.216,-5.974 -0.72,-6.264 -0.936,-5.762 -1.44,-5.974 -1.728,-5.76 -1.656,-5.76 -2.376,-5.762 -2.664,-5.256 -2.88,-5.543 -3.096,-5.041 -3.384,-5.039 -3.6,-4.752 -4.104,-4.824 -4.032,-4.103 -4.608,-4.033 -4.536,-3.887 -4.752,-3.602 -5.328,-3.31 -5.04,-3.168 -5.472,-2.592 -5.544,-2.449 -5.544,-2.16 -5.04,-1.657 -10.295,-3.095 -7.201,-1.223 -9.144,-1.224 h -8.856 l -9.144,0.72 -8.856,1.223 -8.64,1.656 -8.64,2.881 -8.352,3.168 -8.208,4.32 -7.416,4.752 -7.2,5.039 -6.984,6.049 -6.192,6.191 -6.048,6.985 -5.04,7.199 -4.752,7.633 -3.888,8.207 -3.312,8.351 -2.448,8.641 -2.16,8.641 -1.152,9.142 -0.504,8.858 0.216,8.927 1.224,8.856 1.44,8.856 2.664,8.64 3.096,8.424 3.816,8.352 4.32,7.704 5.04,7.416 5.544,6.984 6.264,6.48 6.48,6.48 3.096,2.664 1.224,0.936 1.872,1.44 2.16,1.44 2.16,1.44 2.16,1.224 2.16,1.44 z"
                               inkscape:connector-curvature="0" /></g></g></g></g><path
                       id="path8400"
                       style="fill:none;stroke:#176fc1;stroke-width:0.21600001;stroke-linecap:butt;stroke-linejoin:miter;stroke-miterlimit:2.41400003;stroke-dasharray:none;stroke-opacity:1"
                       d="m 354.772,630.937 4.608,2.159 4.32,2.16 4.536,1.944 4.536,1.656 4.536,1.44 4.824,1.44 4.824,1.008 4.752,0.936 5.04,0.72 4.824,0.216 4.824,0.288 h 5.04 l 4.752,-0.288 4.824,-0.216 5.04,-0.936 4.824,-0.72 4.752,-1.223 4.608,-1.225 4.536,-1.656 4.536,-1.44 4.104,-1.944 3.384,-1.44 3.6,-1.656 3.6,-1.944 1.872,-1.152 2.448,-1.44 2.376,-1.728 2.376,-1.656 2.16,-1.44 2.376,-1.944 2.16,-1.656 h -0.216 l 4.32,-3.6 4.32,-4.104 3.384,-3.311 3.096,-3.385 3.096,-3.816 2.88,-4.104 2.664,-4.104 2.88,-4.032 2.16,-4.608 2.16,-4.248 2.16,-4.608 1.656,-4.752 1.44,-4.608 1.728,-4.752 0.936,-4.824 0.72,-4.823 0.504,-2.881 0.72,-5.976 0.216,-5.976 0.216,-6.049 -0.216,-5.974 -0.72,-6.264 -0.936,-5.762 -1.44,-5.974 -1.728,-5.76 -1.656,-5.76 -2.376,-5.762 -2.664,-5.256 -2.88,-5.543 -3.096,-5.041 -3.384,-5.039 -3.6,-4.752 -4.104,-4.824 -4.032,-4.103 -4.608,-4.033 -4.536,-3.887 -4.752,-3.602 -5.328,-3.31 -5.04,-3.168 -5.472,-2.592 -5.544,-2.449 -5.544,-2.16 -5.04,-1.657 -10.295,-3.095 -7.201,-1.223 -9.144,-1.224 h -8.856 l -9.144,0.72 -8.856,1.223 -8.64,1.656 -8.64,2.881 -8.352,3.168 -8.208,4.32 -7.416,4.752 -7.2,5.039 -6.984,6.049 -6.192,6.191 -6.048,6.985 -5.04,7.199 -4.752,7.633 -3.888,8.207 -3.312,8.351 -2.448,8.641 -2.16,8.641 -1.152,9.142 -0.504,8.858 0.216,8.927 1.224,8.856 1.44,8.856 2.664,8.64 3.096,8.424 3.816,8.352 4.32,7.704 5.04,7.416 5.544,6.984 6.264,6.48 6.48,6.48 3.096,2.664 1.224,0.936 1.872,1.44 2.16,1.44 2.16,1.44 2.16,1.224 2.16,1.44 z"
                       inkscape:connector-curvature="0" /></g></g></g></g></g></g><path
           sodipodi:open="true"
           sodipodi:end="6.2814289"
           sodipodi:start="0.0011429136"
           transform="matrix(1.2667701,0,0,1.2667701,167.97609,-549.72501)"
           d="M 419.74509,842.33977 A 230,230 0 0 1 189.64908,1072.0769 230,230 0 0 1 -40.25475,842.14746 230,230 0 0 1 189.50798,612.07703 a 230,230 0 0 1 230.2369,229.5959"
           sodipodi:ry="230"
           sodipodi:rx="230"
           sodipodi:cy="842.0769"
           sodipodi:cx="189.74524"
           id="path8402"
           style="fill:none;stroke:#000000;stroke-width:8.68350124;stroke-linecap:round;stroke-linejoin:miter;stroke-miterlimit:10;stroke-dasharray:none;stroke-dashoffset:0;stroke-opacity:1"
           sodipodi:type="arc" /></g><path
         id="path8404"
         style="fill:none;stroke:#000000;stroke-width:9;stroke-linecap:round;stroke-linejoin:round;stroke-miterlimit:4;stroke-dasharray:none;stroke-opacity:1"
         d="m -931.50601,889.31236 c 50.4202,-24.94533 84.85542,-114.72012 109.73242,-190.79084 l 125.21894,-382.90363 m -284.62221,14.2071 c -26.19284,173.56179 74.76979,268.17069 159.33638,366.89402 l 143.12082,167.07974 M -1148.526,706.31098 c 47.571,50.93083 211.92072,52.5736 327.47319,-7.27533 l 278.2041,-144.09225"
         inkscape:connector-curvature="0"
         sodipodi:nodetypes="csccsccsc" /><g
         style="fill:#000000;fill-opacity:1"
         transform="matrix(0.0864786,0.16813782,-0.16813782,0.0864786,-624.84691,517.03787)"
         id="g8406"
         inkscape:label="Layer 1"
         inkscape:transform-center-x="50.798721"
         inkscape:transform-center-y="36.995465"><path
           inkscape:connector-curvature="0"
           d="m 372.74513,979.43631 c -1.08984,-13.51272 -2.78734,-30.87447 -3.77226,-38.58164 l -1.79075,-14.01302 -17.98929,-0.87709 -17.98927,-0.8771 -3.32407,-11.88843 c -1.91618,-6.85311 -5.40547,-12.28922 -8.23827,-12.83475 -3.81186,-0.73412 -70.79354,15.37954 -104.35058,25.1034 -4.62894,1.34134 -5.20636,-0.92586 -5.16504,-20.28119 l 0.0465,-21.79134 52.06889,-83.26457 52.06891,-83.26461 -0.11813,-25.4332 -0.11817,-25.43324 -82.52195,84.23983 c -45.38707,46.33189 -83.89528,84.18999 -85.57378,84.12911 -5.11321,-0.18544 -20.2848,-63.82228 -18.05259,-75.721 1.13136,-6.03062 19.91048,-37.88778 44.62596,-75.70393 27.63068,-42.27669 56.90695,-92.46172 83.05432,-142.37063 l 40.3817,-77.07886 2.0994,-33.50274 2.09941,-33.50275 h 17.08022 17.08018 l 1.89382,-13.81674 c 1.04158,-7.59925 1.89379,-26.39992 1.89379,-41.77933 0,-34.03753 7.94986,-144.60423 12.16887,-169.24459 3.60381,-21.04732 24.37655,-96.785716 26.54541,-96.785716 2.17165,0 22.9461,75.759356 26.54024,96.785716 4.31633,25.25115 12.16118,131.56186 12.19633,165.28021 0.0162,15.56016 0.87454,35.32678 1.90742,43.92582 l 1.87793,15.63463 h 17.12787 17.12782 l 2.08364,33.50275 2.08363,33.50274 40.52289,77.42858 c 25.68126,49.07014 54.98685,99.48263 80.0147,137.64401 45.16747,68.86944 48.67138,75.04987 48.67138,85.8494 0,12.18812 -15.91828,69.82903 -19.31572,69.94323 -1.6607,0.0558 -40.15054,-37.8023 -85.53305,-84.12912 l -82.51361,-84.23062 -0.08,25.31319 -0.08,25.31319 52.0689,83.26458 52.06889,83.26459 v 21.91137 c 0,19.45791 -0.58355,21.74228 -5.21154,20.40123 -23.54077,-6.82145 -99.06099,-25.69342 -102.81765,-25.69342 -4.6438,0 -5.71213,2.11929 -9.38263,18.61265 -1.75439,7.88326 -2.53002,8.18955 -20.73927,8.18955 h -18.91677 l -1.80831,14.14561 c -0.9946,7.78008 -2.70002,25.20152 -3.78987,38.71424 -1.08984,13.5128 -2.93626,24.56869 -4.1032,24.56869 -1.16695,0 -3.01337,-11.05589 -4.1032,-24.56869 z"
           id="path8408"
           style="fill:#000000;fill-opacity:1;stroke:#141747;stroke-opacity:1" /></g><path
         sodipodi:nodetypes="ccccscccsccccccccccscccccccccc"
         inkscape:connector-curvature="0"
         d="m -791.21985,838.72712 c -5.73704,-6.5091 -4.18055,-13.77679 0.62148,-19.76445 10.03266,-11.36 23.41262,-22.48458 35.67584,-33.22915 -11.38659,-14.32229 -17.80735,-22.46605 -27.09985,-34.45619 l -13.03691,11.22067 c -2.67406,2.30171 -6.15206,1.89523 -8.39304,-0.85019 -2.24117,-2.74522 -2.63116,-6.63287 0.75869,-9.75663 l 12.67106,-10.9056 c 10e-6,0 -0.71511,-4.21118 -0.39839,-5.19459 0.28044,-0.87082 0.30946,-1.13006 0.55829,-1.57906 l 73.2356,85.08986 c -6.39516,5.54809 -13.20004,-4.2718 -19.03829,-10.63381 l -37.99559,30.31226 c -5.33452,4.64554 -11.76445,6.31907 -17.55902,-0.25302 z m 104.9084,-90.29309 c -5.58144,-6.64335 -13.00071,-6.18536 -19.63677,-2.32865 -12.7276,8.22924 -25.72046,19.80353 -38.17136,30.33005 -12.46689,-13.39227 -19.56375,-20.95433 -30.03633,-31.92856 l 13.03689,-11.22067 c 2.67387,-2.30141 2.7902,-5.80123 0.40898,-8.42603 -2.3809,-2.6252 -6.16697,-3.58964 -9.7607,-0.70272 l -12.67116,10.9059 c 0,0 -4.05742,-1.33434 -5.07716,-1.1676 -0.90277,0.14805 -1.16348,0.13888 -1.6445,0.31696 l 73.23557,85.08996 c 6.43858,-5.49764 -2.25839,-13.68912 -7.68021,-20.40925 l 35.63174,-33.05848 c 5.38843,-4.58321 8.00094,-10.69242 2.36504,-17.40091 z"
         style="fill:#000000;fill-opacity:1;fill-rule:evenodd;stroke:#000000;stroke-width:1.26677012;stroke-opacity:1"
         id="path8410"
         inkscape:transform-center-x="-34.470724"
         inkscape:transform-center-y="35.762153" /><path
         style="fill:#000000;fill-opacity:1;stroke:#000000;stroke-width:6.10446692;stroke-linecap:round;stroke-linejoin:miter;stroke-miterlimit:4;stroke-dasharray:none;stroke-opacity:1"
         d="m -715.06189,336.71131 20.53901,-28.76466 1.36795,35.31834 c 0,0 -5.59864,2.01852 -11.96765,0.11327 -6.36901,-1.90535 -9.93931,-6.66695 -9.93931,-6.66695 z"
         id="path8412"
         inkscape:connector-curvature="0"
         sodipodi:nodetypes="ccczc"
         inkscape:transform-center-y="-15.12188"
         inkscape:transform-center-x="-1.6577636" /><path
         inkscape:transform-center-x="-13.229172"
         inkscape:transform-center-y="-4.3268503"
         sodipodi:nodetypes="ccczc"
         inkscape:connector-curvature="0"
         id="path8414"
         d="m -568.84822,555.70143 34.82631,-6.03152 -23.8459,26.08879 c 0,0 -5.40177,-2.49817 -8.59409,-8.32934 -3.19231,-5.83128 -2.38632,-11.72793 -2.38632,-11.72793 z"
         style="fill:#000000;fill-opacity:1;stroke:#000000;stroke-width:6.10446692;stroke-linecap:round;stroke-linejoin:miter;stroke-miterlimit:4;stroke-dasharray:none;stroke-opacity:1" /><path
         style="fill:#000000;fill-opacity:1;stroke:#000000;stroke-width:6.10446692;stroke-linecap:round;stroke-linejoin:miter;stroke-miterlimit:4;stroke-dasharray:none;stroke-opacity:1"
         d="m -665.9674,860.61017 13.53851,32.64896 -30.69195,-17.52857 c 0,0 1.24971,-5.81874 6.23677,-10.2148 4.98704,-4.39596 10.91667,-4.90559 10.91667,-4.90559 z"
         id="path8416"
         inkscape:connector-curvature="0"
         sodipodi:nodetypes="ccczc"
         inkscape:transform-center-y="10.255649"
         inkscape:transform-center-x="-8.1164538" /><g
         inkscape:transform-center-x="39.766673"
         inkscape:transform-center-y="105.99861"
         id="g8418"
         transform="matrix(0.58413507,0.19012131,0.19012131,-0.58413507,-782.00191,674.58957)"><path
           inkscape:connector-curvature="0"
           d="m -37.96204,85.908224 h -23.5 V 267.82722 h 23.5 z"
           style="fill:#000000;fill-opacity:1;fill-rule:nonzero;stroke:#000000;stroke-width:1.34500003;stroke-linecap:butt;stroke-linejoin:miter;stroke-miterlimit:4;stroke-dasharray:none;stroke-opacity:1"
           id="path8420" /><path
           inkscape:connector-curvature="0"
           d="m -37.96204,307.90822 h -23.5 v -40.081 h 23.5 z"
           style="fill:#000000;fill-opacity:1;fill-rule:nonzero;stroke:#000000;stroke-width:1.34500003;stroke-linecap:butt;stroke-linejoin:miter;stroke-miterlimit:4;stroke-dasharray:none;stroke-opacity:1"
           id="path8422" /><path
           inkscape:connector-curvature="0"
           d="m -37.96204,307.90822 h -23.5 v 21.205 h 23.5 z"
           style="fill:#000000;fill-opacity:1;fill-rule:nonzero;stroke:#000000;stroke-width:1.34500003;stroke-linecap:butt;stroke-linejoin:miter;stroke-miterlimit:4;stroke-dasharray:none;stroke-opacity:1"
           id="path8424" /><g
           style="fill:#000000;fill-opacity:1"
           id="g8426"
           transform="translate(-32.31824,338.80032)"><path
             inkscape:connector-curvature="0"
             d="m 0,0 h -34.786 l 5.642,-9.688 h 23.5 z"
             style="fill:#000000;fill-opacity:1;fill-rule:nonzero;stroke:none"
             id="path8428" /></g><g
           style="fill:#000000;fill-opacity:1"
           id="g8430"
           transform="translate(-32.31824,338.80032)"><path
             inkscape:connector-curvature="0"
             d="m 0,0 h -34.786 l 5.642,-9.688 h 23.5 z"
             style="fill:#000000;fill-opacity:1;stroke:#000000;stroke-width:1;stroke-linecap:butt;stroke-linejoin:miter;stroke-miterlimit:10;stroke-dasharray:none;stroke-opacity:1"
             id="path8432" /></g><path
           sodipodi:nodetypes="csssc"
           id="path8434"
           style="fill:#000000;fill-opacity:1;fill-rule:nonzero;stroke:#000000;stroke-width:1.34500003;stroke-linecap:butt;stroke-linejoin:miter;stroke-miterlimit:4;stroke-dasharray:none;stroke-opacity:1"
           d="m -67.41684,339.10521 v 58.54361 c 0,10.025 7.639,42 17.705,42 10.424,0 17.644,-31.588 17.644,-42 v -58.54361"
           inkscape:connector-curvature="0" /><path
           id="path8436"
           style="fill:#000000;fill-opacity:1;fill-rule:nonzero;stroke:#000000;stroke-width:1.00899994;stroke-linecap:butt;stroke-linejoin:miter;stroke-miterlimit:4;stroke-dasharray:none;stroke-opacity:1"
           d="m -56.10434,85.817924 v -2.5 l 0.804,-1.518 v -4.91 c 0.932,-1.455 1.196,-3.133 1.428,-4.822 h -5.517 c 0.232,1.689 0.496,3.367 1.428,4.822 v 4.91 l 0.804,1.518 v 2.5"
           inkscape:connector-curvature="0" /><path
           id="path8438"
           style="fill:#000000;fill-opacity:1;fill-rule:nonzero;stroke:#000000;stroke-width:1.00899994;stroke-linecap:butt;stroke-linejoin:miter;stroke-miterlimit:4;stroke-dasharray:none;stroke-opacity:1"
           d="m -48.72934,85.817924 v -2.5 l 0.804,-1.518 v -4.91 c 0.932,-1.455 1.196,-3.133 1.428,-4.822 h -5.517 c 0.232,1.689 0.496,3.367 1.428,4.822 v 4.91 l 0.804,1.518 v 2.5"
           inkscape:connector-curvature="0" /><path
           id="path8440"
           style="fill:#000000;fill-opacity:1;fill-rule:nonzero;stroke:#000000;stroke-width:1.00899994;stroke-linecap:butt;stroke-linejoin:miter;stroke-miterlimit:4;stroke-dasharray:none;stroke-opacity:1"
           d="m -41.35434,85.817924 v -2.5 l 0.804,-1.518 v -4.91 c 0.932,-1.455 1.196,-3.133 1.428,-4.822 h -5.517 c 0.232,1.689 0.496,3.367 1.428,4.822 v 4.91 l 0.804,1.518 v 2.5"
           inkscape:connector-curvature="0" /><g
           id="g8442"
           transform="translate(-2.616128)"><path
             id="path8444"
             style="fill:#000000;fill-opacity:1;fill-rule:nonzero;stroke:#000000;stroke-width:1.34500003;stroke-linecap:butt;stroke-linejoin:miter;stroke-miterlimit:4;stroke-dasharray:none;stroke-opacity:1"
             d="m -61.59804,85.908224 h -23.5 V 267.82722 h 23.5 z"
             inkscape:connector-curvature="0" /><path
             inkscape:connector-curvature="0"
             d="m -79.74114,85.817924 v -2.5 l 0.803,-1.518 v -4.91 c 0.932,-1.455 1.197,-3.133 1.428,-4.822 h -5.518 c 0.232,1.689 0.497,3.367 1.43,4.822 v 4.91 l 0.802,1.518 v 2.5"
             style="fill:#000000;fill-opacity:1;fill-rule:nonzero;stroke:#000000;stroke-width:1.00899994;stroke-linecap:butt;stroke-linejoin:miter;stroke-miterlimit:4;stroke-dasharray:none;stroke-opacity:1"
             id="path8446" /><path
             inkscape:connector-curvature="0"
             d="m -72.36614,85.817924 v -2.5 l 0.803,-1.518 v -4.91 c 0.932,-1.455 1.197,-3.133 1.428,-4.822 h -5.518 c 0.232,1.689 0.497,3.367 1.43,4.822 v 4.91 l 0.802,1.518 v 2.5"
             style="fill:#000000;fill-opacity:1;fill-rule:nonzero;stroke:#000000;stroke-width:1.00899994;stroke-linecap:butt;stroke-linejoin:miter;stroke-miterlimit:4;stroke-dasharray:none;stroke-opacity:1"
             id="path8448" /><path
             inkscape:connector-curvature="0"
             d="m -64.99114,85.817924 v -2.5 l 0.803,-1.518 v -4.91 c 0.932,-1.455 1.197,-3.133 1.428,-4.822 h -5.518 c 0.232,1.689 0.497,3.367 1.43,4.822 v 4.91 l 0.802,1.518 v 2.5"
             style="fill:#000000;fill-opacity:1;fill-rule:nonzero;stroke:#000000;stroke-width:1.00899994;stroke-linecap:butt;stroke-linejoin:miter;stroke-miterlimit:4;stroke-dasharray:none;stroke-opacity:1"
             id="path8450" /><path
             inkscape:connector-curvature="0"
             d="m -73.34854,297.90772 c -7.576,0 -11.75,-24.142 -11.75,-30.081 h 23.5 c 0,7.313 -4.111,30.081 -11.75,30.081"
             style="fill:#000000;fill-opacity:1;fill-rule:nonzero;stroke:none"
             id="path8452" /><path
             inkscape:connector-curvature="0"
             d="m -73.34854,297.90772 c -7.576,0 -11.75,-24.142 -11.75,-30.081 h 23.5 c 0,7.313 -4.111,30.081 -11.75,30.081 z"
             style="fill:#000000;fill-opacity:1;stroke:#000000;stroke-width:1.34500003;stroke-linecap:butt;stroke-linejoin:miter;stroke-miterlimit:4;stroke-dasharray:none;stroke-opacity:1"
             id="path8454" /><path
             inkscape:connector-curvature="0"
             d="m -73.34854,297.90772 c -7.576,0 -11.75,-24.142 -11.75,-30.081 h 23.5 c 0,7.313 -4.111,30.081 -11.75,30.081 z"
             style="fill:#000000;fill-opacity:1;stroke:#000000;stroke-width:1.34500003;stroke-linecap:butt;stroke-linejoin:miter;stroke-miterlimit:4;stroke-dasharray:none;stroke-opacity:1"
             id="path8456" /></g><g
           id="g8458"
           transform="translate(2.616128)"><path
             id="path8460"
             style="fill:#000000;fill-opacity:1;fill-rule:nonzero;stroke:#000000;stroke-width:1.34500003;stroke-linecap:butt;stroke-linejoin:miter;stroke-miterlimit:4;stroke-dasharray:none;stroke-opacity:1"
             d="m -14.47304,85.908224 h -23.5 V 267.82722 h 23.5 z"
             inkscape:connector-curvature="0" /><path
             inkscape:connector-curvature="0"
             d="m -32.61614,85.817924 v -2.5 l 0.803,-1.518 v -4.91 c 0.931,-1.455 1.197,-3.133 1.428,-4.822 h -5.518 c 0.232,1.689 0.497,3.367 1.43,4.822 v 4.91 l 0.802,1.518 v 2.5"
             style="fill:#000000;fill-opacity:1;fill-rule:nonzero;stroke:#000000;stroke-width:1.00899994;stroke-linecap:butt;stroke-linejoin:miter;stroke-miterlimit:4;stroke-dasharray:none;stroke-opacity:1"
             id="path8462" /><path
             inkscape:connector-curvature="0"
             d="m -25.24114,85.817924 v -2.5 l 0.803,-1.518 v -4.91 c 0.931,-1.455 1.197,-3.133 1.428,-4.822 h -5.518 c 0.232,1.689 0.497,3.367 1.43,4.822 v 4.91 l 0.802,1.518 v 2.5"
             style="fill:#000000;fill-opacity:1;fill-rule:nonzero;stroke:#000000;stroke-width:1.00899994;stroke-linecap:butt;stroke-linejoin:miter;stroke-miterlimit:4;stroke-dasharray:none;stroke-opacity:1"
             id="path8464" /><path
             inkscape:connector-curvature="0"
             d="m -17.86614,85.817924 v -2.5 l 0.803,-1.518 v -4.91 c 0.931,-1.455 1.197,-3.133 1.428,-4.822 h -5.518 c 0.232,1.689 0.497,3.367 1.43,4.822 v 4.91 l 0.802,1.518 v 2.5"
             style="fill:#000000;fill-opacity:1;fill-rule:nonzero;stroke:#000000;stroke-width:1.00899994;stroke-linecap:butt;stroke-linejoin:miter;stroke-miterlimit:4;stroke-dasharray:none;stroke-opacity:1"
             id="path8466" /><path
             inkscape:connector-curvature="0"
             d="m -26.22354,297.90772 c -7.576,0 -11.75,-24.142 -11.75,-30.081 h 23.5 c 0,7.313 -4.111,30.081 -11.75,30.081"
             style="fill:#000000;fill-opacity:1;fill-rule:nonzero;stroke:none"
             id="path8468" /><path
             inkscape:connector-curvature="0"
             d="m -26.22354,297.90772 c -7.576,0 -11.75,-24.142 -11.75,-30.081 h 23.5 c 0,7.313 -4.111,30.081 -11.75,30.081 z"
             style="fill:#000000;fill-opacity:1;stroke:#000000;stroke-width:1.34500003;stroke-linecap:butt;stroke-linejoin:miter;stroke-miterlimit:4;stroke-dasharray:none;stroke-opacity:1"
             id="path8470" /></g></g></g><g
       transform="translate(-29.404735,-5.6250003)"
       id="text4648"
       style="font-style:normal;font-variant:normal;font-weight:bold;font-stretch:normal;font-size:151.85784912px;line-height:1.25;font-family:'Gill Sans MT';-inkscape-font-specification:'Gill Sans MT, Bold';font-variant-ligatures:normal;font-variant-caps:normal;font-variant-numeric:normal;font-feature-settings:normal;text-align:start;letter-spacing:0px;word-spacing:0px;writing-mode:lr-tb;text-anchor:start;fill:#000000;fill-opacity:1;stroke:none;stroke-width:3.79644632"
       aria-label="JSBSim"><path
         inkscape:connector-curvature="0"
         id="path4650"
         style="font-style:normal;font-variant:normal;font-weight:bold;font-stretch:normal;font-size:151.85784912px;font-family:'Gill Sans MT';-inkscape-font-specification:'Gill Sans MT, Bold';font-variant-ligatures:normal;font-variant-caps:normal;font-variant-numeric:normal;font-feature-settings:normal;text-align:start;writing-mode:lr-tb;text-anchor:start;stroke-width:3.79644632"
         d="m 322.98921,65.084697 v 94.021363 q 0,39.8182 -36.62977,39.8182 -3.48502,0 -7.56323,-0.37075 v -20.31692 q 2.07618,0.37075 3.92991,0.37075 14.45912,0 14.45912,-19.05638 V 65.084697 Z" /><path
         inkscape:connector-curvature="0"
         id="path4652"
         style="font-style:normal;font-variant:normal;font-weight:bold;font-stretch:normal;font-size:151.85784912px;font-family:'Gill Sans MT';-inkscape-font-specification:'Gill Sans MT, Bold';font-variant-ligatures:normal;font-variant-caps:normal;font-variant-numeric:normal;font-feature-settings:normal;text-align:start;writing-mode:lr-tb;text-anchor:start;stroke-width:3.79644632"
         d="m 416.26908,71.758138 v 20.24277 q -20.61351,-9.268668 -32.84816,-9.268668 -6.97003,0 -11.1224,2.372779 -4.07821,2.29863 -4.07821,6.154395 0,2.965974 2.96597,5.63535 2.96598,2.669376 14.45912,6.895886 11.49315,4.22652 18.38904,7.85983 6.89589,3.63332 11.8639,10.23261 5.04215,6.59929 5.04215,16.6836 0,14.38498 -10.9741,22.91215 -10.89995,8.52717 -28.76995,8.52717 -19.27882,0 -37.37126,-10.01016 V 137.6769 q 10.3809,6.97004 18.38903,10.15846 8.00813,3.18842 16.9802,3.18842 15.20062,0 15.20062,-9.56526 0,-3.26257 -3.04013,-6.1544 -3.04012,-2.89182 -14.68157,-7.04418 -11.56729,-4.15237 -18.38903,-7.71154 -6.74759,-3.55916 -11.7156,-10.15846 -4.89385,-6.59929 -4.89385,-16.906045 0,-13.346882 10.75165,-21.503309 10.75165,-8.230577 28.76994,-8.230577 16.60946,0 35.07264,8.008129 z" /><path
         inkscape:connector-curvature="0"
         id="path4654"
         style="font-style:normal;font-variant:normal;font-weight:bold;font-stretch:normal;font-size:151.85784912px;font-family:'Gill Sans MT';-inkscape-font-specification:'Gill Sans MT, Bold';font-variant-ligatures:normal;font-variant-caps:normal;font-variant-numeric:normal;font-feature-settings:normal;text-align:start;writing-mode:lr-tb;text-anchor:start;stroke-width:3.79644632"
         d="m 437.62409,65.084697 h 44.7862 q 16.01626,0 25.13663,7.711532 9.19452,7.711531 9.19452,18.240737 0,13.495184 -14.16253,20.687664 10.67751,2.81768 16.31286,9.93601 5.7095,7.11834 5.7095,16.60946 0,13.49518 -9.26867,21.9482 -9.26867,8.45303 -27.28696,8.45303 h -50.42155 z m 25.80397,18.982231 v 22.170652 h 13.49518 q 6.22855,0 9.71356,-3.18842 3.48502,-3.188422 3.48502,-8.008129 0,-4.745558 -3.48502,-7.85983 -3.48501,-3.114273 -9.71356,-3.114273 z m 0,41.152882 v 24.46928 h 14.53327 q 10.30676,0 14.82987,-2.81767 4.52311,-2.89182 4.52311,-9.93601 0,-5.4129 -4.30066,-8.52718 -4.30066,-3.18842 -11.49315,-3.18842 z" /><path
         inkscape:connector-curvature="0"
         id="path4656"
         style="font-style:normal;font-variant:normal;font-weight:bold;font-stretch:normal;font-size:151.85784912px;font-family:'Gill Sans MT';-inkscape-font-specification:'Gill Sans MT, Bold';font-variant-ligatures:normal;font-variant-caps:normal;font-variant-numeric:normal;font-feature-settings:normal;text-align:start;writing-mode:lr-tb;text-anchor:start;stroke-width:3.79644632"
         d="m 614.09952,71.758138 v 20.24277 Q 593.486,82.73224 581.25136,82.73224 q -6.97004,0 -11.1224,2.372779 -4.07821,2.29863 -4.07821,6.154395 0,2.965974 2.96597,5.63535 2.96597,2.669376 14.45912,6.895886 11.49315,4.22652 18.38904,7.85983 6.89589,3.63332 11.86389,10.23261 5.04216,6.59929 5.04216,16.6836 0,14.38498 -10.9741,22.91215 -10.89996,8.52717 -28.76995,8.52717 -19.27883,0 -37.37127,-10.01016 V 137.6769 q 10.38091,6.97004 18.38904,10.15846 8.00813,3.18842 16.9802,3.18842 15.20061,0 15.20061,-9.56526 0,-3.26257 -3.04012,-6.1544 -3.04012,-2.89182 -14.68157,-7.04418 -11.5673,-4.15237 -18.38903,-7.71154 -6.74759,-3.55916 -11.7156,-10.15846 -4.89386,-6.59929 -4.89386,-16.906045 0,-13.346882 10.75166,-21.503309 10.75165,-8.230577 28.76994,-8.230577 16.60945,0 35.07264,8.008129 z" /><path
         inkscape:connector-curvature="0"
         id="path4658"
         style="font-style:normal;font-variant:normal;font-weight:bold;font-stretch:normal;font-size:151.85784912px;font-family:'Gill Sans MT';-inkscape-font-specification:'Gill Sans MT, Bold';font-variant-ligatures:normal;font-variant-caps:normal;font-variant-numeric:normal;font-feature-settings:normal;text-align:start;writing-mode:lr-tb;text-anchor:start;stroke-width:3.79644632"
         d="m 632.26611,75.910501 q 0,-5.042155 3.55917,-8.601324 3.55917,-3.559168 8.52718,-3.559168 5.04215,0 8.60132,3.559168 3.55917,3.559169 3.55917,8.601324 0,4.968006 -3.55917,8.601323 -3.55917,3.559169 -8.60132,3.559169 -4.96801,0 -8.52718,-3.559169 -3.55917,-3.633317 -3.55917,-8.601323 z m 23.20875,22.763847 V 168.67133 H 633.4525 V 98.674348 Z" /><path
         inkscape:connector-curvature="0"
         id="path4660"
         style="font-style:normal;font-variant:normal;font-weight:bold;font-stretch:normal;font-size:151.85784912px;font-family:'Gill Sans MT';-inkscape-font-specification:'Gill Sans MT, Bold';font-variant-ligatures:normal;font-variant-caps:normal;font-variant-numeric:normal;font-feature-settings:normal;text-align:start;writing-mode:lr-tb;text-anchor:start;stroke-width:3.79644632"
         d="m 696.70188,98.674348 v 8.972072 q 11.19655,-10.380909 24.32098,-10.380909 18.01829,0 25.21078,14.904019 12.67953,-14.904019 27.58355,-14.904019 12.08634,0 19.72373,7.340789 7.63738,7.34078 7.63738,19.13053 v 44.9345 h -22.02236 v -41.00459 q 0,-7.41493 -3.41087,-11.49315 -3.41087,-4.15236 -9.49111,-4.15236 -9.63942,0 -17.35095,11.86389 v 44.78621 h -21.9482 v -41.44949 q 0,-7.34078 -3.70747,-11.2707 -3.63332,-3.92991 -9.71356,-3.92991 -8.67548,0 -16.8319,9.71356 v 46.93654 H 674.67952 V 98.674348 Z" /></g><text
       id="text4665"
       y="826.74243"
       x="510.0943"
       style="font-style:normal;font-variant:normal;font-weight:bold;font-stretch:normal;font-size:51.27380753px;line-height:51.96562576px;font-family:'Gill Sans MT';-inkscape-font-specification:'Gill Sans MT, Bold';font-variant-ligatures:normal;font-variant-caps:normal;font-variant-numeric:normal;font-feature-settings:normal;text-align:center;letter-spacing:0px;word-spacing:0px;writing-mode:lr-tb;text-anchor:middle;fill:#000000;fill-opacity:1;stroke:none;stroke-width:1.28184533"
       xml:space="preserve"><tspan
         id="tspan4667"
         style="font-style:normal;font-variant:normal;font-weight:bold;font-stretch:normal;font-size:51.27380753px;line-height:51.96562576px;font-family:'Gill Sans MT';-inkscape-font-specification:'Gill Sans MT, Bold';font-variant-ligatures:normal;font-variant-caps:normal;font-variant-numeric:normal;font-feature-settings:normal;text-align:center;writing-mode:lr-tb;text-anchor:middle;stroke-width:1.28184533"
         y="826.74243"
         x="510.0943"
         sodipodi:role="line">Open Source Flight Dynamics</tspan></text>
</g></svg>