<?xml version="1.0" encoding="UTF-8" standalone="no"?>
<!-- Created with Inkscape (http://www.inkscape.org/) -->

<svg
   xmlns:ns1="http://www.iki.fi/pav/software/textext/"
   xmlns:dc="http://purl.org/dc/elements/1.1/"
   xmlns:cc="http://creativecommons.org/ns#"
   xmlns:rdf="http://www.w3.org/1999/02/22-rdf-syntax-ns#"
   xmlns:svg="http://www.w3.org/2000/svg"
   xmlns="http://www.w3.org/2000/svg"
   xmlns:sodipodi="http://sodipodi.sourceforge.net/DTD/sodipodi-0.dtd"
   xmlns:inkscape="http://www.inkscape.org/namespaces/inkscape"
   version="1.1"
   id="svg2"
   xml:space="preserve"
   width="629.2254"
   height="585.44141"
   viewBox="0 0 629.2254 585.4414"
   sodipodi:docname="wing_fuselage_definitions_1.svg"
   inkscape:version="0.92.4 (5da689c313, 2019-01-14)"><metadata
     id="metadata8"><rdf:RDF><cc:Work
         rdf:about=""><dc:format>image/svg+xml</dc:format><dc:type
           rdf:resource="http://purl.org/dc/dcmitype/StillImage" /><dc:title /></cc:Work></rdf:RDF></metadata><defs
     id="defs6"><marker
       inkscape:stockid="Arrow1Mend"
       orient="auto"
       refY="0.0"
       refX="0.0"
       id="Arrow1Mend"
       style="overflow:visible;"
       inkscape:isstock="true"><path
         id="path3705"
         d="M 0.0,0.0 L 5.0,-5.0 L -12.5,0.0 L 5.0,5.0 L 0.0,0.0 z "
         style="fill-rule:evenodd;stroke:#000000;stroke-width:1pt;stroke-opacity:1;fill:#000000;fill-opacity:1"
         transform="scale(0.4) rotate(180) translate(10,0)" /></marker><clipPath
       clipPathUnits="userSpaceOnUse"
       id="clipPath200"><path
         d="m 600,6417 v 0 z"
         id="path198"
         inkscape:connector-curvature="0" /></clipPath><clipPath
       clipPathUnits="userSpaceOnUse"
       id="clipPath434"><path
         d="m 3015.35,-4544.91 v 0 z"
         id="path432"
         inkscape:connector-curvature="0" /></clipPath></defs><sodipodi:namedview
     pagecolor="#ffffff"
     bordercolor="#666666"
     borderopacity="1"
     objecttolerance="10"
     gridtolerance="10"
     guidetolerance="10"
     inkscape:pageopacity="0"
     inkscape:pageshadow="2"
     inkscape:window-width="2083"
     inkscape:window-height="1334"
     id="namedview4"
     showgrid="false"
     inkscape:zoom="1.8785579"
     inkscape:cx="197.049"
     inkscape:cy="373.21156"
     inkscape:window-x="1345"
     inkscape:window-y="0"
     inkscape:window-maximized="0"
     inkscape:current-layer="g10"
     fit-margin-top="5"
     fit-margin-left="5"
     fit-margin-right="5"
     fit-margin-bottom="5" /><g
     id="g10"
     inkscape:groupmode="layer"
     inkscape:label="wing_fuselage_definitions_1"
     transform="matrix(1.3333333,0,0,-1.3333333,-76.428963,1088.4459)"><path
       inkscape:connector-curvature="0"
       id="path102"
       style="fill:none;stroke:#000000;stroke-width:2.31044412;stroke-linecap:round;stroke-linejoin:round;stroke-miterlimit:10;stroke-dasharray:none;stroke-opacity:1"
       d="m 167.1804,430.4208 c 0,0 -40.3956,0.444 -55.79832,5.3604 -13.33788,4.2564 -18.31644,7.4004 -20.09916,9.3816 -1.86468,2.0724 -2.90808,3.3492 -2.64468,6.1644 0.31032,3.3 2.37936,4.8252 7.14144,8.0412 4.75824,3.216 5.2884,2.9472 5.2884,2.9472 0,0 4.23144,5.8968 9.78336,8.3088 5.55372,2.412 9.75816,4.0416 24.85896,5.3616 15.3372,1.3392 30.6768,1.0704 40.1964,1.0704 9.5208,0 203.8908,0 203.8908,0 0,0 42.0468,-1.8744 66.3756,-3.4824 23.9604,-1.584 44.148,-1.008 43.7964,-6.6372 -0.0456,-2.1636 0.1356,-4.8456 -0.2448,-6.5592 -0.1488,-1.5768 -4.6776,-3.9588 -8.6436,-5.5668 -9.882,-4.0068 -47.3352,-18.7608 -79.8648,-21.174 -32.5272,-2.412 -45.2196,-3.216 -57.1212,-3.216 -11.8992,0 -176.9148,0 -176.9148,0 z" /><path
       inkscape:connector-curvature="0"
       id="path104"
       style="fill:none;stroke:#000000;stroke-width:2.31044412;stroke-linecap:round;stroke-linejoin:round;stroke-miterlimit:10;stroke-dasharray:none;stroke-opacity:1"
       d="m 307.2444,456.2616 c 0,0 -56.334,10.7364 -79.326,11.9484 -7.4184,0.3912 -15.2652,1.2468 -15.3468,-3.4728 -0.066,-3.7224 7.686,-4.8048 14.7636,-5.9268 15.6084,-2.4756 44.5632,-2.3196 57.6804,-2.364 9.624,-0.0312 22.2288,-0.1848 22.2288,-0.1848 z" /><path
       inkscape:connector-curvature="0"
       id="path106"
       style="fill:none;stroke:#000000;stroke-width:0.92417639;stroke-linecap:butt;stroke-linejoin:miter;stroke-miterlimit:10;stroke-dasharray:none;stroke-opacity:1"
       d="M 155.4864,470.8392 381.15,449.0196" /><path
       inkscape:connector-curvature="0"
       id="path108"
       style="fill:none;stroke:#000000;stroke-width:1.15521955;stroke-linecap:round;stroke-linejoin:miter;stroke-miterlimit:10;stroke-dasharray:9.241764, 4.620876;stroke-dashoffset:80.86540222;stroke-opacity:1"
       d="M 61.65756,450.8076 H 497.34" /><path
       inkscape:connector-curvature="0"
       id="path110"
       style="fill:none;stroke:#000000;stroke-width:2.31044412;stroke-linecap:round;stroke-linejoin:round;stroke-miterlimit:10;stroke-dasharray:none;stroke-opacity:1"
       d="m 489.99,683.976 c 0.0288,-2.8404 -7.2228,-6.0792 -17.6856,-7.8396 -59.0616,-9.9348 -61.8012,-11.7468 -92.5068,-13.2288 h -203.982 c -9.5244,0 -24.87,-0.2148 -40.2144,0.8592 -15.108,1.0608 -27.60168,5.334 -32.80896,8.0484 -4.96884,2.5908 -14.19948,7.4556 -14.28432,12.1608 0.08484,4.7052 9.31548,9.5688 14.28432,12.1596 5.20728,2.7156 17.70096,6.9888 32.80896,8.0484 15.3444,1.0752 30.69,0.8592 40.2144,0.8592 h 203.982 c 31.1076,-1.9332 32.5008,-3.5568 92.5068,-12.5556 10.4256,-1.572 17.6556,-5.7 17.6856,-8.5116 z" /><path
       inkscape:connector-curvature="0"
       id="path112"
       style="fill:none;stroke:#000000;stroke-width:1.15521955;stroke-linecap:round;stroke-linejoin:miter;stroke-miterlimit:10;stroke-dasharray:3.46566, 3.46566;stroke-dashoffset:0;stroke-opacity:1"
       d="M 88.19388,381.5892 V 686.3148 M 490.5828,381.5892 V 686.3148 M 212.166,381.5892 v 321.36 m 95.4828,-321.36 v 321.36" /><path
       inkscape:connector-curvature="0"
       id="path114"
       style="fill:none;stroke:#000000;stroke-width:2.31044412;stroke-linecap:round;stroke-linejoin:round;stroke-miterlimit:10;stroke-dasharray:none;stroke-opacity:1"
       d="m 212.436,705.3144 109.6404,106.1148 h 39.6684 l -53.46,-106.1148 M 212.436,662.6376 322.0764,556.5216 h 39.6684 l -53.46,106.116" /><path
       inkscape:connector-curvature="0"
       id="path116"
       style="fill:none;stroke:#000000;stroke-width:1.15521955;stroke-linecap:butt;stroke-linejoin:miter;stroke-miterlimit:10;stroke-dasharray:9.241764, 4.620876;stroke-dashoffset:0;stroke-opacity:1"
       d="M 61.65756,683.976 H 497.34" /><path
       inkscape:connector-curvature="0"
       id="path118"
       style="fill:#000000;fill-opacity:1;fill-rule:nonzero;stroke:none;stroke-width:0.12"
       d="m 100.16484,404.2824 c -2.17644,-0.7896 -2.82144,-1.188 -5.64612,-2.0796 -1.88952,-0.5964 -4.62696,-1.2432 -6.78696,-1.704 2.12808,-0.5412 5.04936,-1.2672 6.78696,-1.6896 2.82468,-0.8916 3.46968,-1.29 5.64612,-2.0796 l -2.33952,3.7692 2.33952,3.7836" /><path
       inkscape:connector-curvature="0"
       id="path120"
       style="fill:none;stroke:#000000;stroke-width:0.92417639;stroke-linecap:butt;stroke-linejoin:miter;stroke-miterlimit:10;stroke-dasharray:none;stroke-opacity:1"
       d="M 91.66032,400.506 H 489.7164" /><path
       inkscape:connector-curvature="0"
       id="path122"
       style="fill:#000000;fill-opacity:1;fill-rule:nonzero;stroke:none;stroke-width:0.12"
       d="m 200.1948,404.2824 c 2.1768,-0.7896 2.8212,-1.188 5.646,-2.0796 1.89,-0.5964 4.6272,-1.2432 6.7872,-1.704 -2.1276,-0.5412 -5.0496,-1.2672 -6.7872,-1.6896 -2.8248,-0.8916 -3.4692,-1.29 -5.646,-2.0796 l 2.34,3.7692 -2.34,3.7836" /><path
       inkscape:connector-curvature="0"
       id="path124"
       style="fill:#000000;fill-opacity:1;fill-rule:nonzero;stroke:none;stroke-width:0.12"
       d="m 224.1372,404.2824 c -2.1756,-0.7896 -2.8212,-1.188 -5.646,-2.0796 -1.89,-0.5964 -4.6272,-1.2432 -6.7872,-1.704 2.1288,-0.5412 5.0496,-1.2672 6.7872,-1.6896 2.8248,-0.8916 3.4704,-1.29 5.646,-2.0796 l -2.3388,3.7692 2.3388,3.7836" /><path
       inkscape:connector-curvature="0"
       id="path126"
       style="fill:#000000;fill-opacity:1;fill-rule:nonzero;stroke:none;stroke-width:0.12"
       d="m 295.6776,404.2824 c 2.1768,-0.7896 2.8212,-1.188 5.6472,-2.0796 1.8888,-0.5964 4.626,-1.2432 6.786,-1.704 -2.1276,-0.5412 -5.0496,-1.2672 -6.786,-1.6896 -2.826,-0.8916 -3.4704,-1.29 -5.6472,-2.0796 l 2.34,3.7692 -2.34,3.7836" /><path
       inkscape:connector-curvature="0"
       id="path128"
       style="fill:#000000;fill-opacity:1;fill-rule:nonzero;stroke:none;stroke-width:0.12"
       d="m 319.62,404.2824 c -2.1768,-0.7896 -2.8212,-1.188 -5.646,-2.0796 -1.89,-0.5964 -4.6272,-1.2432 -6.7872,-1.704 2.1288,-0.5412 5.0496,-1.2672 6.7872,-1.6896 2.8248,-0.8916 3.4692,-1.29 5.646,-2.0796 l -2.34,3.7692 2.34,3.7836" /><path
       inkscape:connector-curvature="0"
       id="path130"
       style="fill:#000000;fill-opacity:1;fill-rule:nonzero;stroke:none;stroke-width:0.12"
       d="m 478.6116,404.2824 c 2.1768,-0.7896 2.8212,-1.188 5.646,-2.0796 1.89,-0.5964 4.6272,-1.2432 6.7872,-1.704 -2.1288,-0.5412 -5.0496,-1.2672 -6.7872,-1.6896 -2.8248,-0.8916 -3.4692,-1.29 -5.646,-2.0796 l 2.34,3.7692 -2.34,3.7836" /><path
       inkscape:connector-curvature="0"
       id="path132"
       style="fill:#000000;fill-opacity:1;fill-rule:nonzero;stroke:none;stroke-width:0.12"
       d="m 230.9868,529.6644 c -2.2392,-0.5844 -2.9184,-0.9216 -5.814,-1.5492 -1.9368,-0.42 -4.722,-0.8112 -6.9156,-1.0704 2.07,-0.7356 4.9116,-1.728 6.6024,-2.3088 2.73,-1.1484 3.336,-1.6044 5.43,-2.592 l -1.9812,3.9696 2.6784,3.5508" /><path
       inkscape:connector-curvature="0"
       id="path134"
       style="fill:#000000;fill-opacity:1;fill-rule:nonzero;stroke:none;stroke-width:0.12"
       d="m 302.2224,523.062 c 2.094,-0.9876 2.7,-1.4436 5.43,-2.592 1.8264,-0.768 4.4928,-1.6644 6.6,-2.3232 -2.1684,-0.342 -5.1444,-0.7956 -6.9132,-1.056 -2.8956,-0.6264 -3.5748,-0.9636 -5.814,-1.5492 l 2.6772,3.5376 -1.98,3.9828" /><path
       inkscape:connector-curvature="0"
       id="path136"
       style="fill:none;stroke:#000000;stroke-width:0.92417639;stroke-linecap:butt;stroke-linejoin:miter;stroke-miterlimit:10;stroke-dasharray:none;stroke-opacity:1"
       d="m 225.8316,526.35 79.8624,-7.4028" /><path
       inkscape:connector-curvature="0"
       id="path138"
       style="fill:none;stroke:#000000;stroke-width:0.49114558;stroke-linecap:butt;stroke-linejoin:miter;stroke-miterlimit:10;stroke-dasharray:none;stroke-opacity:1"
       d="m 218.3724,529.7844 -6.1692,-65.0028" /><path
       inkscape:connector-curvature="0"
       id="path140"
       style="fill:none;stroke:#000000;stroke-width:0.49114558;stroke-linecap:butt;stroke-linejoin:miter;stroke-miterlimit:10;stroke-dasharray:none;stroke-opacity:1"
       d="m 314.256,521.2032 -6.1692,-65.004" /><path
       inkscape:connector-curvature="0"
       id="path142"
       style="fill:#000000;fill-opacity:1;fill-rule:nonzero;stroke:none;stroke-width:0.12"
       d="m 270.228,675.8592 c 0.7896,-2.1756 1.188,-2.8212 2.0796,-5.646 0.5964,-1.8888 1.2432,-4.6272 1.704,-6.786 0.5412,2.1276 1.2672,5.0496 1.6896,6.786 0.8916,2.8248 1.29,3.4704 2.0796,5.646 l -3.7692,-2.3388 -3.7836,2.3388" /><path
       inkscape:connector-curvature="0"
       id="path144"
       style="fill:#000000;fill-opacity:1;fill-rule:nonzero;stroke:none;stroke-width:0.12"
       d="m 270.228,692.3676 c 0.7896,2.1756 1.188,2.8212 2.0796,5.646 0.5964,1.8888 1.2432,4.6272 1.704,6.7872 0.5412,-2.1288 1.2672,-5.0496 1.6896,-6.7872 0.8916,-2.8248 1.29,-3.4704 2.0796,-5.646 l -3.7692,2.3388 -3.7836,-2.3388" /><path
       inkscape:connector-curvature="0"
       id="path146"
       style="fill:none;stroke:#000000;stroke-width:0.92417639;stroke-linecap:round;stroke-linejoin:round;stroke-miterlimit:10;stroke-dasharray:none;stroke-opacity:1"
       d="m 274.0284,669.2172 v 50.412 l 95.46981,27.43702"
       sodipodi:nodetypes="ccc" /><path
       inkscape:connector-curvature="0"
       id="path148"
       style="fill:#000000;fill-opacity:1;fill-rule:nonzero;stroke:none;stroke-width:0.12"
       d="m 511.602,569.298 c 0.7896,-2.1768 1.188,-2.8212 2.0796,-5.6472 0.5964,-1.8888 1.2432,-4.626 1.704,-6.786 0.5412,2.1276 1.2672,5.0496 1.6896,6.786 0.8916,2.826 1.29,3.4704 2.0796,5.6472 l -3.7692,-2.34 -3.7836,2.34" /><path
       inkscape:connector-curvature="0"
       id="path150"
       style="fill:#000000;fill-opacity:1;fill-rule:nonzero;stroke:none;stroke-width:0.12"
       d="m 511.602,798.87 c 0.7896,2.1756 1.188,2.8212 2.0796,5.646 0.5964,1.89 1.2432,4.6272 1.704,6.7872 0.5412,-2.1288 1.2672,-5.0496 1.6896,-6.7872 0.8916,-2.8248 1.29,-3.4704 2.0796,-5.646 l -3.7692,2.3388 -3.7836,-2.3388" /><path
       inkscape:connector-curvature="0"
       id="path152"
       style="fill:none;stroke:#000000;stroke-width:0.92417639;stroke-linecap:round;stroke-linejoin:round;stroke-miterlimit:10;stroke-dasharray:none;stroke-opacity:1"
       d="M 515.4012,562.6548 V 808.068" /><path
       inkscape:connector-curvature="0"
       id="path154"
       style="fill:none;stroke:#000000;stroke-width:0.92417639;stroke-linecap:butt;stroke-linejoin:miter;stroke-miterlimit:10;stroke-dasharray:none;stroke-opacity:1"
       d="m 511.3176,811.5852 h 8.1684" /><path
       inkscape:connector-curvature="0"
       id="path156"
       style="fill:none;stroke:#000000;stroke-width:0.92417639;stroke-linecap:butt;stroke-linejoin:miter;stroke-miterlimit:10;stroke-dasharray:none;stroke-opacity:1"
       d="m 511.3176,556.6152 h 8.1684" /><path
       inkscape:connector-curvature="0"
       id="path158"
       style="fill:none;stroke:#000000;stroke-width:0.92417639;stroke-linecap:butt;stroke-linejoin:miter;stroke-miterlimit:10;stroke-dasharray:none;stroke-opacity:1"
       d="m 421.74,477.2304 h 96.4104" /><path
       inkscape:connector-curvature="0"
       id="path160"
       style="fill:none;stroke:#000000;stroke-width:0.92417639;stroke-linecap:butt;stroke-linejoin:miter;stroke-miterlimit:10;stroke-dasharray:none;stroke-opacity:1"
       d="m 421.74,432.87 h 96.4104" /><path
       inkscape:connector-curvature="0"
       id="path162"
       style="fill:#000000;fill-opacity:1;fill-rule:nonzero;stroke:none;stroke-width:0.12"
       d="m 511.626,445.5504 c 0.7896,-2.1756 1.188,-2.8212 2.0796,-5.646 0.5952,-1.8888 1.242,-4.6272 1.7028,-6.7872 0.5412,2.1288 1.2672,5.0496 1.6896,6.7872 0.8916,2.8248 1.29,3.4704 2.0796,5.646 l -3.7692,-2.3388 -3.7824,2.3388" /><path
       inkscape:connector-curvature="0"
       id="path164"
       style="fill:#000000;fill-opacity:1;fill-rule:nonzero;stroke:none;stroke-width:0.12"
       d="m 511.626,465.7548 c 0.7896,2.1768 1.188,2.8212 2.0796,5.646 0.5952,1.89 1.242,4.6272 1.7028,6.7872 0.5412,-2.1288 1.2672,-5.0496 1.6896,-6.7872 0.8916,-2.8248 1.29,-3.4692 2.0796,-5.646 l -3.7692,2.34 -3.7824,-2.34" /><path
       inkscape:connector-curvature="0"
       id="path166"
       style="fill:none;stroke:#000000;stroke-width:0.92417639;stroke-linecap:round;stroke-linejoin:round;stroke-miterlimit:10;stroke-dasharray:none;stroke-opacity:1"
       d="m 515.4012,436.4652 v 56.8812 l -58.5804,7.7028" /><path
       inkscape:connector-curvature="0"
       id="path168"
       style="fill:none;stroke:#243577;stroke-width:2.31044412;stroke-linecap:round;stroke-linejoin:round;stroke-miterlimit:10;stroke-dasharray:none;stroke-opacity:1"
       d="M 88.2276,460.4388 V 557.13" /><path
       inkscape:connector-curvature="0"
       id="path170"
       style="fill:none;stroke:#243577;stroke-width:2.31044412;stroke-linecap:round;stroke-linejoin:round;stroke-miterlimit:10;stroke-dasharray:none;stroke-opacity:1"
       d="m 92.05548,553.4472 c -1.08888,0.1824 -3.64596,4.0272 -3.82788,4.572 -0.1818,-0.5448 -2.73888,-4.3896 -3.82776,-4.572" /><path
       inkscape:connector-curvature="0"
       id="path172"
       style="fill:none;stroke:#243577;stroke-width:2.31044412;stroke-linecap:round;stroke-linejoin:round;stroke-miterlimit:10;stroke-dasharray:none;stroke-opacity:1"
       d="M 92.14968,450.8076 H 153.7224" /><path
       inkscape:connector-curvature="0"
       id="path174"
       style="fill:none;stroke:#243577;stroke-width:2.31044412;stroke-linecap:round;stroke-linejoin:round;stroke-miterlimit:10;stroke-dasharray:none;stroke-opacity:1"
       d="m 150.0396,446.9796 c 0.1824,1.0896 4.0272,3.6456 4.572,3.828 -0.5448,0.1812 -4.3896,2.7384 -4.572,3.828" /><path
       inkscape:connector-curvature="0"
       id="path176"
       style="fill:none;stroke:#243577;stroke-width:2.31044412;stroke-linecap:round;stroke-linejoin:round;stroke-miterlimit:10;stroke-dasharray:none;stroke-opacity:1"
       d="M 92.14968,683.976 H 153.7224" /><path
       inkscape:connector-curvature="0"
       id="path178"
       style="fill:none;stroke:#243577;stroke-width:2.31044412;stroke-linecap:round;stroke-linejoin:round;stroke-miterlimit:10;stroke-dasharray:none;stroke-opacity:1"
       d="m 150.0396,680.148 c 0.1824,1.0884 4.0272,3.6456 4.572,3.828 -0.5448,0.1812 -4.3896,2.7384 -4.572,3.828" /><path
       inkscape:connector-curvature="0"
       id="path180"
       style="fill:none;stroke:#243577;stroke-width:2.31044412;stroke-linecap:round;stroke-linejoin:round;stroke-miterlimit:10;stroke-dasharray:none;stroke-opacity:1"
       d="M 88.2276,689.634 V 810.3252"
       sodipodi:nodetypes="cc" /><path
       inkscape:connector-curvature="0"
       id="path182"
       style="fill:none;stroke:#243577;stroke-width:2.31044412;stroke-linecap:round;stroke-linejoin:round;stroke-miterlimit:10;stroke-dasharray:none;stroke-opacity:1"
       d="m 92.05548,806.6424 c -1.08888,0.1836 -3.64596,4.0284 -3.82788,4.572 -0.1818,-0.5436 -2.73888,-4.3884 -3.82776,-4.572"
       sodipodi:nodetypes="ccc" /><path
       inkscape:connector-curvature="0"
       id="path184"
       style="fill:#000000;fill-opacity:1;fill-rule:nonzero;stroke:none;stroke-width:0.12"
       d="m 100.16484,632.5536 c -2.17644,-0.7896 -2.82144,-1.188 -5.64612,-2.0796 -1.88952,-0.5964 -4.62696,-1.2432 -6.78696,-1.704 2.12808,-0.5412 5.04936,-1.266 6.78696,-1.6896 2.82468,-0.8916 3.46968,-1.29 5.64612,-2.0796 l -2.33952,3.7692 2.33952,3.7836" /><path
       inkscape:connector-curvature="0"
       id="path186"
       style="fill:none;stroke:#000000;stroke-width:0.92417639;stroke-linecap:butt;stroke-linejoin:miter;stroke-miterlimit:10;stroke-dasharray:none;stroke-opacity:1"
       d="M 91.66032,628.7772 H 489.7164" /><path
       inkscape:connector-curvature="0"
       id="path188"
       style="fill:#000000;fill-opacity:1;fill-rule:nonzero;stroke:none;stroke-width:0.12"
       d="m 478.6116,632.5536 c 2.1768,-0.7896 2.8212,-1.188 5.646,-2.0796 1.89,-0.5964 4.6272,-1.2432 6.7872,-1.704 -2.1288,-0.5412 -5.0496,-1.266 -6.7872,-1.6896 -2.8248,-0.8916 -3.4692,-1.29 -5.646,-2.0796 l 2.34,3.7692 -2.34,3.7836" /><path
       inkscape:connector-curvature="0"
       id="path190"
       style="fill:none;stroke:#000000;stroke-width:0.86641562;stroke-linecap:round;stroke-linejoin:round;stroke-miterlimit:10;stroke-dasharray:2.599248, 2.599248;stroke-dashoffset:39.71070099;stroke-opacity:1"
       d="m 225.8832,718.5216 -34.3584,-34.2972 34.3584,-34.2972" /><path
       inkscape:connector-curvature="0"
       id="path192"
       style="fill:none;stroke:#000000;stroke-width:0.86641562;stroke-linecap:round;stroke-linejoin:round;stroke-miterlimit:10;stroke-dasharray:2.599248, 2.599248;stroke-dashoffset:39.71070099;stroke-opacity:1"
       d="m 314.604,718.5216 -16.8,-34.2972 16.8,-34.2972" /><g
       id="g194"
       transform="scale(0.12)"><g
         clip-path="url(#clipPath200)"
         id="g196"><g
           transform="matrix(685,0,0,-4,-176.1,4930.9)"
           id="g202"><rect
             id="rect204"
             style="fill:#000000;fill-opacity:1;fill-rule:nonzero"
             transform="matrix(1,0,0,-1,0,1)"
             height="1"
             width="1"
             y="0"
             x="0" /></g></g></g><path
       inkscape:connector-curvature="0"
       id="path300"
       style="fill:#121466;fill-opacity:1;fill-rule:nonzero;stroke:none;stroke-width:0.12"
       d="m 213.5412,663.102 c 0,0.8244 -0.6696,1.494 -1.494,1.494 -0.8256,0 -1.494,-0.6696 -1.494,-1.494 0,-0.8256 0.6684,-1.4952 1.494,-1.4952 0.8244,0 1.494,0.6696 1.494,1.4952" /><path
       inkscape:connector-curvature="0"
       id="path302"
       style="fill:none;stroke:#121466;stroke-width:0.7970112;stroke-linecap:butt;stroke-linejoin:miter;stroke-miterlimit:10;stroke-dasharray:none;stroke-opacity:1"
       d="m 213.5412,663.102 c 0,0.8244 -0.6696,1.494 -1.494,1.494 -0.8256,0 -1.494,-0.6696 -1.494,-1.494 0,-0.8256 0.6684,-1.4952 1.494,-1.4952 0.8244,0 1.494,0.6696 1.494,1.4952 z" /><path
       inkscape:connector-curvature="0"
       id="path318"
       style="fill:#ffffff;fill-opacity:1;fill-rule:nonzero;stroke:none;stroke-width:0.12"
       d="m 506.094,683.826 v 11.154 h 19.3968 V 672.6732 H 506.094" /><path
       inkscape:connector-curvature="0"
       id="path340"
       style="fill:#ffffff;fill-opacity:1;fill-rule:nonzero;stroke:none;stroke-width:0.12"
       d="m 139.8948,400.8888 v 11.448 H 159.66 v -22.896 h -19.7652" /><path
       inkscape:connector-curvature="0"
       id="path352"
       style="fill:#ffffff;fill-opacity:1;fill-rule:nonzero;stroke:none;stroke-width:0.12"
       d="m 251.6808,400.8864 v 11.448 h 19.7652 v -22.896 h -19.7652" /><path
       inkscape:connector-curvature="0"
       id="path364"
       style="fill:#ffffff;fill-opacity:1;fill-rule:nonzero;stroke:none;stroke-width:0.12"
       d="m 393.6492,401.0028 v 11.448 h 19.7652 v -22.896 h -19.7652" /><path
       inkscape:connector-curvature="0"
       id="path376"
       style="fill:#ffffff;fill-opacity:1;fill-rule:nonzero;stroke:none;stroke-width:0.12"
       d="m 352.3656,628.656 v 11.448 h 21.7608 v -22.896 h -21.7608" /><path
       inkscape:connector-curvature="0"
       id="path404"
       style="fill:#121466;fill-opacity:1;fill-rule:nonzero;stroke:none;stroke-width:0.12"
       d="m 213.5412,465.414 c 0,0.8244 -0.6696,1.494 -1.494,1.494 -0.8256,0 -1.494,-0.6696 -1.494,-1.494 0,-0.8256 0.6684,-1.494 1.494,-1.494 0.8244,0 1.494,0.6684 1.494,1.494" /><path
       inkscape:connector-curvature="0"
       id="path406"
       style="fill:none;stroke:#121466;stroke-width:0.7970112;stroke-linecap:butt;stroke-linejoin:miter;stroke-miterlimit:10;stroke-dasharray:none;stroke-opacity:1"
       d="m 213.5412,465.414 c 0,0.8244 -0.6696,1.494 -1.494,1.494 -0.8256,0 -1.494,-0.6696 -1.494,-1.494 0,-0.8256 0.6684,-1.494 1.494,-1.494 0.8244,0 1.494,0.6684 1.494,1.494 z" /><path
       inkscape:connector-curvature="0"
       id="path408"
       style="fill:none;stroke:#808080;stroke-width:0.99626404;stroke-linecap:butt;stroke-linejoin:miter;stroke-miterlimit:10;stroke-dasharray:none;stroke-opacity:1"
       d="m 208.7028,469.3992 -16.4376,19.59 c -1.1244,1.3404 -1.5672,3.1248 -1.2,4.836 l 13.632,63.414 c 0.4416,2.0544 -0.2892,4.1856 -1.8984,5.5356 l -19.098,16.0248" /><path
       inkscape:connector-curvature="0"
       id="path410"
       style="fill:none;stroke:#808080;stroke-width:0.99626404;stroke-linecap:butt;stroke-linejoin:miter;stroke-miterlimit:10;stroke-dasharray:none;stroke-opacity:1"
       d="M 183.7008,578.7996 168.348,597.096 c -1.6824,2.0052 -1.7736,4.9032 -0.2196,7.0092 l 40.5744,55.0116" /><path
       inkscape:connector-curvature="0"
       id="path424"
       style="fill:#121466;fill-opacity:1;fill-rule:nonzero;stroke:none;stroke-width:0.12"
       d="m 363.336,450.8748 c 0,0.8256 -0.6684,1.4952 -1.494,1.4952 -0.8244,0 -1.494,-0.6696 -1.494,-1.4952 0,-0.8244 0.6696,-1.494 1.494,-1.494 0.8256,0 1.494,0.6696 1.494,1.494" /><path
       inkscape:connector-curvature="0"
       id="path426"
       style="fill:none;stroke:#121466;stroke-width:0.7970112;stroke-linecap:butt;stroke-linejoin:miter;stroke-miterlimit:10;stroke-dasharray:none;stroke-opacity:1"
       d="m 363.336,450.8748 c 0,0.8256 -0.6684,1.4952 -1.494,1.4952 -0.8244,0 -1.494,-0.6696 -1.494,-1.4952 0,-0.8244 0.6696,-1.494 1.494,-1.494 0.8256,0 1.494,0.6696 1.494,1.494 z" /><g
       id="g428"
       transform="scale(0.12)"><g
         clip-path="url(#clipPath434)"
         id="g430" /></g><path
       inkscape:connector-curvature="0"
       id="path436"
       style="fill:#121466;fill-opacity:1;fill-rule:nonzero;stroke:none;stroke-width:0.12"
       d="m 180.2208,461.9424 c -1.1076,2.2884 -1.6968,4.5324 -1.7688,6.732 -0.4464,-2.1552 -1.4124,-4.2648 -2.8956,-6.33 l 2.5584,2.4108" /><path
       inkscape:connector-curvature="0"
       id="path438"
       style="fill:none;stroke:#121466;stroke-width:1.59402001;stroke-linecap:butt;stroke-linejoin:miter;stroke-miterlimit:10;stroke-dasharray:none;stroke-opacity:1"
       d="m 178.1148,464.7552 0.0144,0.1992 c -0.3588,-4.6836 -0.5388,-9.3816 -0.5388,-14.0796" /><path
       inkscape:connector-curvature="0"
       id="path440"
       style="fill:none;stroke:#808080;stroke-width:0.99626404;stroke-linecap:butt;stroke-linejoin:miter;stroke-miterlimit:10;stroke-dasharray:none;stroke-opacity:1"
       d="m 176.4024,457.4988 -21.4668,3.7848 c -3.4008,0.6 -5.4804,4.0764 -4.3992,7.3572 l 13.4916,40.9416 c 1.2084,3.6684 -1.524,7.4436 -5.3844,7.4436 h -20.5092" /><g
       id="g3690"
       transform="translate(-1.5,-0.315)"><path
         d="m 195.6276,684.2916 c 0,0.8244 -0.6684,1.494 -1.494,1.494 -0.8244,0 -1.494,-0.6696 -1.494,-1.494 0,-0.8256 0.6696,-1.4952 1.494,-1.4952 0.8256,0 1.494,0.6696 1.494,1.4952"
         style="fill:#121466;fill-opacity:1;fill-rule:nonzero;stroke:none;stroke-width:0.12"
         id="path452"
         inkscape:connector-curvature="0" /><path
         d="m 195.6276,684.2916 c 0,0.8244 -0.6684,1.494 -1.494,1.494 -0.8244,0 -1.494,-0.6696 -1.494,-1.494 0,-0.8256 0.6696,-1.4952 1.494,-1.4952 0.8256,0 1.494,0.6696 1.494,1.4952 z"
         style="fill:none;stroke:#121466;stroke-width:0.7970112;stroke-linecap:butt;stroke-linejoin:miter;stroke-miterlimit:10;stroke-dasharray:none;stroke-opacity:1"
         id="path454"
         inkscape:connector-curvature="0" /></g><path
       inkscape:connector-curvature="0"
       id="path456"
       style="fill:none;stroke:#808080;stroke-width:0.99626404;stroke-linecap:butt;stroke-linejoin:miter;stroke-miterlimit:10;stroke-dasharray:none;stroke-opacity:1"
       d="m 191.6256,687.2808 -26.5596,31.6524 c -1.0668,1.272 -2.6388,2.0124 -4.2984,2.0256 l -23.3268,0.1836" /><path
       inkscape:connector-curvature="0"
       id="path458"
       style="fill:#ffffff;fill-opacity:1;fill-rule:nonzero;stroke:none;stroke-width:0.12"
       d="m 130.2048,721.0716 v 6.8064 h 14.4396 v -13.6128 h -14.4396" /><g
       id="g1679"
       ns1:jacobian_sqrt="1.8"
       inkscapeversion="0.92.4"
       ns1:alignment="middle center"
       ns1:scale="1.35"
       ns1:preamble="C:\\texlive\\texmf-local\\tex\\latex\\default_packages_guit.tex"
       ns1:text="$x_\\mathrm{C}$"
       ns1:pdfconverter="pdf2svg"
       ns1:texconverter="pdflatex"
       ns1:version="0.11.0"
       transform="matrix(1.8,0,0,-1.8,-114.34931,912.99067)"><g
         id="surface1"><g
           id="g1672"
           style="fill:#000000;fill-opacity:1"><path
             id="path1670"
             transform="translate(148.712,134.765)"
             d="m 5.15625,-4.171875 c 0,-0.265625 -0.234375,-0.390625 -0.421875,-0.390625 -0.5,0 -1.140625,0.75 -1.640625,1.546875 0,-0.015625 -0.078125,-0.34375 -0.078125,-0.34375 -0.15625,-0.65625 -0.34375,-1.03125 -0.6875,-1.203125 0,0 -1.125,0.25 -1.265625,0.28125 v 0.171875 c 0.203125,-0.046875 0.359375,-0.0625 0.46875,-0.0625 0.546875,0 0.640625,0.515625 1.015625,1.953125 C 2.09375,-1.546875 1.390625,-0.4375 1.109375,-0.4375 0.875,-0.4375 0.875,-0.671875 0.5625,-0.671875 c -0.21875,0 -0.359375,0.15625 -0.359375,0.359375 0,0.25 0.1875,0.4375 0.46875,0.4375 0.6875,0 1.34375,-1.25 1.953125,-2.03125 0.03125,0.078125 0.25,0.953125 0.25,0.953125 C 3.125,-0.03125 3.3125,0.125 3.5625,0.125 c 0.3125,0 0.78125,-0.3125 1.25,-1.1875 L 4.671875,-1.140625 c -0.171875,0.21875 -0.453125,0.6875 -0.703125,0.6875 -0.34375,0 -0.546875,-1.40625 -0.796875,-2.296875 0.0625,-0.078125 0.75,-1.203125 1.125,-1.203125 0.1875,0 0.359375,0.171875 0.53125,0.171875 0.25,0 0.328125,-0.203125 0.328125,-0.390625 z m 0,0"
             style="stroke:none;stroke-width:0"
             inkscape:connector-curvature="0" /></g><g
           id="g1676"
           style="fill:#000000;fill-opacity:1"><path
             id="path1674"
             transform="translate(154.162,136.259)"
             d="m 4.40625,-0.78125 -0.125,-0.125 c -0.515625,0.484375 -0.96875,0.703125 -1.546875,0.703125 -0.421875,0 -0.796875,-0.125 -1.09375,-0.375 C 1.234375,-0.921875 1,-1.546875 1,-2.359375 c 0,-1.25 0.65625,-2.078125 1.65625,-2.078125 0.40625,0 0.765625,0.15625 1.046875,0.4375 0.21875,0.21875 0.328125,0.40625 0.453125,0.859375 h 0.171875 l -0.0625,-1.5625 h -0.15625 c -0.046875,0.140625 -0.15625,0.21875 -0.28125,0.21875 -0.078125,0 -0.171875,-0.015625 -0.28125,-0.0625 -0.34375,-0.109375 -0.6875,-0.15625 -1.03125,-0.15625 -0.53125,0 -1.078125,0.1875 -1.5,0.546875 -0.53125,0.4375 -0.828125,1.09375 -0.828125,1.890625 0,1.421875 0.9375,2.359375 2.328125,2.359375 0.78125,0 1.46875,-0.3125 1.890625,-0.875 z m 0,0"
             style="stroke:none;stroke-width:0"
             inkscape:connector-curvature="0" /></g></g></g><g
       id="g1796"
       ns1:jacobian_sqrt="1.8"
       inkscapeversion="0.92.4"
       ns1:alignment="middle center"
       ns1:scale="1.35"
       ns1:preamble="C:\\texlive\\texmf-local\\tex\\latex\\default_packages_guit.tex"
       ns1:text="$b_\\mathrm{B}$"
       ns1:pdfconverter="pdf2svg"
       ns1:texconverter="pdflatex"
       ns1:version="0.11.0"
       transform="matrix(1.8,0,0,-1.8,106.46168,987.49303)"><g
         id="g1794"><g
           id="g1788"
           style="fill:#000000;fill-opacity:1"><path
             id="path1786"
             transform="translate(148.712,134.765)"
             d="m 4.703125,-3.265625 c 0,-0.90625 -0.59375,-1.296875 -1.203125,-1.296875 -0.828125,0 -1.453125,0.78125 -1.734375,1.1875 l 1.03125,-3.765625 c 0,0 -1.34375,0.234375 -1.609375,0.25 v 0.1875 c 0.390625,0 0.640625,0.03125 0.640625,0.34375 0,0.1875 -0.09375,0.578125 -0.15625,0.8125 l -1.4375,5.09375 C 0.34375,-0.265625 1,0.125 1.640625,0.125 c 1.890625,0 3.0625,-1.875 3.0625,-3.390625 z m -0.828125,0.25 c 0,1.765625 -1.140625,2.921875 -2.171875,2.921875 -0.3125,0 -0.59375,-0.109375 -0.75,-0.3125 0.21875,-0.875 0.90625,-3.6875 2.203125,-3.6875 0.65625,0 0.71875,0.5625 0.71875,1.078125 z m 0,0"
             style="stroke:none;stroke-width:0"
             inkscape:connector-curvature="0" /></g><g
           id="g1792"
           style="fill:#000000;fill-opacity:1"><path
             id="path1790"
             transform="translate(153.724,136.259)"
             d="m 4.125,-1.25 c 0,-0.3125 -0.125,-0.59375 -0.328125,-0.796875 -0.21875,-0.1875 -0.40625,-0.265625 -0.859375,-0.375 0.359375,-0.09375 0.515625,-0.15625 0.671875,-0.3125 0.1875,-0.15625 0.28125,-0.40625 0.28125,-0.6875 0,-0.78125 -0.609375,-1.1875 -1.828125,-1.1875 H 0.125 v 0.125 c 0.578125,0.03125 0.65625,0.109375 0.65625,0.625 v 3.09375 C 0.78125,-0.25 0.703125,-0.15625 0.125,-0.125 V 0 H 2.453125 C 2.984375,0 3.484375,-0.140625 3.75,-0.390625 4,-0.609375 4.125,-0.921875 4.125,-1.25 Z m -0.796875,0 c 0,0.375 -0.140625,0.65625 -0.421875,0.8125 -0.21875,0.125 -0.515625,0.171875 -0.96875,0.171875 -0.34375,0 -0.4375,-0.0625 -0.4375,-0.28125 v -1.71875 c 0.671875,0 1,0.03125 1.25,0.140625 0.390625,0.15625 0.578125,0.4375 0.578125,0.875 z M 3.1875,-3.40625 c 0,0.546875 -0.375,0.859375 -1.03125,0.859375 H 1.5 v -1.59375 c 0,-0.15625 0.046875,-0.21875 0.15625,-0.21875 h 0.296875 c 0.8125,0 1.234375,0.34375 1.234375,0.953125 z m 0,0"
             style="stroke:none;stroke-width:0"
             inkscape:connector-curvature="0" /></g></g></g><g
       id="g1919"
       ns1:jacobian_sqrt="1.8"
       inkscapeversion="0.92.4"
       ns1:alignment="middle center"
       ns1:scale="1.35"
       ns1:preamble="C:\\texlive\\texmf-local\\tex\\latex\\default_packages_guit.tex"
       ns1:text="$l_\\mathrm{B}$"
       ns1:pdfconverter="pdf2svg"
       ns1:texconverter="pdflatex"
       ns1:version="0.11.0"
       transform="matrix(1.8,0,0,-1.8,88.701112,866.15104)"><g
         id="g1917"><g
           id="g1911"
           style="fill:#000000;fill-opacity:1"><path
             id="path1909"
             transform="translate(148.712,134.765)"
             d="m 2.90625,-7.140625 c 0,0 -1.34375,0.234375 -1.625,0.25 v 0.1875 c 0.390625,0 0.65625,0.03125 0.65625,0.34375 0,0.1875 -0.125,0.671875 -0.1875,0.90625 l -1.140625,4.125 c -0.0625,0.21875 -0.1875,0.71875 -0.1875,0.9375 0,0.203125 0.0625,0.515625 0.421875,0.515625 0.6875,0 1.3125,-0.9375 1.453125,-1.203125 L 2.15625,-1.171875 C 1.859375,-0.703125 1.5,-0.375 1.328125,-0.375 1.21875,-0.375 1.1875,-0.453125 1.1875,-0.5625 c 0,-0.125 0.03125,-0.234375 0.09375,-0.46875 z m 0,0"
             style="stroke:none;stroke-width:0"
             inkscape:connector-curvature="0" /></g><g
           id="g1915"
           style="fill:#000000;fill-opacity:1"><path
             id="path1913"
             transform="translate(151.791,136.259)"
             d="m 4.125,-1.25 c 0,-0.3125 -0.125,-0.59375 -0.328125,-0.796875 -0.21875,-0.1875 -0.40625,-0.265625 -0.859375,-0.375 0.359375,-0.09375 0.515625,-0.15625 0.671875,-0.3125 0.1875,-0.15625 0.28125,-0.40625 0.28125,-0.6875 0,-0.78125 -0.609375,-1.1875 -1.828125,-1.1875 H 0.125 v 0.125 c 0.578125,0.03125 0.65625,0.109375 0.65625,0.625 v 3.09375 C 0.78125,-0.25 0.703125,-0.15625 0.125,-0.125 V 0 H 2.453125 C 2.984375,0 3.484375,-0.140625 3.75,-0.390625 4,-0.609375 4.125,-0.921875 4.125,-1.25 Z m -0.796875,0 c 0,0.375 -0.140625,0.65625 -0.421875,0.8125 -0.21875,0.125 -0.515625,0.171875 -0.96875,0.171875 -0.34375,0 -0.4375,-0.0625 -0.4375,-0.28125 v -1.71875 c 0.671875,0 1,0.03125 1.25,0.140625 0.390625,0.15625 0.578125,0.4375 0.578125,0.875 z M 3.1875,-3.40625 c 0,0.546875 -0.375,0.859375 -1.03125,0.859375 H 1.5 v -1.59375 c 0,-0.15625 0.046875,-0.21875 0.15625,-0.21875 h 0.296875 c 0.8125,0 1.234375,0.34375 1.234375,0.953125 z m 0,0"
             style="stroke:none;stroke-width:0"
             inkscape:connector-curvature="0" /></g></g></g><g
       id="g2044"
       ns1:jacobian_sqrt="1.8"
       inkscapeversion="0.92.4"
       ns1:alignment="middle center"
       ns1:scale="1.35"
       ns1:preamble="C:\\texlive\\texmf-local\\tex\\latex\\default_packages_guit.tex"
       ns1:text="$b$"
       ns1:pdfconverter="pdf2svg"
       ns1:texconverter="pdflatex"
       ns1:version="0.11.0"
       transform="matrix(1.8,0,0,-1.8,243.66705,920.08954)"><g
         id="g2042"><g
           id="g2040"
           style="fill:#000000;fill-opacity:1"><path
             id="path2038"
             transform="translate(148.712,134.765)"
             d="m 4.703125,-3.265625 c 0,-0.90625 -0.59375,-1.296875 -1.203125,-1.296875 -0.828125,0 -1.453125,0.78125 -1.734375,1.1875 l 1.03125,-3.765625 c 0,0 -1.34375,0.234375 -1.609375,0.25 v 0.1875 c 0.390625,0 0.640625,0.03125 0.640625,0.34375 0,0.1875 -0.09375,0.578125 -0.15625,0.8125 l -1.4375,5.09375 C 0.34375,-0.265625 1,0.125 1.640625,0.125 c 1.890625,0 3.0625,-1.875 3.0625,-3.390625 z m -0.828125,0.25 c 0,1.765625 -1.140625,2.921875 -2.171875,2.921875 -0.3125,0 -0.59375,-0.109375 -0.75,-0.3125 0.21875,-0.875 0.90625,-3.6875 2.203125,-3.6875 0.65625,0 0.71875,0.5625 0.71875,1.078125 z m 0,0"
             style="stroke:none;stroke-width:0"
             inkscape:connector-curvature="0" /></g></g></g><path
       d="m 173.66816,580.10914 v 11.154 h 19.3968 v -22.3068 h -19.3968"
       style="fill:#ffffff;fill-opacity:1;fill-rule:nonzero;stroke:none;stroke-width:0.12"
       id="path2060"
       inkscape:connector-curvature="0" /><g
       id="g2174"
       ns1:jacobian_sqrt="1.8"
       inkscapeversion="0.92.4"
       ns1:alignment="middle center"
       ns1:scale="1.35"
       ns1:preamble="C:\\texlive\\texmf-local\\tex\\latex\\default_packages_guit.tex"
       ns1:text="$A^\\star$"
       ns1:pdfconverter="pdf2svg"
       ns1:texconverter="pdflatex"
       ns1:version="0.11.0"
       transform="matrix(1.8,0,0,-1.8,-92.6433,817.29848)"><g
         id="g2172"><g
           id="g2166"
           style="fill:#000000;fill-opacity:1"><path
             id="path2164"
             transform="translate(148.712,134.765)"
             d="M 6.546875,-0.171875 C 5.90625,-0.171875 5.84375,-0.46875 5.8125,-1.15625 L 5.578125,-6.875 H 5.375 l -3.890625,5.90625 c -0.453125,0.703125 -0.71875,0.796875 -1,0.796875 L 0.453125,0 h 1.84375 l 0.03125,-0.171875 c -0.328125,0 -0.5625,-0.09375 -0.5625,-0.375 0,-0.15625 0.078125,-0.375 0.265625,-0.671875 l 0.6875,-1.046875 H 4.8125 l 0.046875,1.28125 C 4.890625,-0.25 4.5625,-0.171875 4.03125,-0.171875 L 3.984375,0 h 2.53125 z m -1.75,-2.4375 H 2.953125 L 4.671875,-5.25 Z m 0,0"
             style="stroke:none;stroke-width:0"
             inkscape:connector-curvature="0" /></g><g
           id="g2170"
           style="fill:#000000;fill-opacity:1"><path
             id="path2168"
             transform="translate(155.915,131.148)"
             d="m 2.234375,-1.125 1.125,0.8125 L 2.9375,-1.625 4.046875,-2.421875 h -1.375 L 2.25,-3.71875 1.8125,-2.421875 H 0.421875 l 1.125,0.796875 -0.4375,1.3125 z m 0,0"
             style="stroke:none;stroke-width:0"
             inkscape:connector-curvature="0" /></g></g></g><g
       id="g2310"
       ns1:jacobian_sqrt="1.8"
       inkscapeversion="0.92.4"
       ns1:alignment="middle center"
       ns1:scale="1.35"
       ns1:preamble="C:\\texlive\\texmf-local\\tex\\latex\\default_packages_guit.tex"
       ns1:text="$A$"
       ns1:pdfconverter="pdf2svg"
       ns1:texconverter="pdflatex"
       ns1:version="0.11.0"
       transform="matrix(1.8,0,0,-1.8,-138.9033,959.64127)"><g
         id="g2308"><g
           id="g2306"
           style="fill:#000000;fill-opacity:1"><path
             id="path2304"
             transform="translate(148.712,134.765)"
             d="M 6.546875,-0.171875 C 5.90625,-0.171875 5.84375,-0.46875 5.8125,-1.15625 L 5.578125,-6.875 H 5.375 l -3.890625,5.90625 c -0.453125,0.703125 -0.71875,0.796875 -1,0.796875 L 0.453125,0 h 1.84375 l 0.03125,-0.171875 c -0.328125,0 -0.5625,-0.09375 -0.5625,-0.375 0,-0.15625 0.078125,-0.375 0.265625,-0.671875 l 0.6875,-1.046875 H 4.8125 l 0.046875,1.28125 C 4.890625,-0.25 4.5625,-0.171875 4.03125,-0.171875 L 3.984375,0 h 2.53125 z m -1.75,-2.4375 H 2.953125 L 4.671875,-5.25 Z m 0,0"
             style="stroke:none;stroke-width:0"
             inkscape:connector-curvature="0" /></g></g></g><g
       id="g2456"
       ns1:jacobian_sqrt="1.8"
       inkscapeversion="0.92.4"
       ns1:alignment="middle center"
       ns1:scale="1.35"
       ns1:preamble="C:\\texlive\\texmf-local\\tex\\latex\\default_packages_guit.tex"
       ns1:text="$c_\\mathrm{r}^{\\star}$"
       ns1:pdfconverter="pdf2svg"
       ns1:texconverter="pdflatex"
       ns1:version="0.11.0"
       transform="matrix(1.8,0,0,-1.8,-10.983947,773.69765)"><g
         id="g2454"><g
           id="g2444"
           style="fill:#000000;fill-opacity:1"><path
             id="path2442"
             transform="translate(148.712,134.765)"
             d="m 4.171875,-3.765625 c 0,-0.375 -0.296875,-0.796875 -0.984375,-0.796875 -1.46875,0 -2.875,1.671875 -2.875,3.140625 0,1.046875 0.65625,1.546875 1.40625,1.546875 0.9375,0 1.5625,-0.65625 1.9375,-1.125 L 3.5,-1.109375 c -0.265625,0.328125 -0.765625,0.84375 -1.421875,0.84375 -0.578125,0 -0.90625,-0.46875 -0.90625,-1.21875 0,-0.953125 0.734375,-2.875 2.015625,-2.875 0.1875,0 0.375,0.09375 0.375,0.265625 0,0.171875 -0.25,0.28125 -0.25,0.5625 0,0.21875 0.140625,0.359375 0.359375,0.359375 0.3125,0 0.5,-0.28125 0.5,-0.59375 z m 0,0"
             style="stroke:none;stroke-width:0"
             inkscape:connector-curvature="0" /></g><g
           id="g2448"
           style="fill:#000000;fill-opacity:1"><path
             id="path2446"
             transform="translate(153.704,131.148)"
             d="m 2.234375,-1.125 1.125,0.8125 L 2.9375,-1.625 4.046875,-2.421875 h -1.375 L 2.25,-3.71875 1.8125,-2.421875 H 0.421875 l 1.125,0.796875 -0.4375,1.3125 z m 0,0"
             style="stroke:none;stroke-width:0"
             inkscape:connector-curvature="0" /></g><g
           id="g2452"
           style="fill:#000000;fill-opacity:1"><path
             id="path2450"
             transform="translate(153.176,137.445)"
             d="m 2.328125,-2.84375 c 0,-0.21875 -0.140625,-0.359375 -0.375,-0.359375 -0.296875,0 -0.5,0.15625 -0.84375,0.65625 V -3.1875 l -0.03125,-0.015625 c -0.375,0.15625 -0.625,0.234375 -1.03125,0.375 v 0.109375 c 0.09375,-0.015625 0.15625,-0.03125 0.25,-0.03125 0.171875,0 0.234375,0.109375 0.234375,0.421875 v 1.75 c 0,0.34375 -0.046875,0.390625 -0.5,0.46875 V 0 H 1.703125 V -0.109375 C 1.234375,-0.125 1.109375,-0.234375 1.109375,-0.625 v -1.5625 c 0,-0.234375 0.3125,-0.578125 0.5,-0.578125 0.03125,0 0.09375,0.03125 0.171875,0.109375 0.109375,0.09375 0.1875,0.140625 0.28125,0.140625 0.171875,0 0.265625,-0.125 0.265625,-0.328125 z m 0,0"
             style="stroke:none;stroke-width:0"
             inkscape:connector-curvature="0" /></g></g></g><g
       id="g2610"
       ns1:jacobian_sqrt="1.8"
       inkscapeversion="0.92.4"
       ns1:alignment="middle center"
       ns1:scale="1.35"
       ns1:preamble="C:\\texlive\\texmf-local\\tex\\latex\\default_packages_guit.tex"
       ns1:text="$y_\\mathrm{C}$"
       ns1:pdfconverter="pdf2svg"
       ns1:texconverter="pdflatex"
       ns1:version="0.11.0"
       transform="matrix(1.8,0,0,-1.8,-171.9579,1022.7339)"><g
         id="g2608"><g
           id="g2602"
           style="fill:#000000;fill-opacity:1"><path
             id="path2600"
             transform="translate(148.712,134.765)"
             d="m 5.1875,-17.223959 c 0,-0.4375 -0.25,-0.671875 -0.546875,-0.671875 -0.234375,0 -0.390625,0.203125 -0.390625,0.40625 0,0.515625 0.5625,0.375 0.5625,0.703125 0,0.640625 -1.25,2.390625 -1.53125,2.828125 -0.09375,-2 -0.390625,-3.5 -0.734375,-3.9375 l -1.453125,0.28125 v 0.171875 c 0.09375,-0.03125 0.21875,-0.04687 0.359375,-0.04687 0.75,0 0.796875,0.75 1.1875,4.3125 -0.140625,0.421875 -1.03125,1.4375 -1.296875,1.4375 -0.1875,0 -0.171875,-0.328125 -0.5,-0.328125 -0.234375,0 -0.4375,0.21875 -0.4375,0.453125 0,0.3125 0.296875,0.421875 0.453125,0.421875 0.671875,0 1.875,-1.515625 2.90625,-3.046875 0.90625,-1.359375 1.421875,-2.40625 1.421875,-2.984375 z"
             style="stroke:none;stroke-width:0"
             inkscape:connector-curvature="0"
             sodipodi:nodetypes="ssssccccscsssscs" /></g><g
           id="g2606"
           style="fill:#000000;fill-opacity:1"><path
             id="path2604"
             transform="translate(154.261,136.259)"
             d="m 4.40625,-14.114584 -0.125,-0.125 c -0.515625,0.484375 -0.96875,0.703125 -1.546875,0.703125 -0.421875,0 -0.796875,-0.125 -1.09375,-0.375 C 1.234375,-14.255209 1,-14.880209 1,-15.692709 c 0,-1.25 0.65625,-2.078125 1.65625,-2.078125 0.40625,0 0.765625,0.15625 1.046875,0.4375 0.21875,0.21875 0.328125,0.40625 0.453125,0.859375 h 0.171875 l -0.0625,-1.5625 h -0.15625 c -0.046875,0.140625 -0.15625,0.21875 -0.28125,0.21875 -0.078125,0 -0.171875,-0.01563 -0.28125,-0.0625 -0.34375,-0.109375 -0.6875,-0.15625 -1.03125,-0.15625 -0.53125,0 -1.078125,0.1875 -1.5,0.546875 -0.53125,0.4375 -0.828125,1.09375 -0.828125,1.890625 0,1.421875 0.9375,2.359375 2.328125,2.359375 0.78125,0 1.46875,-0.3125 1.890625,-0.875 z"
             style="stroke:none;stroke-width:0"
             inkscape:connector-curvature="0"
             sodipodi:nodetypes="ccscsssccccscscssc" /></g></g></g><g
       id="g2768"
       ns1:jacobian_sqrt="1.8"
       inkscapeversion="0.92.4"
       ns1:alignment="middle center"
       ns1:scale="1.35"
       ns1:preamble="C:\\texlive\\texmf-local\\tex\\latex\\default_packages_guit.tex"
       ns1:text="$z_\\mathrm{C}$"
       ns1:pdfconverter="pdf2svg"
       ns1:texconverter="pdflatex"
       ns1:version="0.11.0"
       transform="matrix(1.8,0,0,-1.8,-171.5079,793.53867)"><g
         id="g2766"><g
           id="g2760"
           style="fill:#000000;fill-opacity:1"><path
             id="path2758"
             transform="translate(148.712,134.765)"
             d="m 4.453125,-4.5625 h -3.09375 l -0.4375,1.296875 H 1.125 c 0.25,-0.609375 0.484375,-0.625 0.84375,-0.625 h 1.625 L 0.15625,0 H 3.3125 L 3.765625,-1.328125 H 3.5625 c -0.234375,0.6875 -0.609375,0.6875 -0.984375,0.6875 H 1 Z m 0,0"
             style="stroke:none;stroke-width:0"
             inkscape:connector-curvature="0" /></g><g
           id="g2764"
           style="fill:#000000;fill-opacity:1"><path
             id="path2762"
             transform="translate(153.325,136.259)"
             d="m 4.40625,-0.78125 -0.125,-0.125 c -0.515625,0.484375 -0.96875,0.703125 -1.546875,0.703125 -0.421875,0 -0.796875,-0.125 -1.09375,-0.375 C 1.234375,-0.921875 1,-1.546875 1,-2.359375 c 0,-1.25 0.65625,-2.078125 1.65625,-2.078125 0.40625,0 0.765625,0.15625 1.046875,0.4375 0.21875,0.21875 0.328125,0.40625 0.453125,0.859375 h 0.171875 l -0.0625,-1.5625 h -0.15625 c -0.046875,0.140625 -0.15625,0.21875 -0.28125,0.21875 -0.078125,0 -0.171875,-0.015625 -0.28125,-0.0625 -0.34375,-0.109375 -0.6875,-0.15625 -1.03125,-0.15625 -0.53125,0 -1.078125,0.1875 -1.5,0.546875 -0.53125,0.4375 -0.828125,1.09375 -0.828125,1.890625 0,1.421875 0.9375,2.359375 2.328125,2.359375 0.78125,0 1.46875,-0.3125 1.890625,-0.875 z m 0,0"
             style="stroke:none;stroke-width:0"
             inkscape:connector-curvature="0" /></g></g></g><g
       id="g2932"
       ns1:jacobian_sqrt="1.8"
       inkscapeversion="0.92.4"
       ns1:alignment="middle center"
       ns1:scale="1.35"
       ns1:preamble="C:\\texlive\\texmf-local\\tex\\latex\\default_packages_guit.tex"
       ns1:text="$i_\\mathrm{W}$"
       ns1:pdfconverter="pdf2svg"
       ns1:texconverter="pdflatex"
       ns1:version="0.11.0"
       transform="matrix(1.8,0,0,-1.8,-151.2714,753.99532)"><g
         id="g2930"><g
           id="g2924"
           style="fill:#000000;fill-opacity:1"><path
             id="path2922"
             transform="translate(148.712,134.765)"
             d="m 2.65625,-6.09375 c 0,-0.234375 -0.203125,-0.515625 -0.515625,-0.515625 -0.25,0 -0.46875,0.203125 -0.46875,0.515625 0,0.3125 0.21875,0.515625 0.484375,0.515625 0.296875,0 0.5,-0.28125 0.5,-0.515625 z m -0.390625,5.0625 -0.125,-0.109375 C 1.75,-0.5625 1.453125,-0.375 1.34375,-0.375 c -0.125,0 -0.15625,-0.078125 -0.15625,-0.1875 0,-0.125 0.046875,-0.3125 0.09375,-0.46875 L 2.25,-4.5625 c 0,0 -1.359375,0.265625 -1.65625,0.296875 v 0.15625 c 0.375,0 0.65625,-0.03125 0.65625,0.375 0,0.1875 -0.109375,0.5625 -0.171875,0.8125 0,0 -0.65625,2.09375 -0.65625,2.5 0,0.203125 0.0625,0.546875 0.421875,0.546875 0.484375,0 1.015625,-0.5 1.421875,-1.15625 z m 0,0"
             style="stroke:none;stroke-width:0"
             inkscape:connector-curvature="0" /></g><g
           id="g2928"
           style="fill:#000000;fill-opacity:1"><path
             id="path2926"
             transform="translate(151.781,136.259)"
             d="m 6.5,-4.484375 v -0.125 H 5.109375 v 0.125 C 5.46875,-4.453125 5.59375,-4.375 5.59375,-4.1875 c 0,0.15625 -0.046875,0.328125 -0.109375,0.53125 l -0.875,2.359375 L 3.6875,-3.671875 3.609375,-3.875 C 3.546875,-4.03125 3.5,-4.15625 3.5,-4.234375 c 0,-0.171875 0.171875,-0.234375 0.546875,-0.25 v -0.125 H 2.1875 v 0.125 c 0.390625,0.015625 0.453125,0.078125 0.703125,0.625 L 3.109375,-3.28125 2.375,-1.3125 1.359375,-3.9375 c -0.046875,-0.125 -0.0625,-0.25 -0.0625,-0.328125 0,-0.140625 0.09375,-0.1875 0.4375,-0.21875 v -0.125 H 0.03125 v 0.125 c 0.359375,0.03125 0.46875,0.15625 0.71875,0.8125 l 1.34375,3.75 H 2.203125 L 3.28125,-2.875 4.390625,0.078125 H 4.5 l 1.421875,-4.0625 C 6.046875,-4.34375 6.125,-4.40625 6.5,-4.484375 Z m 0,0"
             style="stroke:none;stroke-width:0"
             inkscape:connector-curvature="0" /></g></g></g><g
       id="g3102"
       ns1:jacobian_sqrt="1.8"
       inkscapeversion="0.92.4"
       ns1:alignment="middle center"
       ns1:scale="1.35"
       ns1:preamble="C:\\texlive\\texmf-local\\tex\\latex\\default_packages_guit.tex"
       ns1:text="$h_\\mathrm{B}$"
       ns1:pdfconverter="pdf2svg"
       ns1:texconverter="pdflatex"
       ns1:version="0.11.0"
       transform="matrix(1.8,0,0,-1.8,167.80124,743.74879)"><g
         id="g3100"><g
           id="g3094"
           style="fill:#000000;fill-opacity:1"><path
             id="path3092"
             transform="translate(148.712,134.765)"
             d="M 4.796875,-1.03125 4.65625,-1.140625 c -0.25,0.328125 -0.59375,0.75 -0.78125,0.75 -0.0625,0 -0.125,-0.0625 -0.125,-0.171875 0,-0.390625 0.828125,-2.71875 0.828125,-3.3125 0,-0.515625 -0.375,-0.6875 -0.609375,-0.6875 -0.875,0 -1.90625,1.4375 -2.359375,2.203125 L 2.875,-7.140625 c 0,0 -1.34375,0.234375 -1.625,0.25 v 0.1875 c 0.390625,0 0.65625,0.03125 0.65625,0.34375 0,0.1875 -0.125,0.65625 -0.1875,0.90625 L 0.234375,0 h 0.75 c 0.03125,-0.125 0.1875,-0.671875 0.1875,-0.671875 C 1.796875,-3 3.125,-4 3.515625,-4 c 0.15625,0 0.28125,0.109375 0.28125,0.296875 0,0.40625 -0.84375,2.859375 -0.84375,3.359375 0.015625,0.25 0.125,0.46875 0.421875,0.46875 0.578125,0 1.09375,-0.671875 1.421875,-1.15625 z m 0,0"
             style="stroke:none;stroke-width:0"
             inkscape:connector-curvature="0" /></g><g
           id="g3098"
           style="fill:#000000;fill-opacity:1"><path
             id="path3096"
             transform="translate(154.242,136.259)"
             d="m 4.125,-1.25 c 0,-0.3125 -0.125,-0.59375 -0.328125,-0.796875 -0.21875,-0.1875 -0.40625,-0.265625 -0.859375,-0.375 0.359375,-0.09375 0.515625,-0.15625 0.671875,-0.3125 0.1875,-0.15625 0.28125,-0.40625 0.28125,-0.6875 0,-0.78125 -0.609375,-1.1875 -1.828125,-1.1875 H 0.125 v 0.125 c 0.578125,0.03125 0.65625,0.109375 0.65625,0.625 v 3.09375 C 0.78125,-0.25 0.703125,-0.15625 0.125,-0.125 V 0 H 2.453125 C 2.984375,0 3.484375,-0.140625 3.75,-0.390625 4,-0.609375 4.125,-0.921875 4.125,-1.25 Z m -0.796875,0 c 0,0.375 -0.140625,0.65625 -0.421875,0.8125 -0.21875,0.125 -0.515625,0.171875 -0.96875,0.171875 -0.34375,0 -0.4375,-0.0625 -0.4375,-0.28125 v -1.71875 c 0.671875,0 1,0.03125 1.25,0.140625 0.390625,0.15625 0.578125,0.4375 0.578125,0.875 z M 3.1875,-3.40625 c 0,0.546875 -0.375,0.859375 -1.03125,0.859375 H 1.5 v -1.59375 c 0,-0.15625 0.046875,-0.21875 0.15625,-0.21875 h 0.296875 c 0.8125,0 1.234375,0.34375 1.234375,0.953125 z m 0,0"
             style="stroke:none;stroke-width:0"
             inkscape:connector-curvature="0" /></g></g></g><g
       transform="matrix(1.8,0,0,-1.8,-114.34931,679.05839)"
       ns1:version="0.11.0"
       ns1:texconverter="pdflatex"
       ns1:pdfconverter="pdf2svg"
       ns1:text="$x_\\mathrm{C}$"
       ns1:preamble="C:\\texlive\\texmf-local\\tex\\latex\\default_packages_guit.tex"
       ns1:scale="1.35"
       ns1:alignment="middle center"
       inkscapeversion="0.92.4"
       ns1:jacobian_sqrt="1.8"
       id="g3122"><g
         id="g3120"><g
           style="fill:#000000;fill-opacity:1"
           id="g3114"><path
             inkscape:connector-curvature="0"
             style="stroke:none;stroke-width:0"
             d="m 5.15625,-4.171875 c 0,-0.265625 -0.234375,-0.390625 -0.421875,-0.390625 -0.5,0 -1.140625,0.75 -1.640625,1.546875 0,-0.015625 -0.078125,-0.34375 -0.078125,-0.34375 -0.15625,-0.65625 -0.34375,-1.03125 -0.6875,-1.203125 0,0 -1.125,0.25 -1.265625,0.28125 v 0.171875 c 0.203125,-0.046875 0.359375,-0.0625 0.46875,-0.0625 0.546875,0 0.640625,0.515625 1.015625,1.953125 C 2.09375,-1.546875 1.390625,-0.4375 1.109375,-0.4375 0.875,-0.4375 0.875,-0.671875 0.5625,-0.671875 c -0.21875,0 -0.359375,0.15625 -0.359375,0.359375 0,0.25 0.1875,0.4375 0.46875,0.4375 0.6875,0 1.34375,-1.25 1.953125,-2.03125 0.03125,0.078125 0.25,0.953125 0.25,0.953125 C 3.125,-0.03125 3.3125,0.125 3.5625,0.125 c 0.3125,0 0.78125,-0.3125 1.25,-1.1875 L 4.671875,-1.140625 c -0.171875,0.21875 -0.453125,0.6875 -0.703125,0.6875 -0.34375,0 -0.546875,-1.40625 -0.796875,-2.296875 0.0625,-0.078125 0.75,-1.203125 1.125,-1.203125 0.1875,0 0.359375,0.171875 0.53125,0.171875 0.25,0 0.328125,-0.203125 0.328125,-0.390625 z m 0,0"
             transform="translate(148.712,134.765)"
             id="path3112" /></g><g
           style="fill:#000000;fill-opacity:1"
           id="g3118"><path
             inkscape:connector-curvature="0"
             style="stroke:none;stroke-width:0"
             d="m 4.40625,-0.78125 -0.125,-0.125 c -0.515625,0.484375 -0.96875,0.703125 -1.546875,0.703125 -0.421875,0 -0.796875,-0.125 -1.09375,-0.375 C 1.234375,-0.921875 1,-1.546875 1,-2.359375 c 0,-1.25 0.65625,-2.078125 1.65625,-2.078125 0.40625,0 0.765625,0.15625 1.046875,0.4375 0.21875,0.21875 0.328125,0.40625 0.453125,0.859375 h 0.171875 l -0.0625,-1.5625 h -0.15625 c -0.046875,0.140625 -0.15625,0.21875 -0.28125,0.21875 -0.078125,0 -0.171875,-0.015625 -0.28125,-0.0625 -0.34375,-0.109375 -0.6875,-0.15625 -1.03125,-0.15625 -0.53125,0 -1.078125,0.1875 -1.5,0.546875 -0.53125,0.4375 -0.828125,1.09375 -0.828125,1.890625 0,1.421875 0.9375,2.359375 2.328125,2.359375 0.78125,0 1.46875,-0.3125 1.890625,-0.875 z m 0,0"
             transform="translate(154.162,136.259)"
             id="path3116" /></g></g></g><g
       id="g3296"
       ns1:jacobian_sqrt="1.8"
       inkscapeversion="0.92.4"
       ns1:alignment="middle center"
       ns1:scale="1.35"
       ns1:preamble="C:\\texlive\\texmf-local\\tex\\latex\\default_packages_guit.tex"
       ns1:text="$l_{1}$"
       ns1:pdfconverter="pdf2svg"
       ns1:texconverter="pdflatex"
       ns1:version="0.11.0"
       transform="matrix(1.8,0,0,-1.8,-123.89561,638.38384)"><g
         id="g3294"><g
           id="g3288"
           style="fill:#000000;fill-opacity:1"><path
             id="path3286"
             transform="translate(148.712,134.765)"
             d="m 2.90625,-7.140625 c 0,0 -1.34375,0.234375 -1.625,0.25 v 0.1875 c 0.390625,0 0.65625,0.03125 0.65625,0.34375 0,0.1875 -0.125,0.671875 -0.1875,0.90625 l -1.140625,4.125 c -0.0625,0.21875 -0.1875,0.71875 -0.1875,0.9375 0,0.203125 0.0625,0.515625 0.421875,0.515625 0.6875,0 1.3125,-0.9375 1.453125,-1.203125 L 2.15625,-1.171875 C 1.859375,-0.703125 1.5,-0.375 1.328125,-0.375 1.21875,-0.375 1.1875,-0.453125 1.1875,-0.5625 c 0,-0.125 0.03125,-0.234375 0.09375,-0.46875 z m 0,0"
             style="stroke:none;stroke-width:0"
             inkscape:connector-curvature="0" /></g><g
           id="g3292"
           style="fill:#000000;fill-opacity:1"><path
             id="path3290"
             transform="translate(151.791,136.259)"
             d="m 3.15625,0 v -0.1875 c -0.53125,0 -0.703125,0 -0.703125,-0.84375 0,-0.015625 0,-3.671875 0,-3.671875 H 2.28125 L 0.9375,-4.125 1.015625,-3.9375 c 0.3125,-0.125 0.375,-0.140625 0.46875,-0.140625 0.203125,0 0.21875,0.171875 0.21875,0.375 v 2.671875 c 0,0.84375 -0.15625,0.828125 -0.6875,0.84375 V 0 Z m 0,0"
             style="stroke:none;stroke-width:0"
             inkscape:connector-curvature="0" /></g></g></g><g
       id="g3484"
       ns1:jacobian_sqrt="1.8"
       inkscapeversion="0.92.4"
       ns1:alignment="middle center"
       ns1:scale="1.35"
       ns1:preamble="C:\\texlive\\texmf-local\\tex\\latex\\default_packages_guit.tex"
       ns1:text="$l_{2}$"
       ns1:pdfconverter="pdf2svg"
       ns1:texconverter="pdflatex"
       ns1:version="0.11.0"
       transform="matrix(1.8,0,0,-1.8,-12.700238,638.38144)"><g
         id="g3482"><g
           id="g3476"
           style="fill:#000000;fill-opacity:1"><path
             id="path3474"
             transform="translate(148.712,134.765)"
             d="m 2.90625,-7.140625 c 0,0 -1.34375,0.234375 -1.625,0.25 v 0.1875 c 0.390625,0 0.65625,0.03125 0.65625,0.34375 0,0.1875 -0.125,0.671875 -0.1875,0.90625 l -1.140625,4.125 c -0.0625,0.21875 -0.1875,0.71875 -0.1875,0.9375 0,0.203125 0.0625,0.515625 0.421875,0.515625 0.6875,0 1.3125,-0.9375 1.453125,-1.203125 L 2.15625,-1.171875 C 1.859375,-0.703125 1.5,-0.375 1.328125,-0.375 1.21875,-0.375 1.1875,-0.453125 1.1875,-0.5625 c 0,-0.125 0.03125,-0.234375 0.09375,-0.46875 z m 0,0"
             style="stroke:none;stroke-width:0"
             inkscape:connector-curvature="0" /></g><g
           id="g3480"
           style="fill:#000000;fill-opacity:1"><path
             id="path3478"
             transform="translate(151.791,136.259)"
             d="M 3.8125,-0.96875 3.59375,-1 c -0.234375,0.359375 -0.421875,0.421875 -0.765625,0.421875 h -1.65625 c 1.1875,-0.984375 2.25,-1.875 2.25,-2.84375 0,-0.734375 -0.703125,-1.25 -1.46875,-1.25 -0.765625,0 -1.375,0.359375 -1.609375,1.375 h 0.25 c 0.21875,-0.390625 0.5,-0.78125 1.078125,-0.78125 0.640625,0 1,0.421875 1,0.921875 0,0.734375 -0.890625,1.796875 -2.40625,2.984375 V 0 h 3.09375 z m 0,0"
             style="stroke:none;stroke-width:0"
             inkscape:connector-curvature="0" /></g></g></g><g
       id="g3678"
       ns1:jacobian_sqrt="1.8"
       inkscapeversion="0.92.4"
       ns1:alignment="middle center"
       ns1:scale="1.35"
       ns1:preamble="C:\\texlive\\texmf-local\\tex\\latex\\default_packages_guit.tex"
       ns1:text="$l_{3}$"
       ns1:pdfconverter="pdf2svg"
       ns1:texconverter="pdflatex"
       ns1:version="0.11.0"
       transform="matrix(1.8,0,0,-1.8,129.50722,638.56815)"><g
         id="g3676"><g
           id="g3670"
           style="fill:#000000;fill-opacity:1"><path
             id="path3668"
             transform="translate(148.712,134.765)"
             d="m 2.90625,-7.140625 c 0,0 -1.34375,0.234375 -1.625,0.25 v 0.1875 c 0.390625,0 0.65625,0.03125 0.65625,0.34375 0,0.1875 -0.125,0.671875 -0.1875,0.90625 l -1.140625,4.125 c -0.0625,0.21875 -0.1875,0.71875 -0.1875,0.9375 0,0.203125 0.0625,0.515625 0.421875,0.515625 0.6875,0 1.3125,-0.9375 1.453125,-1.203125 L 2.15625,-1.171875 C 1.859375,-0.703125 1.5,-0.375 1.328125,-0.375 1.21875,-0.375 1.1875,-0.453125 1.1875,-0.5625 c 0,-0.125 0.03125,-0.234375 0.09375,-0.46875 z m 0,0"
             style="stroke:none;stroke-width:0"
             inkscape:connector-curvature="0" /></g><g
           id="g3674"
           style="fill:#000000;fill-opacity:1"><path
             id="path3672"
             transform="translate(151.791,136.259)"
             d="m 3.546875,-1.53125 c 0,-0.71875 -0.421875,-1.03125 -0.875,-1.203125 0.46875,-0.328125 0.625,-0.640625 0.625,-1.015625 0,-0.40625 -0.375,-0.953125 -1.234375,-0.953125 -0.625,0 -1.21875,0.296875 -1.484375,1.109375 l 0.203125,0.046875 c 0.15625,-0.28125 0.46875,-0.625 1,-0.625 0.515625,0 0.8125,0.3125 0.8125,0.671875 0,0.515625 -0.453125,0.890625 -1.140625,1.046875 L 1.421875,-2.25 C 2.625,-2.296875 2.90625,-1.609375 2.90625,-1.203125 c 0,0.484375 -0.390625,0.9375 -0.90625,0.9375 -0.5,0 -0.71875,-0.390625 -1.125,-0.390625 -0.171875,0 -0.34375,0.140625 -0.34375,0.328125 0,0.296875 0.5,0.40625 0.875,0.40625 1.234375,0 2.140625,-0.65625 2.140625,-1.609375 z m 0,0"
             style="stroke:none;stroke-width:0"
             inkscape:connector-curvature="0" /></g></g></g><path
       d="M 89.603224,751.6396 H 190.8884"
       style="fill:none;stroke:#000000;stroke-width:0.92400002;stroke-linecap:round;stroke-linejoin:round;stroke-miterlimit:10;stroke-dasharray:none;stroke-opacity:1;marker-end:url(#Arrow1Mend)"
       id="path3692"
       inkscape:connector-curvature="0"
       sodipodi:nodetypes="cc" /><path
       d="m 192.6336,747.5554 v 8.1684"
       style="fill:none;stroke:#000000;stroke-width:0.92417639;stroke-linecap:butt;stroke-linejoin:miter;stroke-miterlimit:10;stroke-dasharray:none;stroke-opacity:1"
       id="path3694"
       inkscape:connector-curvature="0" /><path
       d="M 192.6336,747.5554 V 693.99902"
       style="fill:none;stroke:#808080;stroke-width:0.52500004;stroke-linecap:butt;stroke-linejoin:miter;stroke-miterlimit:10;stroke-dasharray:none;stroke-opacity:1"
       id="path4062"
       inkscape:connector-curvature="0"
       sodipodi:nodetypes="cc" /><g
       id="g4690"
       ns1:jacobian_sqrt="1.8"
       inkscapeversion="0.92.4"
       ns1:alignment="middle center"
       ns1:scale="1.35"
       ns1:preamble="C:\\texlive\\texmf-local\\tex\\latex\\default_packages_guit.tex"
       ns1:text="$x_{\\mathrm{C},A}$"
       ns1:pdfconverter="pdf2svg"
       ns1:texconverter="pdflatex"
       ns1:version="0.11.0"
       transform="matrix(1.8,0,0,-1.8,-142.68091,1003.5939)"><g
         id="g4688"><g
           id="g4676"
           style="fill:#000000;fill-opacity:1"><path
             id="path4674"
             transform="translate(148.712,134.765)"
             d="m 5.15625,-4.171875 c 0,-0.265625 -0.234375,-0.390625 -0.421875,-0.390625 -0.5,0 -1.140625,0.75 -1.640625,1.546875 0,-0.015625 -0.078125,-0.34375 -0.078125,-0.34375 -0.15625,-0.65625 -0.34375,-1.03125 -0.6875,-1.203125 0,0 -1.125,0.25 -1.265625,0.28125 v 0.171875 c 0.203125,-0.046875 0.359375,-0.0625 0.46875,-0.0625 0.546875,0 0.640625,0.515625 1.015625,1.953125 C 2.09375,-1.546875 1.390625,-0.4375 1.109375,-0.4375 0.875,-0.4375 0.875,-0.671875 0.5625,-0.671875 c -0.21875,0 -0.359375,0.15625 -0.359375,0.359375 0,0.25 0.1875,0.4375 0.46875,0.4375 0.6875,0 1.34375,-1.25 1.953125,-2.03125 0.03125,0.078125 0.25,0.953125 0.25,0.953125 C 3.125,-0.03125 3.3125,0.125 3.5625,0.125 c 0.3125,0 0.78125,-0.3125 1.25,-1.1875 L 4.671875,-1.140625 c -0.171875,0.21875 -0.453125,0.6875 -0.703125,0.6875 -0.34375,0 -0.546875,-1.40625 -0.796875,-2.296875 0.0625,-0.078125 0.75,-1.203125 1.125,-1.203125 0.1875,0 0.359375,0.171875 0.53125,0.171875 0.25,0 0.328125,-0.203125 0.328125,-0.390625 z m 0,0"
             style="stroke:none;stroke-width:0"
             inkscape:connector-curvature="0" /></g><g
           id="g4680"
           style="fill:#000000;fill-opacity:1"><path
             id="path4678"
             transform="translate(154.162,136.259)"
             d="m 4.40625,-0.78125 -0.125,-0.125 c -0.515625,0.484375 -0.96875,0.703125 -1.546875,0.703125 -0.421875,0 -0.796875,-0.125 -1.09375,-0.375 C 1.234375,-0.921875 1,-1.546875 1,-2.359375 c 0,-1.25 0.65625,-2.078125 1.65625,-2.078125 0.40625,0 0.765625,0.15625 1.046875,0.4375 0.21875,0.21875 0.328125,0.40625 0.453125,0.859375 h 0.171875 l -0.0625,-1.5625 h -0.15625 c -0.046875,0.140625 -0.15625,0.21875 -0.28125,0.21875 -0.078125,0 -0.171875,-0.015625 -0.28125,-0.0625 -0.34375,-0.109375 -0.6875,-0.15625 -1.03125,-0.15625 -0.53125,0 -1.078125,0.1875 -1.5,0.546875 -0.53125,0.4375 -0.828125,1.09375 -0.828125,1.890625 0,1.421875 0.9375,2.359375 2.328125,2.359375 0.78125,0 1.46875,-0.3125 1.890625,-0.875 z m 0,0"
             style="stroke:none;stroke-width:0"
             inkscape:connector-curvature="0" /></g><g
           id="g4686"
           style="fill:#000000;fill-opacity:1"><path
             id="path4682"
             transform="translate(158.813,136.259)"
             d="M 0.609375,1.140625 C 0.8125,1.09375 0.90625,1.046875 1.09375,0.9375 c 0.328125,-0.21875 0.5625,-0.53125 0.5625,-1.078125 0,-0.53125 -0.25,-0.765625 -0.578125,-0.765625 -0.296875,0 -0.484375,0.1875 -0.484375,0.46875 0,0.265625 0.1875,0.4375 0.4375,0.4375 0.078125,0 0.15625,-0.015625 0.234375,-0.0625 0.03125,-0.015625 0.03125,-0.015625 0.046875,-0.015625 0.03125,0 0.046875,0.0625 0.046875,0.140625 0,0.078125 0,0.578125 -0.75,0.859375 z m 0,0"
             style="stroke:none;stroke-width:0"
             inkscape:connector-curvature="0" /><path
             id="path4684"
             transform="translate(161.05856,136.259)"
             d="m 5.140625,-0.21875 c -0.515625,0 -0.5625,-0.21875 -0.578125,-0.6875 L 4.375,-5.140625 H 4.15625 l -3,4.359375 c -0.34375,0.484375 -0.515625,0.5625 -0.765625,0.5625 L 0.359375,0 h 1.5 l 0.03125,-0.21875 c -0.28125,0 -0.4375,-0.046875 -0.4375,-0.234375 0,-0.109375 0.0625,-0.265625 0.1875,-0.453125 l 0.515625,-0.75 H 3.703125 L 3.75,-0.78125 c 0,0.515625 -0.21875,0.5625 -0.640625,0.5625 L 3.0625,0 H 5.09375 Z M 3.6875,-2 H 2.40625 l 1.203125,-1.75 z m 0,0"
             style="stroke:none;stroke-width:0"
             inkscape:connector-curvature="0" /></g></g></g></g></svg>